<svg xmlns="http://www.w3.org/2000/svg" xmlns:xlink="http://www.w3.org/1999/xlink" width="295" height="197" viewBox="0 0 295 197">
  <defs>
    <clipPath id="clip-path">
      <rect id="Rectángulo_415651" data-name="Rectángulo 415651" width="295" height="197" transform="translate(180 618)" fill="#fff" stroke="#707070" stroke-width="1" opacity="0.84"/>
    </clipPath>
  </defs>
  <g id="Enmascarar_grupo_1098805" data-name="Enmascarar grupo 1098805" transform="translate(-180 -618)" clip-path="url(#clip-path)">
    <g id="Grupo_1179077" data-name="Grupo 1179077" transform="translate(12.074 16.464)">
      <ellipse id="Elipse_12389" data-name="Elipse 12389" cx="116.5" cy="110" rx="116.5" ry="110" transform="translate(198.926 663.536)" fill="#ebe9f0" opacity="0.66"/>
      <g id="Grupo_1179076" data-name="Grupo 1179076" transform="translate(222.748 601.044)">
        <g id="Grupo_1179064" data-name="Grupo 1179064" transform="translate(0 145.849)">
          <path id="Trazado_1038434" data-name="Trazado 1038434" d="M1534.666,1323.452a4.316,4.316,0,0,1,3.748-1.018,11.578,11.578,0,0,1-2.9-2.117,4.76,4.76,0,0,1-1.135-1.578,2.234,2.234,0,0,1,.052-1.894,2.368,2.368,0,0,1,2.228-1.034,6.971,6.971,0,0,1,2.452.788,5.335,5.335,0,0,1-1.131-1.763,2.3,2.3,0,0,1,.119-1.966,2.437,2.437,0,0,1,2.409-.956,7.161,7.161,0,0,1,2.52,1.035l5.83,3.32a8.919,8.919,0,0,0-.57-2.066,3.972,3.972,0,0,1-.3-1.985,1.626,1.626,0,0,1,1.291-1.384,2.1,2.1,0,0,1,1.6.745,11.627,11.627,0,0,1,2,2.839,37.67,37.67,0,0,1,3.2,7.959c3.915,3.518,13.29,11.753,22.413,18.348,13.493-4.649,25.5-15.271,25.5-15.271l17.808,22.092s-32.512,14.824-45.1,15.028l-27.79-33.516a49.61,49.61,0,0,1-6.471-.419,19.275,19.275,0,0,1-7.278-2.45c-.552-.337-1.137-.8-1.166-1.452A1.737,1.737,0,0,1,1534.666,1323.452Z" transform="translate(-1533.996 -1310.825)" fill="#f7b294"/>
          <path id="Trazado_1038435" data-name="Trazado 1038435" d="M2038.714,1373.123a10.812,10.812,0,0,0,4.05-.373,21.769,21.769,0,0,0,3.638-1.848c.281-.141.683.167.47.47-1.683,2.4-5.424,3.182-8.158,2.857C2038.021,1374.148,2038,1373.061,2038.714,1373.123Z" transform="translate(-2031.87 -1362.204)" fill="#d17656"/>
          <path id="Trazado_1038436" data-name="Trazado 1038436" d="M1551.9,1427.472c13.493-4.65,25.5-15.271,25.5-15.271l17.808,22.093s-23.371,10.655-38.157,14.022C1552.863,1435,1542.649,1424.1,1534,1413.1,1538.693,1417.175,1545.362,1422.745,1551.9,1427.472Z" transform="translate(-1507.404 -1397.573)" opacity="0.2"/>
        </g>
        <g id="Grupo_1179065" data-name="Grupo 1179065" transform="translate(126.237 64.666)">
          <path id="Trazado_1038437" data-name="Trazado 1038437" d="M881.666,806c6.726-11.68,13.313-34.1,14.916-39.748a37.657,37.657,0,0,1-1.59-8.751,11.634,11.634,0,0,1,.19-3.465,2.1,2.1,0,0,1,.965-1.479,1.626,1.626,0,0,1,1.828.491,3.973,3.973,0,0,1,.8,1.84,8.9,8.9,0,0,0,.61,2.055l3.19-5.9a7.161,7.161,0,0,1,1.59-2.212,2.437,2.437,0,0,1,2.55-.464,2.3,2.3,0,0,1,1.141,1.606,5.331,5.331,0,0,1-.027,2.095,6.969,6.969,0,0,1,1.663-1.966,2.369,2.369,0,0,1,2.438-.3,2.235,2.235,0,0,1,1.046,1.579,4.757,4.757,0,0,1-.128,1.94,11.577,11.577,0,0,1-1.34,3.331,4.315,4.315,0,0,1,3.719-1.12,1.734,1.734,0,0,1,1.247.735,2.033,2.033,0,0,1-.221,1.849,19.27,19.27,0,0,1-4.878,5.931,49.721,49.721,0,0,1-5.275,3.784c-.2,3.875-1.873,34.962-5.273,46.149-3.629,11.94-27.28,39.119-27.28,39.119L857.43,829.74S873.932,819.432,881.666,806Z" transform="translate(-857.43 -748.175)" fill="#f7b294"/>
          <path id="Trazado_1038438" data-name="Trazado 1038438" d="M986.937,1084.094s16.5-10.31,24.236-23.74a110.271,110.271,0,0,0,6.767-14.938,185.972,185.972,0,0,0,9.5,29.267c-7.383,13.223-24.388,32.765-24.388,32.765Z" transform="translate(-986.937 -1002.528)" opacity="0.2"/>
        </g>
        <path id="Trazado_1038439" data-name="Trazado 1038439" d="M904.406,817.261a24.1,24.1,0,0,0,7.62-2.529.357.357,0,0,1,.36.616,18.416,18.416,0,0,1-7.686,2.982C904.007,818.429,903.7,817.374,904.406,817.261Z" transform="translate(-733.844 -740.421)" fill="#d17656"/>
        <path id="Trazado_1038440" data-name="Trazado 1038440" d="M1615.2,1401.6a200.975,200.975,0,0,0,24.363-15.652c.965,10.922,1.93,22.423,1.453,33.377a80.372,80.372,0,0,1-21.629,7.276C1616.341,1418.5,1615.811,1410.237,1615.2,1401.6Z" transform="translate(-1565.046 -1229.262)" fill="#53b7b0"/>
        <path id="Trazado_1038441" data-name="Trazado 1038441" d="M1009.393,1188.957a112.175,112.175,0,0,0,22.142-22.509c6.722,6.032,12.536,12.8,16.445,20.946a165.025,165.025,0,0,1-27.054,38.034C1017.648,1213.232,1012.673,1201.153,1009.393,1188.957Z" transform="translate(-884.477 -1041.431)" fill="#53b7b0"/>
        <path id="Trazado_1038442" data-name="Trazado 1038442" d="M1704.637,1511.236a80.247,80.247,0,0,1-11.05,2.859c-3.044-8.1-3.572-16.368-4.187-25q.8-.453,1.59-.9A77.439,77.439,0,0,0,1704.637,1511.236Z" transform="translate(-1639.25 -1316.753)" opacity="0.2"/>
        <path id="Trazado_1038443" data-name="Trazado 1038443" d="M1010.777,1166.45c6.722,6.032,12.536,12.8,16.445,20.946q-3.283,6.365-7.114,12.427c-1.325-11.149-5.368-21.78-10.714-31.555C1009.861,1167.666,1010.324,1167.06,1010.777,1166.45Z" transform="translate(-863.719 -1041.432)" opacity="0.2"/>
        <path id="Trazado_1038444" data-name="Trazado 1038444" d="M1145.186,1277.72c8.258,29.631,18.786,66.967,20.088,98.092-27.61,7.513-53.282,10.246-81.113,3.941.176-14.7,1.664-67.386,2.08-85.9C1098.1,1282.418,1133.122,1282.712,1145.186,1277.72Z" transform="translate(-1012.558 -1136.647)" fill="#73d8d3"/>
        <path id="Trazado_1038445" data-name="Trazado 1038445" d="M1378.2,1308.882a1.8,1.8,0,0,1,1.316,1.928,2.5,2.5,0,0,1-1.225,1.383,23.722,23.722,0,0,1-17.48,3.321c-.894-.183-1.913-.539-2.194-1.407a1.856,1.856,0,0,1,.658-1.884,5.045,5.045,0,0,1,1.9-.9,65.642,65.642,0,0,1,9.081-1.944c1.5-.229,3.054-.55,4.573-.627A10.286,10.286,0,0,1,1378.2,1308.882Z" transform="translate(-1266.426 -1163.14)" fill="#53b7b0"/>
        <g id="Grupo_1179066" data-name="Grupo 1179066" transform="translate(94.325 133.268)">
          <path id="Trazado_1038446" data-name="Trazado 1038446" d="M1388.58,1223.63l3.791,15.166a24.471,24.471,0,0,1-16.252,1.939c-.106-5.167.368-10.266.715-15.418C1380.882,1224.954,1384.531,1223.992,1388.58,1223.63Z" transform="translate(-1376.104 -1223.63)" fill="#f7b294"/>
          <path id="Trazado_1038447" data-name="Trazado 1038447" d="M1401.813,1223.63l1.88,7.519a28.18,28.18,0,0,0-14.34,6.784c.066-4.214.431-8.4.715-12.617C1394.115,1224.954,1397.764,1223.992,1401.813,1223.63Z" transform="translate(-1389.337 -1223.63)" opacity="0.4"/>
        </g>
        <g id="Grupo_1179071" data-name="Grupo 1179071" transform="translate(10.222 0)">
          <g id="Grupo_1179067" data-name="Grupo 1179067" transform="translate(111.538 59.73)">
            <path id="Trazado_1038448" data-name="Trazado 1038448" d="M1162.984,725.775a10.191,10.191,0,0,1,.971-6.61,9.821,9.821,0,0,1,18.2,2.426,13.662,13.662,0,0,1-1.152,8.454,17.826,17.826,0,0,1-4.569,6.3,13.79,13.79,0,0,1-7.178,3.309C1167.134,734.992,1163.941,730.842,1162.984,725.775Z" transform="translate(-1162.806 -713.967)" fill="#f7b294"/>
            <path id="Trazado_1038449" data-name="Trazado 1038449" d="M1183.04,770.766c.962-1.409,2.4-2.824,4.115-2.83a3.333,3.333,0,0,1,3.134,2.725,7.45,7.45,0,0,1-.77,4.405,25.427,25.427,0,0,1-4.471,6.714c-.923,1.024-2.008,1.928-3.46,1.649-1.022-.2-1.341-.828-1.462-1.758a15.374,15.374,0,0,1,.96-7.117A17.4,17.4,0,0,1,1183.04,770.766Z" transform="translate(-1173.262 -760.149)" fill="#d17656"/>
            <path id="Trazado_1038450" data-name="Trazado 1038450" d="M1197.142,781.671a15.377,15.377,0,0,1,.96-7.117,17.369,17.369,0,0,1,1.954-3.788c.962-1.409,2.4-2.824,4.115-2.83a2.86,2.86,0,0,1,.775.106c-4.416,3.752-5.654,9.505-4.432,15.059a2.751,2.751,0,0,1-1.912.327C1197.58,783.233,1197.263,782.6,1197.142,781.671Z" transform="translate(-1190.279 -760.149)" opacity="0.2"/>
            <path id="Trazado_1038451" data-name="Trazado 1038451" d="M1183.766,725.784a10.191,10.191,0,0,1,.971-6.61,9.927,9.927,0,0,1,5.281-4.648,9.753,9.753,0,0,1,5.936-.168,122.6,122.6,0,0,0,4.244,18.586,16.761,16.761,0,0,1-2.981,3.414,13.787,13.787,0,0,1-7.178,3.309C1187.916,735,1184.723,730.85,1183.766,725.784Z" transform="translate(-1183.588 -713.975)" opacity="0.4"/>
          </g>
          <path id="Trazado_1038452" data-name="Trazado 1038452" d="M1194.154,596.056c6.311,9.635,14.7,21.132,31.419,25.344,17.339,4.369,35.493,1.192,46.587-9.5,6.233-6.008,11.109-13.49,13.184-21.891a38.932,38.932,0,0,0,.987-12.35,61.727,61.727,0,0,0-3.024-14.307,54.931,54.931,0,0,0-2.476-7.227c-9.017-18.644-17.324-32.166-25.888-42.553-2.905-3.522-3.992,3.494-8.715,3.557a97.585,97.585,0,0,0-48.207,13.655c-6.4,3.8-12.495,8.48-16.4,14.715s-5.847,13.245-3.006,19.763C1183.217,575.817,1187.844,586.425,1194.154,596.056Z" transform="translate(-1157.388 -481.909)" fill="#f7b294"/>
          <path id="Trazado_1038453" data-name="Trazado 1038453" d="M1353.665,725.911a5.42,5.42,0,0,1,2,1.268,2.642,2.642,0,0,1,.737,2.186c-.223,1.263-1.519,2.017-2.721,2.465a18.031,18.031,0,0,1-7.786,1.064,5.127,5.127,0,0,1-3.333-1.243,3,3,0,0,1-.764-2.664c.458-2.147,3.035-3.2,4.924-3.615A11.835,11.835,0,0,1,1353.665,725.911Z" transform="translate(-1251.108 -663.75)" fill="#c95a2f"/>
          <path id="Trazado_1038454" data-name="Trazado 1038454" d="M1390.479,940.378c2.2-1.728,4.8-4,3.412-7.687-1.436-3.806-5.985-3.2-8.145-1.567-.237.178-.547-.28-.352-.49,2.222-2.4,7.159-2.84,9.238,1.083,2.2,4.155-.423,8.261-3.434,9.952C1390.476,942.075,1389.866,940.86,1390.479,940.378Z" transform="translate(-1296.411 -838.073)" fill="#d17656"/>
          <path id="Trazado_1038455" data-name="Trazado 1038455" d="M1195.117,835.889a61.734,61.734,0,0,0-3.024-14.308c-.778-2.422-1.63-4.824-2.477-7.227-4.96.484-9.647,4.972-11.063,9.491a10.142,10.142,0,0,0-.4,4.275C1179.123,835.949,1188.657,838.986,1195.117,835.889Z" transform="translate(-1066.175 -740.139)" fill="#e7363e" opacity="0.2"/>
          <path id="Trazado_1038456" data-name="Trazado 1038456" d="M1573.286,1031.373a12.043,12.043,0,0,0,3.053,6.486,11.676,11.676,0,0,0,9.839,4.267c9-.948,14.281-14.069,6.779-20.1a10.167,10.167,0,0,0-3.844-1.912c-5.378-1.376-13.08,1.086-15.135,6.659A9.94,9.94,0,0,0,1573.286,1031.373Z" transform="translate(-1524.608 -915.89)" fill="#e7363e" opacity="0.2"/>
          <g id="Grupo_1179068" data-name="Grupo 1179068" transform="translate(72.005 101.418)">
            <path id="Trazado_1038457" data-name="Trazado 1038457" d="M1301.532,1109.37c-.073.2-.147.4-.221.6a27.14,27.14,0,0,1-28.771,17.461C1277.86,1117.408,1289.593,1110.8,1301.532,1109.37Z" transform="translate(-1258.224 -1094.006)" fill="#e7363e"/>
            <path id="Trazado_1038458" data-name="Trazado 1038458" d="M1261.153,1025.234a6.7,6.7,0,0,1,.9-2.991,9.591,9.591,0,0,1,2.862-3.083c5.091-3.574,12.4-4.767,18.186-6.9a68.392,68.392,0,0,0,12.531-5.9c2.31-1.424,5.359-4.841,7.921-2.891a3.7,3.7,0,0,1,.61.568c3.186,3.654,1.813,9.985.292,14.209-11.941,1.432-23.674,8.034-28.992,18.059a21.5,21.5,0,0,1-10.977-4.553A8.265,8.265,0,0,1,1261.153,1025.234Z" transform="translate(-1261.146 -1002.888)" fill="#c11e2a"/>
          </g>
          <path id="Trazado_1038459" data-name="Trazado 1038459" d="M1233.609,1080.833c15.891-3,27.621-12.834,35.473-25.806a46.6,46.6,0,0,1-12.957,21.05c-11.093,10.693-29.247,13.87-46.587,9.5a44.985,44.985,0,0,1-23.047-14.132C1201.084,1079.032,1216.729,1084.313,1233.609,1080.833Z" transform="translate(-1141.353 -946.085)" opacity="0.2"/>
          <path id="Trazado_1038460" data-name="Trazado 1038460" d="M1569.4,952.651a1.32,1.32,0,0,1-.477,1.126,1.2,1.2,0,0,1-.954.038,3.974,3.974,0,0,1-2.128-1.658,6.922,6.922,0,0,1-.962-2.56,3.348,3.348,0,0,1-.043-1.308c.379-1.771,2.028-.968,2.829-.1A6.242,6.242,0,0,1,1569.4,952.651Z" transform="translate(-1496.262 -853.845)" fill="#441e04"/>
          <path id="Trazado_1038461" data-name="Trazado 1038461" d="M1225.5,545.5c3.907-6.234,10.007-10.914,16.4-14.715a97.586,97.586,0,0,1,48.207-13.655c4.723-.063,5.809-7.079,8.715-3.558,8.337,10.113,16.432,23.2,25.176,41.091a14.633,14.633,0,0,1-10.79-4.04,21.1,21.1,0,0,1-6.074,4.773c-8.243,3.471-16.053-3.471-20.392-10.413-.868,4.773-7.376,7.376-10.413,2.6-1.3,3.9-3.471,8.677-8.243,8.243a23.529,23.529,0,0,1-12.582-6.508,11.381,11.381,0,0,1-2.169,8.244c-1.3,2.169-5.206,1.736-7.376,0,3.9,5.64,3.037,13.016-4.339,14.318a7.055,7.055,0,0,1,3.9,8.244,31.415,31.415,0,0,1-8.547,14.281c-5.776-9.186-10.142-19.188-14.485-29.146C1219.656,558.745,1221.59,551.732,1225.5,545.5Z" transform="translate(-1201.274 -481.911)" opacity="0.2"/>
          <g id="Grupo_1179069" data-name="Grupo 1179069" transform="translate(0)">
            <path id="Trazado_1038462" data-name="Trazado 1038462" d="M1627.405,842.28a5.428,5.428,0,0,0,.024,2.37,2.641,2.641,0,0,0,1.47,1.777c1.192.475,2.514-.229,3.528-1.016a18.029,18.029,0,0,0,5-6.061,5.129,5.129,0,0,0,.7-3.488,3,3,0,0,0-1.864-2.051c-2.066-.741-4.314.9-5.666,2.285A11.843,11.843,0,0,0,1627.405,842.28Z" transform="translate(-1574.094 -756.631)" fill="#c95a2f"/>
            <path id="Trazado_1038463" data-name="Trazado 1038463" d="M1355.454,855.4a1.32,1.32,0,0,1-.477,1.126,1.2,1.2,0,0,1-.954.038,3.976,3.976,0,0,1-2.128-1.658,6.916,6.916,0,0,1-.962-2.56,3.344,3.344,0,0,1-.044-1.308c.379-1.771,2.028-.968,2.829-.1A6.253,6.253,0,0,1,1355.454,855.4Z" transform="translate(-1251.443 -770.629)" fill="#441e04"/>
            <path id="Trazado_1038464" data-name="Trazado 1038464" d="M1253.851,657.783a4.168,4.168,0,0,0,3.365.463c1.641-.719,1.806-2.977,1.485-4.74a20.749,20.749,0,0,0-4.9-10.033,11.856,11.856,0,0,0-6.8-4.135c-1.851-.281-4.856.217-5.978,1.948-1.234,1.9.635,4.509,1.726,6.339A26.069,26.069,0,0,0,1253.851,657.783Z" transform="translate(-1138.917 -590.313)" fill="#e27441"/>
            <path id="Trazado_1038465" data-name="Trazado 1038465" d="M1308.687,356.394a5.059,5.059,0,0,0,6.061,2.053,5,5,0,0,0,2.881-5.683,4.206,4.206,0,0,0,4.008-2.746,5.417,5.417,0,0,0-.771-4.923c-1-1.413-3.377-1.988-5.04-2.49a14.319,14.319,0,0,0,8.53-9.978,11.994,11.994,0,0,0-4.566-12.044,10.524,10.524,0,0,0-12.676.555c2.478-4.586.282-11.481-4.15-14.254a10.89,10.89,0,0,0-14.021,2.666,9.734,9.734,0,0,0-19.318,1.425c.015-3.513-2.7-7.044-5.692-8.911a15.391,15.391,0,0,0-10.214-1.891,20.116,20.116,0,0,0-16.81,17.955,11.85,11.85,0,0,0-14.647.048,11.67,11.67,0,0,0-2.548,14.335c-3.206-2.125-8.126.078-9.882,3.487s-1.113,7.6.477,11.091a8.376,8.376,0,0,0-11.114,3.906,8.287,8.287,0,0,0,4.817,10.693,8.763,8.763,0,0,0-3.664,9.034,7.894,7.894,0,0,0,7.292,5.6,5.321,5.321,0,0,0-2.792,6.655,5.377,5.377,0,0,0,6.656,2.867c-2.887,2.032-3.875,6.388-2.759,9.725a8.558,8.558,0,0,0,8.109,5.661,4.149,4.149,0,0,0,.409,6.088,4.207,4.207,0,0,0,5.966-1.44,7.111,7.111,0,0,0,1.064,6.741,7.212,7.212,0,0,0,6.326,2.65,4.894,4.894,0,0,0,4.391,4.16c2.188.151,3.438-13.319,1.533-13,1.828-.872,3.64-5.3,3.449-7.3-.452-4.762-2.438-5.894-7.057-7.234,3.322-1.841,6.624-4.833,7.716-8.454a14.8,14.8,0,0,0-1.048-11.011,6.614,6.614,0,0,0,7.262-3.8,9.36,9.36,0,0,0-.768-8.489,18.325,18.325,0,0,0,8.722,6.453,12.038,12.038,0,0,0,10.7-1.1c3.059-2.114,4.733-6.244,3.5-9.738.264,3.388,3.671,6,7.088,5.872s6.211-4.219,4.6-7.218a24.644,24.644,0,0,0,9.052,10.476,15.52,15.52,0,0,0,13.5,1.5C1307.625,364.632,1309.13,361.04,1308.687,356.394Z" transform="translate(-1198.619 -300)" fill="#e27441"/>
            <path id="Trazado_1038466" data-name="Trazado 1038466" d="M1286.58,385.858c4.345,3.95,2.431,9.964.785,14.937a10.684,10.684,0,0,1,6.086-3.071,7.477,7.477,0,0,1,7.1,3.208,6.61,6.61,0,0,1-.793,7.514c-2.183,2.748-5.755,3.612-9.106,3.743-.718.028-.71-1.069,0-1.112,2.83-.171,5.822-.772,7.85-2.925,1.9-2.017,2.456-5.235.462-7.381-3.9-4.2-9.651-.911-12.512,2.67-.355.444-1.081-.038-.929-.54,1.323-4.357,3.789-9.129,2-13.712a5.464,5.464,0,0,0-5.285-3.8,5.765,5.765,0,0,0-5.14,4.458c-.1.446-.725.243-.667-.184C1277.07,384.979,1283.022,382.623,1286.58,385.858Z" transform="translate(-1186.635 -372.19)" fill="#c95a2f"/>
            <path id="Trazado_1038467" data-name="Trazado 1038467" d="M1515.9,373.007c5.482-.864,10.17,2.462,12.747,7.013.78-2.765,2.469-6.468,5.2-6.662,3.524-.251,3.959,4.039,3.734,6.514a.359.359,0,0,1-.719,0,9.694,9.694,0,0,0-.352-3.336c-.9-2.341-3.406-2.16-4.713-.388a13.45,13.45,0,0,0-2.368,5.767.605.605,0,0,1-1.1.143c-1.957-4.27-5.707-7.871-10.651-7.919-5.22-.051-9.548,4.556-8.024,9.808a.59.59,0,0,1-1.137.314C1506.812,379.018,1510.647,373.835,1515.9,373.007Z" transform="translate(-1456.313 -362.355)" fill="#c95a2f"/>
            <path id="Trazado_1038468" data-name="Trazado 1038468" d="M1544.521,616.441c2.166,2.243,5.392,5.6,8.774,3.691,3.148-1.781,2.916-6.971,2.429-10.034-.077-.481.415-1.032.909-.7,2.074,1.4,4.5,3.168,7.1,3.267,3.337.127,4.241-3.218,3.542-5.876a.319.319,0,0,1,.614-.169c.744,2.272.547,5.3-1.806,6.569-2.838,1.528-6.337-.372-8.949-2.008.431,3.571.144,8.3-3.123,10.182-3.975,2.287-7.916-1.241-10.371-4.042C1543.114,616.725,1543.958,615.858,1544.521,616.441Z" transform="translate(-1492.053 -562.189)" fill="#c95a2f"/>
            <path id="Trazado_1038469" data-name="Trazado 1038469" d="M1785.668,740.775a9.858,9.858,0,0,0,3.9.906c2.3-.169,3-2.172,2.862-4.136A13.655,13.655,0,0,0,1789,729.62a.631.631,0,0,1,.441-1.064,10.41,10.41,0,0,0,5.92-1.945c2.023-1.473,4.649-6.312.081-6.736-.382-.036-.548-.668-.1-.732,3.039-.434,4.392,2.937,3.291,5.406-1.357,3.043-4.767,4.694-7.974,5.139,2.109,2.754,3.732,6.535,3,9.961-.886,4.145-5.31,3.583-8.321,2.342C1784.6,741.69,1784.892,740.494,1785.668,740.775Z" transform="translate(-1757.624 -658.634)" fill="#c95a2f"/>
            <path id="Trazado_1038470" data-name="Trazado 1038470" d="M1953.069,826.8a.319.319,0,0,1,.322.55c-.922.707-2.133,1.615-2.443,2.816-.741,2.867,2.35,3.056,4.167,2.691.458-.092.958.4.656.853-1.913,2.858-4.29,7.009-.849,9.734.538.426-.177,1.365-.739.958-3.667-2.651-2.057-7-.091-10.226-1.773.174-3.731-.074-4.356-2.01C1949.026,829.968,1951.271,827.635,1953.069,826.8Z" transform="translate(-1938.24 -750.755)" fill="#c95a2f"/>
            <path id="Trazado_1038471" data-name="Trazado 1038471" d="M1814.036,501.974a4.422,4.422,0,0,1,3.3-3.7,9.487,9.487,0,0,1,7.147.951c-1.066-3.471-1.254-7.171,1.223-10.159,2.443-2.947,7.422-3.227,9.457.326a.326.326,0,0,1-.562.328c-2.437-3.988-7.674-1.942-9.136,1.678-1.289,3.194-.389,6.477.967,9.482a5.482,5.482,0,0,1,1.091,2.258c.157.714-.89,1.253-1.243.524-.258-.532-.513-1.084-.758-1.65-1.336-1.867-4.051-2.692-6.28-2.594-1.944.086-3.794.993-3.792,3.221,0,1.817,1.4,3.422,2.478,4.747.539.664-.366,1.619-.959.959C1815.39,506.586,1813.722,504.5,1814.036,501.974Z" transform="translate(-1798.018 -459.836)" fill="#c95a2f"/>
            <path id="Trazado_1038472" data-name="Trazado 1038472" d="M1342.717,670.556a5.521,5.521,0,0,0,6.517,3.549c2.659-.655,4.241-2.706,5.636-4.888.193-.3.74-.115.607.256a9.1,9.1,0,0,1-7.181,6.033,6.325,6.325,0,0,1-6.913-4.582A.692.692,0,0,1,1342.717,670.556Z" transform="translate(-1250.115 -615.814)" fill="#c95a2f"/>
          </g>
          <g id="Grupo_1179070" data-name="Grupo 1179070" transform="translate(26.241 107.526)">
            <path id="Trazado_1038473" data-name="Trazado 1038473" d="M1732.907,1047.9a10.19,10.19,0,0,0-6.132-2.653,9.821,9.821,0,0,0-7.516,16.753,13.663,13.663,0,0,0,7.795,3.47,17.826,17.826,0,0,0,7.764-.568,13.788,13.788,0,0,0,6.592-4.362C1738.56,1056.278,1736.712,1051.378,1732.907,1047.9Z" transform="translate(-1716.378 -1045.223)" fill="#f7b294"/>
            <path id="Trazado_1038474" data-name="Trazado 1038474" d="M1741.416,1115.886c-1.7.077-3.663.553-4.572,2.01a3.333,3.333,0,0,0,.668,4.1,7.447,7.447,0,0,0,4.151,1.663,25.429,25.429,0,0,0,8.062-.268c1.356-.246,2.7-.693,3.223-2.074a1.717,1.717,0,0,0-.726-2.168,15.381,15.381,0,0,0-6.557-2.93A17.388,17.388,0,0,0,1741.416,1115.886Z" transform="translate(-1730.951 -1105.675)" fill="#d17656"/>
            <path id="Trazado_1038475" data-name="Trazado 1038475" d="M1752.1,1119.146a15.385,15.385,0,0,0-6.557-2.929,17.375,17.375,0,0,0-4.249-.331c-1.7.077-3.663.553-4.572,2.01a2.866,2.866,0,0,0-.318.715c5.514-1.78,11.058.2,15.138,4.157a2.752,2.752,0,0,0,1.284-1.453A1.717,1.717,0,0,0,1752.1,1119.146Z" transform="translate(-1730.829 -1105.674)" opacity="0.2"/>
          </g>
        </g>
        <g id="Grupo_1179072" data-name="Grupo 1179072" transform="translate(88.792 171.922)">
          <path id="Trazado_1038476" data-name="Trazado 1038476" d="M1293.667,1547.98a37.073,37.073,0,0,1-3.592-13.356,11.3,11.3,0,0,0-.712,1.714c-.251.774-1.237.411-1.385-.2a21.149,21.149,0,0,1,1.195-13.456.758.758,0,0,1,.133-.2c-.256-.166-.509-.335-.759-.51a.57.57,0,0,1-.358.365,22.814,22.814,0,0,0-7.9,4.294.648.648,0,0,1-1.024-.445c-.425-5.926,3.379-16.983,11.051-14.3a45.13,45.13,0,0,1,4.263-7.771,68.038,68.038,0,0,1,5.437-6.985c1.908-2.17,4.021-4.392,6.814-5.353a.559.559,0,0,1,.952.029,36.42,36.42,0,0,1,3.288,26.086c3.428,1.231,4.435,5.271,3.726,8.555-.916,4.244-3.811,7.985-7.027,10.775-.473.41-1.054-.109-1.035-.618a27.651,27.651,0,0,0-1.149-8.163.791.791,0,0,1-.024-.16c-.034,0-.07,0-.1,0,.454,3.129-1.11,6.606-3.155,8.889-1.257,1.4-2.861,2.394-4.241,3.659a9.087,9.087,0,0,0-3.011,6.806A.721.721,0,0,1,1293.667,1547.98Zm2.22-23.621c.032-.121.058-.243.091-.364.1-.365.243-.829.431-1.32a62.483,62.483,0,0,1-6.958-2.946.523.523,0,0,1-.45.445q-.047.221-.1.437A36.929,36.929,0,0,0,1295.887,1524.359Zm.913,2.05a.768.768,0,0,1,.26-.051c-.03-.078-.058-.159-.083-.24l-.108-.038C1296.847,1526.19,1296.822,1526.3,1296.8,1526.409Zm-8.228-8.541a1.412,1.412,0,0,1-.5-.177c.128.282.252.566.376.85,0-.008.008-.018.014-.026C1288.491,1518.3,1288.537,1518.085,1288.572,1517.869Zm-5.359,4.624.071.323c.073-.042.147-.081.22-.122C1283.4,1522.629,1283.305,1522.561,1283.213,1522.493Zm-1.626-3.318a.648.648,0,0,1,.879.2l.069.12c-.155-.407-.318-.813-.5-1.216a.6.6,0,0,1-.038-.115C1281.852,1518.495,1281.715,1518.834,1281.587,1519.174Zm3.081,2.453c.037.142.076.283.111.426.1-.045.208-.085.311-.128A3.28,3.28,0,0,1,1284.667,1521.627Zm-2.275-4.311c-.02.039-.036.079-.055.118a.6.6,0,0,1,.779.038c.061.059.119.12.177.184l-.5-1.142C1282.656,1516.784,1282.52,1517.054,1282.392,1517.316Zm4.061,3.509a5.544,5.544,0,0,1-.467-.444l.372.848a.605.605,0,0,1,.049.227,12.83,12.83,0,0,1,1.344-.339.682.682,0,0,1,.215-.49.356.356,0,0,1,0-.076c.023-.108.045-.216.067-.325a.917.917,0,0,1-.521-.137A.679.679,0,0,1,1286.454,1520.825Zm-1.159-7.59a7.107,7.107,0,0,0-1.786,2.014.641.641,0,0,1,.175.091,5.25,5.25,0,0,1,.559.505l-.028-.061c-.318-.692.726-1.254,1.164-.645.087.121.3.454.564.873-.305-.628-.618-1.251-.948-1.869-.3-.554.481-.972.91-.678a5.818,5.818,0,0,1,1.068.941l-.442-1.076a.576.576,0,0,1,.648-.744l-.036-.078A4.023,4.023,0,0,0,1285.295,1513.235Zm3.622,2.938c.039-.164.074-.328.117-.49a.417.417,0,0,1-.292-.045c-.023-.013-.043-.027-.065-.04C1288.757,1515.79,1288.836,1515.981,1288.917,1516.173Zm.231-1.87c.059.124.119.247.177.371.032-.1.061-.208.094-.312A.483.483,0,0,1,1289.147,1514.3Zm.042-1.818a2.885,2.885,0,0,1,.53.986c.112-.316.22-.634.342-.947C1289.769,1512.517,1289.478,1512.5,1289.189,1512.485Zm17.872-19.9a22.419,22.419,0,0,0-4.631,3.492,12.313,12.313,0,0,0,4.282,2.5c.951.268,2.009.176,2.957.441A34.655,34.655,0,0,0,1307.061,1492.582Zm6.115,28.395a10.635,10.635,0,0,1,.757,2.563A6.188,6.188,0,0,0,1313.176,1520.977Zm.475,5.383a.551.551,0,0,1-.2.068c.014.177.02.358.027.539C1313.539,1526.764,1313.6,1526.562,1313.65,1526.36Zm-3.75-3.555c-.036-.149-.069-.288-.1-.4a.635.635,0,0,1,.827-.8c.014,0,.025.012.038.017-.018-.113-.035-.22-.051-.32a.575.575,0,0,1,.286-.564c0-.013-.007-.026-.01-.039-.135-.562.716-.838,1.021-.4.038.055.072.111.109.167-.046-.1-.09-.206-.14-.31a.385.385,0,0,1,.283-.517,7.952,7.952,0,0,0-1.276-1.063,33.355,33.355,0,0,1-1.378,3.983A.5.5,0,0,1,1309.9,1522.8Zm3.246,5.082a.734.734,0,0,1-.362.071l-.014,0a2.69,2.69,0,0,1-.508,1.723.685.685,0,0,1-.7.206c.028.317.052.634.063.953A17.714,17.714,0,0,0,1313.147,1527.887Zm-4.18-2.278a22.959,22.959,0,0,1,1.041,2.288,40.387,40.387,0,0,0-1.067-4.054q-.33.7-.693,1.387A.671.671,0,0,1,1308.967,1525.608Zm-1.525-.407a36.991,36.991,0,0,0,2.493-25.23,14.93,14.93,0,0,1-4.234-.482,11.4,11.4,0,0,1-4.213-2.47,57.438,57.438,0,0,0-6,7.8,38.6,38.6,0,0,0-5.8,13.756c2.423.945,4.8,2.025,7.212,3,.609-1.2,1.475-2.268,2.589-2.227a.663.663,0,0,1,.364-.323.308.308,0,0,1,.212-.068c1.524.06,1.752,1.923,1.309,4.311.569.205,1.138.411,1.71.61A16.148,16.148,0,0,0,1307.442,1525.2Zm-7.764-.071c.122-.33.248-.687.369-1.056a1.366,1.366,0,0,1-.295.263.743.743,0,0,1-.114.054C1299.659,1524.634,1299.673,1524.881,1299.678,1525.131Zm.7-2.219.011,0c.052-.2.1-.4.142-.59a.649.649,0,0,1-.206.075A4.089,4.089,0,0,1,1300.38,1522.911Zm6.867,2.982a.147.147,0,0,1-.009-.013c-.967.256-2.167-.343-3.072-.6-1.018-.291-2.027-.612-3.032-.947-.151.607-.336,1.234-.546,1.863a16.843,16.843,0,0,0,5.711,1.3c.166-.3.373-.568.541-.866A5.033,5.033,0,0,1,1307.247,1525.894Zm3.324,6.463a1.91,1.91,0,0,1-.552-.511c.008.414,0,.829-.022,1.244C1310.192,1532.851,1310.384,1532.606,1310.571,1532.357Zm-12.524,6.733c1.745-1.4,3.541-2.629,4.772-4.546a15.884,15.884,0,0,0,1.975-6.243,15.7,15.7,0,0,1-4.587-1.034c-1.174,3.114-2.848,6.021-3.939,6.5a.657.657,0,0,1-.645-.094c-.95-.742-.873-1.985-.8-3.082a33.2,33.2,0,0,1,.751-4.986,36.045,36.045,0,0,1-5.064-2.388c0,.01-.006.021-.01.031a19.807,19.807,0,0,0-1.518,10.344,12.331,12.331,0,0,1,1.133-1.673c.364-.454,1.277-.295,1.288.364a36.115,36.115,0,0,0,2.558,12.806A11.253,11.253,0,0,1,1298.047,1539.089Zm-.948-7.842a.652.652,0,0,1-.136-.035l0,.013a.665.665,0,0,1-.849.392c.032.283.106.466.24.494C1296.528,1532.149,1296.8,1531.792,1297.1,1531.247Z" transform="translate(-1279.232 -1491.524)" fill="#53b7b0"/>
          <path id="Trazado_1038477" data-name="Trazado 1038477" d="M1348.225,1617.44a3.927,3.927,0,0,1,5.242.98.706.706,0,0,1-.077.9,2.917,2.917,0,0,1-.535,3.416c-1.528,1.528-3.929.959-5.3-.5A3.253,3.253,0,0,1,1348.225,1617.44Zm3.344,4.808a2.042,2.042,0,0,0,1.133-2.723.724.724,0,0,1-.233-.126,3.122,3.122,0,0,0-2.861-.958,1.918,1.918,0,0,0-1.216,2.452A2.824,2.824,0,0,0,1351.57,1622.248Z" transform="translate(-1327.687 -1598.748)" fill="#53b7b0"/>
          <path id="Trazado_1038478" data-name="Trazado 1038478" d="M1334.368,1558.016a2.887,2.887,0,0,1,3.7-1.814.562.562,0,0,1,.338.331c2.408,1.312,1.222,5.769-1.765,5.108A3.334,3.334,0,0,1,1334.368,1558.016Zm2.633,2.469c.873.234,1.646-.632,1.768-1.411a2.269,2.269,0,0,0-.524-1.812.585.585,0,0,1-.363.173c-.713.069-1.761-.043-2.132.756C1335.4,1558.943,1336.246,1560.281,1337,1560.484Z" transform="translate(-1311.86 -1546.736)" fill="#53b7b0"/>
        </g>
        <path id="Trazado_1038479" data-name="Trazado 1038479" d="M1132.989,1488.439c10.206-11.011,15.982-25.033,18.968-39.613,6.384,24.126,12.362,50.452,13.321,73.4-27.611,7.513-53.283,10.246-81.114,3.941.038-3.182.138-8.146.275-14.156C1102.739,1510.3,1120.205,1502.715,1132.989,1488.439Z" transform="translate(-1012.564 -1283.065)" opacity="0.4"/>
        <g id="Grupo_1179075" data-name="Grupo 1179075" transform="translate(52.459 226.419)">
          <path id="Trazado_1038480" data-name="Trazado 1038480" d="M1545.97,2425.3c3.618,9.323,8.142,19.23,8.142,19.23l-6.863,3.744s-6.536-6.27-13.35-13.466A99.643,99.643,0,0,0,1545.97,2425.3Z" transform="translate(-1518.747 -2345.065)" fill="#f7b294"/>
          <path id="Trazado_1038481" data-name="Trazado 1038481" d="M1010.7,2196.438l-7.8-3.744s1.992-9.122,3.3-16.85a94.8,94.8,0,0,0,16.43,3.941C1016.412,2189.286,1010.7,2196.438,1010.7,2196.438Z" transform="translate(-910.653 -2131.602)" fill="#f7b294"/>
          <path id="Trazado_1038482" data-name="Trazado 1038482" d="M894.56,1940.19c1.336,3.808,9.347,15.563,16.015,22.6,4.264-2.9,10.488-6.981,14.211-10.467-2.578-6.647-7.673-15.648-7.588-18.1a1.028,1.028,0,0,1,.033-.265,5.054,5.054,0,0,1,.676-1.4c3.617-5.56,19.359-15.937,25.892-20.1,1.767-1.125,2.859-1.8,2.859-1.8s2.493-.481,6.3-1.2c10.557-2.008,31.207-5.881,36.494-6.513a6.333,6.333,0,0,1,1.2-.081c.192.033.208.44.114,1.12-.31,2.114-1.735,6.859-2.452,11.1.4.135.806.277,1.23.424,4.374,1.544,10.036,3.755,14.789,4.9.961.232,1.882.419,2.749.55,9.095-13.889,18.524-36.343,13.522-45.235-4.163-7.4-15.872-7.335-26.65-5.372a118.683,118.683,0,0,0-14.9,3.825c-3.768,1.21-6.187,2.171-6.187,2.171l-4.232.46-16.2,1.755-1.381.151-7.747.839-1.12.122-14.883,1.617-1.377.147-10.57,1.149s-.591,1.254-1.572,3.393c-1.43,3.107-3.682,8.089-6.162,13.819v0c-.354.819-.709,1.646-1.071,2.489v0C900.2,1917.161,893,1935.738,894.56,1940.19Z" transform="translate(-894.343 -1869.221)" fill="#e7363e"/>
          <g id="Grupo_1179073" data-name="Grupo 1179073" transform="translate(20.004 96.882)">
            <path id="Trazado_1038483" data-name="Trazado 1038483" d="M1508.646,2540.67c1.751,1.776,3.49,3.7,5.146,5.621.472.549.94,1.1,1.4,1.644-4.079,5.237-9.083,10.916-13.655,15.725-3.086-.781-6.588-3.348-7.313-6.58a5.988,5.988,0,0,1,1.191-4.959c.117-.16.24-.32.366-.472a19.86,19.86,0,0,1,2.264-2.263C1501.481,2546.335,1504.99,2543.459,1508.646,2540.67Z" transform="translate(-1494.083 -2540.67)" fill="#e7363e"/>
            <path id="Trazado_1038484" data-name="Trazado 1038484" d="M1513.785,2579.62c.473.549.94,1.1,1.4,1.644-4.079,5.238-9.083,10.917-13.655,15.725-3.086-.781-6.588-3.348-7.314-6.58a5.989,5.989,0,0,1,1.191-4.959c.118-.16.24-.319.366-.472a34.225,34.225,0,0,1,7.319,6.628C1506.454,2587.488,1510.045,2583.426,1513.785,2579.62Z" transform="translate(-1494.075 -2574)" fill="#ededed"/>
            <path id="Trazado_1038485" data-name="Trazado 1038485" d="M1597.928,2604.307a.248.248,0,0,0-.034.488,12.762,12.762,0,0,1,3.428,1.668c.434.241.91-.437.5-.739A6.286,6.286,0,0,0,1597.928,2604.307Z" transform="translate(-1595.822 -2595.122)" fill="#3d3d3d"/>
            <path id="Trazado_1038486" data-name="Trazado 1038486" d="M1589.346,2591.571a.276.276,0,0,0-.175.517c1.111.724,2.26,1.385,3.369,2.115.508.334,1.008-.48.583-.867A6.732,6.732,0,0,0,1589.346,2591.571Z" transform="translate(-1585.875 -2584.225)" fill="#3d3d3d"/>
          </g>
          <g id="Grupo_1179074" data-name="Grupo 1179074" transform="translate(87.956 59.746)">
            <path id="Trazado_1038487" data-name="Trazado 1038487" d="M1016.9,2283.3c-1.223,2.173-2.4,4.486-3.488,6.775-.312.654-.619,1.307-.917,1.954,5.311,3.981,11.631,8.146,17.306,11.585,2.772-1.564,5.477-4.96,5.328-8.271a5.988,5.988,0,0,0-2.452-4.472c-.156-.123-.316-.245-.477-.359a19.835,19.835,0,0,0-2.779-1.589C1025.306,2286.884,1021.164,2285.031,1016.9,2283.3Z" transform="translate(-1012.497 -2283.301)" fill="#e7363e"/>
            <path id="Trazado_1038488" data-name="Trazado 1038488" d="M1013.407,2330.26c-.312.654-.618,1.307-.916,1.953,5.312,3.982,11.631,8.146,17.306,11.585,2.772-1.564,5.477-4.961,5.328-8.27a5.99,5.99,0,0,0-2.452-4.472c-.156-.123-.316-.245-.477-.359a34.183,34.183,0,0,0-5.32,8.318C1022.546,2335.925,1018.014,2332.95,1013.407,2330.26Z" transform="translate(-1012.489 -2323.484)" fill="#ededed"/>
            <path id="Trazado_1038489" data-name="Trazado 1038489" d="M1040.289,2322a.248.248,0,0,1,.161.462,12.774,12.774,0,0,0-2.87,2.51c-.356.346-.993-.184-.673-.583A6.288,6.288,0,0,1,1040.289,2322Z" transform="translate(-1021.45 -2316.41)" fill="#3d3d3d"/>
            <path id="Trazado_1038490" data-name="Trazado 1038490" d="M1051.884,2312.1a.276.276,0,0,1,.3.452c-.882.991-1.816,1.93-2.695,2.926-.4.456-1.1-.2-.791-.684A6.735,6.735,0,0,1,1051.884,2312.1Z" transform="translate(-1034.846 -2307.924)" fill="#3d3d3d"/>
          </g>
          <path id="Trazado_1038491" data-name="Trazado 1038491" d="M1266.952,1971.118a117.636,117.636,0,0,0,15.16-3.295c3.088-.88,6.142-1.886,9.156-3a139.837,139.837,0,0,0,15.213-6.663c.346-.175.041-.672-.3-.517a159.833,159.833,0,0,1-16.125,6.338,120.289,120.289,0,0,0-2.831-12.752c2.648-1.4,3.572-6.566,3.862-9.1a29.027,29.027,0,0,0-.338-8.2l-1.381.151a33.577,33.577,0,0,1,.533,6c-.033,3.01-.583,7.93-2.912,10.313a151.354,151.354,0,0,0-5.368-15.473l-1.12.122a234.765,234.765,0,0,1,8.993,29.126q-4.747,1.558-9.58,2.859c-4.114.025-8.211.025-12.325-.2-.594-.033-.586.875,0,.916a84.652,84.652,0,0,0,8.692.216q-4.766,1.185-9.6,2.151C1266.006,1970.242,1266.3,1971.212,1266.952,1971.118Z" transform="translate(-1232.656 -1924.591)" fill="#ce2430"/>
          <path id="Trazado_1038492" data-name="Trazado 1038492" d="M1067.228,2051.887a6.346,6.346,0,0,1,1.2-.081c.191.032.208.439.114,1.12a88.074,88.074,0,0,0,6.231-7.466c.2-.273-.252-.615-.468-.362q-2.755,3.244-5.714,6.289,2.554-3.831,5.1-7.669c.212-.326-.3-.615-.517-.3Q1070.2,2047.65,1067.228,2051.887Z" transform="translate(-972.123 -2018.166)" fill="#ce2430"/>
          <path id="Trazado_1038493" data-name="Trazado 1038493" d="M1616.2,2309.636a43.527,43.527,0,0,0,8.077-.358c-2.537.582-5.055,1.262-7.555,1.942a.472.472,0,0,0,.253.908c2.941-.758,5.906-1.474,8.839-2.285a1.037,1.037,0,0,1,.032-.265,5.046,5.046,0,0,1,.676-1.4c-3.438.273-6.867.44-10.321.387A.534.534,0,0,0,1616.2,2309.636Z" transform="translate(-1602.96 -2244.846)" fill="#ce2430"/>
          <path id="Trazado_1038494" data-name="Trazado 1038494" d="M1550.576,1973.845a43.751,43.751,0,0,0,17.025-14.467,41.878,41.878,0,0,0,3.727-6.533l-1.377.147a46.6,46.6,0,0,1-3.987,6.126,45.456,45.456,0,0,1-14.317,12.235v0C1551.293,1972.174,1550.939,1973,1550.576,1973.845Z" transform="translate(-1538.369 -1940.778)" fill="#ce2430"/>
          <path id="Trazado_1038495" data-name="Trazado 1038495" d="M1192.246,1910.017a182.548,182.548,0,0,0,20.332-6.492c-3.768,1.209-6.187,2.171-6.187,2.171l-4.232.46q-5,1.711-10.036,3.332C1191.793,1909.594,1191.9,1910.106,1192.246,1910.017Z" transform="translate(-1127.871 -1898.575)" fill="#ce2430"/>
          <path id="Trazado_1038496" data-name="Trazado 1038496" d="M979.869,2070.273c-6.11-2.851-15.477-6.517-11.812-14.663,3.666-7.332,11.4-11,18.329-13.033,27.7-7.739,53.356-15.07,80.645-22.809a2.706,2.706,0,0,1,2.036,1.629c1.629,5.7-4.888,10.59-2.444,15.07,2.1,4.2,6,5.629,10.467,5.957-1.432,2.613-2.917,5.1-4.394,7.354-.868-.131-1.788-.318-2.749-.55-4.753-1.144-10.415-3.355-14.789-4.9-.424-.146-.835-.289-1.23-.423.717-4.24,2.142-8.985,2.452-11.1.094-.68.077-1.088-.114-1.12a6.364,6.364,0,0,0-1.2.082c-5.287.631-25.937,4.5-36.494,6.513-3.8.721-6.3,1.2-6.3,1.2s-1.091.672-2.859,1.8c-6.533,4.166-22.275,14.545-25.892,20.1a5.04,5.04,0,0,0-.676,1.4,1.024,1.024,0,0,0-.033.265c-.086,2.456,5.01,11.458,7.588,18.1-3.723,3.487-9.946,7.564-14.211,10.468-1.247-1.316-2.541-2.8-3.829-4.361,1.984-.842,3.941-1.76,5.873-2.727C983.534,2081.678,986.385,2072.718,979.869,2070.273Z" transform="translate(-959.963 -1998.046)" opacity="0.4"/>
          <path id="Trazado_1038497" data-name="Trazado 1038497" d="M1043.664,1886.968c.982-2.138,1.572-3.393,1.572-3.393l10.57-1.148,1.376-.147,14.883-1.617,1.12-.122,7.747-.839,1.38-.151,16.2-1.755,4.232-.46s2.419-.961,6.187-2.171a118.718,118.718,0,0,1,14.9-3.824c2.356-.429,4.758-.768,7.115-.958-29.2,13.008-60.143,22.9-91.587,26.16C1041.085,1892.625,1042.6,1889.279,1043.664,1886.968Z" transform="translate(-1024.223 -1870.215)" opacity="0.4"/>
          <path id="Trazado_1038498" data-name="Trazado 1038498" d="M1001,2166.258s-2.08,4.056-2.756,4.368-19.914-5.979-20.018-6.447,1.2-4.836,1.56-4.888S1001.047,2165.791,1001,2166.258Z" transform="translate(-885.452 -2117.437)" fill="#ce2430"/>
          <path id="Trazado_1038499" data-name="Trazado 1038499" d="M1574.735,2420.916a40.831,40.831,0,0,1,1.872,4.472c-.208,0-14.871,11.075-15.287,10.971s-2.86-2.964-2.652-3.276S1574.474,2420.811,1574.735,2420.916Z" transform="translate(-1544.829 -2341.313)" fill="#ce2430"/>
        </g>
      </g>
    </g>
  </g>
</svg>
