<svg xmlns="http://www.w3.org/2000/svg" xmlns:xlink="http://www.w3.org/1999/xlink" width="93.934" height="93.934" viewBox="0 0 93.934 93.934">
  <defs>
    <filter id="Trazado_982547" x="0" y="0" width="93.934" height="93.934" filterUnits="userSpaceOnUse">
      <feOffset dy="3" input="SourceAlpha"/>
      <feGaussianBlur stdDeviation="3" result="blur"/>
      <feFlood flood-opacity="0.161"/>
      <feComposite operator="in" in2="blur"/>
      <feComposite in="SourceGraphic"/>
    </filter>
  </defs>
  <g id="Grupo_1179349" data-name="Grupo 1179349" transform="translate(-183.066 -1966.533)">
    <g id="Grupo_1175230" data-name="Grupo 1175230" transform="translate(-5.967 -19.467)">
      <g id="Grupo_1167337" data-name="Grupo 1167337" transform="translate(198.033 1992)">
        <g id="Grupo_1166720" data-name="Grupo 1166720">
          <g id="Grupo_1164305" data-name="Grupo 1164305">
            <g id="Grupo_1163948" data-name="Grupo 1163948">
              <g id="Grupo_1158168" data-name="Grupo 1158168">
                <g id="Grupo_1152576" data-name="Grupo 1152576">
                  <g id="Grupo_1148633" data-name="Grupo 1148633">
                    <g id="Grupo_1148525" data-name="Grupo 1148525">
                      <g transform="matrix(1, 0, 0, 1, -9, -6)" filter="url(#Trazado_982547)">
                        <g id="Trazado_982547-2" data-name="Trazado 982547" transform="translate(9 6)" fill="#fdfbec">
                          <path d="M 37.966796875 74.43359375 C 33.04315185546875 74.43359375 28.26757431030273 73.46962738037109 23.77274131774902 71.56847381591797 C 19.43047523498535 69.73184967041016 15.53040790557861 67.10224914550781 12.18087482452393 63.75271987915039 C 8.831341743469238 60.4031867980957 6.201741218566895 56.50312042236328 4.365118980407715 52.16086196899414 C 2.463963508605957 47.66601943969727 1.499996900558472 42.89044189453125 1.499996900558472 37.966796875 C 1.499996900558472 33.04315185546875 2.463963508605957 28.26757431030273 4.365118980407715 23.77274131774902 C 6.201741218566895 19.43047523498535 8.831341743469238 15.53040790557861 12.18087482452393 12.18087482452393 C 15.53040790557861 8.831341743469238 19.43047523498535 6.201741218566895 23.77274131774902 4.365118980407715 C 28.26757431030273 2.463963508605957 33.04315185546875 1.499996900558472 37.966796875 1.499996900558472 C 42.89044189453125 1.499996900558472 47.66601943969727 2.463963508605957 52.16086196899414 4.365118980407715 C 56.50312042236328 6.201741218566895 60.4031867980957 8.831341743469238 63.75271987915039 12.18087482452393 C 67.10224914550781 15.53040790557861 69.73184967041016 19.43047523498535 71.56847381591797 23.77274131774902 C 73.46962738037109 28.26757431030273 74.43359375 33.04315185546875 74.43359375 37.966796875 C 74.43359375 42.89044189453125 73.46962738037109 47.66601943969727 71.56847381591797 52.16086196899414 C 69.73184967041016 56.50313186645508 67.10224914550781 60.4031867980957 63.75271987915039 63.75271987915039 C 60.4031867980957 67.10224914550781 56.50313186645508 69.73184967041016 52.16086196899414 71.56847381591797 C 47.66601943969727 73.46962738037109 42.89044189453125 74.43359375 37.966796875 74.43359375 Z" stroke="none"/>
                          <path d="M 37.966796875 3 C 33.2449836730957 3 28.66600799560547 3.924095153808594 24.35705947875977 5.746635437011719 C 20.19359588623047 7.507637023925781 16.45379638671875 10.02928161621094 13.24153518676758 13.24153518676758 C 10.02927398681641 16.45379638671875 7.507621765136719 20.19359588623047 5.746635437011719 24.35705947875977 C 3.924095153808594 28.66600799560547 3 33.2449836730957 3 37.966796875 C 3 42.6886100769043 3.924095153808594 47.26758575439453 5.746635437011719 51.57653427124023 C 7.507621765136719 55.73999786376953 10.02927398681641 59.47979736328125 13.24153518676758 62.69205856323242 C 16.45379638671875 65.90431976318359 20.19359588623047 68.42597198486328 24.35705947875977 70.18695831298828 C 28.66600799560547 72.00949859619141 33.2449836730957 72.93359375 37.966796875 72.93359375 C 42.6886100769043 72.93359375 47.26758575439453 72.00949859619141 51.57653427124023 70.18695831298828 C 55.73999786376953 68.42597198486328 59.47979736328125 65.90431976318359 62.69205856323242 62.69205856323242 C 65.90431976318359 59.47979736328125 68.42597198486328 55.73999786376953 70.18695831298828 51.57653427124023 C 72.00949859619141 47.26758575439453 72.93359375 42.6886100769043 72.93359375 37.966796875 C 72.93359375 33.2449836730957 72.00949859619141 28.66600799560547 70.18695831298828 24.35705947875977 C 68.42597198486328 20.19359588623047 65.90431976318359 16.45379638671875 62.69205856323242 13.24153518676758 C 59.47979736328125 10.02928161621094 55.73999786376953 7.507637023925781 51.57653427124023 5.746635437011719 C 47.26758575439453 3.924095153808594 42.6886100769043 3 37.966796875 3 M 37.966796875 0 C 58.93528366088867 0 75.93359375 16.99832153320312 75.93359375 37.966796875 C 75.93359375 58.93528366088867 58.93528366088867 75.93359375 37.966796875 75.93359375 C 16.99831008911133 75.93359375 0 58.93528366088867 0 37.966796875 C 0 16.99832153320312 16.99831008911133 0 37.966796875 0 Z" stroke="none" fill="#84792b"/>
                        </g>
                      </g>
                    </g>
                  </g>
                </g>
              </g>
            </g>
          </g>
        </g>
      </g>
    </g>
    <g id="maestro" transform="translate(207.5 1971.069)">
      <g id="Grupo_1179347" data-name="Grupo 1179347" transform="translate(0.66 19.188)">
        <g id="Grupo_1179342" data-name="Grupo 1179342" transform="translate(0.09 3.318)">
          <path id="Trazado_1040583" data-name="Trazado 1040583" d="M280.8,81.9H263.19a1.9,1.9,0,0,1-1.9-1.9V65.624a1.9,1.9,0,0,1,1.9-1.9H280.8a1.9,1.9,0,0,1,1.9,1.9V80A1.9,1.9,0,0,1,280.8,81.9Z" transform="translate(-239.042 -63.725)" fill="#d7ddf5"/>
          <path id="Trazado_1040584" data-name="Trazado 1040584" d="M40.794,205.663a3.5,3.5,0,0,0-3.5-3.5H12.02a3.495,3.495,0,0,0-2.2,6.214,3.495,3.495,0,0,0,2.252,5.582,3.5,3.5,0,0,0,3.44,4.112H33.8a3.5,3.5,0,0,0,3.44-4.112,3.495,3.495,0,0,0,2.252-5.582,3.488,3.488,0,0,0,1.3-2.718Z" transform="translate(-8.525 -189.982)" fill="#4a66a0"/>
          <path id="Trazado_1040585" data-name="Trazado 1040585" d="M358.991,212.65,351.972,233.1l2.93.917,5.895-20.8A.947.947,0,0,0,358.991,212.65Z" transform="translate(-321.741 -198.954)" fill="#5972a5"/>
          <g id="Grupo_1179340" data-name="Grupo 1179340" transform="translate(6.339 21.103)">
            <g id="Grupo_1179338" data-name="Grupo 1179338">
              <path id="Trazado_1040586" data-name="Trazado 1040586" d="M195.118,314.794l-.092,4.524h-5.28a3.783,3.783,0,0,1-3.783-3.783v2.012a1.768,1.768,0,0,1-.6,1.327c-2.972-1.235-4.87-5.243-5.384-9.442-.233-1.906-.034-4.342,1.347-5.874a9.8,9.8,0,0,1,9.417,9.788l0,.769a.675.675,0,0,0,.675.678Z" transform="translate(-171.15 -303.551)" fill="#c7aee4"/>
              <path id="Trazado_1040587" data-name="Trazado 1040587" d="M94.753,318.793a1.763,1.763,0,0,1-1.172.444H82.338a1.771,1.771,0,0,1-1.771-1.76l-.027-4.212a9.8,9.8,0,0,1,9.8-9.8c.127,0,.254,0,.379.008a15.9,15.9,0,0,0-.379,5.986C90.85,313.663,92.866,317.222,94.753,318.793Z" transform="translate(-80.54 -303.469)" fill="#b18cd9"/>
            </g>
            <g id="Grupo_1179339" data-name="Grupo 1179339" transform="translate(22.502 10.512)">
              <path id="Trazado_1040588" data-name="Trazado 1040588" d="M339.732,428.441h-.891a2.661,2.661,0,0,1-2.661-2.661v-.231a2.661,2.661,0,0,1,2.661-2.661h.891a2.661,2.661,0,0,1,2.661,2.661v.231A2.661,2.661,0,0,1,339.732,428.441Z" transform="translate(-336.181 -422.888)" fill="#db9e82"/>
            </g>
          </g>
          <g id="Grupo_1179341" data-name="Grupo 1179341" transform="translate(10.267 21.679)">
            <path id="Trazado_1040589" data-name="Trazado 1040589" d="M193.955,317l-3.421-1.564a16,16,0,0,1,.242-5.418h5.243l.378,5.288A1.728,1.728,0,0,1,193.955,317Z" transform="translate(-184.666 -310.019)" fill="#b18cd9"/>
            <path id="Trazado_1040590" data-name="Trazado 1040590" d="M131.035,315.437,127.614,317a1.728,1.728,0,0,1-2.443-1.694l.379-5.288h5.727A15.991,15.991,0,0,0,131.035,315.437Z" transform="translate(-125.167 -310.019)" fill="#996acc"/>
            <path id="Trazado_1040591" data-name="Trazado 1040591" d="M188.543,310.019s-3.558,5.418-5.486,5.418c-1.179-2.072-1.153-4.11.242-5.418Z" transform="translate(-177.189 -310.019)" fill="#f3f5fc"/>
            <path id="Trazado_1040592" data-name="Trazado 1040592" d="M135,315.437c-1.928,0-5.485-5.418-5.485-5.418h5.727A15.992,15.992,0,0,0,135,315.437Z" transform="translate(-129.137 -310.019)" fill="#d7ddf5"/>
          </g>
        </g>
        <g id="Grupo_1179346" data-name="Grupo 1179346" transform="translate(0 0)">
          <g id="Grupo_1179343" data-name="Grupo 1179343">
            <ellipse id="Elipse_12439" data-name="Elipse 12439" cx="3.168" cy="2.802" rx="3.168" ry="2.802" transform="translate(26.113 12.703)" fill="#c8866a"/>
            <ellipse id="Elipse_12440" data-name="Elipse 12440" cx="3.168" cy="2.802" rx="3.168" ry="2.802" transform="translate(0 12.703)" fill="#c8866a"/>
            <path id="Trazado_1040593" data-name="Trazado 1040593" d="M147.033,82.123a11.359,11.359,0,0,1-6.159,9.833c-13.242,1.04-15.412-12.515-9.256-21.249a14.762,14.762,0,0,1,2.3-.179C141.162,70.529,147.033,75.72,147.033,82.123Z" transform="translate(-117.696 -66.612)" fill="#db9e82"/>
            <path id="Trazado_1040594" data-name="Trazado 1040594" d="M62.926,93.808a14.336,14.336,0,0,1-6.954,1.762c-7.242,0-13.112-5.191-13.112-11.6,0-5.709,4.666-10.454,10.81-11.416C49.685,82.9,51,92.381,62.926,93.808Z" transform="translate(-39.748 -68.463)" fill="#c8866a"/>
            <path id="Trazado_1040595" data-name="Trazado 1040595" d="M177.866,39.629a10.729,10.729,0,0,1-2.505-.295,8.984,8.984,0,0,0-4.1-4.759,3.494,3.494,0,0,1-5.679,1.43,3.5,3.5,0,0,1-1.234,1.338c-5.261-1.092-6.077-9.742-2.575-11.3q.353-.015.709-.014C170.98,26.029,177.866,32.118,177.866,39.629Z" transform="translate(-146.261 -26.029)" fill="#5972a5"/>
            <path id="Trazado_1040596" data-name="Trazado 1040596" d="M34.335,37.49a3.493,3.493,0,0,1-4.964-1.338A3.495,3.495,0,0,1,23.8,34.994a8.481,8.481,0,0,0-4.2,4.49,9.346,9.346,0,0,1-2.5.291c0-7.3,6.506-13.258,14.671-13.586-1.837,3.75-.667,9.255,2.575,11.3Z" transform="translate(-16.246 -26.175)" fill="#4a66a0"/>
          </g>
          <g id="Grupo_1179345" data-name="Grupo 1179345" transform="translate(6.666 16.893)">
            <g id="Grupo_1179344" data-name="Grupo 1179344">
              <ellipse id="Elipse_12441" data-name="Elipse 12441" cx="2.576" cy="2.052" rx="2.576" ry="2.052" fill="#fff"/>
              <ellipse id="Elipse_12442" data-name="Elipse 12442" cx="2.576" cy="2.052" rx="2.576" ry="2.052" transform="translate(13.965)" fill="#fff"/>
            </g>
          </g>
        </g>
      </g>
      <g id="Grupo_1179348" data-name="Grupo 1179348" transform="translate(0 18.528)">
        <path id="Trazado_1040597" data-name="Trazado 1040597" d="M122.718,199.349a.66.66,0,0,0-.66.66v1.053a.66.66,0,1,0,1.32,0v-1.053A.66.66,0,0,0,122.718,199.349Z" transform="translate(-111.314 -183.433)"/>
        <path id="Trazado_1040598" data-name="Trazado 1040598" d="M247.251,199.349a.66.66,0,0,0-.66.66v1.053a.66.66,0,0,0,1.32,0v-1.053A.66.66,0,0,0,247.251,199.349Z" transform="translate(-224.885 -183.433)"/>
        <path id="Trazado_1040599" data-name="Trazado 1040599" d="M171.892,211.12a.66.66,0,0,0-.931.064,1.255,1.255,0,0,1-1.895,0,.66.66,0,1,0-1,.867,2.575,2.575,0,0,0,3.885,0A.66.66,0,0,0,171.892,211.12Z" transform="translate(-153.128 -194.02)"/>
        <path id="Trazado_1040600" data-name="Trazado 1040600" d="M42.508,21.846h-2a.66.66,0,1,0,0,1.32h2a1.241,1.241,0,0,1,1.239,1.239V38.78a1.241,1.241,0,0,1-1.239,1.239H39.572l.87-3.071a1.607,1.607,0,0,0-3.066-.96l-1.384,4.031H33.255a4.158,4.158,0,0,0,.019-3.62,3.139,3.139,0,0,0,.5-1.706,3.247,3.247,0,0,0-.848-2.172q-.006-.3-.027-.6h7.3a.66.66,0,1,0,0-1.32H32.737a12.879,12.879,0,0,0-.722-2.547h8.178a.66.66,0,0,0,0-1.32H31.4a14.334,14.334,0,0,0-2.691-3.565H37.43a.66.66,0,0,0,0-1.32H27.159a17.209,17.209,0,0,0-10.274-3.318C8.141,18.528,1.01,24.78.848,32.52A3.243,3.243,0,0,0,0,34.688,3.147,3.147,0,0,0,.5,36.4a4.155,4.155,0,0,0,.7,4.609,4.115,4.115,0,0,0-.525,2.024A4.186,4.186,0,0,0,3.585,47a4.187,4.187,0,0,0,3.1,4.127,10.453,10.453,0,0,0-.253,2.285l0,.352a.66.66,0,0,0,.66.656h0a.66.66,0,0,0,.656-.664l0-.347a9.142,9.142,0,0,1,2.8-6.58l-.186,2.6a2.394,2.394,0,0,0,2.378,2.562,2.394,2.394,0,0,0,1-.219l3.146-1.439,3.146,1.439a2.388,2.388,0,0,0,3.376-2.342l-.186-2.6a9.139,9.139,0,0,1,2.8,6.577l0,.769a1.335,1.335,0,0,0,1.335,1.341h1.871a3.426,3.426,0,0,0,.231,3.2H25.684a3.126,3.126,0,0,1-3.122-3.122v-.868a.66.66,0,0,0-1.32,0v2.88a1.112,1.112,0,0,1-1.111,1.111h-7.6V54.726a.66.66,0,0,0-1.32,0v3.991H8.888a1.114,1.114,0,0,1-1.111-1.1l-.005-.779a.66.66,0,0,0-.66-.656h0a.66.66,0,0,0-.656.665l.005.779a2.437,2.437,0,0,0,2.431,2.415H20.13a2.435,2.435,0,0,0,2.24-1.486,4.434,4.434,0,0,0,3.314,1.486h5.289a3.415,3.415,0,0,0,1.4.3h.66a3.434,3.434,0,0,0,2.444-5.849L39.2,41.339h3.31a2.563,2.563,0,0,0,2.56-2.56V24.406a2.562,2.562,0,0,0-2.559-2.56ZM38.625,36.417a.287.287,0,0,1,.547.171L34.318,53.713a3.679,3.679,0,0,0-1.544-.252ZM16.886,48.943c-.425,0-1.365-.614-2.757-2.235a15.522,15.522,0,0,0,5.515,0C18.25,48.33,17.311,48.943,16.886,48.943Zm0-3.309c-6.866,0-12.452-4.905-12.452-10.935a9.717,9.717,0,0,1,.216-2.03,7.646,7.646,0,0,1,3.309-3.762,4.156,4.156,0,0,0,5.664,1.213,4.156,4.156,0,0,0,6.527,0,4.156,4.156,0,0,0,5.8-1.433,8.247,8.247,0,0,1,3.17,3.976,9.714,9.714,0,0,1,.217,2.036C29.337,40.73,23.751,45.635,16.885,45.635ZM1.773,35.916a1.891,1.891,0,0,1-.453-1.223,1.931,1.931,0,0,1,.473-1.247,11.192,11.192,0,0,0,1.4-.108,10.914,10.914,0,0,0,.115,3.453,2.6,2.6,0,0,1-1.54-.874Zm28.8-2.594a11.463,11.463,0,0,0,1.406.122A1.935,1.935,0,0,1,32.45,34.7a2.286,2.286,0,0,1-1.993,2.093,10.923,10.923,0,0,0,.114-3.468ZM16.885,19.848c7.856,0,14.295,5.438,14.7,12.257a10.132,10.132,0,0,1-1.327-.178,9.7,9.7,0,0,0-4.273-4.768.66.66,0,0,0-.947.362,2.834,2.834,0,0,1-4.607,1.16.66.66,0,0,0-1.033.179,2.835,2.835,0,0,1-5.027,0,.66.66,0,0,0-1.033-.179,2.834,2.834,0,0,1-4.521-.94.66.66,0,0,0-.908-.32,9.318,9.318,0,0,0-4.4,4.52,8.168,8.168,0,0,1-1.325.17c.4-6.822,6.842-12.263,14.7-12.263ZM7.052,49.857A2.842,2.842,0,0,1,5.507,48.84a2.793,2.793,0,0,1-.557-2.229.66.66,0,0,0-.551-.775,2.85,2.85,0,0,1-2.411-2.8,2.808,2.808,0,0,1,.585-1.723.66.66,0,0,0-.109-.915,2.83,2.83,0,0,1-.954-2.947,4.044,4.044,0,0,0,2.159.707,12.694,12.694,0,0,0,6.5,7.242A10.471,10.471,0,0,0,7.052,49.857Zm6.138.71a1.068,1.068,0,0,1-1.51-1.047l.242-3.388.07.024a23.3,23.3,0,0,0,2.154,2.517,9.037,9.037,0,0,0,1.11.949Zm8.444-.094a1.059,1.059,0,0,1-1.053.094l-2.067-.945a9.04,9.04,0,0,0,1.11-.95,23.309,23.309,0,0,0,2.154-2.518l.07-.024.242,3.389a1.059,1.059,0,0,1-.456.954Zm1.971-5.08a12.694,12.694,0,0,0,6.5-7.242,4.044,4.044,0,0,0,2.159-.707,2.827,2.827,0,0,1-.752,2.766c-.065.064-.132.125-.2.182a.66.66,0,0,0-.109.915,2.808,2.808,0,0,1,.585,1.723,2.851,2.851,0,0,1-2.411,2.8.66.66,0,0,0-.551.776,2.794,2.794,0,0,1-.556,2.229,2.841,2.841,0,0,1-1.544,1.017A10.475,10.475,0,0,0,23.6,45.394Zm3.738,8.794a.013.013,0,0,1,0-.01l0-.772a10.437,10.437,0,0,0-.253-2.281A4.187,4.187,0,0,0,30.185,47,4.186,4.186,0,0,0,33.1,43.032a4.123,4.123,0,0,0-.361-1.692h2.8L31.322,53.624a3.43,3.43,0,0,0-1.07.568h-2.9a.013.013,0,0,1-.01,0Zm5.685,4.825h-.66a2.116,2.116,0,0,1,0-4.232h.66a2.116,2.116,0,0,1,0,4.232Z" transform="translate(0 -18.528)"/>
      </g>
    </g>
  </g>
</svg>
