<svg xmlns="http://www.w3.org/2000/svg" xmlns:xlink="http://www.w3.org/1999/xlink" width="110" height="110" viewBox="0 0 110 110">
  <defs>
    <filter id="Trazado_982547" x="0" y="0" width="110" height="110" filterUnits="userSpaceOnUse">
      <feOffset dy="3" input="SourceAlpha"/>
      <feGaussianBlur stdDeviation="3" result="blur"/>
      <feFlood flood-opacity="0.161"/>
      <feComposite operator="in" in2="blur"/>
      <feComposite in="SourceGraphic"/>
    </filter>
  </defs>
  <g id="Grupo_1179215" data-name="Grupo 1179215" transform="translate(-797 -4222)">
    <g id="Grupo_1171898" data-name="Grupo 1171898" transform="translate(806 4228)">
      <g id="Grupo_1164700" data-name="Grupo 1164700" transform="translate(0 0)">
        <g id="Grupo_1160931" data-name="Grupo 1160931" transform="translate(0 0)">
          <g id="Grupo_1160749" data-name="Grupo 1160749" transform="translate(0 0)">
            <g id="Grupo_1158891" data-name="Grupo 1158891" transform="translate(0 0)">
              <g id="Grupo_1157406" data-name="Grupo 1157406" transform="translate(0 0)">
                <g id="Grupo_1155793" data-name="Grupo 1155793">
                  <g id="Grupo_1154704" data-name="Grupo 1154704">
                    <g id="Grupo_1150790" data-name="Grupo 1150790">
                      <g id="Grupo_1154214" data-name="Grupo 1154214">
                        <g id="Grupo_1152583" data-name="Grupo 1152583">
                          <g id="Grupo_1146973" data-name="Grupo 1146973">
                            <g id="Grupo_1146954" data-name="Grupo 1146954">
                              <g transform="matrix(1, 0, 0, 1, -9, -6)" filter="url(#Trazado_982547)">
                                <g id="Trazado_982547-2" data-name="Trazado 982547" transform="translate(9 6)" fill="#effbfe">
                                  <path d="M 46.00000762939453 90.49987030029297 C 39.99188613891602 90.49987030029297 34.16427612304688 89.32350921630859 28.67906188964844 87.00345611572266 C 23.38020706176758 84.76224517822266 18.62104797363281 81.55341339111328 14.53375434875488 77.46613311767578 C 10.44647407531738 73.37885284423828 7.237647533416748 68.61969757080078 4.996420860290527 63.32085418701172 C 2.676367521286011 57.83565521240234 1.500007629394531 52.008056640625 1.500007629394531 45.99993515014648 C 1.500007629394531 39.99181365966797 2.676367521286011 34.16421508789062 4.996420860290527 28.67901420593262 C 7.237647533416748 23.38017463684082 10.44647407531738 18.62101554870605 14.53375434875488 14.53373527526855 C 18.62104797363281 10.44645500183105 23.38020706176758 7.23762845993042 28.67906188964844 4.996415138244629 C 34.16427612304688 2.676361799240112 39.99188613891602 1.500001788139343 46.00000762939453 1.500001788139343 C 52.00812911987305 1.500001788139343 57.83573913574219 2.676361799240112 63.32095336914062 4.996415138244629 C 68.61980438232422 7.23762845993042 73.37896728515625 10.44645500183105 77.46626281738281 14.53373527526855 C 81.55354309082031 18.62101554870605 84.76236724853516 23.38017463684082 87.00359344482422 28.67901420593262 C 89.32364654541016 34.16421508789062 90.50000762939453 39.99181365966797 90.50000762939453 45.99993515014648 C 90.50000762939453 52.008056640625 89.32364654541016 57.83565521240234 87.00359344482422 63.32085418701172 C 84.76236724853516 68.61969757080078 81.55354309082031 73.37885284423828 77.46626281738281 77.46613311767578 C 73.37896728515625 81.55341339111328 68.61980438232422 84.76224517822266 63.32095336914062 87.00345611572266 C 57.83573913574219 89.32350921630859 52.00812911987305 90.49987030029297 46.00000762939453 90.49987030029297 Z" stroke="none"/>
                                  <path d="M 46.00000762939453 2.999992370605469 C 40.19372177124023 2.999992370605469 34.56270599365234 4.136489868164062 29.26339340209961 6.377906799316406 C 24.14333343505859 8.543502807617188 19.54443359375 11.64437866210938 15.59442138671875 15.59437561035156 C 11.6444091796875 19.54439544677734 8.543533325195312 24.14329528808594 6.377937316894531 29.26333618164062 C 4.136505126953125 34.56264877319336 3.000007629394531 40.19366455078125 3.000007629394531 45.99993515014648 C 3.000007629394531 51.80620574951172 4.136505126953125 57.43720626831055 6.377937316894531 62.73651885986328 C 8.543533325195312 67.8565673828125 11.6444091796875 72.45545959472656 15.59442138671875 76.40547943115234 C 19.54443359375 80.35547637939453 24.14333343505859 83.45635223388672 29.26339340209961 85.6219482421875 C 34.56270599365234 87.86336517333984 40.19372177124023 88.99986267089844 46.00000762939453 88.99986267089844 C 51.80629348754883 88.99986267089844 57.43730926513672 87.86336517333984 62.73663711547852 85.6219482421875 C 67.85668182373047 83.45635223388672 72.45559692382812 80.35547637939453 76.40560913085938 76.40547943115234 C 80.35560607910156 72.45545959472656 83.45649719238281 67.8565673828125 85.62209320068359 62.73651885986328 C 87.86351013183594 57.43720626831055 89.00000762939453 51.80620574951172 89.00000762939453 45.99993515014648 C 89.00000762939453 40.19366455078125 87.86351013183594 34.56264877319336 85.62209320068359 29.26333618164062 C 83.45649719238281 24.14329528808594 80.35560607910156 19.54439544677734 76.40560913085938 15.59437561035156 C 72.45559692382812 11.64437866210938 67.85668182373047 8.543502807617188 62.73663711547852 6.377906799316406 C 57.43730926513672 4.136489868164062 51.80629348754883 2.999992370605469 46.00000762939453 2.999992370605469 M 46.00000762939453 -7.62939453125e-06 C 71.40510559082031 -7.62939453125e-06 92.00000762939453 20.59486389160156 92.00000762939453 45.99993515014648 C 92.00000762939453 71.40499114990234 71.40510559082031 91.99986267089844 46.00000762939453 91.99986267089844 C 20.59492492675781 91.99986267089844 7.62939453125e-06 71.40499114990234 7.62939453125e-06 45.99993515014648 C 7.62939453125e-06 20.59486389160156 20.59492492675781 -7.62939453125e-06 46.00000762939453 -7.62939453125e-06 Z" stroke="none" fill="#397b86"/>
                                </g>
                              </g>
                            </g>
                          </g>
                        </g>
                      </g>
                    </g>
                  </g>
                </g>
              </g>
            </g>
          </g>
        </g>
      </g>
    </g>
    <g id="leer" transform="translate(795.885 4242)">
      <g id="Grupo_1179210" data-name="Grupo 1179210" transform="translate(28.056 0.941)">
        <g id="Grupo_1179206" data-name="Grupo 1179206" transform="translate(7.093)">
          <path id="Trazado_1039824" data-name="Trazado 1039824" d="M132.514,28.453a20.676,20.676,0,1,0-41.347,0c0,11.572,9.256,12.445,20.674,12.445S132.514,40.024,132.514,28.453Z" transform="translate(-91.167 -7.5)" fill="#665e66"/>
          <path id="Trazado_1039825" data-name="Trazado 1039825" d="M111.569,40.9c-11.292-.014-20.4-.964-20.4-12.444A20.815,20.815,0,0,1,111.841,7.5c-5.811,0-10.522,9.381-10.522,20.952C101.319,39.848,105.884,40.871,111.569,40.9Z" transform="translate(-91.167 -7.503)" fill="#454045"/>
          <path id="Trazado_1039826" data-name="Trazado 1039826" d="M166.858,85.99a8.311,8.311,0,0,1-7.916,7.878q-5.5.26-11,.1h-.007q-1.4-.039-2.79-.1a8.31,8.31,0,0,1-7.915-7.878q-.242-4.706-.039-9.414h0q.061-1.466.168-2.932c.678-3.22,3.331-5.973,7.038-7.586.11-.047.22-.095.331-.14a18.733,18.733,0,0,1,4.932-1.252,20.369,20.369,0,0,1,7.51.518h0c5,1.33,8.741,4.554,9.558,8.47a0,0,0,0,0,0,0A100.255,100.255,0,0,1,166.858,85.99Z" transform="translate(-131.339 -57.373)" fill="#f1d0a5"/>
          <path id="Trazado_1039827" data-name="Trazado 1039827" d="M147.942,103.673h-.007q-1.4-.039-2.79-.1a8.31,8.31,0,0,1-7.914-7.878,100.113,100.113,0,0,1,.129-12.348c.678-3.22,3.331-5.973,7.038-7.586.109-.047.22-.095.331-.14-.254,6.2-.314,15.174-.185,20.249C144.645,99.766,146.07,102.947,147.942,103.673Z" transform="translate(-131.339 -67.073)" fill="#f1b986"/>
          <path id="Trazado_1039828" data-name="Trazado 1039828" d="M157.817,65.182h0c-2.463,4.224-8.369,9.778-10.719,8.452-.86-.486-.748-1.487-.263-2.563a19.083,19.083,0,0,1-3.669,4.506c-1.58,1.332-3.485,2.159-5.329,1h0q.061-1.466.168-2.932c.678-3.22,3.331-5.973,7.038-7.586.109-.047.22-.095.331-.14a18.734,18.734,0,0,1,4.932-1.252,20.369,20.369,0,0,1,7.51.518Z" transform="translate(-131.984 -57.372)" fill="#665e66"/>
          <path id="Trazado_1039829" data-name="Trazado 1039829" d="M143.167,75.577c-1.58,1.332-3.485,2.159-5.329,1h0q.061-1.466.168-2.932c.678-3.22,3.331-5.973,7.038-7.586.109-.047.22-.095.331-.14a18.734,18.734,0,0,1,4.932-1.252,20.083,20.083,0,0,1,2.383-.139C147.529,66.325,136.871,75.577,143.167,75.577Z" transform="translate(-131.984 -57.372)" fill="#454045"/>
          <g id="Grupo_1179205" data-name="Grupo 1179205" transform="translate(8.925 26.716)">
            <ellipse id="Elipse_12418" data-name="Elipse 12418" cx="2.529" cy="1.604" rx="2.529" ry="1.604" fill="#df9380"/>
            <ellipse id="Elipse_12419" data-name="Elipse 12419" cx="2.529" cy="1.604" rx="2.529" ry="1.604" transform="translate(18.504)" fill="#f9a58e"/>
          </g>
          <path id="Trazado_1039830" data-name="Trazado 1039830" d="M167.542,51.388a7.937,7.937,0,0,1-.143,1.5c-1-5.229-7.206-9.254-14.71-9.254a20.073,20.073,0,0,0-2.384.139,18.749,18.749,0,0,0-4.643,1.137q-.314.121-.62.255c-3.757,1.636-6.434,4.441-7.065,7.718a7.951,7.951,0,0,1-.141-1.5c0-3.912,2.888-7.336,7.206-9.215q.67-.292,1.386-.532a18.94,18.94,0,0,1,3.878-.862,20.072,20.072,0,0,1,2.384-.138C160.893,40.641,167.542,45.452,167.542,51.388Z" transform="translate(-131.984 -36.484)" fill="#da4a54"/>
          <path id="Trazado_1039831" data-name="Trazado 1039831" d="M146.431,48.612l-.765,3.272q-.314.121-.62.255c-3.757,1.636-6.434,4.441-7.065,7.718a7.949,7.949,0,0,1-.141-1.5c0-3.912,2.888-7.336,7.206-9.215q.67-.292,1.386-.532Z" transform="translate(-131.985 -43.456)" fill="#c32430"/>
        </g>
        <path id="Trazado_1039832" data-name="Trazado 1039832" d="M280.255,260.342v21.2a2.884,2.884,0,0,1-2.273,2.818l-18.832,4.081H256.72v-27.1h2.431l17.611-3.817A2.883,2.883,0,0,1,280.255,260.342Z" transform="translate(-228.863 -226.108)" fill="#80b4fb"/>
        <path id="Trazado_1039833" data-name="Trazado 1039833" d="M91.346,261.341v27.1H88.735L69.9,284.361a2.884,2.884,0,0,1-2.273-2.818v-21.2a2.883,2.883,0,0,1,3.494-2.817l17.611,3.817Z" transform="translate(-63.489 -226.108)" fill="#5490f9"/>
        <path id="Trazado_1039834" data-name="Trazado 1039834" d="M235.9,315.52v-27.1h5.041v27.1" transform="translate(-210.656 -253.186)" fill="#bed8fb"/>
        <g id="Grupo_1179209" data-name="Grupo 1179209" transform="translate(0 36.836)">
          <g id="Grupo_1179207" data-name="Grupo 1179207">
            <path id="Trazado_1039835" data-name="Trazado 1039835" d="M38.237,308.841h-.986a2.637,2.637,0,0,1-2.637-2.637v-2.367a2.637,2.637,0,0,1,2.637-2.637h.986a2.637,2.637,0,0,1,2.637,2.637V306.2A2.637,2.637,0,0,1,38.237,308.841Z" transform="translate(-34.614 -301.2)" fill="#f1d0a5"/>
            <path id="Trazado_1039836" data-name="Trazado 1039836" d="M38.745,308.792a2.5,2.5,0,0,1-.507.05h-.987a2.637,2.637,0,0,1-2.636-2.638v-2.367a2.636,2.636,0,0,1,2.636-2.638h.987a2.5,2.5,0,0,1,.507.05,2.636,2.636,0,0,0-2.128,2.587V306.2A2.636,2.636,0,0,0,38.745,308.792Z" transform="translate(-34.615 -301.2)" fill="#f1b986"/>
          </g>
          <g id="Grupo_1179208" data-name="Grupo 1179208" transform="translate(49.273)">
            <path id="Trazado_1039837" data-name="Trazado 1039837" d="M431.092,308.841h-.986a2.637,2.637,0,0,1-2.637-2.637v-2.367a2.637,2.637,0,0,1,2.637-2.637h.986a2.637,2.637,0,0,1,2.637,2.637V306.2A2.637,2.637,0,0,1,431.092,308.841Z" transform="translate(-427.469 -301.2)" fill="#f1d0a5"/>
            <path id="Trazado_1039838" data-name="Trazado 1039838" d="M431.6,308.792a2.5,2.5,0,0,1-.507.05h-.987a2.637,2.637,0,0,1-2.636-2.638v-2.367a2.637,2.637,0,0,1,2.636-2.638h.987a2.5,2.5,0,0,1,.507.05,2.636,2.636,0,0,0-2.128,2.587V306.2A2.636,2.636,0,0,0,431.6,308.792Z" transform="translate(-427.47 -301.2)" fill="#f1b986"/>
          </g>
        </g>
      </g>
      <g id="Grupo_1179211" data-name="Grupo 1179211" transform="translate(27.115 0)">
        <path id="Trazado_1039839" data-name="Trazado 1039839" d="M231.956,230.769a.941.941,0,0,0-1.253.447,2.421,2.421,0,0,1-4.375,0,.941.941,0,1,0-1.7.807,4.3,4.3,0,0,0,7.775,0A.941.941,0,0,0,231.956,230.769Z" transform="translate(-199.776 -201.746)"/>
        <path id="Trazado_1039840" data-name="Trazado 1039840" d="M299.106,181.637a7.222,7.222,0,0,0-1.372-.132,2.814,2.814,0,0,0,.153-.925c0-1.109-.606-2.012-1.352-2.012s-1.352.9-1.352,2.012a2.644,2.644,0,0,0,.324,1.3,4.1,4.1,0,0,0-.632.281.942.942,0,0,0,.472,1.756.93.93,0,0,0,.472-.129,4.556,4.556,0,0,1,2.932-.308.941.941,0,0,0,.356-1.847Z" transform="translate(-260.883 -156.172)"/>
        <path id="Trazado_1039841" data-name="Trazado 1039841" d="M179.551,182.164a4.1,4.1,0,0,0-.632-.281,2.643,2.643,0,0,0,.324-1.3c0-1.109-.606-2.012-1.352-2.012s-1.352.9-1.352,2.012a2.81,2.81,0,0,0,.153.925,7.22,7.22,0,0,0-1.372.132.941.941,0,1,0,.356,1.847,4.563,4.563,0,0,1,2.931.308.941.941,0,0,0,.945-1.627Z" transform="translate(-156.065 -156.171)"/>
        <path id="Trazado_1039842" data-name="Trazado 1039842" d="M330.456,312.6l-10.416,2.258a.941.941,0,1,0,.4,1.839l10.416-2.258a.941.941,0,0,0-.4-1.839Z" transform="translate(-282.652 -273.374)"/>
        <path id="Trazado_1039843" data-name="Trazado 1039843" d="M330.456,340.47l-10.416,2.258a.941.941,0,1,0,.4,1.839l10.416-2.258a.941.941,0,0,0-.4-1.839Z" transform="translate(-282.652 -297.749)"/>
        <path id="Trazado_1039844" data-name="Trazado 1039844" d="M80.952,36.837h-.563V35.175a3.824,3.824,0,0,0-4.634-3.736l-2.681.581c2.929-2.152,4.362-5.493,4.362-10.126a21.616,21.616,0,1,0-43.228,0c0,4.632,1.435,7.973,4.365,10.126l-2.683-.581a3.824,3.824,0,0,0-4.635,3.736v1.662h-.563a3.582,3.582,0,0,0-3.578,3.578v2.367a3.582,3.582,0,0,0,3.578,3.578h.563V56.376a3.845,3.845,0,0,0,3.014,3.738L53.1,64.195a.941.941,0,0,0,.2.021h5.042a.941.941,0,0,0,.2-.021l18.832-4.081a3.845,3.845,0,0,0,3.014-3.738V46.359h.563a3.582,3.582,0,0,0,3.578-3.578V40.414a3.582,3.582,0,0,0-3.578-3.578ZM36.09,21.894a19.735,19.735,0,1,1,39.465,0c0,4.266-1.313,7.16-4.094,8.946a9.309,9.309,0,0,0,.147-1.234c.026-.509.047-.973.063-1.42a.941.941,0,1,0-1.88-.07c-.016.438-.037.895-.062,1.394a7.374,7.374,0,0,1-1.071,3.467L58.242,35.234H53.4l-10.34-2.241a7.351,7.351,0,0,1-1.081-3.483c-.136-2.643-.163-5.314-.085-7.98a4.2,4.2,0,0,0,.951.11,4.692,4.692,0,0,0,1.145-.146c2.07-.521,3.927-2.4,5.18-3.985a2.3,2.3,0,0,0,.629.514c1.842,1.04,4.489-.646,6.385-2.244a27.745,27.745,0,0,0,5.222-5.923c4.266,1.32,7.467,4.111,8.2,7.51.166,2.336.251,4.7.252,7.037a.941.941,0,0,0,.941.94h0a.941.941,0,0,0,.94-.941c0-2.3-.083-4.637-.242-6.943a8.871,8.871,0,0,0,.149-1.614c0-3.18-1.683-6.15-4.739-8.361A18.94,18.94,0,0,0,55.855,4.156a21.063,21.063,0,0,0-2.492.145,19.477,19.477,0,0,0-5.53,1.465,14.518,14.518,0,0,0-5.582,4.121,9.518,9.518,0,0,0-2.19,5.957,8.944,8.944,0,0,0,.15,1.623A101.455,101.455,0,0,0,40.1,29.606a9.274,9.274,0,0,0,.155,1.28c-2.831-1.784-4.167-4.692-4.167-8.992ZM55.854,7.152a21.056,21.056,0,0,0-2.492.145,19.486,19.486,0,0,0-5.53,1.464,15.185,15.185,0,0,0-4.66,3.086,12.021,12.021,0,0,1,5.411-4.356,17.6,17.6,0,0,1,5-1.322,19.2,19.2,0,0,1,2.272-.132c5.7,0,10.611,2.429,12.758,5.9a13.992,13.992,0,0,0-2.462-1.969A19.4,19.4,0,0,0,55.854,7.152Zm-7.271,3.334a17.609,17.609,0,0,1,5-1.321,19.484,19.484,0,0,1,5.887.208,26.5,26.5,0,0,1-4.5,4.966c-3.122,2.63-4.2,2.07-4.248,2.045-.334-.188-.059-.933.134-1.36a.941.941,0,0,0-1.675-.853c-.753,1.324-3.238,4.892-5.654,5.5a2.484,2.484,0,0,1-1.559-.082c.036-.747.079-1.493.132-2.238.62-2.84,2.97-5.334,6.48-6.862ZM29,42.781V40.414a1.7,1.7,0,0,1,1.7-1.7h.986a1.7,1.7,0,0,1,1.7,1.7v2.367a1.7,1.7,0,0,1-1.7,1.7h-.986A1.7,1.7,0,0,1,29,42.781Zm4.141,13.595V46.047a3.582,3.582,0,0,0,2.12-3.266V40.414a3.582,3.582,0,0,0-2.12-3.266V35.175a1.943,1.943,0,0,1,2.354-1.9l16.869,3.656v5.955a.941.941,0,1,0,1.881,0V37.115H57.4v25.22h-3.16V46.651a.941.941,0,1,0-1.881,0V62.109L34.668,58.275a1.954,1.954,0,0,1-1.531-1.9Zm43.839,1.9L59.284,62.109V36.933l16.87-3.656a1.943,1.943,0,0,1,2.354,1.9v1.974a3.582,3.582,0,0,0-2.12,3.266v2.367a3.582,3.582,0,0,0,2.12,3.266V56.376A1.954,1.954,0,0,1,76.976,58.275Zm5.672-15.493a1.7,1.7,0,0,1-1.7,1.7h-.986a1.7,1.7,0,0,1-1.7-1.7V40.414a1.7,1.7,0,0,1,1.7-1.7h.986a1.7,1.7,0,0,1,1.7,1.7Z" transform="translate(-27.115 0)"/>
      </g>
    </g>
  </g>
</svg>
