<svg xmlns="http://www.w3.org/2000/svg" xmlns:xlink="http://www.w3.org/1999/xlink" width="93.934" height="93.934" viewBox="0 0 93.934 93.934">
  <defs>
    <filter id="Trazado_982547" x="0" y="0" width="93.934" height="93.934" filterUnits="userSpaceOnUse">
      <feOffset dy="3" input="SourceAlpha"/>
      <feGaussianBlur stdDeviation="3" result="blur"/>
      <feFlood flood-opacity="0.161"/>
      <feComposite operator="in" in2="blur"/>
      <feComposite in="SourceGraphic"/>
    </filter>
  </defs>
  <g id="Grupo_1179099" data-name="Grupo 1179099" transform="translate(-609 -735)">
    <g id="Grupo_1175134" data-name="Grupo 1175134" transform="translate(419.967 -1251)">
      <g id="Grupo_1167337" data-name="Grupo 1167337" transform="translate(198.033 1992)">
        <g id="Grupo_1166720" data-name="Grupo 1166720">
          <g id="Grupo_1164305" data-name="Grupo 1164305">
            <g id="Grupo_1163948" data-name="Grupo 1163948">
              <g id="Grupo_1158168" data-name="Grupo 1158168">
                <g id="Grupo_1152576" data-name="Grupo 1152576">
                  <g id="Grupo_1148633" data-name="Grupo 1148633">
                    <g id="Grupo_1148525" data-name="Grupo 1148525">
                      <g transform="matrix(1, 0, 0, 1, -9, -6)" filter="url(#Trazado_982547)">
                        <g id="Trazado_982547-2" data-name="Trazado 982547" transform="translate(9 6)" fill="#fdfbec">
                          <path d="M 37.966796875 74.43359375 C 33.04315185546875 74.43359375 28.26757431030273 73.46962738037109 23.77274131774902 71.56847381591797 C 19.43047523498535 69.73184967041016 15.53040790557861 67.10224914550781 12.18087482452393 63.75271987915039 C 8.831341743469238 60.4031867980957 6.201741218566895 56.50312042236328 4.365118980407715 52.16086196899414 C 2.463963508605957 47.66601943969727 1.499996900558472 42.89044189453125 1.499996900558472 37.966796875 C 1.499996900558472 33.04315185546875 2.463963508605957 28.26757431030273 4.365118980407715 23.77274131774902 C 6.201741218566895 19.43047523498535 8.831341743469238 15.53040790557861 12.18087482452393 12.18087482452393 C 15.53040790557861 8.831341743469238 19.43047523498535 6.201741218566895 23.77274131774902 4.365118980407715 C 28.26757431030273 2.463963508605957 33.04315185546875 1.499996900558472 37.966796875 1.499996900558472 C 42.89044189453125 1.499996900558472 47.66601943969727 2.463963508605957 52.16086196899414 4.365118980407715 C 56.50312042236328 6.201741218566895 60.4031867980957 8.831341743469238 63.75271987915039 12.18087482452393 C 67.10224914550781 15.53040790557861 69.73184967041016 19.43047523498535 71.56847381591797 23.77274131774902 C 73.46962738037109 28.26757431030273 74.43359375 33.04315185546875 74.43359375 37.966796875 C 74.43359375 42.89044189453125 73.46962738037109 47.66601943969727 71.56847381591797 52.16086196899414 C 69.73184967041016 56.50313186645508 67.10224914550781 60.4031867980957 63.75271987915039 63.75271987915039 C 60.4031867980957 67.10224914550781 56.50313186645508 69.73184967041016 52.16086196899414 71.56847381591797 C 47.66601943969727 73.46962738037109 42.89044189453125 74.43359375 37.966796875 74.43359375 Z" stroke="none"/>
                          <path d="M 37.966796875 3 C 33.2449836730957 3 28.66600799560547 3.924095153808594 24.35705947875977 5.746635437011719 C 20.19359588623047 7.507637023925781 16.45379638671875 10.02928161621094 13.24153518676758 13.24153518676758 C 10.02927398681641 16.45379638671875 7.507621765136719 20.19359588623047 5.746635437011719 24.35705947875977 C 3.924095153808594 28.66600799560547 3 33.2449836730957 3 37.966796875 C 3 42.6886100769043 3.924095153808594 47.26758575439453 5.746635437011719 51.57653427124023 C 7.507621765136719 55.73999786376953 10.02927398681641 59.47979736328125 13.24153518676758 62.69205856323242 C 16.45379638671875 65.90431976318359 20.19359588623047 68.42597198486328 24.35705947875977 70.18695831298828 C 28.66600799560547 72.00949859619141 33.2449836730957 72.93359375 37.966796875 72.93359375 C 42.6886100769043 72.93359375 47.26758575439453 72.00949859619141 51.57653427124023 70.18695831298828 C 55.73999786376953 68.42597198486328 59.47979736328125 65.90431976318359 62.69205856323242 62.69205856323242 C 65.90431976318359 59.47979736328125 68.42597198486328 55.73999786376953 70.18695831298828 51.57653427124023 C 72.00949859619141 47.26758575439453 72.93359375 42.6886100769043 72.93359375 37.966796875 C 72.93359375 33.2449836730957 72.00949859619141 28.66600799560547 70.18695831298828 24.35705947875977 C 68.42597198486328 20.19359588623047 65.90431976318359 16.45379638671875 62.69205856323242 13.24153518676758 C 59.47979736328125 10.02928161621094 55.73999786376953 7.507637023925781 51.57653427124023 5.746635437011719 C 47.26758575439453 3.924095153808594 42.6886100769043 3 37.966796875 3 M 37.966796875 0 C 58.93528366088867 0 75.93359375 16.99832153320312 75.93359375 37.966796875 C 75.93359375 58.93528366088867 58.93528366088867 75.93359375 37.966796875 75.93359375 C 16.99831008911133 75.93359375 0 58.93528366088867 0 37.966796875 C 0 16.99832153320312 16.99831008911133 0 37.966796875 0 Z" stroke="none" fill="#84792b"/>
                        </g>
                      </g>
                    </g>
                  </g>
                </g>
              </g>
            </g>
          </g>
        </g>
      </g>
    </g>
    <g id="profesor" transform="translate(612.902 753)">
      <g id="Grupo_1179085" data-name="Grupo 1179085" transform="translate(30.209 0.78)">
        <path id="Trazado_1038519" data-name="Trazado 1038519" d="M148.843,8.4a10.137,10.137,0,1,0,5.963,9.238A10.1,10.1,0,0,0,148.843,8.4Z" transform="translate(-134.531 -7.5)" fill="#8288cb"/>
        <path id="Trazado_1038520" data-name="Trazado 1038520" d="M142.88,17.638A10.137,10.137,0,0,1,148.843,8.4a10.138,10.138,0,1,0,0,18.476A10.138,10.138,0,0,1,142.88,17.638Z" transform="translate(-134.531 -7.5)" fill="#676fb2"/>
      </g>
      <g id="Grupo_1179090" data-name="Grupo 1179090" transform="translate(31.103 39.355)">
        <g id="Grupo_1179086" data-name="Grupo 1179086" transform="translate(0 2.386)">
          <path id="Trazado_1038521" data-name="Trazado 1038521" d="M159.583,404.795a9.243,9.243,0,0,0-16.452,5.83v1.41h18.487v-1.41a9.332,9.332,0,0,0-2.035-5.83Z" transform="translate(-143.131 -401.3)" fill="#ffb357"/>
          <path id="Trazado_1038522" data-name="Trazado 1038522" d="M152.475,411.418a24.213,24.213,0,0,1-1.039-7.02v-2.629a9.218,9.218,0,0,0-6.269,3.446,9.364,9.364,0,0,0-2.035,5.83v1.41h9.657Z" transform="translate(-143.131 -401.72)" fill="#fc8a3d"/>
        </g>
        <g id="Grupo_1179089" data-name="Grupo 1179089" transform="translate(0 3.578)">
          <g id="Grupo_1179087" data-name="Grupo 1179087">
            <path id="Trazado_1038523" data-name="Trazado 1038523" d="M145.166,415.06a9.331,9.331,0,0,0-2.035,5.83v1.41h5.919a27.807,27.807,0,0,1-1.193-8.056v-1.486A9.335,9.335,0,0,0,145.166,415.06Z" transform="translate(-143.131 -412.757)" fill="#efedff"/>
            <path id="Trazado_1038524" data-name="Trazado 1038524" d="M267.844,415.06a9.33,9.33,0,0,1,2.035,5.83v1.41H263.96a27.807,27.807,0,0,0,1.193-8.056v-1.486A9.335,9.335,0,0,1,267.844,415.06Z" transform="translate(-251.392 -412.757)" fill="#efedff"/>
          </g>
          <g id="Grupo_1179088" data-name="Grupo 1179088" transform="translate(1.472 0)">
            <path id="Trazado_1038525" data-name="Trazado 1038525" d="M160.539,414.243v-1.486a9.336,9.336,0,0,0-2.691,2.3c-.112.14-.221.285-.324.432a1.339,1.339,0,0,0,.086,1.637l1.4,1.646-.382,1a1.349,1.349,0,0,0,.828,1.761l2.275.768A27.8,27.8,0,0,1,160.539,414.243Z" transform="translate(-157.285 -412.757)" fill="#d4d4ff"/>
            <path id="Trazado_1038526" data-name="Trazado 1038526" d="M265.154,414.243v-1.486a9.337,9.337,0,0,1,2.691,2.3q.168.21.323.431a1.34,1.34,0,0,1-.085,1.638l-1.4,1.646.382,1a1.349,1.349,0,0,1-.828,1.761l-2.275.768a27.81,27.81,0,0,0,1.193-8.056Z" transform="translate(-252.865 -412.757)" fill="#d4d4ff"/>
          </g>
        </g>
        <path id="Trazado_1038527" data-name="Trazado 1038527" d="M193.085,378.357l-4.517,3.578c.516,3.179,2.517,4.77,4.517,4.771s4-1.589,4.517-4.771Z" transform="translate(-183.842 -378.357)" fill="#ffbf9d"/>
      </g>
      <g id="Grupo_1179094" data-name="Grupo 1179094" transform="translate(18.878 8.942)">
        <g id="Grupo_1179091" data-name="Grupo 1179091" transform="translate(0)">
          <path id="Trazado_1038528" data-name="Trazado 1038528" d="M64.361,254.527H29.772a4.174,4.174,0,1,0,0,8.349H64.361a4.174,4.174,0,1,0,0-8.349Z" transform="translate(-25.598 -236.994)" fill="#ffbf9d"/>
          <path id="Trazado_1038529" data-name="Trazado 1038529" d="M85.905,86.207a17.3,17.3,0,1,0,14.414,17.054A17.405,17.405,0,0,0,85.905,86.207Z" transform="translate(-61.557 -85.967)" fill="#ffd4bd"/>
          <path id="Trazado_1038530" data-name="Trazado 1038530" d="M71.468,103.285A17.317,17.317,0,0,1,85.905,86.207a17.294,17.294,0,1,0,0,34.108A17.267,17.267,0,0,1,71.468,103.285Z" transform="translate(-61.557 -85.967)" fill="#ffbf9d"/>
        </g>
        <g id="Grupo_1179092" data-name="Grupo 1179092" transform="translate(8.468 23.138)">
          <ellipse id="Elipse_12393" data-name="Elipse 12393" cx="3.459" cy="2.743" rx="3.459" ry="2.743" fill="#ff8e9e"/>
          <ellipse id="Elipse_12394" data-name="Elipse 12394" cx="3.459" cy="2.743" rx="3.459" ry="2.743" transform="translate(19.083)" fill="#ff8e9e"/>
        </g>
        <g id="Grupo_1179093" data-name="Grupo 1179093" transform="translate(4.174)">
          <path id="Trazado_1038531" data-name="Trazado 1038531" d="M99.983,99.863h0a17.265,17.265,0,0,0-3.85-7.878h0a17.285,17.285,0,0,0-26.217,0h0a17.264,17.264,0,0,0-3.85,7.878h0a17.369,17.369,0,0,0-.335,3.4q0,.778.068,1.54a7.12,7.12,0,0,0,6.6-4.808,8.911,8.911,0,0,1,2.147-3.456l.033-.033a11.131,11.131,0,0,1,4.455-2.754,3.914,3.914,0,0,1,3.43.5.979.979,0,0,0,1.115,0,3.914,3.914,0,0,1,3.43-.5A11.13,11.13,0,0,1,91.467,96.5l.034.033a8.911,8.911,0,0,1,2.147,3.456,7.113,7.113,0,0,0,6.6,4.808q.067-.761.068-1.54A17.361,17.361,0,0,0,99.983,99.863Z" transform="translate(-65.73 -85.968)" fill="#8288cb"/>
          <path id="Trazado_1038532" data-name="Trazado 1038532" d="M85.906,86.207a17.311,17.311,0,0,0-15.991,5.779h0a17.264,17.264,0,0,0-3.85,7.878h0a17.369,17.369,0,0,0-.335,3.4q0,.778.068,1.54a7.1,7.1,0,0,0,5.74-3.092,17.324,17.324,0,0,1,14.369-15.5Z" transform="translate(-65.73 -85.967)" fill="#676fb2"/>
        </g>
      </g>
      <g id="Grupo_1179095" data-name="Grupo 1179095" transform="translate(50.198 35.863)">
        <path id="Trazado_1038533" data-name="Trazado 1038533" d="M327.6,361.162a1.791,1.791,0,0,1-.371-2.815l13.034-13.034a1.789,1.789,0,0,1,2.53,2.53l-13.034,13.034A1.79,1.79,0,0,1,327.6,361.162Z" transform="translate(-326.704 -344.789)" fill="#ce857a"/>
        <circle id="Elipse_12395" data-name="Elipse 12395" cx="2.385" cy="2.385" r="2.385" transform="translate(0.717 7.845)" fill="#ffbf9d"/>
        <circle id="Elipse_12396" data-name="Elipse 12396" cx="3.578" cy="3.578" r="3.578" transform="translate(2.875 8.214)" fill="#ffd4bd"/>
      </g>
      <g id="Grupo_1179097" data-name="Grupo 1179097" transform="translate(21.905 23.76)">
        <path id="Trazado_1038534" data-name="Trazado 1038534" d="M225.259,231.3a1.789,1.789,0,0,0-2.444-.655l-.7.4a2.642,2.642,0,0,0-.581-.967c-2.149-2.192-10.224-2.213-12.337.01a2.307,2.307,0,0,0-.4.578,3.135,3.135,0,0,0-3.5,0l-1.148,1.558,1.25,1.966a1.859,1.859,0,0,1,1.646-1.073,1.767,1.767,0,0,1,1.7,1.305v-.009a6.351,6.351,0,0,0,1.952,3.359c1.97,1.419,7.786,1.488,9.757-.014a5.152,5.152,0,0,0,1.517-2.506l2.617-1.511A1.789,1.789,0,0,0,225.259,231.3Z" transform="translate(-188.615 -228.427)" fill="#ff8e9e"/>
        <path id="Trazado_1038535" data-name="Trazado 1038535" d="M71.392,230.665a2.31,2.31,0,0,0-.4-.578c-2.113-2.223-10.188-2.2-12.337-.01a2.642,2.642,0,0,0-.581.967l-.7-.4a1.789,1.789,0,0,0-1.789,3.1l2.617,1.511a5.151,5.151,0,0,0,1.517,2.506c1.971,1.5,7.787,1.434,9.757.014a6.351,6.351,0,0,0,1.952-3.359l.007-.027q.026-.1.051-.2A5.274,5.274,0,0,0,71.392,230.665Z" transform="translate(-54.698 -228.426)" fill="#ea5b70"/>
        <g id="Grupo_1179096" data-name="Grupo 1179096" transform="translate(5.806 2.686)">
          <path id="Trazado_1038536" data-name="Trazado 1038536" d="M119,256.208a4.938,4.938,0,0,1-1.072,2.521c-1.064.767-5.6.788-6.56.029a4.748,4.748,0,0,1-.847-2.624,1.43,1.43,0,0,1,1.014-1.474,13.742,13.742,0,0,1,6.423-.065A1.426,1.426,0,0,1,119,256.208Z" transform="translate(-110.52 -254.246)" fill="#b9f0ff"/>
          <path id="Trazado_1038537" data-name="Trazado 1038537" d="M280.224,256.134a4.748,4.748,0,0,1-.847,2.624c-.964.758-5.5.737-6.56-.029a4.938,4.938,0,0,1-1.072-2.521,1.426,1.426,0,0,1,1.042-1.613,13.739,13.739,0,0,1,6.423.065A1.43,1.43,0,0,1,280.224,256.134Z" transform="translate(-254.956 -254.246)" fill="#b9f0ff"/>
        </g>
      </g>
      <g id="Grupo_1179098" data-name="Grupo 1179098" transform="translate(18.098 0)">
        <path id="Trazado_1038538" data-name="Trazado 1038538" d="M272.705,247.176a14.44,14.44,0,0,0-6.845-.07,2.194,2.194,0,0,0-1.61,2.5,5.509,5.509,0,0,0,1.385,3.022c1.328.956,6.241,1,7.5.01.8-.631,1.1-2.513,1.142-3.184a2.2,2.2,0,0,0-1.572-2.275Zm-.547,4.242a7.606,7.606,0,0,1-3.188.373,2.816,2.816,0,0,0,.035-.788.78.78,0,0,0-.777-.784h0a.78.78,0,0,0-.78.777c0,.591,0,.581,0,.643a2.718,2.718,0,0,1-.892-.275,4.947,4.947,0,0,1-.765-2.024.649.649,0,0,1,.475-.727,13.074,13.074,0,0,1,6,.059h0a.647.647,0,0,1,.457.673A4.855,4.855,0,0,1,272.159,251.418Z" transform="translate(-238.618 -221.065)"/>
        <path id="Trazado_1038539" data-name="Trazado 1038539" d="M111.442,247.105a14.437,14.437,0,0,0-6.845.07,2.2,2.2,0,0,0-1.572,2.275c.046.672.34,2.553,1.142,3.184,1.259.99,6.173.946,7.5-.01a5.51,5.51,0,0,0,1.385-3.022A2.194,2.194,0,0,0,111.442,247.105Zm.072,2.235a4.949,4.949,0,0,1-.765,2.024,2.683,2.683,0,0,1-.876.271,4.86,4.86,0,0,0,.014-.7.78.78,0,0,0-.777-.784h0a.78.78,0,0,0-.78.777c0,.6-.019.679.052.859a7.6,7.6,0,0,1-3.235-.371,4.853,4.853,0,0,1-.562-2.072.647.647,0,0,1,.457-.673,13.077,13.077,0,0,1,6-.059.649.649,0,0,1,.475.727Z" transform="translate(-94.187 -221.065)"/>
        <path id="Trazado_1038540" data-name="Trazado 1038540" d="M213.182,314.363a2.642,2.642,0,0,0,1.992-.907A.78.78,0,1,0,214,312.431a1.081,1.081,0,0,1-1.632,0,.78.78,0,1,0-1.176,1.025A2.642,2.642,0,0,0,213.182,314.363Z" transform="translate(-190.933 -279.694)"/>
        <path id="Trazado_1038541" data-name="Trazado 1038541" d="M66.837,35.836a2.569,2.569,0,0,0-3.634,0l-7.588,7.588a4.349,4.349,0,0,0-.426.128,3.164,3.164,0,0,0-4.3,4.593c-1,1-.652.652-.757.76a9.683,9.683,0,0,0-3.581-5.692A18.1,18.1,0,0,0,55.813,35.6h1.828a4.954,4.954,0,0,0,1.324-9.728,2.536,2.536,0,0,0-.565-.5,18.008,18.008,0,0,0-2.217-7.85.78.78,0,1,0-1.371.745,16.419,16.419,0,0,1,2,6.695,2.563,2.563,0,0,0-1.079.328,3.02,3.02,0,0,0-.346-.426A6.9,6.9,0,0,0,51.947,23.3a10.952,10.952,0,0,0-2.605-4.371,11.93,11.93,0,0,0-4.765-2.944,4.72,4.72,0,0,0-4.114.6.2.2,0,0,1-.232,0,4.72,4.72,0,0,0-4.114-.6,11.93,11.93,0,0,0-4.765,2.944A10.958,10.958,0,0,0,28.746,23.3a6.9,6.9,0,0,0-3.437,1.567,3.022,3.022,0,0,0-.346.426,2.563,2.563,0,0,0-1.079-.328,16.518,16.518,0,0,1,29.278-9.154.78.78,0,1,0,1.2-1,18.837,18.837,0,0,0-3.132-3,10.917,10.917,0,1,0-21.8-.89c0,.3.013.593.037.889a18.035,18.035,0,0,0-7.172,13.565,2.536,2.536,0,0,0-.565.5A4.954,4.954,0,0,0,23.053,35.6H24.89a18.147,18.147,0,0,0,6.072,6.079.78.78,0,0,0,.811-1.333,16.553,16.553,0,0,1-7.252-9.381l.249.144a5.6,5.6,0,0,0,1.69,2.6c2.192,1.671,8.384,1.685,10.686.027a7.23,7.23,0,0,0,2.3-3.975,1.114,1.114,0,0,1,.9-.533,1.034,1.034,0,0,1,.931.621,7.486,7.486,0,0,0,2.27,3.887c2.3,1.659,8.494,1.643,10.686-.027a5.6,5.6,0,0,0,1.69-2.6l.25-.145a16.528,16.528,0,0,1-21.73,10.694.78.78,0,0,0-.559,1.457c.086.033.173.064.26.1a9.81,9.81,0,0,0-3.821,7.851v1.41a.78.78,0,0,0,.78.78H49.59a.78.78,0,0,0,.757-.593A2.567,2.567,0,0,0,53.8,52.5l.933-.933a4.357,4.357,0,0,0,5.828-5.828l6.273-6.273A2.572,2.572,0,0,0,66.837,35.836ZM40.347,1.56A9.36,9.36,0,0,1,49.7,10.775a18.039,18.039,0,0,0-18.711,0A9.368,9.368,0,0,1,40.347,1.56ZM58.284,29.75a2.566,2.566,0,0,0,1.263-1.907,3.393,3.393,0,0,1-1.906,6.2h-.984a18.013,18.013,0,0,0,1.4-4.16Zm-25.828-9.72A10.384,10.384,0,0,1,36.6,17.465a3.152,3.152,0,0,1,2.746.4,1.752,1.752,0,0,0,2,0,3.151,3.151,0,0,1,2.746-.4,10.384,10.384,0,0,1,4.146,2.564,7.929,7.929,0,0,1,1.925,3.014c-2.533-.217-6.723.081-8.328,1.938a3.9,3.9,0,0,0-2.978,0c-1.616-1.87-5.831-2.153-8.329-1.938a7.942,7.942,0,0,1,1.926-3.014Zm-9.4,14.014a3.393,3.393,0,0,1-1.906-6.2A2.566,2.566,0,0,0,22.41,29.75l.233.134a17.948,17.948,0,0,0,1.4,4.16h-.991Zm31.834-4.134a.78.78,0,0,0-.354.441,4.465,4.465,0,0,1-1.246,2.121c-1.644,1.253-7.09,1.254-8.828,0a5.568,5.568,0,0,1-1.647-2.9,2.549,2.549,0,0,0-4.92-.037,5.788,5.788,0,0,1-1.657,2.938c-1.738,1.252-7.184,1.251-8.828,0A4.464,4.464,0,0,1,26.16,30.35c-.121-.383-.133-.313-2.971-1.952a1.01,1.01,0,0,1-.374-1.37l0,0,.027-.041a1,1,0,0,1,.489-.4l.006,0a1.006,1.006,0,0,1,.858.071l.7.4a.78.78,0,0,0,1.124-.411,1.873,1.873,0,0,1,.4-.685,5.869,5.869,0,0,1,2.991-1.2c3.236-.565,7.079,0,8.224,1.2a1.541,1.541,0,0,1,.261.385.78.78,0,0,0,1.132.306,2.355,2.355,0,0,1,2.631,0,.78.78,0,0,0,1.132-.306c.819-1.669,5.4-2.122,8.484-1.585a5.871,5.871,0,0,1,2.992,1.2,1.872,1.872,0,0,1,.4.685.78.78,0,0,0,1.124.412l.7-.4a1.006,1.006,0,0,1,1.354.333l.029.045A1.01,1.01,0,0,1,57.5,28.4Zm-14.54,14.4a18.141,18.141,0,0,0,3.5-.34,3.738,3.738,0,0,1-3.5,2.953h0a3.74,3.74,0,0,1-3.5-2.953A18.11,18.11,0,0,0,40.347,44.31ZM31.883,51.7a9.245,9.245,0,0,1,.572-3.711l.952,1.118a2.426,2.426,0,0,0,.059,2.592Zm2.78-1.024c-.134-.284-.032-.406.366-1.442a.78.78,0,0,0-.134-.785l-1.4-1.646a.561.561,0,0,1-.053-.665,7.079,7.079,0,0,1,1.608-1.647,28.556,28.556,0,0,0,.833,6.78C34.956,50.955,34.794,50.95,34.664,50.672ZM43.086,51.7H37.607a27.006,27.006,0,0,1-.887-4.841,4.961,4.961,0,0,0,3.626,1.629h0a4.959,4.959,0,0,0,3.625-1.628A27.023,27.023,0,0,1,43.086,51.7Zm2.944-1.024a.564.564,0,0,1-.333.3l-.885.3a28.586,28.586,0,0,0,.832-6.79,7.358,7.358,0,0,1,1.547,1.571.564.564,0,0,1,.008.751l-1.4,1.646C45.191,49.157,46.319,50.056,46.03,50.672ZM48.81,51.7H47.227a2.429,2.429,0,0,0,.059-2.592l.951-1.118a8.521,8.521,0,0,1,.572,3.08Zm3.89-.3a1.009,1.009,0,0,1-1.427-1.427l.916-.916a3.115,3.115,0,0,0,.378.115,4.345,4.345,0,0,0,.9,1.459Zm-.4-4.051a1.6,1.6,0,0,1,1.319-2.827A4.345,4.345,0,0,0,52.3,47.349Zm6.77,1.7a2.8,2.8,0,1,1-1.024-3.822A2.8,2.8,0,0,1,59.074,49.054Zm6.66-10.688-6.106,6.106A4.346,4.346,0,0,0,57.8,43.451l6.512-6.512a1.009,1.009,0,1,1,1.427,1.427Z" transform="translate(-18.098 0)"/>
      </g>
    </g>
  </g>
</svg>
