<svg xmlns="http://www.w3.org/2000/svg" xmlns:xlink="http://www.w3.org/1999/xlink" width="93.934" height="93.934" viewBox="0 0 93.934 93.934">
  <defs>
    <filter id="Trazado_982547" x="0" y="0" width="93.934" height="93.934" filterUnits="userSpaceOnUse">
      <feOffset dy="3" input="SourceAlpha"/>
      <feGaussianBlur stdDeviation="3" result="blur"/>
      <feFlood flood-opacity="0.161"/>
      <feComposite operator="in" in2="blur"/>
      <feComposite in="SourceGraphic"/>
    </filter>
  </defs>
  <g id="Grupo_1179101" data-name="Grupo 1179101" transform="translate(-1029.033 -735.473)">
    <g id="Grupo_1175135" data-name="Grupo 1175135" transform="translate(840 -1250.527)">
      <g id="Grupo_1167337" data-name="Grupo 1167337" transform="translate(198.033 1992)">
        <g id="Grupo_1166720" data-name="Grupo 1166720">
          <g id="Grupo_1164305" data-name="Grupo 1164305">
            <g id="Grupo_1163948" data-name="Grupo 1163948">
              <g id="Grupo_1158168" data-name="Grupo 1158168">
                <g id="Grupo_1152576" data-name="Grupo 1152576">
                  <g id="Grupo_1148633" data-name="Grupo 1148633">
                    <g id="Grupo_1148525" data-name="Grupo 1148525">
                      <g transform="matrix(1, 0, 0, 1, -9, -6)" filter="url(#Trazado_982547)">
                        <g id="Trazado_982547-2" data-name="Trazado 982547" transform="translate(9 6)" fill="#fdfbec">
                          <path d="M 37.966796875 74.43359375 C 33.04315185546875 74.43359375 28.26757431030273 73.46962738037109 23.77274131774902 71.56847381591797 C 19.43047523498535 69.73184967041016 15.53040790557861 67.10224914550781 12.18087482452393 63.75271987915039 C 8.831341743469238 60.4031867980957 6.201741218566895 56.50312042236328 4.365118980407715 52.16086196899414 C 2.463963508605957 47.66601943969727 1.499996900558472 42.89044189453125 1.499996900558472 37.966796875 C 1.499996900558472 33.04315185546875 2.463963508605957 28.26757431030273 4.365118980407715 23.77274131774902 C 6.201741218566895 19.43047523498535 8.831341743469238 15.53040790557861 12.18087482452393 12.18087482452393 C 15.53040790557861 8.831341743469238 19.43047523498535 6.201741218566895 23.77274131774902 4.365118980407715 C 28.26757431030273 2.463963508605957 33.04315185546875 1.499996900558472 37.966796875 1.499996900558472 C 42.89044189453125 1.499996900558472 47.66601943969727 2.463963508605957 52.16086196899414 4.365118980407715 C 56.50312042236328 6.201741218566895 60.4031867980957 8.831341743469238 63.75271987915039 12.18087482452393 C 67.10224914550781 15.53040790557861 69.73184967041016 19.43047523498535 71.56847381591797 23.77274131774902 C 73.46962738037109 28.26757431030273 74.43359375 33.04315185546875 74.43359375 37.966796875 C 74.43359375 42.89044189453125 73.46962738037109 47.66601943969727 71.56847381591797 52.16086196899414 C 69.73184967041016 56.50313186645508 67.10224914550781 60.4031867980957 63.75271987915039 63.75271987915039 C 60.4031867980957 67.10224914550781 56.50313186645508 69.73184967041016 52.16086196899414 71.56847381591797 C 47.66601943969727 73.46962738037109 42.89044189453125 74.43359375 37.966796875 74.43359375 Z" stroke="none"/>
                          <path d="M 37.966796875 3 C 33.2449836730957 3 28.66600799560547 3.924095153808594 24.35705947875977 5.746635437011719 C 20.19359588623047 7.507637023925781 16.45379638671875 10.02928161621094 13.24153518676758 13.24153518676758 C 10.02927398681641 16.45379638671875 7.507621765136719 20.19359588623047 5.746635437011719 24.35705947875977 C 3.924095153808594 28.66600799560547 3 33.2449836730957 3 37.966796875 C 3 42.6886100769043 3.924095153808594 47.26758575439453 5.746635437011719 51.57653427124023 C 7.507621765136719 55.73999786376953 10.02927398681641 59.47979736328125 13.24153518676758 62.69205856323242 C 16.45379638671875 65.90431976318359 20.19359588623047 68.42597198486328 24.35705947875977 70.18695831298828 C 28.66600799560547 72.00949859619141 33.2449836730957 72.93359375 37.966796875 72.93359375 C 42.6886100769043 72.93359375 47.26758575439453 72.00949859619141 51.57653427124023 70.18695831298828 C 55.73999786376953 68.42597198486328 59.47979736328125 65.90431976318359 62.69205856323242 62.69205856323242 C 65.90431976318359 59.47979736328125 68.42597198486328 55.73999786376953 70.18695831298828 51.57653427124023 C 72.00949859619141 47.26758575439453 72.93359375 42.6886100769043 72.93359375 37.966796875 C 72.93359375 33.2449836730957 72.00949859619141 28.66600799560547 70.18695831298828 24.35705947875977 C 68.42597198486328 20.19359588623047 65.90431976318359 16.45379638671875 62.69205856323242 13.24153518676758 C 59.47979736328125 10.02928161621094 55.73999786376953 7.507637023925781 51.57653427124023 5.746635437011719 C 47.26758575439453 3.924095153808594 42.6886100769043 3 37.966796875 3 M 37.966796875 0 C 58.93528366088867 0 75.93359375 16.99832153320312 75.93359375 37.966796875 C 75.93359375 58.93528366088867 58.93528366088867 75.93359375 37.966796875 75.93359375 C 16.99831008911133 75.93359375 0 58.93528366088867 0 37.966796875 C 0 16.99832153320312 16.99831008911133 0 37.966796875 0 Z" stroke="none" fill="#84792b"/>
                        </g>
                      </g>
                    </g>
                  </g>
                </g>
              </g>
            </g>
          </g>
        </g>
      </g>
    </g>
    <g id="objetivo_2_" data-name="objetivo (2)" transform="translate(1050.107 749.139)">
      <g id="Grupo_1179100" data-name="Grupo 1179100" transform="translate(1.566 0.811)">
        <path id="Trazado_1038542" data-name="Trazado 1038542" d="M95.161,34.457l3.109,7.894.944,1.915L85.626,49.347l-2.058-4.9-1.854-4.776L80.83,37.7,94.5,32.162Z" transform="translate(-72.976 -29.493)" fill="#baafb9"/>
        <path id="Trazado_1038543" data-name="Trazado 1038543" d="M87.606,39.362l8.229-3.194-.674-1.712L94.5,32.162,80.83,37.7l.884,1.975.4,1.031,1.454,3.745,2.058,4.9L89.222,48l-1.493-3.55L86.621,41.6a1.726,1.726,0,0,1,.985-2.233Z" transform="translate(-72.976 -29.493)" fill="#aa9ea9"/>
        <circle id="Elipse_12397" data-name="Elipse 12397" cx="20.67" cy="20.67" r="20.67" transform="translate(0.002 12.338)" fill="#a6e7f0"/>
        <path id="Trazado_1038544" data-name="Trazado 1038544" d="M16.711,144.273A20.672,20.672,0,0,1,33.1,121.941,20.672,20.672,0,1,0,31,162.75a20.946,20.946,0,0,0,2.088-.319,20.678,20.678,0,0,1-16.374-18.159Z" transform="translate(-8.239 -109.178)" fill="#6bd9e7"/>
        <circle id="Elipse_12398" data-name="Elipse 12398" cx="14.61" cy="14.61" r="14.61" transform="translate(6.061 18.398)" fill="#fee45a"/>
        <path id="Trazado_1038545" data-name="Trazado 1038545" d="M70.25,227.093a20.678,20.678,0,0,1,.009-23.594,14.6,14.6,0,0,0-.009,23.594Z" transform="translate(-58.192 -182.292)" fill="#fedf30"/>
        <circle id="Elipse_12399" data-name="Elipse 12399" cx="7.493" cy="7.493" r="7.493" transform="translate(13.178 25.515)" fill="#f47c7c"/>
        <path id="Trazado_1038546" data-name="Trazado 1038546" d="M59.13,7.561,38.544,15.55a.923.923,0,0,0-.526,1.194l.7,1.795a.923.923,0,0,0,1.194.526l20.586-7.989a.923.923,0,0,0,.526-1.194l-.7-1.795A.923.923,0,0,0,59.13,7.561Z" transform="translate(-34.74 -7.498)" fill="#baafb9"/>
        <path id="Trazado_1038547" data-name="Trazado 1038547" d="M52.929,244.17h-.815a1.793,1.793,0,0,0-1.793,1.793v2.053a.563.563,0,0,0,.563.563h3.276a.563.563,0,0,0,.563-.563v-2.053A1.793,1.793,0,0,0,52.929,244.17Z" transform="translate(-45.768 -218.562)" fill="#d7d0d6"/>
        <path id="Trazado_1038548" data-name="Trazado 1038548" d="M428.6,283.427h-6.9a.555.555,0,0,1-.535-.41l-.933-3.468a.554.554,0,0,1,0-.288l.933-3.468a.555.555,0,0,1,.535-.41h6.9a.554.554,0,0,1,.535.7l-.855,3.18a.555.555,0,0,0,0,.288l.855,3.18A.554.554,0,0,1,428.6,283.427Z" transform="translate(-375.643 -246.397)" fill="#f47c7c"/>
      </g>
      <path id="Trazado_1038549" data-name="Trazado 1038549" d="M55.008,33.819l.837-3.113a1.366,1.366,0,0,0-1.319-1.721h-6.9A1.368,1.368,0,0,0,46.311,30l-.81,3.011H43.7A21.491,21.491,0,0,0,27.46,12.98L24.805,6.236l2.809-1.09A1.734,1.734,0,0,0,28.6,2.9l-.7-1.795A1.737,1.737,0,0,0,25.663.118L5.077,8.107a1.734,1.734,0,0,0-.989,2.244l.7,1.795a1.731,1.731,0,0,0,2.244.989l.48-.186v5.242A21.478,21.478,0,1,0,43.7,34.631h1.8l.81,3.012a1.368,1.368,0,0,0,1.319,1.011h2.062a.812.812,0,0,0,0-1.623H47.827l-.646-2.4h6.364l.645,2.4H53.15a.812.812,0,1,0,0,1.623h1.376a1.366,1.366,0,0,0,1.319-1.721Zm-7.181-3.211h6.364l-.645,2.4H47.181ZM9.131,12.319l.71-.276,1.31,3.375A21.485,21.485,0,0,0,9.131,16.8ZM7.912,27.231h.815a.983.983,0,0,1,.982.982v1.8H6.931v-1.8a.983.983,0,0,1,.982-.982ZM22.237,53.677A19.851,19.851,0,0,1,7.508,20.51v5.13a2.609,2.609,0,0,0-2.2,2.573v2.053a1.376,1.376,0,0,0,1.374,1.374H9.957a1.376,1.376,0,0,0,1.374-1.374V28.213a2.609,2.609,0,0,0-2.2-2.573V18.906a19.725,19.725,0,0,1,10.6-4.787.812.812,0,0,0-.2-1.61,21.3,21.3,0,0,0-6.943,2.117l-1.23-3.169.821-.319a.812.812,0,1,0-.587-1.513l-1.576.612h0L6.441,11.622a.112.112,0,0,1-.144-.064L5.6,9.764a.111.111,0,0,1,.063-.144L26.25,1.631a.111.111,0,0,1,.144.064l.7,1.795a.111.111,0,0,1-.064.144L14.812,8.373A.812.812,0,0,0,15.4,9.886l7.893-3.063L25.566,12.6a21.671,21.671,0,0,0-2.446-.239.812.812,0,0,0-.066,1.622A19.856,19.856,0,0,1,42.078,33.008H37.643a15.427,15.427,0,0,0-26.8-9.586.811.811,0,0,0,1.2,1.094,13.8,13.8,0,0,1,23.978,8.491H30.5a8.3,8.3,0,1,0,0,1.623h5.515A13.8,13.8,0,0,1,8.436,34.06a.811.811,0,0,0-.811-.8H7.611a.812.812,0,0,0-.8.825,15.427,15.427,0,0,0,30.83.543h4.434a19.881,19.881,0,0,1-19.84,19.047Zm0-19.047h6.631a6.682,6.682,0,1,1,0-1.623H22.237a.812.812,0,0,0,0,1.623Z" transform="translate(0 0)"/>
    </g>
  </g>
</svg>
