<svg xmlns="http://www.w3.org/2000/svg" xmlns:xlink="http://www.w3.org/1999/xlink" width="93.934" height="93.934" viewBox="0 0 93.934 93.934">
  <defs>
    <filter id="Trazado_982547" x="0" y="0" width="93.934" height="93.934" filterUnits="userSpaceOnUse">
      <feOffset dy="3" input="SourceAlpha"/>
      <feGaussianBlur stdDeviation="3" result="blur"/>
      <feFlood flood-opacity="0.161"/>
      <feComposite operator="in" in2="blur"/>
      <feComposite in="SourceGraphic"/>
    </filter>
  </defs>
  <g id="Grupo_1179084" data-name="Grupo 1179084" transform="translate(-189 -735)">
    <g id="Grupo_1175133" data-name="Grupo 1175133" transform="translate(-0.033 -1251)">
      <g id="Grupo_1167337" data-name="Grupo 1167337" transform="translate(198.033 1992)">
        <g id="Grupo_1166720" data-name="Grupo 1166720">
          <g id="Grupo_1164305" data-name="Grupo 1164305">
            <g id="Grupo_1163948" data-name="Grupo 1163948">
              <g id="Grupo_1158168" data-name="Grupo 1158168">
                <g id="Grupo_1152576" data-name="Grupo 1152576">
                  <g id="Grupo_1148633" data-name="Grupo 1148633">
                    <g id="Grupo_1148525" data-name="Grupo 1148525">
                      <g transform="matrix(1, 0, 0, 1, -9, -6)" filter="url(#Trazado_982547)">
                        <g id="Trazado_982547-2" data-name="Trazado 982547" transform="translate(9 6)" fill="#fdfbec">
                          <path d="M 37.966796875 74.43359375 C 33.04315185546875 74.43359375 28.26757431030273 73.46962738037109 23.77274131774902 71.56847381591797 C 19.43047523498535 69.73184967041016 15.53040790557861 67.10224914550781 12.18087482452393 63.75271987915039 C 8.831341743469238 60.4031867980957 6.201741218566895 56.50312042236328 4.365118980407715 52.16086196899414 C 2.463963508605957 47.66601943969727 1.499996900558472 42.89044189453125 1.499996900558472 37.966796875 C 1.499996900558472 33.04315185546875 2.463963508605957 28.26757431030273 4.365118980407715 23.77274131774902 C 6.201741218566895 19.43047523498535 8.831341743469238 15.53040790557861 12.18087482452393 12.18087482452393 C 15.53040790557861 8.831341743469238 19.43047523498535 6.201741218566895 23.77274131774902 4.365118980407715 C 28.26757431030273 2.463963508605957 33.04315185546875 1.499996900558472 37.966796875 1.499996900558472 C 42.89044189453125 1.499996900558472 47.66601943969727 2.463963508605957 52.16086196899414 4.365118980407715 C 56.50312042236328 6.201741218566895 60.4031867980957 8.831341743469238 63.75271987915039 12.18087482452393 C 67.10224914550781 15.53040790557861 69.73184967041016 19.43047523498535 71.56847381591797 23.77274131774902 C 73.46962738037109 28.26757431030273 74.43359375 33.04315185546875 74.43359375 37.966796875 C 74.43359375 42.89044189453125 73.46962738037109 47.66601943969727 71.56847381591797 52.16086196899414 C 69.73184967041016 56.50313186645508 67.10224914550781 60.4031867980957 63.75271987915039 63.75271987915039 C 60.4031867980957 67.10224914550781 56.50313186645508 69.73184967041016 52.16086196899414 71.56847381591797 C 47.66601943969727 73.46962738037109 42.89044189453125 74.43359375 37.966796875 74.43359375 Z" stroke="none"/>
                          <path d="M 37.966796875 3 C 33.2449836730957 3 28.66600799560547 3.924095153808594 24.35705947875977 5.746635437011719 C 20.19359588623047 7.507637023925781 16.45379638671875 10.02928161621094 13.24153518676758 13.24153518676758 C 10.02927398681641 16.45379638671875 7.507621765136719 20.19359588623047 5.746635437011719 24.35705947875977 C 3.924095153808594 28.66600799560547 3 33.2449836730957 3 37.966796875 C 3 42.6886100769043 3.924095153808594 47.26758575439453 5.746635437011719 51.57653427124023 C 7.507621765136719 55.73999786376953 10.02927398681641 59.47979736328125 13.24153518676758 62.69205856323242 C 16.45379638671875 65.90431976318359 20.19359588623047 68.42597198486328 24.35705947875977 70.18695831298828 C 28.66600799560547 72.00949859619141 33.2449836730957 72.93359375 37.966796875 72.93359375 C 42.6886100769043 72.93359375 47.26758575439453 72.00949859619141 51.57653427124023 70.18695831298828 C 55.73999786376953 68.42597198486328 59.47979736328125 65.90431976318359 62.69205856323242 62.69205856323242 C 65.90431976318359 59.47979736328125 68.42597198486328 55.73999786376953 70.18695831298828 51.57653427124023 C 72.00949859619141 47.26758575439453 72.93359375 42.6886100769043 72.93359375 37.966796875 C 72.93359375 33.2449836730957 72.00949859619141 28.66600799560547 70.18695831298828 24.35705947875977 C 68.42597198486328 20.19359588623047 65.90431976318359 16.45379638671875 62.69205856323242 13.24153518676758 C 59.47979736328125 10.02928161621094 55.73999786376953 7.507637023925781 51.57653427124023 5.746635437011719 C 47.26758575439453 3.924095153808594 42.6886100769043 3 37.966796875 3 M 37.966796875 0 C 58.93528366088867 0 75.93359375 16.99832153320312 75.93359375 37.966796875 C 75.93359375 58.93528366088867 58.93528366088867 75.93359375 37.966796875 75.93359375 C 16.99831008911133 75.93359375 0 58.93528366088867 0 37.966796875 C 0 16.99832153320312 16.99831008911133 0 37.966796875 0 Z" stroke="none" fill="#84792b"/>
                        </g>
                      </g>
                    </g>
                  </g>
                </g>
              </g>
            </g>
          </g>
        </g>
      </g>
    </g>
    <g id="repetitivo" transform="translate(214 756.837)">
      <g id="Grupo_1179082" data-name="Grupo 1179082" transform="translate(0.656 0.819)">
        <path id="Trazado_1038500" data-name="Trazado 1038500" d="M122.282,330.529c0-7.65,4.858-10.59,4.858-10.59l13.685-.875a14.992,14.992,0,0,1,4.858,11.465Z" transform="translate(-112.239 -291.816)" fill="#ffb4bf"/>
        <path id="Trazado_1038501" data-name="Trazado 1038501" d="M352.045,9.059a4.58,4.58,0,1,1,6.477,6.477c-1.789,1.789-5.292,2.392-7.081.6s-1.185-5.292.6-7.081Z" transform="translate(-320.364 -7.713)" fill="#4c5698"/>
        <path id="Trazado_1038502" data-name="Trazado 1038502" d="M65.465,24.335a16.672,16.672,0,0,1,33.344,0Z" transform="translate(-60.393 -7.663)" fill="#696eb1"/>
        <path id="Trazado_1038503" data-name="Trazado 1038503" d="M61.834,10.354a5.443,5.443,0,0,0-.943-1.3,4.58,4.58,0,0,0-6.477,6.477,5.6,5.6,0,0,0,1.648,1.117,16.567,16.567,0,0,0-1.9,7.731h5.919a20.98,20.98,0,0,1,8.352-16.5A16.567,16.567,0,0,0,61.834,10.354Z" transform="translate(-49.085 -7.713)" fill="#4c5698"/>
        <circle id="Elipse_12390" data-name="Elipse 12390" cx="3.466" cy="3.466" r="3.466" transform="translate(32.133 14.742)" fill="#c7856a"/>
        <path id="Trazado_1038504" data-name="Trazado 1038504" d="M175.133,319.064l-13.685.875a8.146,8.146,0,0,0-1.568,1.367,16.848,16.848,0,0,0,8.394,2.179h.157a16.872,16.872,0,0,0,8.594-2.345A11.329,11.329,0,0,0,175.133,319.064Z" transform="translate(-146.547 -291.816)" fill="#ff8d9d"/>
        <path id="Trazado_1038505" data-name="Trazado 1038505" d="M125.551,115.141a1.047,1.047,0,0,0-1.562-.379,4.4,4.4,0,0,1-5.9-.577,1.041,1.041,0,0,0-1.535,0,4.4,4.4,0,0,1-6.531,0,1.041,1.041,0,0,0-1.535,0,4.4,4.4,0,0,1-5.9.577,1.044,1.044,0,0,0-1.557.368,13.624,13.624,0,0,0-1.431,6.1c0,7.552,6.254,12.874,13.806,12.809,7.5-.065,13.563-5.292,13.563-12.809A13.626,13.626,0,0,0,125.551,115.141Z" transform="translate(-91.549 -104.556)" fill="#da9d81"/>
        <path id="Trazado_1038506" data-name="Trazado 1038506" d="M67.2,139.006a21.074,21.074,0,0,1-1.654-16.35,4.4,4.4,0,0,1-.88-.51,1.044,1.044,0,0,0-1.557.368,13.591,13.591,0,0,0-1.3,4.182c-.1-.009-.2-.015-.3-.015a3.466,3.466,0,0,0,0,6.932,2.964,2.964,0,0,0,1.1-.2A12.434,12.434,0,0,0,67.2,139.006Z" transform="translate(-53.622 -111.939)" fill="#c7856a"/>
        <g id="Grupo_1179081" data-name="Grupo 1179081" transform="translate(10.931 19.983)">
          <g id="Grupo_1179080" data-name="Grupo 1179080">
            <g id="Grupo_1179078" data-name="Grupo 1179078">
              <ellipse id="Elipse_12391" data-name="Elipse 12391" cx="2.914" cy="2.321" rx="2.914" ry="2.321" fill="#eeedff"/>
            </g>
            <g id="Grupo_1179079" data-name="Grupo 1179079" transform="translate(15.797)">
              <ellipse id="Elipse_12392" data-name="Elipse 12392" cx="2.914" cy="2.321" rx="2.914" ry="2.321" fill="#eeedff"/>
            </g>
          </g>
        </g>
        <path id="Trazado_1038507" data-name="Trazado 1038507" d="M7.5,438.69H50.988v5.744H7.5Z" transform="translate(-7.5 -400.975)" fill="#71dbba"/>
        <path id="Trazado_1038508" data-name="Trazado 1038508" d="M103.647,305.64a4.04,4.04,0,0,0-4.04,4.04,2.429,2.429,0,0,0,2.429,2.429h3.221a2.429,2.429,0,0,0,2.429-2.429A4.04,4.04,0,0,0,103.647,305.64Z" transform="translate(-91.548 -279.567)" fill="#c7856a"/>
        <path id="Trazado_1038509" data-name="Trazado 1038509" d="M189.351,385.746H178.784l-1.614-3.085,1.614-3.085h10.567l1.6,3.085Z" transform="translate(-162.324 -347.034)" fill="#fce29f"/>
        <path id="Trazado_1038510" data-name="Trazado 1038510" d="M76.924,379.576a2.073,2.073,0,0,0-2.073,2.073v2.024a2.073,2.073,0,0,0,2.073,2.073h8.494v-6.17Z" transform="translate(-68.958 -347.034)" fill="#ff8d9d"/>
        <path id="Trazado_1038511" data-name="Trazado 1038511" d="M324.877,379.576h-8.494v6.17h8.494a2.073,2.073,0,0,0,2.073-2.073v-2.024A2.073,2.073,0,0,0,324.877,379.576Z" transform="translate(-289.356 -347.034)" fill="#c8a9f1"/>
        <path id="Trazado_1038512" data-name="Trazado 1038512" d="M77.809,381.1a6.728,6.728,0,0,1,.176-1.526H76.924a2.073,2.073,0,0,0-2.073,2.073v2.024a2.073,2.073,0,0,0,2.073,2.073h2.751A6.693,6.693,0,0,1,77.809,381.1Z" transform="translate(-68.958 -347.034)" fill="#e95b70"/>
        <path id="Trazado_1038513" data-name="Trazado 1038513" d="M200.441,385.746a6.707,6.707,0,0,1-1.69-6.17h-3.135v6.17Z" transform="translate(-179.157 -347.034)" fill="#ffcd71"/>
        <path id="Trazado_1038514" data-name="Trazado 1038514" d="M321.207,385.746a6.707,6.707,0,0,1-1.69-6.17h-3.135v6.17Z" transform="translate(-289.356 -347.034)" fill="#b18ae3"/>
      </g>
      <g id="Grupo_1179083" data-name="Grupo 1179083" transform="translate(0 0.163)">
        <path id="Trazado_1038515" data-name="Trazado 1038515" d="M178.3,215.918a.656.656,0,0,0-.656.656v1.191a.656.656,0,0,0,1.313,0v-1.191A.656.656,0,0,0,178.3,215.918Z" transform="translate(-162.1 -197.039)"/>
        <path id="Trazado_1038516" data-name="Trazado 1038516" d="M320.012,215.918a.656.656,0,0,0-.656.656v1.191a.656.656,0,0,0,1.313,0v-1.191A.656.656,0,0,0,320.012,215.918Z" transform="translate(-291.412 -197.039)"/>
        <path id="Trazado_1038517" data-name="Trazado 1038517" d="M234.176,229.288a.656.656,0,0,0-.926.064,1.51,1.51,0,0,1-2.28,0,.656.656,0,0,0-.99.862,2.823,2.823,0,0,0,4.259,0A.656.656,0,0,0,234.176,229.288Z" transform="translate(-209.71 -209.093)"/>
        <path id="Trazado_1038518" data-name="Trazado 1038518" d="M44.144,37.878H38.874a2.74,2.74,0,0,0,.032-.419V35.435a2.732,2.732,0,0,0-2.729-2.729H33.359a15.384,15.384,0,0,0-2.638-4.113,12.976,12.976,0,0,0,4.819-5.506,4.119,4.119,0,0,0,4.172-6.3,17.223,17.223,0,0,0-1.665-6.744,6.03,6.03,0,0,0,1.232-.936,5.242,5.242,0,0,0,0-7.405A5.184,5.184,0,0,0,37.24.439a.656.656,0,1,0-.416,1.245,3.882,3.882,0,0,1,1.527.945,3.928,3.928,0,0,1,0,5.549,4.671,4.671,0,0,1-.915.7A17.52,17.52,0,0,0,32.28,3.261a4.444,4.444,0,0,1,.521-.632A3.918,3.918,0,0,1,34.576,1.61a.656.656,0,0,0-.333-1.27A5.234,5.234,0,0,0,31.873,1.7a5.777,5.777,0,0,0-.7.85,17.321,17.321,0,0,0-17.552,0,5.778,5.778,0,0,0-.7-.85A5.236,5.236,0,1,0,5.521,9.107a6.03,6.03,0,0,0,1.232.936,17.223,17.223,0,0,0-1.665,6.744,4.119,4.119,0,0,0,4.185,6.3A12.835,12.835,0,0,0,11.5,26.406,4.7,4.7,0,0,0,8.06,30.932a3.068,3.068,0,0,0,.563,1.773,2.732,2.732,0,0,0-2.729,2.729v2.024a2.741,2.741,0,0,0,.032.419H.656A.656.656,0,0,0,0,38.534v5.744a.656.656,0,0,0,.656.656H9.374a.656.656,0,1,0,0-1.312H1.312V39.19h5.2a2.713,2.713,0,0,0,2.1,1H36.187a2.712,2.712,0,0,0,2.1-1h5.2v4.432H12a.656.656,0,0,0,0,1.313H44.144a.656.656,0,0,0,.656-.656V38.534a.656.656,0,0,0-.656-.656Zm-6.549-2.443v2.024a1.419,1.419,0,0,1-1.417,1.417H28.34V34.018h7.838a1.418,1.418,0,0,1,1.417,1.417Zm-5.681-2.729H16.89a3.3,3.3,0,0,0,.5-2.548,16.041,16.041,0,0,0,12.169-.892,13.776,13.776,0,0,1,2.358,3.44Zm-9.4-3.062a14.233,14.233,0,0,1-5.728-1.118,4.711,4.711,0,0,0-3.567-2.266,11.6,11.6,0,0,1-3.812-7.8c0-.009,0-.018,0-.027a13.032,13.032,0,0,1,1.326-6.75.387.387,0,0,1,.577-.135,5.06,5.06,0,0,0,6.775-.663.384.384,0,0,1,.562,0,5.062,5.062,0,0,0,7.5,0,.384.384,0,0,1,.562,0,5.06,5.06,0,0,0,6.775.663.39.39,0,0,1,.582.145,13.064,13.064,0,0,1,1.357,5.795c0,7.107-5.72,12.089-12.913,12.153Zm13.739-7.806q-.106,0-.211-.008a13.562,13.562,0,0,0,.7-4.338c0-.4-.022-.883-.052-1.238a2.809,2.809,0,0,1-.433,5.584Zm2.03-6.4a4.126,4.126,0,0,0-1.774-.528,14.269,14.269,0,0,0-1.264-3.8A1.7,1.7,0,0,0,32.7,10.5a3.748,3.748,0,0,1-5.017-.492,1.7,1.7,0,0,0-2.508,0,3.748,3.748,0,0,1-5.558,0,1.7,1.7,0,0,0-2.508,0A3.748,3.748,0,0,1,12.1,10.5a1.7,1.7,0,0,0-1.411-.291c-.939.223-1.214,1.007-1.56,1.851a14.1,14.1,0,0,0-.836,2.854,4.117,4.117,0,0,0-1.774.528,16.016,16.016,0,0,1,31.769,0ZM6.449,8.179A3.924,3.924,0,1,1,12,2.629a4.449,4.449,0,0,1,.521.632A17.52,17.52,0,0,0,7.364,8.881a4.674,4.674,0,0,1-.915-.7Zm2.318,13.65a2.809,2.809,0,0,1-.655-5.576,14.465,14.465,0,0,0-.011,2.3v.016A13.251,13.251,0,0,0,8.767,21.828Zm3.989,5.72c.055,0,.11,0,.164,0h0a3.391,3.391,0,0,1,3.219,3.38,1.775,1.775,0,0,1-1.773,1.773H11.145a1.775,1.775,0,0,1-1.773-1.773A3.388,3.388,0,0,1,12.756,27.548Zm-5.55,7.886a1.418,1.418,0,0,1,1.417-1.417H16.46v4.857H8.622a1.419,1.419,0,0,1-1.417-1.417Zm10.567-1.417h9.255v4.857H17.773Z" transform="translate(0 -0.163)"/>
      </g>
    </g>
  </g>
</svg>
