<svg xmlns="http://www.w3.org/2000/svg" xmlns:xlink="http://www.w3.org/1999/xlink" width="113" height="113" viewBox="0 0 113 113">
  <defs>
    <filter id="Trazado_982547" x="0" y="0" width="113" height="113" filterUnits="userSpaceOnUse">
      <feOffset dy="3" input="SourceAlpha"/>
      <feGaussianBlur stdDeviation="3" result="blur"/>
      <feFlood flood-opacity="0.161"/>
      <feComposite operator="in" in2="blur"/>
      <feComposite in="SourceGraphic"/>
    </filter>
  </defs>
  <g id="Grupo_1179203" data-name="Grupo 1179203" transform="translate(-1217 -3003)">
    <g id="Grupo_1175139" data-name="Grupo 1175139" transform="translate(1226 3009)">
      <g id="Grupo_1172010" data-name="Grupo 1172010">
        <g id="Grupo_1171046" data-name="Grupo 1171046">
          <g id="Grupo_1148525" data-name="Grupo 1148525">
            <g transform="matrix(1, 0, 0, 1, -9, -6)" filter="url(#Trazado_982547)">
              <g id="Trazado_982547-2" data-name="Trazado 982547" transform="translate(9 6)" fill="#effbfe">
                <path d="M 47.5 93.5 C 41.28937149047852 93.5 35.26533508300781 92.28397369384766 29.59518623352051 89.88570404052734 C 24.11771965026855 87.56893157958984 19.19813346862793 84.25196075439453 14.97309303283691 80.02691650390625 C 10.74804019927979 75.80186462402344 7.431066513061523 70.88229370117188 5.114293098449707 65.40481567382812 C 2.716026782989502 59.73468017578125 1.5 53.71062850952148 1.5 47.5 C 1.5 41.28937149047852 2.716026782989502 35.26533508300781 5.114293098449707 29.59518623352051 C 7.431066513061523 24.11771965026855 10.74804019927979 19.19813346862793 14.97309303283691 14.97309303283691 C 19.19813346862793 10.74804019927979 24.11771965026855 7.431066513061523 29.59518623352051 5.114293098449707 C 35.26533508300781 2.716026782989502 41.28937149047852 1.5 47.5 1.5 C 53.71062850952148 1.5 59.73468017578125 2.716026782989502 65.40481567382812 5.114293098449707 C 70.88229370117188 7.431066513061523 75.80186462402344 10.74804019927979 80.02691650390625 14.97309303283691 C 84.25196075439453 19.19813346862793 87.56893157958984 24.11771965026855 89.88570404052734 29.59518623352051 C 92.28397369384766 35.26533508300781 93.5 41.28937149047852 93.5 47.5 C 93.5 53.71062850952148 92.28397369384766 59.73468017578125 89.88570404052734 65.40481567382812 C 87.56893157958984 70.88229370117188 84.25196075439453 75.80186462402344 80.02691650390625 80.02691650390625 C 75.80186462402344 84.25196075439453 70.88229370117188 87.56893157958984 65.40481567382812 89.88570404052734 C 59.73468017578125 92.28397369384766 53.71062850952148 93.5 47.5 93.5 Z" stroke="none"/>
                <path d="M 47.5 3 C 41.49121475219727 3 35.66376876831055 4.176155090332031 30.17950439453125 6.495796203613281 C 24.88084411621094 8.736953735351562 20.12152099609375 11.94598388671875 16.03375244140625 16.03375244140625 C 11.94598388671875 20.12152099609375 8.736953735351562 24.88084411621094 6.495796203613281 30.17950439453125 C 4.176155090332031 35.66376876831055 3 41.49121475219727 3 47.5 C 3 53.50878524780273 4.176155090332031 59.33623123168945 6.495796203613281 64.82049560546875 C 8.736953735351562 70.11915588378906 11.94598388671875 74.87847900390625 16.03375244140625 78.96624755859375 C 20.12152099609375 83.05401611328125 24.88084411621094 86.26304626464844 30.17950439453125 88.50419616699219 C 35.66376876831055 90.82384490966797 41.49121475219727 92 47.5 92 C 53.50878524780273 92 59.33623123168945 90.82384490966797 64.82049560546875 88.50419616699219 C 70.11915588378906 86.26304626464844 74.87847900390625 83.05401611328125 78.96624755859375 78.96624755859375 C 83.05401611328125 74.87847900390625 86.26304626464844 70.11915588378906 88.50419616699219 64.82049560546875 C 90.82384490966797 59.33623123168945 92 53.50878524780273 92 47.5 C 92 41.49121475219727 90.82384490966797 35.66376876831055 88.50419616699219 30.17950439453125 C 86.26304626464844 24.88084411621094 83.05401611328125 20.12152099609375 78.96624755859375 16.03375244140625 C 74.87847900390625 11.94598388671875 70.11915588378906 8.736953735351562 64.82049560546875 6.495796203613281 C 59.33623123168945 4.176155090332031 53.50878524780273 3 47.5 3 M 47.5 0 C 73.7335205078125 0 95 21.2664794921875 95 47.5 C 95 73.7335205078125 73.7335205078125 95 47.5 95 C 21.2664794921875 95 0 73.7335205078125 0 47.5 C 0 21.2664794921875 21.2664794921875 0 47.5 0 Z" stroke="none" fill="#397b86"/>
              </g>
            </g>
          </g>
        </g>
      </g>
    </g>
    <g id="cuidado-de-la-salud" transform="translate(1232.234 3026)">
      <g id="Grupo_1179201" data-name="Grupo 1179201" transform="translate(12.666 0.901)">
        <g id="Grupo_1179199" data-name="Grupo 1179199">
          <g id="Grupo_1179198" data-name="Grupo 1179198">
            <g id="Grupo_1179197" data-name="Grupo 1179197">
              <ellipse id="Elipse_12414" data-name="Elipse 12414" cx="5.164" cy="4.566" rx="5.164" ry="4.566" transform="translate(42.561 20.704)" fill="#ffcbbe"/>
              <ellipse id="Elipse_12415" data-name="Elipse 12415" cx="5.164" cy="4.566" rx="5.164" ry="4.566" transform="translate(0 20.704)" fill="#ffcbbe"/>
              <path id="Trazado_1038916" data-name="Trazado 1038916" d="M191.056,380.9h-18.37c-4.53,0-5.009-1.611-4.676-3.347,1.064-5.531,4.473-11.272,11.555-12.522h4.61a17.639,17.639,0,0,1,9.644,12.522A2.815,2.815,0,0,1,191.056,380.9Z" transform="translate(-150.074 -322.098)" fill="#60daa8"/>
              <path id="Trazado_1038917" data-name="Trazado 1038917" d="M105.743,377.552a2.816,2.816,0,0,0,2.764,3.347H97.8a2.815,2.815,0,0,1-2.763-3.347,17.642,17.642,0,0,1,9.644-12.522h10.7A17.645,17.645,0,0,0,105.743,377.552Z" transform="translate(-85.895 -322.098)" fill="#00ce8e"/>
              <path id="Trazado_1038918" data-name="Trazado 1038918" d="M215.43,366.28a6.7,6.7,0,0,1-10.892,5.217c0-3.351,1.871-5.957,7.243-6.467h3.533A6.694,6.694,0,0,1,215.43,366.28Z" transform="translate(-182.29 -322.098)" fill="#ffcbbe"/>
              <path id="Trazado_1038919" data-name="Trazado 1038919" d="M197,325.126H193.47a17.685,17.685,0,0,0-7.243,6.467A6.7,6.7,0,1,1,197,325.126Z" transform="translate(-163.979 -282.194)" fill="#ffb39d"/>
              <path id="Trazado_1038920" data-name="Trazado 1038920" d="M193.448,89.793c0,7.911-5.5,14.687-13.3,17.5a17.74,17.74,0,0,1-17.275-17.5c0-7.911,5.634-15.914,17.275-17.5C187.951,75.107,193.448,81.882,193.448,89.793Z" transform="translate(-145.631 -64.51)" fill="#ffddcf"/>
              <path id="Trazado_1038921" data-name="Trazado 1038921" d="M90.955,97.072a23.768,23.768,0,0,1-8.075,1.4c-11.8,0-21.372-8.462-21.372-18.9s9.568-18.9,21.372-18.9a23.768,23.768,0,0,1,8.075,1.4c-7.8,2.817-13.3,9.592-13.3,17.5S83.156,94.255,90.955,97.072Z" transform="translate(-56.435 -54.285)" fill="#ffcbbe"/>
              <path id="Trazado_1038922" data-name="Trazado 1038922" d="M249.784,30.644a17.522,17.522,0,0,1-4.083-.48,14.907,14.907,0,0,0-10.392-9.443,14.46,14.46,0,0,1-1.817,4.115,14.735,14.735,0,0,1-2.531,3.042c-7.64-2.055-12.275-15.419-3.486-19.268C240.022,9.825,249.784,19.226,249.784,30.644Z" transform="translate(-198.271 -8.477)" fill="#5972a5"/>
              <path id="Trazado_1038923" data-name="Trazado 1038923" d="M62.033,26.9c-2.086,1.888-4.348,2.644-5.814,1.715-1.113-.7-1.544-2.239-1.33-4.114-3.558,2.584-7.485,3.2-8.954,1.333-1.14-1.448-.48-3.982,1.434-6.376-6.316.277-11.1,5.305-12.569,9.734a15.171,15.171,0,0,1-4.081.476C30.718,17.425,41.942,7.5,55.787,7.5q1.4,0,2.761.133C53.791,11.978,56.7,22.958,62.033,26.9Z" transform="translate(-29.342 -7.5)" fill="#4a66a0"/>
            </g>
          </g>
          <path id="Trazado_1038924" data-name="Trazado 1038924" d="M359.017,330.592c0,3.566-2.972,7.637-6.546,10.76-10.007-.7-14.626-15.651-9.747-17.248a7.1,7.1,0,0,1,3.229,2.743,7.071,7.071,0,0,1,13.063,3.745Z" transform="translate(-302.162 -285.581)" fill="#ff8a98"/>
          <path id="Trazado_1038925" data-name="Trazado 1038925" d="M294.818,341.484a28.331,28.331,0,0,1-5.006,3.53,3.116,3.116,0,0,1-2.97,0c-5.275-2.84-11.586-9.072-11.595-14.256a7.075,7.075,0,0,1,9.824-6.526C282.761,328.2,286.589,336.76,294.818,341.484Z" transform="translate(-244.509 -285.713)" fill="#fd5c6f"/>
          <path id="Trazado_1038926" data-name="Trazado 1038926" d="M372.683,386.831v1.643a1.073,1.073,0,0,1-1.074,1.074h-1.215v1.111c-2.043,0-4.589-2.935-3.891-4.9h.1v-1.216a1.073,1.073,0,0,1,1.072-1.072h1.643a1.073,1.073,0,0,1,1.074,1.072v1.216h1.215A1.073,1.073,0,0,1,372.683,386.831Z" transform="translate(-324.703 -338.324)" fill="#e8ecf9"/>
          <path id="Trazado_1038927" data-name="Trazado 1038927" d="M355.235,407.429v.1a1.073,1.073,0,0,1-1.074,1.074h-1.643a1.073,1.073,0,0,1-1.072-1.074v-1.215h-1.215a1.073,1.073,0,0,1-1.074-1.074V403.6a1.073,1.073,0,0,1,1.074-1.072h1.113A21.659,21.659,0,0,0,355.235,407.429Z" transform="translate(-309.544 -355.095)" fill="#d7ddf5"/>
        </g>
        <g id="Grupo_1179200" data-name="Grupo 1179200" transform="translate(13.367 27.821)">
          <ellipse id="Elipse_12416" data-name="Elipse 12416" cx="3.525" cy="2.807" rx="3.525" ry="2.807" fill="#ffa1ac"/>
          <ellipse id="Elipse_12417" data-name="Elipse 12417" cx="3.525" cy="2.807" rx="3.525" ry="2.807" transform="translate(19.106)" fill="#ffa1ac"/>
        </g>
      </g>
      <g id="Grupo_1179202" data-name="Grupo 1179202" transform="translate(11.766 0)">
        <path id="Trazado_1038928" data-name="Trazado 1038928" d="M62.448,37.948a7.926,7.926,0,0,0-5.994,2.715,7.957,7.957,0,0,0-1.043-.987,19.158,19.158,0,0,0,5.124-8.038A6.36,6.36,0,0,0,64.718,30a5.071,5.071,0,0,0,.357-7.3A21.72,21.72,0,0,0,57.69,6.95a.9.9,0,0,0-1.212,1.333,20.007,20.007,0,0,1,6.778,13.859,16.713,16.713,0,0,1-2.478-.325A15.907,15.907,0,0,0,49.9,12.266a.9.9,0,0,0-1.069.658,13.584,13.584,0,0,1-1.7,3.854,12.158,12.158,0,0,1-4.011,4.061c-1.254.715-2.382.866-3.093.416-.763-.483-1.1-1.668-.918-3.251a.9.9,0,0,0-1.424-.83c-3.387,2.46-6.725,2.764-7.716,1.5-.823-1.045-.249-3.157,1.429-5.256a.9.9,0,0,0-.743-1.462,14.27,14.27,0,0,0-8.646,3.523,16.067,16.067,0,0,0-4.569,6.354,13.639,13.639,0,0,1-2.471.311C15.514,10.846,26.135,1.8,39.111,1.8A26.262,26.262,0,0,1,53.255,5.825a.9.9,0,0,0,.967-1.519A28.059,28.059,0,0,0,39.111,0,27.547,27.547,0,0,0,20.789,6.718,21.736,21.736,0,0,0,13.147,22.7,5.07,5.07,0,0,0,13.5,30,6.36,6.36,0,0,0,17.7,31.638,20.687,20.687,0,0,0,29.34,43.972a18.6,18.6,0,0,0-8.413,12.211A3.715,3.715,0,0,0,24.574,60.6h3.892a.9.9,0,1,0,0-1.8H24.574A1.914,1.914,0,0,1,22.7,56.523,16.786,16.786,0,0,1,31.52,44.806a7.593,7.593,0,0,0,12.44,6.119A26.628,26.628,0,0,0,51.175,58.8H32.669a.9.9,0,1,0,0,1.8h21.2q.358.21.705.4a4.011,4.011,0,0,0,3.826-.006c5-2.711,12.032-9.183,12.023-15.083a7.981,7.981,0,0,0-7.972-7.96ZM63.79,23.962A3.27,3.27,0,0,1,63.5,28.67,4.507,4.507,0,0,1,61.016,29.8a17.83,17.83,0,0,0,.2-6.073,18.519,18.519,0,0,0,2.578.236ZM14.72,28.67a3.27,3.27,0,0,1-.29-4.705,17.765,17.765,0,0,0,2.576-.21,17.669,17.669,0,0,0,.206,6.046A4.507,4.507,0,0,1,14.72,28.67Zm3.919-2.487A16.024,16.024,0,0,1,19,22.822a14.041,14.041,0,0,1,9.83-8.817c-1.262,2.251-1.391,4.371-.277,5.786,1.571,2,5.162,1.844,8.75-.225a4.156,4.156,0,0,0,1.759,3.209c1.311.831,3.069.7,4.948-.373a13.972,13.972,0,0,0,4.641-4.662,15.911,15.911,0,0,0,1.674-3.5,14.1,14.1,0,0,1,8.9,8.578,16.014,16.014,0,0,1,.36,3.369A16.772,16.772,0,0,1,53.819,38.7a7.968,7.968,0,0,0-3.342-.731h-.012a7.986,7.986,0,0,0-7.693,5.927,23.4,23.4,0,0,1-3.661.289c-11.288,0-20.471-8.074-20.471-18ZM39.111,50.877a5.8,5.8,0,0,1-5.79-5.575,24.845,24.845,0,0,0,5.79.68,25.229,25.229,0,0,0,3.4-.23,8.969,8.969,0,0,0,.654,3.469A5.783,5.783,0,0,1,39.111,50.877Zm18.428,8.532a2.214,2.214,0,0,1-2.113,0C50.323,56.42,44.8,51.7,44.306,45.948a6.171,6.171,0,0,1,11.39-3.3.9.9,0,0,0,1.524,0,6.145,6.145,0,0,1,5.219-2.895h.009a6.179,6.179,0,0,1,6.171,6.162C68.626,50.532,62.873,56.515,57.539,59.409Z" transform="translate(-11.766 0)"/>
        <path id="Trazado_1038929" data-name="Trazado 1038929" d="M349.854,378.254h-.315v-.315a1.976,1.976,0,0,0-1.973-1.973h-1.643a1.976,1.976,0,0,0-1.973,1.973v.315h-.315a1.976,1.976,0,0,0-1.973,1.973v1.643a1.976,1.976,0,0,0,1.973,1.973h.315v.315a1.976,1.976,0,0,0,1.973,1.973h1.643a1.976,1.976,0,0,0,1.973-1.973v-.315h.315a1.976,1.976,0,0,0,1.973-1.973v-1.643A1.976,1.976,0,0,0,349.854,378.254Zm.172,3.616a.173.173,0,0,1-.172.172h-1.216a.9.9,0,0,0-.9.9v1.216a.173.173,0,0,1-.172.172h-1.643a.173.173,0,0,1-.172-.172v-1.216a.9.9,0,0,0-.9-.9h-1.216a.173.173,0,0,1-.172-.172v-1.643a.173.173,0,0,1,.172-.172h1.216a.9.9,0,0,0,.9-.9v-1.216a.173.173,0,0,1,.172-.172h1.643a.173.173,0,0,1,.172.172v1.216a.9.9,0,0,0,.9.9h1.216a.173.173,0,0,1,.172.172Z" transform="translate(-302.048 -330.82)"/>
        <path id="Trazado_1038930" data-name="Trazado 1038930" d="M170.444,220.557a.9.9,0,0,0-.9.9V222.9a.9.9,0,0,0,1.8,0v-1.441A.9.9,0,0,0,170.444,220.557Z" transform="translate(-150.597 -194.073)"/>
        <path id="Trazado_1038931" data-name="Trazado 1038931" d="M295.34,223.8a.9.9,0,0,0,.9-.9v-1.441a.9.9,0,0,0-1.8,0V222.9A.9.9,0,0,0,295.34,223.8Z" transform="translate(-260.496 -194.073)"/>
        <path id="Trazado_1038932" data-name="Trazado 1038932" d="M221.061,233.692a.9.9,0,0,0-1.358-1.183,1.72,1.72,0,0,1-2.6,0,.9.9,0,0,0-1.358,1.183,3.521,3.521,0,0,0,5.312,0Z" transform="translate(-191.06 -204.318)"/>
      </g>
    </g>
  </g>
</svg>
