<svg xmlns="http://www.w3.org/2000/svg" xmlns:xlink="http://www.w3.org/1999/xlink" width="110" height="110" viewBox="0 0 110 110">
  <defs>
    <filter id="Trazado_982547" x="0" y="0" width="110" height="110" filterUnits="userSpaceOnUse">
      <feOffset dy="3" input="SourceAlpha"/>
      <feGaussianBlur stdDeviation="3" result="blur"/>
      <feFlood flood-opacity="0.161"/>
      <feComposite operator="in" in2="blur"/>
      <feComposite in="SourceGraphic"/>
    </filter>
  </defs>
  <g id="Grupo_1179286" data-name="Grupo 1179286" transform="translate(-3069 -2817)">
    <g id="Grupo_1175192" data-name="Grupo 1175192" transform="translate(3078 2823)">
      <g id="Grupo_1164700" data-name="Grupo 1164700" transform="translate(0 0)">
        <g id="Grupo_1160931" data-name="Grupo 1160931" transform="translate(0 0)">
          <g id="Grupo_1160749" data-name="Grupo 1160749" transform="translate(0 0)">
            <g id="Grupo_1158891" data-name="Grupo 1158891" transform="translate(0 0)">
              <g id="Grupo_1157406" data-name="Grupo 1157406" transform="translate(0 0)">
                <g id="Grupo_1155793" data-name="Grupo 1155793">
                  <g id="Grupo_1154704" data-name="Grupo 1154704">
                    <g id="Grupo_1150790" data-name="Grupo 1150790">
                      <g id="Grupo_1154214" data-name="Grupo 1154214">
                        <g id="Grupo_1152583" data-name="Grupo 1152583">
                          <g id="Grupo_1146973" data-name="Grupo 1146973">
                            <g id="Grupo_1146954" data-name="Grupo 1146954">
                              <g transform="matrix(1, 0, 0, 1, -9, -6)" filter="url(#Trazado_982547)">
                                <g id="Trazado_982547-2" data-name="Trazado 982547" transform="translate(9 6)" fill="#effbfe">
                                  <path d="M 46.00000381469727 90.49986267089844 C 39.99188232421875 90.49986267089844 34.16428375244141 89.32350158691406 28.67905807495117 87.00344848632812 C 23.38021659851074 84.76223754882812 18.62104415893555 81.55341339111328 14.53376388549805 77.46613311767578 C 10.44647026062012 73.37885284423828 7.237643718719482 68.61968994140625 4.996417045593262 63.32085037231445 C 2.676363706588745 57.83565139770508 1.500003814697266 52.00805282592773 1.500003814697266 45.99993133544922 C 1.500003814697266 39.99182510375977 2.676363706588745 34.16422653198242 4.996417045593262 28.67901039123535 C 7.237643718719482 23.38017082214355 10.44647026062012 18.62101173400879 14.53376388549805 14.53373146057129 C 18.62104415893555 10.44645118713379 23.38021659851074 7.237624645233154 28.67905807495117 4.996411323547363 C 34.16428375244141 2.676357984542847 39.99188232421875 1.499997973442078 46.00000381469727 1.499997973442078 C 52.00812530517578 1.499997973442078 57.83573532104492 2.676357984542847 63.32094955444336 4.996411323547363 C 68.61980438232422 7.237624645233154 73.37896728515625 10.44645118713379 77.46625518798828 14.53373146057129 C 81.55353546142578 18.62101173400879 84.76236724853516 23.38017082214355 87.00359344482422 28.67901039123535 C 89.32364654541016 34.16422653198242 90.5 39.99182510375977 90.5 45.99993133544922 C 90.5 52.00805282592773 89.32364654541016 57.83565139770508 87.00359344482422 63.32085037231445 C 84.76236724853516 68.61968994140625 81.55353546142578 73.37885284423828 77.46625518798828 77.46613311767578 C 73.37896728515625 81.55341339111328 68.61980438232422 84.76223754882812 63.32094955444336 87.00344848632812 C 57.83573532104492 89.32350158691406 52.00812530517578 90.49986267089844 46.00000381469727 90.49986267089844 Z" stroke="none"/>
                                  <path d="M 46.00000381469727 3 C 40.19371795654297 3 34.56270217895508 4.136505126953125 29.26338958740234 6.377914428710938 C 24.14333343505859 8.54351806640625 19.54443359375 11.64438629150391 15.59442138671875 15.59439086914062 C 11.64440155029297 19.54440307617188 8.543533325195312 24.14330291748047 6.3779296875 29.26334381103516 C 4.136505126953125 34.56266021728516 3.000007629394531 40.19366073608398 3.000007629394531 45.99993133544922 C 3.000007629394531 51.80620193481445 4.136505126953125 57.43720245361328 6.3779296875 62.73651885986328 C 8.543533325195312 67.85655975341797 11.64440155029297 72.45545959472656 15.59442138671875 76.40547180175781 C 19.54443359375 80.35547637939453 24.14333343505859 83.45634460449219 29.26338958740234 85.6219482421875 C 34.56270217895508 87.86335754394531 40.19371795654297 88.99986267089844 46.00000381469727 88.99986267089844 C 51.80628967285156 88.99986267089844 57.43730545043945 87.86335754394531 62.73663330078125 85.6219482421875 C 67.85667419433594 83.45634460449219 72.45558929443359 80.35547637939453 76.40560150146484 76.40547180175781 C 80.35560607910156 72.45545959472656 83.45648956298828 67.85655975341797 85.62208557128906 62.73651885986328 C 87.86350250244141 57.43720245361328 89 51.80620193481445 89 45.99993133544922 C 89 40.19366073608398 87.86350250244141 34.56266021728516 85.62208557128906 29.26334381103516 C 83.45648956298828 24.14330291748047 80.35560607910156 19.54440307617188 76.40560150146484 15.59439086914062 C 72.45558929443359 11.64438629150391 67.85667419433594 8.54351806640625 62.73663330078125 6.377914428710938 C 57.43730545043945 4.136505126953125 51.80628967285156 3 46.00000381469727 3 M 46.00000381469727 0 C 71.40510559082031 0 92 20.59487152099609 92 45.99993133544922 C 92 71.40499114990234 71.40510559082031 91.99986267089844 46.00000381469727 91.99986267089844 C 20.59491729736328 91.99986267089844 7.62939453125e-06 71.40499114990234 7.62939453125e-06 45.99993133544922 C 7.62939453125e-06 20.59487152099609 20.59491729736328 0 46.00000381469727 0 Z" stroke="none" fill="#397b86"/>
                                </g>
                              </g>
                            </g>
                          </g>
                        </g>
                      </g>
                    </g>
                  </g>
                </g>
              </g>
            </g>
          </g>
        </g>
      </g>
    </g>
    <g id="recreo" transform="translate(3095.5 2839)">
      <path id="Trazado_1040241" data-name="Trazado 1040241" d="M188.813,297.821v5.134a15.484,15.484,0,0,0,4.059-.122v-.4a9.233,9.233,0,0,1,1.618-5.351,10.216,10.216,0,0,1-5.677.743Zm0,0" transform="translate(-165.884 -261.693)" fill="#a2f9f9"/>
      <path id="Trazado_1040242" data-name="Trazado 1040242" d="M226.153,287.423a3.209,3.209,0,0,1-.246,4.017v5.694h1.822a2.539,2.539,0,0,1,4.768-.868,2.54,2.54,0,0,1,4.769.868h7.381V284.3a8.928,8.928,0,0,0-4.047-7.667,12.14,12.14,0,0,1-5.292,1.207h-3.583a13.864,13.864,0,0,1-5.111-.93,9.086,9.086,0,0,0-3.724,7.509v1.511l.3.031h.006l-.088-.235a.983.983,0,0,1,.573-1.268l.251-.095a.984.984,0,0,1,1.268.573Zm0,0" transform="translate(-195.902 -243.684)" fill="#48e5e1"/>
      <path id="Trazado_1040243" data-name="Trazado 1040243" d="M223.194,288.007h.006l-.089-.234a.984.984,0,0,1,.573-1.268l.251-.095a.983.983,0,0,1,1.268.573l.951,2.486a3.306,3.306,0,0,1,.288.5l.11.026v-3.525a9.089,9.089,0,0,1,2.833-6.76,13.042,13.042,0,0,1-2.769-.749,9.086,9.086,0,0,0-3.724,7.509v1.511Zm0,0" transform="translate(-195.903 -245.731)" fill="#41ceca"/>
      <path id="Trazado_1040244" data-name="Trazado 1040244" d="M248.84,436.417v-3.842a2.481,2.481,0,0,1,.285-1.154,2.539,2.539,0,0,0-4.768.869h-1.822v5.878a.768.768,0,0,1-.769.762h5.282v-.008a2.538,2.538,0,0,0,2.077-1.346,2.48,2.48,0,0,1-.285-1.157Zm0,0" transform="translate(-212.529 -378.838)" fill="#a2f9f9"/>
      <path id="Trazado_1040245" data-name="Trazado 1040245" d="M303.519,438.921v.008h10.275a3.32,3.32,0,1,0,0-6.64h-7.585a2.536,2.536,0,0,0-5.053.286v3.842A2.521,2.521,0,0,0,303.519,438.921Zm0,0" transform="translate(-264.846 -378.839)" fill="#a2f9f9"/>
      <path id="Trazado_1040246" data-name="Trazado 1040246" d="M304.788,436.417v-3.842a2.492,2.492,0,0,1,.72-1.752,2.537,2.537,0,0,0-4.348,1.752v3.842a2.52,2.52,0,0,0,2.363,2.5v.008h3.628v-.008a2.521,2.521,0,0,1-2.363-2.5Zm0,0" transform="translate(-264.849 -378.838)" fill="#91e0e0"/>
      <path id="Trazado_1040247" data-name="Trazado 1040247" d="M288.478,286.116H284.9a15.29,15.29,0,0,1-1.645-.088,2.9,2.9,0,0,0,5.793.074C288.856,286.111,288.668,286.116,288.478,286.116Zm0,0" transform="translate(-249.073 -251.96)" fill="#ffd5b3"/>
      <path id="Trazado_1040248" data-name="Trazado 1040248" d="M222.954,91.266h-.048V89.574c0-.131,0-.261-.007-.391a3.025,3.025,0,0,1-.88.485,6.318,6.318,0,0,1-2.1.386c-3.638,0-5.285-3.829-5.3-3.867l-.113-.269-.108.271c-.02.05-2.016,4.964-5.348,4.964a3.7,3.7,0,0,1-1.112-.177c-1.579-.5-2.1-1.7-1.552-3.57l-.216-.095c-1.025,1.71-2.6,3.748-4.263,3.748a2.054,2.054,0,0,1-.578-.083,2.012,2.012,0,0,1-1.32-1.075,4.676,4.676,0,0,1,.277-3.622l-.218-.1c-1.38,2.895-2.849,4.3-4.49,4.3a2.911,2.911,0,0,1-.565-.057v7.3c0,7.864,5.442,12.111,12.155,12.111h3.583a12.152,12.152,0,0,0,11.751-9.007,2.982,2.982,0,0,0,.453.036c2.082,0,3.769-2.15,3.769-4.8s-1.688-4.8-3.769-4.8Zm0,0" transform="translate(-171.344 -75.684)" fill="#ffd5b3"/>
      <path id="Trazado_1040249" data-name="Trazado 1040249" d="M198.657,118.531v-8.156c0-.284.011-.565.03-.844-.959,1.232-2.173,2.1-3.676,1.816v7.183c0,7.865,5.442,12.111,12.155,12.111h3.6c-6.693-.018-12.112-4.262-12.112-12.111Zm0,0" transform="translate(-171.344 -96.485)" fill="#e5bfa1"/>
      <path id="Trazado_1040250" data-name="Trazado 1040250" d="M266.207,218.885a4.076,4.076,0,0,1-4.09-4.053.765.765,0,0,1,.769-.762h6.643a.765.765,0,0,1,.769.762A4.077,4.077,0,0,1,266.207,218.885Zm0,0" transform="translate(-230.457 -188.573)" fill="#fb8276"/>
      <path id="Trazado_1040251" data-name="Trazado 1040251" d="M265.789,214.833a.765.765,0,0,1,.769-.762h-3.671a.765.765,0,0,0-.769.762,4.094,4.094,0,0,0,5.926,3.62,4.053,4.053,0,0,1-2.255-3.62Zm0,0" transform="translate(-230.457 -188.573)" fill="#e1756a"/>
      <path id="Trazado_1040252" data-name="Trazado 1040252" d="M199.243,7.5h-3.876a13.125,13.125,0,0,0-13.149,13.1v.2a3.555,3.555,0,0,0,.862.481c2.786,1.1,4.669-1.7,5.824-4.122-.861,2.084-.832,4.287,1.119,4.857,1.882.55,3.69-1.57,4.977-3.718-.441,1.5-.343,3.1,1.63,3.718,4.153,1.309,6.607-4.857,6.607-4.857s2.265,5.418,7.551,3.548a3.06,3.06,0,0,0,1.554-1.2A13.129,13.129,0,0,0,199.243,7.5Zm0,0" transform="translate(-160.074 -6.606)" fill="#f7931e"/>
      <path id="Trazado_1040253" data-name="Trazado 1040253" d="M185.854,20.8v-.2A13.125,13.125,0,0,1,199,7.5h-3.631a13.125,13.125,0,0,0-13.149,13.1v.2a3.543,3.543,0,0,0,.862.481,3.068,3.068,0,0,0,2.994-.325C186,20.9,185.925,20.851,185.854,20.8Zm0,0" transform="translate(-160.078 -6.608)" fill="#de841b"/>
      <path id="Trazado_1040254" data-name="Trazado 1040254" d="M102.194,247.641v-.87a1.685,1.685,0,0,0-1.692-1.677H95.579a1.685,1.685,0,0,0-1.692,1.677v.87Zm0,0" transform="translate(-82.264 -215.901)" fill="#89c947"/>
      <path id="Trazado_1040255" data-name="Trazado 1040255" d="M97.578,247.641v-.87a1.685,1.685,0,0,1,1.692-1.677H95.579a1.685,1.685,0,0,0-1.692,1.677v.87Zm0,0" transform="translate(-82.264 -215.901)" fill="#7bb540"/>
      <path id="Trazado_1040256" data-name="Trazado 1040256" d="M83.01,279.886a.768.768,0,0,1-.769.762H69.473a.768.768,0,0,1-.769-.762V267.235a.768.768,0,0,1,.769-.762H82.241a.768.768,0,0,1,.769.762Zm0,0" transform="translate(-60.081 -234.734)" fill="#d5e962"/>
      <path id="Trazado_1040257" data-name="Trazado 1040257" d="M72.386,279.887v-5.4l-.72-.692a1.323,1.323,0,0,1,.72-2.262v-4.294a.768.768,0,0,1,.769-.762H69.472a.768.768,0,0,0-.769.762v12.652a.768.768,0,0,0,.769.762h3.683A.768.768,0,0,1,72.386,279.887Zm0,0" transform="translate(-60.08 -234.734)" fill="#bfd158"/>
      <path id="Trazado_1040258" data-name="Trazado 1040258" d="M103.383,303.643a.439.439,0,0,1-.2-.05l-1.815-.94-1.815.94a.441.441,0,0,1-.461-.033.428.428,0,0,1-.174-.422l.346-1.992-1.468-1.41a.427.427,0,0,1-.111-.442.438.438,0,0,1,.354-.294l2.029-.29.907-1.812a.441.441,0,0,1,.785,0l.908,1.812,2.029.29a.437.437,0,0,1,.353.294.426.426,0,0,1-.111.442l-1.468,1.41.347,1.992a.428.428,0,0,1-.174.422.442.442,0,0,1-.258.083Zm0,0" transform="translate(-85.589 -261.322)" fill="#89c947"/>
      <path id="Trazado_1040259" data-name="Trazado 1040259" d="M22.307,398.9a.768.768,0,0,1-.77.762H8.769A.768.768,0,0,1,8,398.9V386.251a.768.768,0,0,1,.769-.762H21.537a.768.768,0,0,1,.77.762Zm0,0" transform="translate(-6.607 -339.574)" fill="#fb8276"/>
      <path id="Trazado_1040260" data-name="Trazado 1040260" d="M11.647,398.9v-5.084l-.572-.559a2.81,2.81,0,0,1,0-4.026,2.919,2.919,0,0,1,.572-.435v-2.547a.768.768,0,0,1,.769-.762H8.769a.768.768,0,0,0-.769.762V398.9a.768.768,0,0,0,.769.762h3.647A.768.768,0,0,1,11.647,398.9Zm0,0" transform="translate(-6.607 -339.574)" fill="#e1756a"/>
      <path id="Trazado_1040261" data-name="Trazado 1040261" d="M38.22,424.052a.365.365,0,0,1-.255-.1l-3.2-3.127a1.915,1.915,0,0,1,0-2.749,2.018,2.018,0,0,1,2.81,0l.643.629.643-.629a2.018,2.018,0,0,1,2.81,0,1.915,1.915,0,0,1,0,2.749l-3.2,3.127A.366.366,0,0,1,38.22,424.052Zm0,0" transform="translate(-29.674 -367.775)" fill="#ef5050"/>
      <path id="Trazado_1040262" data-name="Trazado 1040262" d="M139.584,388.407l-2.961-.3a.911.911,0,0,1-.816-1l.025-.247a.912.912,0,0,1,1-.816l2.138.215.016-.159-2.61-.263a.908.908,0,0,1-.631-.353h-6.866a.768.768,0,0,0-.769.762V398.9a.768.768,0,0,0,.769.762h12.768a.768.768,0,0,0,.769-.762V387.329a3.361,3.361,0,0,1-2.832,1.078Zm0,0" transform="translate(-112.41 -339.573)" fill="#ffc502"/>
      <path id="Trazado_1040263" data-name="Trazado 1040263" d="M131.747,398.9v-4.125l-.636-1.091a2.331,2.331,0,0,1,0-2.22l.636-1.091v-4.125a.768.768,0,0,1,.769-.762h-3.634a.768.768,0,0,0-.769.762V398.9a.768.768,0,0,0,.769.762h3.634a.768.768,0,0,1-.769-.762Zm0,0" transform="translate(-112.414 -339.574)" fill="#e5b102"/>
      <path id="Trazado_1040264" data-name="Trazado 1040264" d="M160.86,424.318a1.481,1.481,0,0,1-1.154-.66l-1.114-1.913a1.451,1.451,0,0,1,0-1.32l1.114-1.913a1.481,1.481,0,0,1,1.154-.66h2.23a1.48,1.48,0,0,1,1.153.66l1.115,1.913a1.451,1.451,0,0,1,0,1.32l-1.115,1.913a1.48,1.48,0,0,1-1.153.66Zm0,0" transform="translate(-139.122 -368.082)" fill="#fcdb67"/>
      <path id="Trazado_1040265" data-name="Trazado 1040265" d="M262.693,318.356a2.434,2.434,0,0,0-3.235,1.107,9.55,9.55,0,0,1-10.866,5,3.2,3.2,0,0,1-.556,3.544l.022-.023v1.278a14.421,14.421,0,0,0,15.74-7.7,2.382,2.382,0,0,0-1.1-3.2Zm0,0" transform="translate(-218.052 -280.224)" fill="#a2f9f9"/>
      <path id="Trazado_1040266" data-name="Trazado 1040266" d="M190.874,347.919l.025-.247a.913.913,0,0,1,1-.816l2.138.215.016-.159-2.61-.263a.912.912,0,0,1-.816-1l.025-.247a.912.912,0,0,1,1-.816l2.61.262.016-.159-2.138-.215a.912.912,0,0,1-.816-1l.025-.247a.912.912,0,0,1,1-.816l2.424.244h.006l-.088-.234a.984.984,0,0,1,.573-1.268l.251-.095a.984.984,0,0,1,1.268.573l.951,2.486a3.219,3.219,0,0,1,.575,2.178,3.306,3.306,0,0,1-3.653,2.917l-2.96-.3a.911.911,0,0,1-.816-1Zm0,0" transform="translate(-167.476 -300.382)" fill="#ffd5b3"/>
      <path id="Trazado_1040267" data-name="Trazado 1040267" d="M51.815,26.072c2.476-.131,4.457-2.633,4.457-5.689,0-2.788-1.649-5.114-3.818-5.6v-.727a4.058,4.058,0,0,0,.554-.655.894.894,0,0,0,.15-.575A14.022,14.022,0,0,0,39.169,0H35.293A14.034,14.034,0,0,0,21.251,13.994v.2a.894.894,0,0,0,.35.709,4.466,4.466,0,0,0,1.076.6c.033.013.065.023.1.035v6.509A12.768,12.768,0,0,0,26.619,31.7a11.672,11.672,0,0,0,2.463,1.746,10.049,10.049,0,0,0-1.045,1.208,9.246,9.246,0,0,1-3.543.7c-.226,0-.45-.01-.673-.027V32.5a1.661,1.661,0,0,0-1.662-1.655H20.822A2.58,2.58,0,0,0,18.237,28.3H13.315a2.581,2.581,0,0,0-2.585,2.546H9.392A1.661,1.661,0,0,0,7.73,32.5v12.52H2.162A1.661,1.661,0,0,0,.5,46.677V59.328a1.661,1.661,0,0,0,1.662,1.655H34.519a.879.879,0,0,0,.2-.023,3.419,3.419,0,0,0,1.878-.82,3.422,3.422,0,0,0,1.876.82.875.875,0,0,0,.2.023H48.949a4.211,4.211,0,0,0,.689-8.37V50.859a.893.893,0,0,0-1.787,0v1.7H42.063A3.437,3.437,0,0,0,36.6,51.17a3.436,3.436,0,0,0-5.466,1.387H30.9V50.084a15.138,15.138,0,0,0,1.926.124,15.3,15.3,0,0,0,13.721-8.477,3.275,3.275,0,0,0-1.517-4.4A3.333,3.333,0,0,0,40.6,38.843a8.525,8.525,0,0,1-3.484,3.668.893.893,0,1,0,.875,1.558,10.306,10.306,0,0,0,4.212-4.435,1.54,1.54,0,0,1,2.045-.7,1.488,1.488,0,0,1,.692,2A13.516,13.516,0,0,1,30.9,48.276v-.193a4.107,4.107,0,0,0,.816-2.077,4.012,4.012,0,0,0,.012-.656,10.4,10.4,0,0,0,1.842.04.894.894,0,1,0-.123-1.783,8.56,8.56,0,0,1-2.318-.159c-.026-.042-.053-.085-.08-.127l-.912-2.385a1.869,1.869,0,0,0-2.206-1.158,8.179,8.179,0,0,1,2.921-5.553,14.228,14.228,0,0,0,2.522.634,3.8,3.8,0,0,0,7.375.118A13.04,13.04,0,0,0,44.6,33.972a8.115,8.115,0,0,1,3.251,6.644V46.69a.893.893,0,0,0,1.787,0V40.616a9.752,9.752,0,0,0-3.318-7.545,13,13,0,0,0,5.5-7ZM37.2,53.736a1.643,1.643,0,0,1,3.272-.184.893.893,0,0,0,.887.791h7.585a2.427,2.427,0,1,1,0,4.854H38.8l-.063-.007A1.631,1.631,0,0,1,37.2,57.578Zm-6.305.607h.929a.893.893,0,0,0,.887-.791,1.647,1.647,0,0,1,2.872-.872,3.364,3.364,0,0,0-.17,1.056v3.842a3.35,3.35,0,0,0,.17,1.053,1.645,1.645,0,0,1-1.129.559L34.4,59.2H30.9ZM23.823,37.122c.223.013.448.022.673.022A11.137,11.137,0,0,0,26.8,36.9a10.391,10.391,0,0,0-.7,3.46,14.709,14.709,0,0,1-1.607.088c-.225,0-.449-.007-.673-.017Zm.145,13.541a.643.643,0,0,1,.382.216l1.115,1.913a.612.612,0,0,1,0,.421l-1.115,1.913a.643.643,0,0,1-.382.216h-2.23a.643.643,0,0,1-.382-.216l-1.115-1.913a.611.611,0,0,1,0-.421l1.115-1.913a.643.643,0,0,1,.382-.216h2.23ZM13.315,30.086h4.923a.792.792,0,0,1,.8.76H12.517a.792.792,0,0,1,.8-.76Zm-3.8,2.546H22.036V45.022H9.516ZM14.806,59.2H2.286V46.808h12.52Zm14.306,0H16.593V46.808h6.026a1.79,1.79,0,0,0-.086.392l-.025.248A1.8,1.8,0,0,0,23,48.876H21.738a2.361,2.361,0,0,0-1.926,1.1L18.7,51.893a2.331,2.331,0,0,0,0,2.22l1.114,1.913a2.362,2.362,0,0,0,1.926,1.1h2.23a2.359,2.359,0,0,0,1.925-1.1l1.115-1.913a2.333,2.333,0,0,0,0-2.22l-1.114-1.913a2.041,2.041,0,0,0-.321-.409l1.512.152c.145.014.291.022.436.022a4.287,4.287,0,0,0,1.593-.3Zm-1.1-16.383a.893.893,0,0,0,.122-.853l-.089-.234a.088.088,0,0,1,0-.069.089.089,0,0,1,.051-.047l.25-.094a.092.092,0,0,1,.033-.007.094.094,0,0,1,.086.062l.951,2.486a.879.879,0,0,0,.1.195,2.336,2.336,0,0,1,.417,1.575,2.4,2.4,0,0,1-2.418,2.131c-.085,0-.171,0-.257-.013l-2.96-.3a.019.019,0,0,1-.017-.02l.025-.248a.019.019,0,0,1,.02-.017h0l2.138.215a.893.893,0,0,0,.978-.8l.016-.159a.893.893,0,0,0-.8-.979l-2.61-.263a.021.021,0,0,1-.016-.02l.025-.248c0-.013.015-.015.02-.017l2.61.263a.893.893,0,0,0,.978-.8l.016-.159a.894.894,0,0,0-.8-.978l-2.138-.215a.021.021,0,0,1-.017-.02l.025-.248c0-.013.015-.015.02-.016l2.424.244.023,0A.891.891,0,0,0,28.01,42.814Zm9.064-6.786a2.007,2.007,0,0,1-1.731-.985c.159,0,.318.007.479.007H38.8a2.006,2.006,0,0,1-1.727.978Zm2.331-2.765H35.822c-6.841,0-11.261-4.4-11.261-11.218V15.794a4.405,4.405,0,0,0,2.566-1.2q.222-.2.437-.429a3.341,3.341,0,0,0,.188.487A3.025,3.025,0,0,0,29.7,16.263c1.454.425,2.923-.2,4.382-1.858a3.333,3.333,0,0,0,2.206,1.853,4.725,4.725,0,0,0,1.428.226,5.765,5.765,0,0,0,4.392-2.449,12.4,12.4,0,0,0,1.119-1.624,8.191,8.191,0,0,0,1.518,1.6.893.893,0,1,0,1.11-1.4A6.961,6.961,0,0,1,43.987,10.2a.894.894,0,0,0-.824-.549h-.007a.9.9,0,0,0-.823.563c-.021.054-2.186,5.383-5.508,4.335-.819-.258-1.582-.77-1.041-2.614a.893.893,0,0,0-1.624-.71c-1.45,2.42-2.892,3.631-3.96,3.319a1.242,1.242,0,0,1-.838-.667,4.016,4.016,0,0,1,.295-2.992.893.893,0,0,0-1.632-.726c-2.22,4.655-4.078,3.918-4.689,3.676a3.047,3.047,0,0,1-.294-.135A12.248,12.248,0,0,1,35.293,1.786h3.876a12.3,12.3,0,0,1,12.177,10.85,2.171,2.171,0,0,1-.93.617,6.108,6.108,0,0,1-1.087.281.893.893,0,0,0,.279,1.765,7.776,7.776,0,0,0,1.06-.248v.532a.893.893,0,0,0,.893.893h.058c1.581.007,2.867,1.757,2.867,3.908s-1.29,3.908-2.876,3.908a2.089,2.089,0,0,1-.319-.025.893.893,0,0,0-1,.654,11.259,11.259,0,0,1-10.887,8.343Zm0,0" transform="translate(0 0)"/>
      <path id="Trazado_1040268" data-name="Trazado 1040268" d="M343.569,156.6a.893.893,0,0,0-.893.893v1.465a.893.893,0,1,0,1.787,0v-1.465A.893.893,0,0,0,343.569,156.6Zm0,0" transform="translate(-301.42 -137.946)"/>
      <path id="Trazado_1040269" data-name="Trazado 1040269" d="M232.752,156.6a.893.893,0,0,0-.893.893v1.465a.893.893,0,1,0,1.787,0v-1.465A.893.893,0,0,0,232.752,156.6Zm0,0" transform="translate(-203.802 -137.946)"/>
      <path id="Trazado_1040270" data-name="Trazado 1040270" d="M283.875,168.747h.579a.893.893,0,0,0,0-1.787h-.265v-.829a.893.893,0,1,0-1.787,0v1.126A1.482,1.482,0,0,0,283.875,168.747Zm0,0" transform="translate(-248.326 -145.557)"/>
      <path id="Trazado_1040271" data-name="Trazado 1040271" d="M262.923,206.566H256.28a1.661,1.661,0,0,0-1.662,1.655,4.984,4.984,0,0,0,9.967,0A1.661,1.661,0,0,0,262.923,206.566Zm-3.322,4.816a3.185,3.185,0,0,1-3.195-3.029h6.39A3.185,3.185,0,0,1,259.6,211.382Zm0,0" transform="translate(-223.85 -181.962)"/>
      <path id="Trazado_1040272" data-name="Trazado 1040272" d="M98.218,291.507l-1.566-.224-.7-1.393a1.334,1.334,0,0,0-2.383,0l-.7,1.394-1.568.224a1.324,1.324,0,0,0-.734,2.265l1.125,1.081-.265,1.523a1.331,1.331,0,0,0,1.926,1.4l1.4-.727,1.4.725a1.338,1.338,0,0,0,.619.152,1.328,1.328,0,0,0,1.312-1.551l-.265-1.523,1.125-1.08a1.324,1.324,0,0,0-.735-2.266Zm-1.97,2.387a.891.891,0,0,0-.261.8l.188,1.079-1-.518a.894.894,0,0,0-.822,0l-1,.518.188-1.079a.894.894,0,0,0-.261-.8l-.783-.752,1.094-.156a.9.9,0,0,0,.672-.484l.5-1,.5,1a.893.893,0,0,0,.672.484l1.094.156Zm0,0" transform="translate(-78.987 -254.715)"/>
      <path id="Trazado_1040273" data-name="Trazado 1040273" d="M30.734,417.984a1.261,1.261,0,0,0,1.761,0l3.2-3.128a2.808,2.808,0,0,0,0-4.025,2.913,2.913,0,0,0-4.059,0l-.019.018-.018-.018a2.913,2.913,0,0,0-4.059,0,2.808,2.808,0,0,0,0,4.026Zm-1.948-5.875a1.126,1.126,0,0,1,1.561,0l.643.629a.894.894,0,0,0,1.249,0l.643-.629a1.125,1.125,0,0,1,1.561,0,1.023,1.023,0,0,1,0,1.471l-2.828,2.766-2.828-2.766a1.023,1.023,0,0,1,0-1.471Zm0,0" transform="translate(-23.069 -361.173)"/>
      <path id="Trazado_1040274" data-name="Trazado 1040274" d="M422.351,158.872a.888.888,0,0,0,.424-.107c1.908-1.031,1.6-3.191,1.165-4.189a.893.893,0,0,0-1.64.709c.025.056.587,1.389-.374,1.908a.893.893,0,0,0,.426,1.679Zm0,0" transform="translate(-370.817 -135.69)"/>
    </g>
  </g>
</svg>
