<svg xmlns="http://www.w3.org/2000/svg" xmlns:xlink="http://www.w3.org/1999/xlink" width="110" height="110" viewBox="0 0 110 110">
  <defs>
    <filter id="Trazado_982547" x="0" y="0" width="110" height="110" filterUnits="userSpaceOnUse">
      <feOffset dy="3" input="SourceAlpha"/>
      <feGaussianBlur stdDeviation="3" result="blur"/>
      <feFlood flood-opacity="0.161"/>
      <feComposite operator="in" in2="blur"/>
      <feComposite in="SourceGraphic"/>
    </filter>
  </defs>
  <g id="Grupo_1179227" data-name="Grupo 1179227" transform="translate(-796 -2085.257)">
    <g id="Grupo_1175185" data-name="Grupo 1175185" transform="translate(805 2091.257)">
      <g id="Grupo_1164700" data-name="Grupo 1164700" transform="translate(0 0)">
        <g id="Grupo_1160931" data-name="Grupo 1160931" transform="translate(0 0)">
          <g id="Grupo_1160749" data-name="Grupo 1160749" transform="translate(0 0)">
            <g id="Grupo_1158891" data-name="Grupo 1158891" transform="translate(0 0)">
              <g id="Grupo_1157406" data-name="Grupo 1157406" transform="translate(0 0)">
                <g id="Grupo_1155793" data-name="Grupo 1155793">
                  <g id="Grupo_1154704" data-name="Grupo 1154704">
                    <g id="Grupo_1150790" data-name="Grupo 1150790">
                      <g id="Grupo_1154214" data-name="Grupo 1154214">
                        <g id="Grupo_1152583" data-name="Grupo 1152583">
                          <g id="Grupo_1146973" data-name="Grupo 1146973">
                            <g id="Grupo_1146954" data-name="Grupo 1146954">
                              <g transform="matrix(1, 0, 0, 1, -9, -6)" filter="url(#Trazado_982547)">
                                <g id="Trazado_982547-2" data-name="Trazado 982547" transform="translate(9 6)" fill="#effbfe">
                                  <path d="M 46.00000381469727 90.49986267089844 C 39.99188232421875 90.49986267089844 34.16428375244141 89.32350158691406 28.67905807495117 87.00344848632812 C 23.38021659851074 84.76223754882812 18.62104415893555 81.55341339111328 14.53376388549805 77.46613311767578 C 10.44647026062012 73.37885284423828 7.237643718719482 68.61968994140625 4.996417045593262 63.32085037231445 C 2.676363706588745 57.83565139770508 1.500003814697266 52.00805282592773 1.500003814697266 45.99993133544922 C 1.500003814697266 39.99182510375977 2.676363706588745 34.16422653198242 4.996417045593262 28.67901039123535 C 7.237643718719482 23.38017082214355 10.44647026062012 18.62101173400879 14.53376388549805 14.53373146057129 C 18.62104415893555 10.44645118713379 23.38021659851074 7.237624645233154 28.67905807495117 4.996411323547363 C 34.16428375244141 2.676357984542847 39.99188232421875 1.499997973442078 46.00000381469727 1.499997973442078 C 52.00812530517578 1.499997973442078 57.83573532104492 2.676357984542847 63.32094955444336 4.996411323547363 C 68.61980438232422 7.237624645233154 73.37896728515625 10.44645118713379 77.46625518798828 14.53373146057129 C 81.55353546142578 18.62101173400879 84.76236724853516 23.38017082214355 87.00359344482422 28.67901039123535 C 89.32364654541016 34.16422653198242 90.5 39.99182510375977 90.5 45.99993133544922 C 90.5 52.00805282592773 89.32364654541016 57.83565139770508 87.00359344482422 63.32085037231445 C 84.76236724853516 68.61968994140625 81.55353546142578 73.37885284423828 77.46625518798828 77.46613311767578 C 73.37896728515625 81.55341339111328 68.61980438232422 84.76223754882812 63.32094955444336 87.00344848632812 C 57.83573532104492 89.32350158691406 52.00812530517578 90.49986267089844 46.00000381469727 90.49986267089844 Z" stroke="none"/>
                                  <path d="M 46.00000381469727 3 C 40.19371795654297 3 34.56270217895508 4.136505126953125 29.26338958740234 6.377914428710938 C 24.14333343505859 8.54351806640625 19.54443359375 11.64438629150391 15.59442138671875 15.59439086914062 C 11.64440155029297 19.54440307617188 8.543533325195312 24.14330291748047 6.3779296875 29.26334381103516 C 4.136505126953125 34.56266021728516 3.000007629394531 40.19366073608398 3.000007629394531 45.99993133544922 C 3.000007629394531 51.80620193481445 4.136505126953125 57.43720245361328 6.3779296875 62.73651885986328 C 8.543533325195312 67.85655975341797 11.64440155029297 72.45545959472656 15.59442138671875 76.40547180175781 C 19.54443359375 80.35547637939453 24.14333343505859 83.45634460449219 29.26338958740234 85.6219482421875 C 34.56270217895508 87.86335754394531 40.19371795654297 88.99986267089844 46.00000381469727 88.99986267089844 C 51.80628967285156 88.99986267089844 57.43730545043945 87.86335754394531 62.73663330078125 85.6219482421875 C 67.85667419433594 83.45634460449219 72.45558929443359 80.35547637939453 76.40560150146484 76.40547180175781 C 80.35560607910156 72.45545959472656 83.45648956298828 67.85655975341797 85.62208557128906 62.73651885986328 C 87.86350250244141 57.43720245361328 89 51.80620193481445 89 45.99993133544922 C 89 40.19366073608398 87.86350250244141 34.56266021728516 85.62208557128906 29.26334381103516 C 83.45648956298828 24.14330291748047 80.35560607910156 19.54440307617188 76.40560150146484 15.59439086914062 C 72.45558929443359 11.64438629150391 67.85667419433594 8.54351806640625 62.73663330078125 6.377914428710938 C 57.43730545043945 4.136505126953125 51.80628967285156 3 46.00000381469727 3 M 46.00000381469727 0 C 71.40510559082031 0 92 20.59487152099609 92 45.99993133544922 C 92 71.40499114990234 71.40510559082031 91.99986267089844 46.00000381469727 91.99986267089844 C 20.59491729736328 91.99986267089844 7.62939453125e-06 71.40499114990234 7.62939453125e-06 45.99993133544922 C 7.62939453125e-06 20.59487152099609 20.59491729736328 0 46.00000381469727 0 Z" stroke="none" fill="#397b86"/>
                                </g>
                              </g>
                            </g>
                          </g>
                        </g>
                      </g>
                    </g>
                  </g>
                </g>
              </g>
            </g>
          </g>
        </g>
      </g>
    </g>
    <g id="patio-de-juegos_1_" data-name="patio-de-juegos (1)" transform="translate(822 2106.993)">
      <g id="Grupo_1179226" data-name="Grupo 1179226" transform="translate(0.813 0.82)">
        <path id="Trazado_1040106" data-name="Trazado 1040106" d="M263.5,75.266h22.849v22.85H263.5Z" transform="translate(-235.754 -67.922)" fill="#d97c41"/>
        <path id="Trazado_1040107" data-name="Trazado 1040107" d="M276.511,98.116H263.5V75.266h8.493a26.156,26.156,0,0,0,4.155,22.324Q276.339,97.858,276.511,98.116Z" transform="translate(-235.754 -67.922)" fill="#c76d33"/>
        <path id="Trazado_1040108" data-name="Trazado 1040108" d="M321.737,157.093v8.161H308.68v-8.161a6.528,6.528,0,0,1,13.057,0Z" transform="translate(-276.037 -135.06)" fill="#c76d33"/>
        <path id="Trazado_1040109" data-name="Trazado 1040109" d="M316.795,174.849H308.68v-8.161a6.519,6.519,0,0,1,2.8-5.362,26.338,26.338,0,0,0,4.948,13Q316.622,174.591,316.795,174.849Z" transform="translate(-276.037 -144.654)" fill="#af602d"/>
        <path id="Trazado_1040110" data-name="Trazado 1040110" d="M261.134,18.113H244.5l-4.3-.746-3.554.746h-1.636a1.626,1.626,0,0,1-.751-3.068L246.573,7.87a3.252,3.252,0,0,1,3,0l12.311,7.174A1.626,1.626,0,0,1,261.134,18.113Z" transform="translate(-208.902 -7.504)" fill="#00c140"/>
        <path id="Trazado_1040111" data-name="Trazado 1040111" d="M248.033,7.5A31.577,31.577,0,0,0,244.5,18.114h-9.487a1.626,1.626,0,0,1-.751-3.068l12.311-7.174a3.265,3.265,0,0,1,1.46-.366Z" transform="translate(-208.902 -7.505)" fill="#00a62c"/>
        <path id="Trazado_1040112" data-name="Trazado 1040112" d="M460.9,316.473a1.632,1.632,0,0,1-1.632-1.632V293.623h3.264v21.218A1.632,1.632,0,0,1,460.9,316.473Z" transform="translate(-410.3 -262.612)" fill="#d97c41"/>
        <path id="Trazado_1040113" data-name="Trazado 1040113" d="M250.073,316.473a1.632,1.632,0,0,1-1.632-1.632V293.623h3.264v21.218A1.632,1.632,0,0,1,250.073,316.473Z" transform="translate(-222.327 -262.612)" fill="#c76d33"/>
        <path id="Trazado_1040114" data-name="Trazado 1040114" d="M61.36,257.608v1.632a1.633,1.633,0,0,1-1.632,1.632H42.587l-.96-.361-.665.361H36.878l-1.727-.486-1.538.486h-1.1a3.251,3.251,0,0,0-2.729,1.484L18.4,279.939a6.5,6.5,0,0,1-5.458,2.968H9.948a2.448,2.448,0,1,1,0-4.9h1.867a3.252,3.252,0,0,0,2.726-1.479l11.436-17.595a6.5,6.5,0,0,1,5.453-2.959h3.816l4.679.994,6.239-.994H59.728a1.632,1.632,0,0,1,1.632,1.632Z" transform="translate(-7.5 -229.046)" fill="#b5e9f1"/>
        <path id="Trazado_1040115" data-name="Trazado 1040115" d="M46.164,260.873H32.515a3.251,3.251,0,0,0-2.729,1.484L18.4,279.939a6.5,6.5,0,0,1-5.458,2.968H9.948a2.448,2.448,0,1,1,0-4.9h1.867a3.252,3.252,0,0,0,2.726-1.479l11.436-17.595a6.5,6.5,0,0,1,5.453-2.959H46.164a3.856,3.856,0,0,0,0,4.9Z" transform="translate(-7.5 -229.046)" fill="#81d9e7"/>
        <path id="Trazado_1040116" data-name="Trazado 1040116" d="M321.737,430.788a1.632,1.632,0,0,1-1.632,1.631h-9.794a1.632,1.632,0,0,1,0-3.263H320.1A1.633,1.633,0,0,1,321.737,430.788Z" transform="translate(-276.037 -383.456)" fill="#d97c41"/>
        <path id="Trazado_1040117" data-name="Trazado 1040117" d="M314.991,432.419h-4.68a1.632,1.632,0,0,1,0-3.263h4.733A2.916,2.916,0,0,0,314.991,432.419Z" transform="translate(-276.037 -383.456)" fill="#c76d33"/>
      </g>
      <path id="Trazado_1040118" data-name="Trazado 1040118" d="M53.041,26.937h-.819V23.33a.813.813,0,1,0-1.626,0v3.607h-3.27V22.853a7.341,7.341,0,0,0-14.683,0v4.084H29.372v-14.7H50.6v7.3a.813.813,0,1,0,1.626,0v-7.3h.824a2.439,2.439,0,0,0,1.144-4.593C41.561.29,41.886.479,41.859.465a4.069,4.069,0,0,0-3.75,0c-.028.015.321-.188-6.089,3.547a.813.813,0,1,0,.819,1.4L38.875,1.9a2.442,2.442,0,0,1,2.218,0L53.42,9.081a.813.813,0,0,1-.375,1.534H26.924a.813.813,0,0,1-.376-1.535l3-1.748a.813.813,0,1,0-.819-1.4L25.778,7.649a2.439,2.439,0,0,0,1.145,4.592h.823v14.7h-3a7.291,7.291,0,0,0-6.134,3.329L7.173,47.861A2.429,2.429,0,0,1,5.129,48.97H3.261a3.261,3.261,0,1,0,0,6.523H6.254a7.29,7.29,0,0,0,6.14-3.339l4.384-6.77a.813.813,0,0,0-1.365-.884l-4.384,6.77a5.67,5.67,0,0,1-4.776,2.6H3.261a1.636,1.636,0,1,1,0-3.271H5.129a4.049,4.049,0,0,0,3.407-1.849L19.971,31.152a5.671,5.671,0,0,1,4.771-2.589h28.3a.82.82,0,0,1,.819.819v1.632a.82.82,0,0,1-.819.819H25.828a4.049,4.049,0,0,0-3.411,1.855l-4.939,7.627a.813.813,0,0,0,1.365.884l4.939-7.627a2.429,2.429,0,0,1,2.047-1.113h.286V53.048a2.445,2.445,0,0,0,4.89,0V33.46h3.27V45.846a2.445,2.445,0,0,0,.813,4.75H44.88a2.445,2.445,0,0,0,.813-4.75V33.46h3.27V53.048a2.445,2.445,0,0,0,4.89,0V33.32a2.449,2.449,0,0,0,1.632-2.306V29.382a2.448,2.448,0,0,0-2.445-2.445ZM34.269,22.853a5.716,5.716,0,0,1,11.431,0v4.084H34.269Zm-4.89,30.195a.819.819,0,1,1-1.639,0V33.46h1.639Zm15.5-4.077H35.087a.819.819,0,1,1,0-1.639H44.88a.819.819,0,1,1,0,1.639Zm-.813-3.264H35.9V33.46h8.168Zm7.341,8.161a.82.82,0,0,1-.819-.819V33.46h1.639V53.048a.82.82,0,0,1-.819.819Z" transform="translate(0 0)"/>
    </g>
  </g>
</svg>
