<svg xmlns="http://www.w3.org/2000/svg" xmlns:xlink="http://www.w3.org/1999/xlink" width="110" height="110" viewBox="0 0 110 110">
  <defs>
    <filter id="Trazado_982547" x="0" y="0" width="110" height="110" filterUnits="userSpaceOnUse">
      <feOffset dy="3" input="SourceAlpha"/>
      <feGaussianBlur stdDeviation="3" result="blur"/>
      <feFlood flood-opacity="0.161"/>
      <feComposite operator="in" in2="blur"/>
      <feComposite in="SourceGraphic"/>
    </filter>
  </defs>
  <g id="Grupo_1179230" data-name="Grupo 1179230" transform="translate(-1112 -2085)">
    <g id="Grupo_1175186" data-name="Grupo 1175186" transform="translate(1121 2091)">
      <g id="Grupo_1164700" data-name="Grupo 1164700" transform="translate(0 0)">
        <g id="Grupo_1160931" data-name="Grupo 1160931" transform="translate(0 0)">
          <g id="Grupo_1160749" data-name="Grupo 1160749" transform="translate(0 0)">
            <g id="Grupo_1158891" data-name="Grupo 1158891" transform="translate(0 0)">
              <g id="Grupo_1157406" data-name="Grupo 1157406" transform="translate(0 0)">
                <g id="Grupo_1155793" data-name="Grupo 1155793">
                  <g id="Grupo_1154704" data-name="Grupo 1154704">
                    <g id="Grupo_1150790" data-name="Grupo 1150790">
                      <g id="Grupo_1154214" data-name="Grupo 1154214">
                        <g id="Grupo_1152583" data-name="Grupo 1152583">
                          <g id="Grupo_1146973" data-name="Grupo 1146973">
                            <g id="Grupo_1146954" data-name="Grupo 1146954">
                              <g transform="matrix(1, 0, 0, 1, -9, -6)" filter="url(#Trazado_982547)">
                                <g id="Trazado_982547-2" data-name="Trazado 982547" transform="translate(9 6)" fill="#effbfe">
                                  <path d="M 46.00000381469727 90.49986267089844 C 39.99188232421875 90.49986267089844 34.16428375244141 89.32350158691406 28.67905807495117 87.00344848632812 C 23.38021659851074 84.76223754882812 18.62104415893555 81.55341339111328 14.53376388549805 77.46613311767578 C 10.44647026062012 73.37885284423828 7.237643718719482 68.61968994140625 4.996417045593262 63.32085037231445 C 2.676363706588745 57.83565139770508 1.500003814697266 52.00805282592773 1.500003814697266 45.99993133544922 C 1.500003814697266 39.99182510375977 2.676363706588745 34.16422653198242 4.996417045593262 28.67901039123535 C 7.237643718719482 23.38017082214355 10.44647026062012 18.62101173400879 14.53376388549805 14.53373146057129 C 18.62104415893555 10.44645118713379 23.38021659851074 7.237624645233154 28.67905807495117 4.996411323547363 C 34.16428375244141 2.676357984542847 39.99188232421875 1.499997973442078 46.00000381469727 1.499997973442078 C 52.00812530517578 1.499997973442078 57.83573532104492 2.676357984542847 63.32094955444336 4.996411323547363 C 68.61980438232422 7.237624645233154 73.37896728515625 10.44645118713379 77.46625518798828 14.53373146057129 C 81.55353546142578 18.62101173400879 84.76236724853516 23.38017082214355 87.00359344482422 28.67901039123535 C 89.32364654541016 34.16422653198242 90.5 39.99182510375977 90.5 45.99993133544922 C 90.5 52.00805282592773 89.32364654541016 57.83565139770508 87.00359344482422 63.32085037231445 C 84.76236724853516 68.61968994140625 81.55353546142578 73.37885284423828 77.46625518798828 77.46613311767578 C 73.37896728515625 81.55341339111328 68.61980438232422 84.76223754882812 63.32094955444336 87.00344848632812 C 57.83573532104492 89.32350158691406 52.00812530517578 90.49986267089844 46.00000381469727 90.49986267089844 Z" stroke="none"/>
                                  <path d="M 46.00000381469727 3 C 40.19371795654297 3 34.56270217895508 4.136505126953125 29.26338958740234 6.377914428710938 C 24.14333343505859 8.54351806640625 19.54443359375 11.64438629150391 15.59442138671875 15.59439086914062 C 11.64440155029297 19.54440307617188 8.543533325195312 24.14330291748047 6.3779296875 29.26334381103516 C 4.136505126953125 34.56266021728516 3.000007629394531 40.19366073608398 3.000007629394531 45.99993133544922 C 3.000007629394531 51.80620193481445 4.136505126953125 57.43720245361328 6.3779296875 62.73651885986328 C 8.543533325195312 67.85655975341797 11.64440155029297 72.45545959472656 15.59442138671875 76.40547180175781 C 19.54443359375 80.35547637939453 24.14333343505859 83.45634460449219 29.26338958740234 85.6219482421875 C 34.56270217895508 87.86335754394531 40.19371795654297 88.99986267089844 46.00000381469727 88.99986267089844 C 51.80628967285156 88.99986267089844 57.43730545043945 87.86335754394531 62.73663330078125 85.6219482421875 C 67.85667419433594 83.45634460449219 72.45558929443359 80.35547637939453 76.40560150146484 76.40547180175781 C 80.35560607910156 72.45545959472656 83.45648956298828 67.85655975341797 85.62208557128906 62.73651885986328 C 87.86350250244141 57.43720245361328 89 51.80620193481445 89 45.99993133544922 C 89 40.19366073608398 87.86350250244141 34.56266021728516 85.62208557128906 29.26334381103516 C 83.45648956298828 24.14330291748047 80.35560607910156 19.54440307617188 76.40560150146484 15.59439086914062 C 72.45558929443359 11.64438629150391 67.85667419433594 8.54351806640625 62.73663330078125 6.377914428710938 C 57.43730545043945 4.136505126953125 51.80628967285156 3 46.00000381469727 3 M 46.00000381469727 0 C 71.40510559082031 0 92 20.59487152099609 92 45.99993133544922 C 92 71.40499114990234 71.40510559082031 91.99986267089844 46.00000381469727 91.99986267089844 C 20.59491729736328 91.99986267089844 7.62939453125e-06 71.40499114990234 7.62939453125e-06 45.99993133544922 C 7.62939453125e-06 20.59487152099609 20.59491729736328 0 46.00000381469727 0 Z" stroke="none" fill="#397b86"/>
                                </g>
                              </g>
                            </g>
                          </g>
                        </g>
                      </g>
                    </g>
                  </g>
                </g>
              </g>
            </g>
          </g>
        </g>
      </g>
    </g>
    <g id="campo-de-futbol" transform="translate(1193.259 2110) rotate(90)">
      <g id="Grupo_1179228" data-name="Grupo 1179228" transform="translate(6.817 0.817)">
        <path id="Trazado_1040119" data-name="Trazado 1040119" d="M7,1H47.828V3.45H7Z" transform="translate(-7 -1)" fill="#39b550"/>
        <path id="Trazado_1040120" data-name="Trazado 1040120" d="M7,4H47.828v8.166H7Z" transform="translate(-7 -1.55)" fill="#74ce80"/>
        <path id="Trazado_1040121" data-name="Trazado 1040121" d="M7,14H47.828v7.349H7Z" transform="translate(-7 -3.385)" fill="#39b550"/>
        <path id="Trazado_1040122" data-name="Trazado 1040122" d="M7,23H47.828v7.349H7Z" transform="translate(-7 -5.036)" fill="#74ce80"/>
        <path id="Trazado_1040123" data-name="Trazado 1040123" d="M0,0H40.828V2.45H0Z" transform="translate(40.828 50.626) rotate(180)" fill="#74ce80"/>
        <path id="Trazado_1040124" data-name="Trazado 1040124" d="M0,0H40.828V8.166H0Z" transform="translate(40.828 48.177) rotate(180)" fill="#39b550"/>
        <path id="Trazado_1040125" data-name="Trazado 1040125" d="M0,0H40.828V7.349H0Z" transform="translate(40.828 40.011) rotate(180)" fill="#74ce80"/>
        <path id="Trazado_1040126" data-name="Trazado 1040126" d="M0,0H40.828V7.349H0Z" transform="translate(40.828 32.662) rotate(180)" fill="#39b550"/>
      </g>
      <g id="Grupo_1179229" data-name="Grupo 1179229" transform="translate(6)">
        <path id="Trazado_1040127" data-name="Trazado 1040127" d="M47.644,0H6.817A.816.816,0,0,0,6,.817V51.443a.816.816,0,0,0,.817.817H47.644a.816.816,0,0,0,.817-.817V.817A.816.816,0,0,0,47.644,0Zm-29.4,6.532v-4.9H36.212v4.9ZM31.906,8.166a5.687,5.687,0,0,1-9.351,0ZM16.615,1.633V7.349a.816.816,0,0,0,.817.817h3.235a7.317,7.317,0,0,0,13.127,0h3.235a.816.816,0,0,0,.817-.817V1.633h8.982v23.68H35.354a8.165,8.165,0,0,0-16.248,0H7.633V1.633Zm4.139,23.68a6.527,6.527,0,0,1,12.952,0Zm12.952,1.633a6.527,6.527,0,0,1-12.952,0Zm-.42,18.781h2.926v4.9H18.248v-4.9ZM22.555,44.094a5.687,5.687,0,0,1,9.351,0Zm15.291,6.532V44.91a.816.816,0,0,0-.817-.817H33.794a7.317,7.317,0,0,0-13.127,0H17.432a.816.816,0,0,0-.817.817v5.716H7.633V26.946H19.106a8.165,8.165,0,0,0,16.248,0H46.828v23.68Z" transform="translate(-6)" fill="#252525"/>
        <circle id="Elipse_12420" data-name="Elipse 12420" cx="1" cy="1" r="1" transform="translate(20.461 47)" fill="#252525"/>
        <circle id="Elipse_12421" data-name="Elipse 12421" cx="1" cy="1" r="1" transform="translate(20.461 3)" fill="#252525"/>
      </g>
    </g>
  </g>
</svg>
