<svg xmlns="http://www.w3.org/2000/svg" xmlns:xlink="http://www.w3.org/1999/xlink" width="110" height="110" viewBox="0 0 110 110">
  <defs>
    <filter id="Trazado_982547" x="0" y="0" width="110" height="110" filterUnits="userSpaceOnUse">
      <feOffset dy="3" input="SourceAlpha"/>
      <feGaussianBlur stdDeviation="3" result="blur"/>
      <feFlood flood-opacity="0.161"/>
      <feComposite operator="in" in2="blur"/>
      <feComposite in="SourceGraphic"/>
    </filter>
  </defs>
  <g id="Grupo_1179237" data-name="Grupo 1179237" transform="translate(-2754 -2085)">
    <g id="Grupo_1175189" data-name="Grupo 1175189" transform="translate(2763 2091)">
      <g id="Grupo_1164700" data-name="Grupo 1164700" transform="translate(0 0)">
        <g id="Grupo_1160931" data-name="Grupo 1160931" transform="translate(0 0)">
          <g id="Grupo_1160749" data-name="Grupo 1160749" transform="translate(0 0)">
            <g id="Grupo_1158891" data-name="Grupo 1158891" transform="translate(0 0)">
              <g id="Grupo_1157406" data-name="Grupo 1157406" transform="translate(0 0)">
                <g id="Grupo_1155793" data-name="Grupo 1155793">
                  <g id="Grupo_1154704" data-name="Grupo 1154704">
                    <g id="Grupo_1150790" data-name="Grupo 1150790">
                      <g id="Grupo_1154214" data-name="Grupo 1154214">
                        <g id="Grupo_1152583" data-name="Grupo 1152583">
                          <g id="Grupo_1146973" data-name="Grupo 1146973">
                            <g id="Grupo_1146954" data-name="Grupo 1146954">
                              <g transform="matrix(1, 0, 0, 1, -9, -6)" filter="url(#Trazado_982547)">
                                <g id="Trazado_982547-2" data-name="Trazado 982547" transform="translate(9 6)" fill="#effbfe">
                                  <path d="M 46.00000381469727 90.49986267089844 C 39.99188232421875 90.49986267089844 34.16428375244141 89.32350158691406 28.67905807495117 87.00344848632812 C 23.38021659851074 84.76223754882812 18.62104415893555 81.55341339111328 14.53376388549805 77.46613311767578 C 10.44647026062012 73.37885284423828 7.237643718719482 68.61968994140625 4.996417045593262 63.32085037231445 C 2.676363706588745 57.83565139770508 1.500003814697266 52.00805282592773 1.500003814697266 45.99993133544922 C 1.500003814697266 39.99182510375977 2.676363706588745 34.16422653198242 4.996417045593262 28.67901039123535 C 7.237643718719482 23.38017082214355 10.44647026062012 18.62101173400879 14.53376388549805 14.53373146057129 C 18.62104415893555 10.44645118713379 23.38021659851074 7.237624645233154 28.67905807495117 4.996411323547363 C 34.16428375244141 2.676357984542847 39.99188232421875 1.499997973442078 46.00000381469727 1.499997973442078 C 52.00812530517578 1.499997973442078 57.83573532104492 2.676357984542847 63.32094955444336 4.996411323547363 C 68.61980438232422 7.237624645233154 73.37896728515625 10.44645118713379 77.46625518798828 14.53373146057129 C 81.55353546142578 18.62101173400879 84.76236724853516 23.38017082214355 87.00359344482422 28.67901039123535 C 89.32364654541016 34.16422653198242 90.5 39.99182510375977 90.5 45.99993133544922 C 90.5 52.00805282592773 89.32364654541016 57.83565139770508 87.00359344482422 63.32085037231445 C 84.76236724853516 68.61968994140625 81.55353546142578 73.37885284423828 77.46625518798828 77.46613311767578 C 73.37896728515625 81.55341339111328 68.61980438232422 84.76223754882812 63.32094955444336 87.00344848632812 C 57.83573532104492 89.32350158691406 52.00812530517578 90.49986267089844 46.00000381469727 90.49986267089844 Z" stroke="none"/>
                                  <path d="M 46.00000381469727 3 C 40.19371795654297 3 34.56270217895508 4.136505126953125 29.26338958740234 6.377914428710938 C 24.14333343505859 8.54351806640625 19.54443359375 11.64438629150391 15.59442138671875 15.59439086914062 C 11.64440155029297 19.54440307617188 8.543533325195312 24.14330291748047 6.3779296875 29.26334381103516 C 4.136505126953125 34.56266021728516 3.000007629394531 40.19366073608398 3.000007629394531 45.99993133544922 C 3.000007629394531 51.80620193481445 4.136505126953125 57.43720245361328 6.3779296875 62.73651885986328 C 8.543533325195312 67.85655975341797 11.64440155029297 72.45545959472656 15.59442138671875 76.40547180175781 C 19.54443359375 80.35547637939453 24.14333343505859 83.45634460449219 29.26338958740234 85.6219482421875 C 34.56270217895508 87.86335754394531 40.19371795654297 88.99986267089844 46.00000381469727 88.99986267089844 C 51.80628967285156 88.99986267089844 57.43730545043945 87.86335754394531 62.73663330078125 85.6219482421875 C 67.85667419433594 83.45634460449219 72.45558929443359 80.35547637939453 76.40560150146484 76.40547180175781 C 80.35560607910156 72.45545959472656 83.45648956298828 67.85655975341797 85.62208557128906 62.73651885986328 C 87.86350250244141 57.43720245361328 89 51.80620193481445 89 45.99993133544922 C 89 40.19366073608398 87.86350250244141 34.56266021728516 85.62208557128906 29.26334381103516 C 83.45648956298828 24.14330291748047 80.35560607910156 19.54440307617188 76.40560150146484 15.59439086914062 C 72.45558929443359 11.64438629150391 67.85667419433594 8.54351806640625 62.73663330078125 6.377914428710938 C 57.43730545043945 4.136505126953125 51.80628967285156 3 46.00000381469727 3 M 46.00000381469727 0 C 71.40510559082031 0 92 20.59487152099609 92 45.99993133544922 C 92 71.40499114990234 71.40510559082031 91.99986267089844 46.00000381469727 91.99986267089844 C 20.59491729736328 91.99986267089844 7.62939453125e-06 71.40499114990234 7.62939453125e-06 45.99993133544922 C 7.62939453125e-06 20.59487152099609 20.59491729736328 0 46.00000381469727 0 Z" stroke="none" fill="#397b86"/>
                                </g>
                              </g>
                            </g>
                          </g>
                        </g>
                      </g>
                    </g>
                  </g>
                </g>
              </g>
            </g>
          </g>
        </g>
      </g>
    </g>
    <g id="bloques" transform="translate(2781.002 2082.363)">
      <g id="Grupo_1179235" data-name="Grupo 1179235" transform="translate(0.819 30.457)">
        <path id="Trazado_1040128" data-name="Trazado 1040128" d="M235.489,315.678H224.761v6.061h10.728a3.031,3.031,0,1,0,0-6.061Z" transform="translate(-200.997 -285.212)" fill="#ffcabd"/>
        <path id="Trazado_1040129" data-name="Trazado 1040129" d="M11.137,291.238a3.031,3.031,0,0,0-1.211,5.939l10.512,2.143,1.211-5.939Z" transform="translate(-7.5 -263.39)" fill="#ffdcce"/>
        <path id="Trazado_1040130" data-name="Trazado 1040130" d="M106.1,325.117c0-6.705-3.456-9.44-3.456-9.44H88.576s-3.456,2.734-3.456,9.44l10.492,3.215Z" transform="translate(-76.63 -285.211)" fill="#7de2ff"/>
        <path id="Trazado_1040131" data-name="Trazado 1040131" d="M233.094,396.921l-1.775,4.263,1.775,4.263h2.092a4.263,4.263,0,1,0,0-8.525h-2.092Z" transform="translate(-206.838 -357.568)" fill="#696eb1"/>
        <path id="Trazado_1040132" data-name="Trazado 1040132" d="M167.721,401.184a4.262,4.262,0,0,0,4.262,4.263h4.469v-8.525h-4.469A4.263,4.263,0,0,0,167.721,401.184Z" transform="translate(-150.196 -357.569)" fill="#ffdcce"/>
        <path id="Trazado_1040133" data-name="Trazado 1040133" d="M62.784,396.921l1.775,4.263-1.775,4.263H60.691a4.263,4.263,0,1,1,0-8.525h2.092Z" transform="translate(-51.076 -357.568)" fill="#696eb1"/>
        <path id="Trazado_1040134" data-name="Trazado 1040134" d="M58.069,405.179a4.262,4.262,0,0,0,2.623,7.622h2.092l1.032-2.478C60.038,409.727,58.588,407.772,58.069,405.179Z" transform="translate(-51.077 -364.923)" fill="#4c5698"/>
        <path id="Trazado_1040135" data-name="Trazado 1040135" d="M123.267,401.184A4.262,4.262,0,0,1,119,405.447h-4.469v-8.525H119A4.263,4.263,0,0,1,123.267,401.184Z" transform="translate(-102.829 -357.569)" fill="#ffdcce"/>
        <path id="Trazado_1040136" data-name="Trazado 1040136" d="M19.168,55.273H15.225A18.137,18.137,0,0,1,33.361,37.135H44.108A4.369,4.369,0,0,1,48.477,41.5a6.613,6.613,0,0,1-3.388,5.772l-.618,1.362Z" transform="translate(-14.38 -37.135)" fill="#d5938c"/>
        <path id="Trazado_1040137" data-name="Trazado 1040137" d="M98.774,318.321a17.3,17.3,0,0,0,8.866,2.5h.132a17.366,17.366,0,0,0,9-2.49,8.5,8.5,0,0,0-1.969-2.655H100.736A8.491,8.491,0,0,0,98.774,318.321Z" transform="translate(-88.791 -285.212)" fill="#2ecffb"/>
        <path id="Trazado_1040138" data-name="Trazado 1040138" d="M34.718,37.136H33.361A18.137,18.137,0,0,0,15.225,55.274h3.943l4.15-1.088A18.812,18.812,0,0,1,34.718,37.136Z" transform="translate(-14.38 -37.136)" fill="#cd847b"/>
        <path id="Trazado_1040139" data-name="Trazado 1040139" d="M79.406,135.14a14.1,14.1,0,0,0-2.208-5.286,6.568,6.568,0,0,1-3.221.837H58.246a6.966,6.966,0,0,0-6.964,6.788q0,.088,0,.177a14.193,14.193,0,1,0,28.128-2.516Z" transform="translate(-46.489 -119.713)" fill="#ffdcce"/>
        <path id="Trazado_1040140" data-name="Trazado 1040140" d="M24.651,160.524a18.83,18.83,0,0,1-6.112-20.8,6.982,6.982,0,0,0-4.4,3.594,3.909,3.909,0,0,0-.858-.09,4.54,4.54,0,0,0,0,9.08,3.643,3.643,0,0,0,1.219-.194A14.29,14.29,0,0,0,24.651,160.524Z" transform="translate(-8.602 -128.5)" fill="#ffcabd"/>
        <g id="Grupo_1179234" data-name="Grupo 1179234" transform="translate(6.711 18.943)">
          <g id="Grupo_1179233" data-name="Grupo 1179233">
            <g id="Grupo_1179231" data-name="Grupo 1179231">
              <ellipse id="Elipse_12422" data-name="Elipse 12422" cx="3.307" cy="2.634" rx="3.307" ry="2.634" fill="#ff8d9d"/>
            </g>
            <g id="Grupo_1179232" data-name="Grupo 1179232" transform="translate(17.927)">
              <ellipse id="Elipse_12423" data-name="Elipse 12423" cx="3.307" cy="2.634" rx="3.307" ry="2.634" fill="#ff8d9d"/>
            </g>
          </g>
        </g>
        <path id="Trazado_1040141" data-name="Trazado 1040141" d="M404.717,210.615l-3.665-5.574-3.665,5.574a2.32,2.32,0,0,0-2.32,2.32v7.33a2.32,2.32,0,0,0,2.32,2.32l3.665,6.347,3.665-6.347a2.32,2.32,0,0,0,2.32-2.32v-7.33A2.32,2.32,0,0,0,404.717,210.615Z" transform="translate(-352.677 -186.676)" fill="#c8a9f1"/>
        <path id="Trazado_1040142" data-name="Trazado 1040142" d="M404.718,37.135h-7.33a2.32,2.32,0,0,0-2.32,2.32v7.33a2.32,2.32,0,0,0,2.32,2.32l3.665,6.4,3.665-6.4a2.32,2.32,0,0,0,2.32-2.32v-7.33A2.32,2.32,0,0,0,404.718,37.135Z" transform="translate(-352.677 -37.135)" fill="#ff8d9d"/>
        <path id="Trazado_1040143" data-name="Trazado 1040143" d="M404.718,146.568h-7.33a2.32,2.32,0,0,0-2.32,2.32v7.33a2.32,2.32,0,0,0,2.32,2.32h7.33a2.32,2.32,0,0,0,2.32-2.32v-7.33A2.32,2.32,0,0,0,404.718,146.568Z" transform="translate(-352.677 -134.598)" fill="#71dbba"/>
        <path id="Trazado_1040144" data-name="Trazado 1040144" d="M404.718,365.432h-7.33a2.32,2.32,0,0,0-2.32,2.32v7.33a2.32,2.32,0,0,0,2.32,2.32h7.33a2.32,2.32,0,0,0,2.32-2.32v-7.33A2.32,2.32,0,0,0,404.718,365.432Z" transform="translate(-352.677 -329.524)" fill="#fce29f"/>
        <path id="Trazado_1040145" data-name="Trazado 1040145" d="M118.233,440.915a15.048,15.048,0,0,1-3.7-.4V443.2H119a4.262,4.262,0,0,0,4.245-3.888A8.636,8.636,0,0,1,118.233,440.915Z" transform="translate(-102.829 -395.326)" fill="#ffcabd"/>
        <path id="Trazado_1040146" data-name="Trazado 1040146" d="M398.222,369.988a8.7,8.7,0,0,1,1.281-4.555h-2.115a2.32,2.32,0,0,0-2.32,2.32v7.329a2.32,2.32,0,0,0,2.32,2.32h4.951A8.73,8.73,0,0,1,398.222,369.988Z" transform="translate(-352.676 -329.525)" fill="#ffcd71"/>
        <path id="Trazado_1040147" data-name="Trazado 1040147" d="M398.222,260.556A8.7,8.7,0,0,1,399.5,256h-2.115a2.32,2.32,0,0,0-2.32,2.32v7.33a2.32,2.32,0,0,0,2.32,2.32h4.951A8.729,8.729,0,0,1,398.222,260.556Z" transform="translate(-352.676 -232.062)" fill="#b18ae3"/>
        <path id="Trazado_1040148" data-name="Trazado 1040148" d="M398.222,151.123a8.7,8.7,0,0,1,1.281-4.555h-2.115a2.32,2.32,0,0,0-2.32,2.32v7.33a2.32,2.32,0,0,0,2.32,2.32h4.951A8.73,8.73,0,0,1,398.222,151.123Z" transform="translate(-352.676 -134.598)" fill="#30cc9b"/>
        <path id="Trazado_1040149" data-name="Trazado 1040149" d="M398.222,41.691a8.7,8.7,0,0,1,1.281-4.555h-2.115a2.32,2.32,0,0,0-2.32,2.32v7.33a2.32,2.32,0,0,0,2.32,2.32h4.951A8.73,8.73,0,0,1,398.222,41.691Z" transform="translate(-352.676 -37.136)" fill="#e95b70"/>
      </g>
      <g id="Grupo_1179236" data-name="Grupo 1179236" transform="translate(-0.002 29.637)">
        <path id="Trazado_1040150" data-name="Trazado 1040150" d="M109.218,192.181v1.352a.82.82,0,0,0,1.641,0v-1.352a.82.82,0,0,0-1.641,0Z" transform="translate(-97.272 -173.672)"/>
        <path id="Trazado_1040151" data-name="Trazado 1040151" d="M237.873,192.181v1.352a.82.82,0,1,0,1.641,0v-1.352a.82.82,0,1,0-1.641,0Z" transform="translate(-211.855 -173.672)"/>
        <path id="Trazado_1040152" data-name="Trazado 1040152" d="M160.5,203.635a1.638,1.638,0,0,1-2.473,0,.82.82,0,1,0-1.237,1.078,3.279,3.279,0,0,0,4.947,0,.82.82,0,1,0-1.237-1.078Z" transform="translate(-139.458 -184.353)"/>
        <path id="Trazado_1040153" data-name="Trazado 1040153" d="M398.038,29.637h-7.329a3.144,3.144,0,0,0-3.14,3.14v7.33a3.133,3.133,0,0,0,1.026,2.32,3.133,3.133,0,0,0-1.026,2.32v7.33a3.133,3.133,0,0,0,1.026,2.32,3.133,3.133,0,0,0-1.026,2.32v7.33a3.133,3.133,0,0,0,1.026,2.32,3.133,3.133,0,0,0-1.026,2.32v7.33a3.144,3.144,0,0,0,3.14,3.14h7.329a3.144,3.144,0,0,0,3.14-3.14v-7.33a3.132,3.132,0,0,0-1.026-2.32,3.133,3.133,0,0,0,1.026-2.32V56.716a3.132,3.132,0,0,0-1.026-2.32,3.132,3.132,0,0,0,1.026-2.32v-7.33a3.132,3.132,0,0,0-1.026-2.32,3.132,3.132,0,0,0,1.026-2.32v-7.33A3.144,3.144,0,0,0,398.038,29.637Zm1.5,39.048v7.33a1.5,1.5,0,0,1-1.5,1.5h-7.329a1.5,1.5,0,0,1-1.5-1.5v-7.33a1.5,1.5,0,0,1,1.5-1.5h7.329A1.5,1.5,0,0,1,399.537,68.685Zm0-11.969v7.33a1.5,1.5,0,0,1-1.5,1.5h-7.329a1.5,1.5,0,0,1-1.5-1.5v-7.33a1.5,1.5,0,0,1,1.5-1.5h7.329A1.5,1.5,0,0,1,399.537,56.716Zm0-11.969v7.33a1.5,1.5,0,0,1-1.5,1.5h-7.329a1.5,1.5,0,0,1-1.5-1.5v-7.33a1.5,1.5,0,0,1,1.5-1.5h7.329A1.5,1.5,0,0,1,399.537,44.747Zm-8.829-3.14a1.5,1.5,0,0,1-1.5-1.5v-7.33a1.5,1.5,0,0,1,1.5-1.5h7.329a1.5,1.5,0,0,1,1.5,1.5v7.33a1.5,1.5,0,0,1-1.5,1.5h-7.329Z" transform="translate(-345.176 -29.637)"/>
        <path id="Trazado_1040154" data-name="Trazado 1040154" d="M8.516,69.367a5.082,5.082,0,0,0,1.917,9.789h6.561a5.051,5.051,0,0,0,2.8-.846,5.076,5.076,0,0,0,2.807.846h6.561a5.082,5.082,0,0,0,1.917-9.789c-.028-.548-.079-1.067-.148-1.561H35.31a3.851,3.851,0,0,0,0-7.7H29.448a15.24,15.24,0,0,0,2.219-2.311.82.82,0,1,0-1.3-1.006A13.343,13.343,0,0,1,13.2,60.213h0A13.4,13.4,0,0,1,6.462,49.541a7.037,7.037,0,0,1,.626-3.906h0a6.141,6.141,0,0,1,5.488-3.377H28.307a7.455,7.455,0,0,0,2.928-.6,13.187,13.187,0,0,1,1.7,4.384,13.535,13.535,0,0,1,.243,2.555,13.262,13.262,0,0,1-1.209,5.564.82.82,0,0,0,1.492.684A14.892,14.892,0,0,0,34.815,48.6a15.186,15.186,0,0,0-.273-2.865,14.819,14.819,0,0,0-1.88-4.883,7.4,7.4,0,0,0,3.075-6.019,5.2,5.2,0,0,0-5.19-5.19H19.8a18.957,18.957,0,0,0-8.961,2.256.82.82,0,0,0,.778,1.444A17.311,17.311,0,0,1,19.8,31.279H30.547A3.553,3.553,0,0,1,34.1,34.828a5.787,5.787,0,0,1-5.789,5.789H12.576a7.757,7.757,0,0,0-6.667,3.762,5.371,5.371,0,0,0-3.062.682,17.14,17.14,0,0,1,1.043-3.3,17.464,17.464,0,0,1,5.064-6.655.82.82,0,1,0-1.029-1.278,19.109,19.109,0,0,0-5.542,7.283A18.791,18.791,0,0,0,.917,46.935,5.358,5.358,0,0,0,6.24,55.03a15.045,15.045,0,0,0,2.091,3.229L4.619,57.5a3.851,3.851,0,0,0-1.539,7.547l5.877,1.2a17.012,17.012,0,0,0-.441,3.12ZM6.991,74.073a3.447,3.447,0,0,1,3.443-3.442h1.272v6.885H10.434A3.447,3.447,0,0,1,6.991,74.073Zm6.356,3.443V70.631h3.648a3.442,3.442,0,0,1,0,6.885Zm7.7-.374a5.078,5.078,0,0,0,0-6.135,3.42,3.42,0,0,1,1.559-.375h3.648v6.885H22.605a3.435,3.435,0,0,1-1.56-.374Zm11.564-3.068a3.447,3.447,0,0,1-3.443,3.443H27.894V70.631h1.272A3.447,3.447,0,0,1,32.609,74.073ZM29.166,68.99H22.605a5.157,5.157,0,0,0-2.805.846,5.091,5.091,0,0,0-2.805-.846H10.4c-.072,0-.144,0-.216.005a12.065,12.065,0,0,1,2.722-7.068,14.89,14.89,0,0,0,6.78,1.68h0A14.987,14.987,0,0,0,26.7,61.939,12.006,12.006,0,0,1,29.416,69c-.071,0-.142,0-.213-.005h-.036Zm8.354-5.035a2.213,2.213,0,0,1-2.21,2.21H30.626a13.044,13.044,0,0,0-1.972-4.42H35.31A2.213,2.213,0,0,1,37.521,63.955ZM5.494,53.442a3.719,3.719,0,0,1-.333-7.423,9.312,9.312,0,0,0-.34,3.577,14.9,14.9,0,0,0,.769,3.845ZM9.429,64.669,3.409,63.441a2.21,2.21,0,0,1,.883-4.331l6.229,1.27q.463.367.949.694A11.9,11.9,0,0,0,9.429,64.669Z" transform="translate(0.002 -29.638)"/>
      </g>
    </g>
  </g>
</svg>
