<svg xmlns="http://www.w3.org/2000/svg" xmlns:xlink="http://www.w3.org/1999/xlink" width="110" height="110" viewBox="0 0 110 110">
  <defs>
    <filter id="Trazado_982547" x="0" y="0" width="110" height="110" filterUnits="userSpaceOnUse">
      <feOffset dy="3" input="SourceAlpha"/>
      <feGaussianBlur stdDeviation="3" result="blur"/>
      <feFlood flood-opacity="0.161"/>
      <feComposite operator="in" in2="blur"/>
      <feComposite in="SourceGraphic"/>
    </filter>
  </defs>
  <g id="Grupo_1179285" data-name="Grupo 1179285" transform="translate(-2754 -2817.257)">
    <g id="Grupo_1175193" data-name="Grupo 1175193" transform="translate(2763 2823.257)">
      <g id="Grupo_1164700" data-name="Grupo 1164700" transform="translate(0 0)">
        <g id="Grupo_1160931" data-name="Grupo 1160931" transform="translate(0 0)">
          <g id="Grupo_1160749" data-name="Grupo 1160749" transform="translate(0 0)">
            <g id="Grupo_1158891" data-name="Grupo 1158891" transform="translate(0 0)">
              <g id="Grupo_1157406" data-name="Grupo 1157406" transform="translate(0 0)">
                <g id="Grupo_1155793" data-name="Grupo 1155793">
                  <g id="Grupo_1154704" data-name="Grupo 1154704">
                    <g id="Grupo_1150790" data-name="Grupo 1150790">
                      <g id="Grupo_1154214" data-name="Grupo 1154214">
                        <g id="Grupo_1152583" data-name="Grupo 1152583">
                          <g id="Grupo_1146973" data-name="Grupo 1146973">
                            <g id="Grupo_1146954" data-name="Grupo 1146954">
                              <g transform="matrix(1, 0, 0, 1, -9, -6)" filter="url(#Trazado_982547)">
                                <g id="Trazado_982547-2" data-name="Trazado 982547" transform="translate(9 6)" fill="#effbfe">
                                  <path d="M 46.00000381469727 90.49986267089844 C 39.99188232421875 90.49986267089844 34.16428375244141 89.32350158691406 28.67905807495117 87.00344848632812 C 23.38021659851074 84.76223754882812 18.62104415893555 81.55341339111328 14.53376388549805 77.46613311767578 C 10.44647026062012 73.37885284423828 7.237643718719482 68.61968994140625 4.996417045593262 63.32085037231445 C 2.676363706588745 57.83565139770508 1.500003814697266 52.00805282592773 1.500003814697266 45.99993133544922 C 1.500003814697266 39.99182510375977 2.676363706588745 34.16422653198242 4.996417045593262 28.67901039123535 C 7.237643718719482 23.38017082214355 10.44647026062012 18.62101173400879 14.53376388549805 14.53373146057129 C 18.62104415893555 10.44645118713379 23.38021659851074 7.237624645233154 28.67905807495117 4.996411323547363 C 34.16428375244141 2.676357984542847 39.99188232421875 1.499997973442078 46.00000381469727 1.499997973442078 C 52.00812530517578 1.499997973442078 57.83573532104492 2.676357984542847 63.32094955444336 4.996411323547363 C 68.61980438232422 7.237624645233154 73.37896728515625 10.44645118713379 77.46625518798828 14.53373146057129 C 81.55353546142578 18.62101173400879 84.76236724853516 23.38017082214355 87.00359344482422 28.67901039123535 C 89.32364654541016 34.16422653198242 90.5 39.99182510375977 90.5 45.99993133544922 C 90.5 52.00805282592773 89.32364654541016 57.83565139770508 87.00359344482422 63.32085037231445 C 84.76236724853516 68.61968994140625 81.55353546142578 73.37885284423828 77.46625518798828 77.46613311767578 C 73.37896728515625 81.55341339111328 68.61980438232422 84.76223754882812 63.32094955444336 87.00344848632812 C 57.83573532104492 89.32350158691406 52.00812530517578 90.49986267089844 46.00000381469727 90.49986267089844 Z" stroke="none"/>
                                  <path d="M 46.00000381469727 3 C 40.19371795654297 3 34.56270217895508 4.136505126953125 29.26338958740234 6.377914428710938 C 24.14333343505859 8.54351806640625 19.54443359375 11.64438629150391 15.59442138671875 15.59439086914062 C 11.64440155029297 19.54440307617188 8.543533325195312 24.14330291748047 6.3779296875 29.26334381103516 C 4.136505126953125 34.56266021728516 3.000007629394531 40.19366073608398 3.000007629394531 45.99993133544922 C 3.000007629394531 51.80620193481445 4.136505126953125 57.43720245361328 6.3779296875 62.73651885986328 C 8.543533325195312 67.85655975341797 11.64440155029297 72.45545959472656 15.59442138671875 76.40547180175781 C 19.54443359375 80.35547637939453 24.14333343505859 83.45634460449219 29.26338958740234 85.6219482421875 C 34.56270217895508 87.86335754394531 40.19371795654297 88.99986267089844 46.00000381469727 88.99986267089844 C 51.80628967285156 88.99986267089844 57.43730545043945 87.86335754394531 62.73663330078125 85.6219482421875 C 67.85667419433594 83.45634460449219 72.45558929443359 80.35547637939453 76.40560150146484 76.40547180175781 C 80.35560607910156 72.45545959472656 83.45648956298828 67.85655975341797 85.62208557128906 62.73651885986328 C 87.86350250244141 57.43720245361328 89 51.80620193481445 89 45.99993133544922 C 89 40.19366073608398 87.86350250244141 34.56266021728516 85.62208557128906 29.26334381103516 C 83.45648956298828 24.14330291748047 80.35560607910156 19.54440307617188 76.40560150146484 15.59439086914062 C 72.45558929443359 11.64438629150391 67.85667419433594 8.54351806640625 62.73663330078125 6.377914428710938 C 57.43730545043945 4.136505126953125 51.80628967285156 3 46.00000381469727 3 M 46.00000381469727 0 C 71.40510559082031 0 92 20.59487152099609 92 45.99993133544922 C 92 71.40499114990234 71.40510559082031 91.99986267089844 46.00000381469727 91.99986267089844 C 20.59491729736328 91.99986267089844 7.62939453125e-06 71.40499114990234 7.62939453125e-06 45.99993133544922 C 7.62939453125e-06 20.59487152099609 20.59491729736328 0 46.00000381469727 0 Z" stroke="none" fill="#397b86"/>
                                </g>
                              </g>
                            </g>
                          </g>
                        </g>
                      </g>
                    </g>
                  </g>
                </g>
              </g>
            </g>
          </g>
        </g>
      </g>
    </g>
    <g id="princesa" transform="translate(2775.61 2838.658)">
      <path id="Trazado_1040220" data-name="Trazado 1040220" d="M72.783,273.29c0,8.087,4.351,8.308,4.351,12.5a4.607,4.607,0,0,1-1.353,3.267c-2.3,2.3-14.571,5.93-26.742,5.93S24.6,291.364,22.3,289.06a4.607,4.607,0,0,1-1.353-3.267c0-4.195,4.351-4.415,4.351-12.5H72.783Z" transform="translate(-15.455 -240.624)" fill="#de5c6e"/>
      <ellipse id="Elipse_12431" data-name="Elipse 12431" cx="5.935" cy="5.315" rx="5.935" ry="5.315" transform="translate(4.286 25.986)" fill="#ffcbbe"/>
      <ellipse id="Elipse_12432" data-name="Elipse 12432" cx="5.935" cy="5.315" rx="5.935" ry="5.315" transform="translate(51.01 25.986)" fill="#ffcbbe"/>
      <path id="Trazado_1040221" data-name="Trazado 1040221" d="M161.267,396.037a2.033,2.033,0,0,0,2-2.361,14.725,14.725,0,0,0-29.069,0,2.033,2.033,0,0,0,2,2.361Z" transform="translate(-115.152 -335.735)" fill="#f2bcd5"/>
      <path id="Trazado_1040222" data-name="Trazado 1040222" d="M176.364,387.725a34.4,34.4,0,0,0,10.81-1.683,14.721,14.721,0,0,0-21.62,0A34.4,34.4,0,0,0,176.364,387.725Z" transform="translate(-142.78 -335.734)" fill="#ea9cd0"/>
      <path id="Trazado_1040223" data-name="Trazado 1040223" d="M107.324,374.285c0,2.858-2.91,4.738-6.5,4.738s-6.5-1.88-6.5-4.738,2.91-5.174,6.5-5.174S107.324,371.428,107.324,374.285Z" transform="translate(-80.066 -324.991)" fill="#efedff"/>
      <path id="Trazado_1040224" data-name="Trazado 1040224" d="M108.444,369.11a7.021,7.021,0,0,0-5.464,2.375,28.349,28.349,0,0,0,11.4,4.837,3.89,3.89,0,0,0,.567-2.038C114.943,371.427,112.034,369.11,108.444,369.11Z" transform="translate(-87.686 -324.99)" fill="#d4d4ff"/>
      <path id="Trazado_1040225" data-name="Trazado 1040225" d="M308.919,374.285c0,2.858,2.91,4.738,6.5,4.738s6.5-1.88,6.5-4.738-2.91-5.174-6.5-5.174S308.919,371.428,308.919,374.285Z" transform="translate(-269.009 -324.991)" fill="#efedff"/>
      <path id="Trazado_1040226" data-name="Trazado 1040226" d="M315.417,369.11a7.021,7.021,0,0,1,5.464,2.375,28.349,28.349,0,0,1-11.4,4.837,3.89,3.89,0,0,1-.567-2.038C308.918,371.427,311.828,369.11,315.417,369.11Z" transform="translate(-269.008 -324.99)" fill="#d4d4ff"/>
      <path id="Trazado_1040227" data-name="Trazado 1040227" d="M108.647,101.3c0,11.263-10.363,18.341-23.146,18.341S62.356,112.564,62.356,101.3,72.719,80.908,85.5,80.908,108.647,90.038,108.647,101.3Z" transform="translate(-51.918 -71.237)" fill="#ffddcf"/>
      <path id="Trazado_1040228" data-name="Trazado 1040228" d="M58.033,54.315c19.858-5.3,26.991,10.9,26.873,18.841A3.047,3.047,0,0,1,81.269,76.1c-6.72-1.324-16.742-6.87-22.3-11.939a1.386,1.386,0,0,0-1.87,0C51.539,69.227,41.517,74.773,34.8,76.1a3.047,3.047,0,0,1-3.637-2.942c-.117-7.943,7.016-24.139,26.873-18.841Z" transform="translate(-24.449 -46.904)" fill="#de5c6e"/>
      <path id="Trazado_1040229" data-name="Trazado 1040229" d="M166.344,8.1l2.5,1.917a1.825,1.825,0,0,0,1.655.292l4.694-1.47a1.335,1.335,0,0,1,1.637,1.772l-2.263,5.631a4.1,4.1,0,0,1-3.192,2.523,53.528,53.528,0,0,1-6.864.553,53.53,53.53,0,0,1-6.864-.553,4.1,4.1,0,0,1-3.192-2.523L152.2,10.615a1.335,1.335,0,0,1,1.637-1.772l4.694,1.47a1.825,1.825,0,0,0,1.655-.292l2.5-1.917A3.009,3.009,0,0,1,166.344,8.1Z" transform="translate(-130.932 -6.59)" fill="#f5ea72"/>
      <path id="Trazado_1040230" data-name="Trazado 1040230" d="M162.216,15.694l-2.032,1.555a1.825,1.825,0,0,1-1.655.292l-4.694-1.47a1.335,1.335,0,0,0-1.637,1.772l2.263,5.631A4.1,4.1,0,0,0,157.654,26a53.529,53.529,0,0,0,6.864.553c.759,0,1.806-.044,2.941-.128C163.649,25.086,161.655,20.238,162.216,15.694Z" transform="translate(-130.934 -13.818)" fill="#ebca5f"/>
      <g id="Grupo_1179275" data-name="Grupo 1179275" transform="translate(20.759 29.568)">
        <g id="Grupo_1179274" data-name="Grupo 1179274">
          <ellipse id="Elipse_12433" data-name="Elipse 12433" cx="3.457" cy="2.753" rx="3.457" ry="2.753" fill="#eda1ab"/>
          <ellipse id="Elipse_12434" data-name="Elipse 12434" cx="3.457" cy="2.753" rx="3.457" ry="2.753" transform="translate(18.737)" fill="#eda1ab"/>
        </g>
      </g>
      <circle id="Elipse_12435" data-name="Elipse 12435" cx="2.063" cy="2.063" r="2.063" transform="translate(30.904 55.536) rotate(-67.486)" fill="#efedff"/>
      <path id="Trazado_1040231" data-name="Trazado 1040231" d="M26.23,26.784a2.545,2.545,0,0,0-2.542,2.542.9.9,0,0,0,1.793,0,.749.749,0,1,1,1.5,0,.9.9,0,0,0,1.793,0A2.545,2.545,0,0,0,26.23,26.784Zm14.708,0A2.545,2.545,0,0,0,38.4,29.326a.9.9,0,0,0,1.793,0,.749.749,0,1,1,1.5,0,.9.9,0,0,0,1.793,0A2.545,2.545,0,0,0,40.938,26.784ZM36.543,54.407a2.959,2.959,0,1,0-2.959,2.959A2.963,2.963,0,0,0,36.543,54.407Zm-4.125,0a1.166,1.166,0,1,1,1.166,1.166A1.168,1.168,0,0,1,32.418,54.407Zm3.5-23.834a.9.9,0,0,0-1.265.087,1.417,1.417,0,0,1-2.139,0,.9.9,0,1,0-1.352,1.178,3.21,3.21,0,0,0,4.842,0A.9.9,0,0,0,35.918,30.573Zm22.975,6.682A6.333,6.333,0,0,0,63.778,31.3a6,6,0,0,0-2.44-4.752c.008-.094.014-.189.016-.284a22.6,22.6,0,0,0-4.97-13.635.9.9,0,1,0-1.395,1.126,20.7,20.7,0,0,1,4.572,12.482,2.15,2.15,0,0,1-2.567,2.075c-6.341-1.249-16.152-6.508-21.871-11.722a2.274,2.274,0,0,0-3.078,0c-5.718,5.214-15.53,10.473-21.871,11.722a2.15,2.15,0,0,1-2.567-2.075,20.531,20.531,0,0,1,3.368-10.819A17.309,17.309,0,0,1,21.789,7.734L22.7,9.99a5.017,5.017,0,0,0,3.889,3.075,54.546,54.546,0,0,0,7,.563,54.546,54.546,0,0,0,7-.563A5.017,5.017,0,0,0,44.472,9.99l.907-2.256a16.766,16.766,0,0,1,6.651,3.11.9.9,0,1,0,1.1-1.418,18.515,18.515,0,0,0-7.072-3.377l.679-1.691A2.231,2.231,0,0,0,44,1.4L39.3,2.867a.929.929,0,0,1-.842-.149L35.958.8A3.913,3.913,0,0,0,31.21.8l-2.5,1.917a.93.93,0,0,1-.842.149L23.17,1.4a2.231,2.231,0,0,0-2.737,2.962l.68,1.691A19.076,19.076,0,0,0,9.471,14.444,22.418,22.418,0,0,0,5.815,26.265c0,.095.007.189.015.282A6,6,0,0,0,3.39,31.3a6.333,6.333,0,0,0,4.884,5.953c-1.171,3.4-3.682,4.44-3.682,7.915a5.481,5.481,0,0,0,1.616,3.9c1.181,1.181,4.3,2.516,8.582,3.676a7.5,7.5,0,0,0,4.182,2.035,15.462,15.462,0,0,0-.807,3.016,2.93,2.93,0,0,0,2.888,3.4h.938a.9.9,0,0,0,0-1.793h-.938a1.136,1.136,0,0,1-1.118-1.322,13.715,13.715,0,0,1,.908-3.155c4.241-.031,7.311-2.39,7.311-5.633,0-.145-.008-.288-.021-.432a34.048,34.048,0,0,0,10.9,0q-.018.215-.019.432c0,3.243,3.07,5.6,7.311,5.633a13.714,13.714,0,0,1,.908,3.156,1.136,1.136,0,0,1-1.118,1.322H26.3a.9.9,0,0,0,0,1.793H46.115A2.93,2.93,0,0,0,49,57.8a15.491,15.491,0,0,0-.807-3.016,7.5,7.5,0,0,0,4.182-2.035c4.28-1.16,7.4-2.495,8.582-3.676a5.481,5.481,0,0,0,1.616-3.9c0-3.484-2.505-4.5-3.683-7.915ZM22.5,3.086c.129,0-.1-.045,4.832,1.492A2.726,2.726,0,0,0,29.8,4.142l2.5-1.917a2.116,2.116,0,0,1,2.568,0h0l2.5,1.917a2.725,2.725,0,0,0,2.468.436l4.694-1.47a.438.438,0,0,1,.538.582L42.808,9.322a3.218,3.218,0,0,1-2.495,1.971,52.472,52.472,0,0,1-6.729.543,52.472,52.472,0,0,1-6.729-.543A3.218,3.218,0,0,1,24.36,9.322L22.1,3.69a.441.441,0,0,1,.4-.6ZM57.625,30.142a3.941,3.941,0,0,0,3.081-1.772A4.131,4.131,0,0,1,61.985,31.3c0,2.592-2.5,4.535-5.264,4.413a17.574,17.574,0,0,0,.9-5.573ZM5.183,31.3A4.13,4.13,0,0,1,6.462,28.37a3.937,3.937,0,0,0,3.081,1.771,17.57,17.57,0,0,0,.9,5.573c-2.954.115-5.264-1.974-5.264-4.413Zm8.334,19.212c-3.5-1.076-5.431-2.1-6.041-2.711a3.7,3.7,0,0,1-1.091-2.633c0-2.8,2.439-3.672,3.691-7.659a7.042,7.042,0,0,0,1.072-.055,18.007,18.007,0,0,0,5.574,6.751c-2.719,1.452-3.785,4.051-3.2,6.308Zm7.242,2.622c-3.678,0-5.6-1.933-5.6-3.842,0-1.682,1.317-3.213,3.314-3.9a26.17,26.17,0,0,0,7.79,3.1,3.282,3.282,0,0,1,.1.8c0,1.909-1.924,3.842-5.6,3.842Zm-3-10.392a15.455,15.455,0,0,1-6.423-12.849c6.611-1.564,16.232-6.794,21.917-11.977a.489.489,0,0,1,.662,0C39.6,23.1,49.221,28.33,55.832,29.894c.2,17.693-25.7,22.239-38.072,12.849Zm28.65,10.392c-3.678,0-5.6-1.933-5.6-3.842a3.276,3.276,0,0,1,.1-.8,26.169,26.169,0,0,0,7.79-3.1c2,.688,3.314,2.219,3.314,3.9C52.012,51.2,50.087,53.136,46.409,53.136ZM59.692,47.8c-.61.61-2.537,1.635-6.041,2.711.582-2.265-.5-4.861-3.2-6.308a18,18,0,0,0,5.573-6.751,7.075,7.075,0,0,0,1.071.056c1.256,4.006,3.692,4.849,3.692,7.659A3.7,3.7,0,0,1,59.692,47.8Z" transform="translate(0 0)"/>
    </g>
  </g>
</svg>
