<svg xmlns="http://www.w3.org/2000/svg" xmlns:xlink="http://www.w3.org/1999/xlink" width="110" height="110" viewBox="0 0 110 110">
  <defs>
    <filter id="Trazado_982547" x="0" y="0" width="110" height="110" filterUnits="userSpaceOnUse">
      <feOffset dy="3" input="SourceAlpha"/>
      <feGaussianBlur stdDeviation="3" result="blur"/>
      <feFlood flood-opacity="0.161"/>
      <feComposite operator="in" in2="blur"/>
      <feComposite in="SourceGraphic"/>
    </filter>
  </defs>
  <g id="Grupo_1179287" data-name="Grupo 1179287" transform="translate(-2754 -3183)">
    <g id="Grupo_1175195" data-name="Grupo 1175195" transform="translate(2763 3189)">
      <g id="Grupo_1164700" data-name="Grupo 1164700" transform="translate(0 0)">
        <g id="Grupo_1160931" data-name="Grupo 1160931" transform="translate(0 0)">
          <g id="Grupo_1160749" data-name="Grupo 1160749" transform="translate(0 0)">
            <g id="Grupo_1158891" data-name="Grupo 1158891" transform="translate(0 0)">
              <g id="Grupo_1157406" data-name="Grupo 1157406" transform="translate(0 0)">
                <g id="Grupo_1155793" data-name="Grupo 1155793">
                  <g id="Grupo_1154704" data-name="Grupo 1154704">
                    <g id="Grupo_1150790" data-name="Grupo 1150790">
                      <g id="Grupo_1154214" data-name="Grupo 1154214">
                        <g id="Grupo_1152583" data-name="Grupo 1152583">
                          <g id="Grupo_1146973" data-name="Grupo 1146973">
                            <g id="Grupo_1146954" data-name="Grupo 1146954">
                              <g transform="matrix(1, 0, 0, 1, -9, -6)" filter="url(#Trazado_982547)">
                                <g id="Trazado_982547-2" data-name="Trazado 982547" transform="translate(9 6)" fill="#effbfe">
                                  <path d="M 46.00000381469727 90.49986267089844 C 39.99188232421875 90.49986267089844 34.16428375244141 89.32350158691406 28.67905807495117 87.00344848632812 C 23.38021659851074 84.76223754882812 18.62104415893555 81.55341339111328 14.53376388549805 77.46613311767578 C 10.44647026062012 73.37885284423828 7.237643718719482 68.61968994140625 4.996417045593262 63.32085037231445 C 2.676363706588745 57.83565139770508 1.500003814697266 52.00805282592773 1.500003814697266 45.99993133544922 C 1.500003814697266 39.99182510375977 2.676363706588745 34.16422653198242 4.996417045593262 28.67901039123535 C 7.237643718719482 23.38017082214355 10.44647026062012 18.62101173400879 14.53376388549805 14.53373146057129 C 18.62104415893555 10.44645118713379 23.38021659851074 7.237624645233154 28.67905807495117 4.996411323547363 C 34.16428375244141 2.676357984542847 39.99188232421875 1.499997973442078 46.00000381469727 1.499997973442078 C 52.00812530517578 1.499997973442078 57.83573532104492 2.676357984542847 63.32094955444336 4.996411323547363 C 68.61980438232422 7.237624645233154 73.37896728515625 10.44645118713379 77.46625518798828 14.53373146057129 C 81.55353546142578 18.62101173400879 84.76236724853516 23.38017082214355 87.00359344482422 28.67901039123535 C 89.32364654541016 34.16422653198242 90.5 39.99182510375977 90.5 45.99993133544922 C 90.5 52.00805282592773 89.32364654541016 57.83565139770508 87.00359344482422 63.32085037231445 C 84.76236724853516 68.61968994140625 81.55353546142578 73.37885284423828 77.46625518798828 77.46613311767578 C 73.37896728515625 81.55341339111328 68.61980438232422 84.76223754882812 63.32094955444336 87.00344848632812 C 57.83573532104492 89.32350158691406 52.00812530517578 90.49986267089844 46.00000381469727 90.49986267089844 Z" stroke="none"/>
                                  <path d="M 46.00000381469727 3 C 40.19371795654297 3 34.56270217895508 4.136505126953125 29.26338958740234 6.377914428710938 C 24.14333343505859 8.54351806640625 19.54443359375 11.64438629150391 15.59442138671875 15.59439086914062 C 11.64440155029297 19.54440307617188 8.543533325195312 24.14330291748047 6.3779296875 29.26334381103516 C 4.136505126953125 34.56266021728516 3.000007629394531 40.19366073608398 3.000007629394531 45.99993133544922 C 3.000007629394531 51.80620193481445 4.136505126953125 57.43720245361328 6.3779296875 62.73651885986328 C 8.543533325195312 67.85655975341797 11.64440155029297 72.45545959472656 15.59442138671875 76.40547180175781 C 19.54443359375 80.35547637939453 24.14333343505859 83.45634460449219 29.26338958740234 85.6219482421875 C 34.56270217895508 87.86335754394531 40.19371795654297 88.99986267089844 46.00000381469727 88.99986267089844 C 51.80628967285156 88.99986267089844 57.43730545043945 87.86335754394531 62.73663330078125 85.6219482421875 C 67.85667419433594 83.45634460449219 72.45558929443359 80.35547637939453 76.40560150146484 76.40547180175781 C 80.35560607910156 72.45545959472656 83.45648956298828 67.85655975341797 85.62208557128906 62.73651885986328 C 87.86350250244141 57.43720245361328 89 51.80620193481445 89 45.99993133544922 C 89 40.19366073608398 87.86350250244141 34.56266021728516 85.62208557128906 29.26334381103516 C 83.45648956298828 24.14330291748047 80.35560607910156 19.54440307617188 76.40560150146484 15.59439086914062 C 72.45558929443359 11.64438629150391 67.85667419433594 8.54351806640625 62.73663330078125 6.377914428710938 C 57.43730545043945 4.136505126953125 51.80628967285156 3 46.00000381469727 3 M 46.00000381469727 0 C 71.40510559082031 0 92 20.59487152099609 92 45.99993133544922 C 92 71.40499114990234 71.40510559082031 91.99986267089844 46.00000381469727 91.99986267089844 C 20.59491729736328 91.99986267089844 7.62939453125e-06 71.40499114990234 7.62939453125e-06 45.99993133544922 C 7.62939453125e-06 20.59487152099609 20.59491729736328 0 46.00000381469727 0 Z" stroke="none" fill="#397b86"/>
                                </g>
                              </g>
                            </g>
                          </g>
                        </g>
                      </g>
                    </g>
                  </g>
                </g>
              </g>
            </g>
          </g>
        </g>
      </g>
    </g>
    <g id="construccion" transform="translate(2780 3206)">
      <path id="Trazado_1040275" data-name="Trazado 1040275" d="M116.056,181.163v-3.118a.51.51,0,0,1,.462-.545h5.488a.514.514,0,0,1,.462.545v3.118" transform="translate(-100.484 -153.683)" fill="#2a8ee6"/>
      <path id="Trazado_1040276" data-name="Trazado 1040276" d="M116.556,176.168a.916.916,0,0,1-.916-.916V172.5h-4.58v2.748a.916.916,0,0,1-1.832,0v-3.118a1.423,1.423,0,0,1,1.378-1.461h5.488a1.423,1.423,0,0,1,1.378,1.461v3.118A.916.916,0,0,1,116.556,176.168Z" transform="translate(-94.572 -147.772)"/>
      <path id="Trazado_1040277" data-name="Trazado 1040277" d="M40.962,181.163v-3.118a.51.51,0,0,1,.462-.545h5.489a.514.514,0,0,1,.462.545v3.118" transform="translate(-35.466 -153.683)" fill="#2a8ee6"/>
      <path id="Trazado_1040278" data-name="Trazado 1040278" d="M41.463,176.168a.916.916,0,0,1-.916-.916V172.5h-4.58v2.748a.916.916,0,0,1-1.832,0v-3.118a1.423,1.423,0,0,1,1.378-1.461H41a1.423,1.423,0,0,1,1.378,1.461v3.118A.916.916,0,0,1,41.463,176.168Z" transform="translate(-29.555 -147.772)"/>
      <path id="Trazado_1040279" data-name="Trazado 1040279" d="M197.975,181.163v-3.118a.51.51,0,0,1,.462-.545h5.489a.514.514,0,0,1,.462.545v3.118" transform="translate(-171.412 -153.683)" fill="#2a8ee6"/>
      <path id="Trazado_1040280" data-name="Trazado 1040280" d="M198.476,176.168a.916.916,0,0,1-.916-.916V172.5h-4.58v2.748a.916.916,0,0,1-1.832,0v-3.118a1.423,1.423,0,0,1,1.378-1.461h5.489a1.423,1.423,0,0,1,1.378,1.461v3.118A.916.916,0,0,1,198.476,176.168Z" transform="translate(-165.501 -147.772)"/>
      <path id="Trazado_1040281" data-name="Trazado 1040281" d="M354.989,304.043v-3.118a.51.51,0,0,1,.462-.545h5.488a.514.514,0,0,1,.462.545v3.118" transform="translate(-307.358 -260.075)" fill="#fbad4a"/>
      <path id="Trazado_1040282" data-name="Trazado 1040282" d="M355.489,299.048a.916.916,0,0,1-.916-.916v-2.748h-4.58v2.748a.916.916,0,0,1-1.832,0v-3.118a1.423,1.423,0,0,1,1.378-1.461h5.488a1.423,1.423,0,0,1,1.378,1.461v3.118A.916.916,0,0,1,355.489,299.048Z" transform="translate(-301.447 -254.164)"/>
      <path id="Trazado_1040283" data-name="Trazado 1040283" d="M164.676,327.685h34.057a.836.836,0,0,1,.833.838v12.063a.837.837,0,0,1-.833.838H164.676a.837.837,0,0,1-.833-.838V328.523a.836.836,0,0,1,.833-.838Z" transform="translate(-141.859 -283.718)" fill="#feda4f"/>
      <path id="Trazado_1040284" data-name="Trazado 1040284" d="M192.82,336.43H158.763a1.753,1.753,0,0,1-1.749-1.754V322.613a1.753,1.753,0,0,1,1.749-1.754H192.82a1.754,1.754,0,0,1,1.749,1.754v12.063A1.753,1.753,0,0,1,192.82,336.43ZM158.846,334.6h33.891V322.691H158.846V334.6Zm33.974-11.907h0Z" transform="translate(-135.947 -277.807)"/>
      <path id="Trazado_1040285" data-name="Trazado 1040285" d="M7.662,204.8H41.719a.837.837,0,0,1,.832.838v12.063a.837.837,0,0,1-.832.838H7.662a.837.837,0,0,1-.833-.838V205.643a.837.837,0,0,1,.833-.838Z" transform="translate(-5.913 -177.325)" fill="#2bbbe9"/>
      <path id="Trazado_1040286" data-name="Trazado 1040286" d="M35.806,213.55H1.749A1.754,1.754,0,0,1,0,211.8V199.733a1.753,1.753,0,0,1,1.749-1.754H35.806a1.753,1.753,0,0,1,1.748,1.754V211.8A1.753,1.753,0,0,1,35.806,213.55ZM1.832,211.718H35.723V199.811H1.832v11.908Zm33.974-11.908h0Z" transform="translate(0 -171.415)"/>
      <path id="Trazado_1040287" data-name="Trazado 1040287" d="M7.638,327.685H23.419a.827.827,0,0,1,.811.838v12.063a.83.83,0,0,1-.811.838H7.638a.828.828,0,0,1-.811-.838V328.523a.826.826,0,0,1,.811-.838Z" transform="translate(-5.911 -283.718)" fill="#fbad4a"/>
      <path id="Trazado_1040288" data-name="Trazado 1040288" d="M17.51,336.43H1.729A1.743,1.743,0,0,1,0,334.676V322.613a1.743,1.743,0,0,1,1.727-1.754H17.51a1.743,1.743,0,0,1,1.727,1.754v12.063A1.742,1.742,0,0,1,17.51,336.43ZM1.834,334.6H17.405V322.691H1.834ZM17.51,322.691h0Z" transform="translate(-0.002 -277.807)"/>
      <path id="Trazado_1040289" data-name="Trazado 1040289" d="M299.509,50.777l1.507-2.7a.5.5,0,0,1,.677-.226l4.919,2.934a.538.538,0,0,1,.149.719l-1.508,2.7" transform="translate(-259.322 -41.379)" fill="#ed5481"/>
      <path id="Trazado_1040290" data-name="Trazado 1040290" d="M299.339,49.205a.916.916,0,0,1-.8-1.363l1.338-2.394-4.171-2.488L294.4,45.309a.916.916,0,1,1-1.6-.893l1.507-2.7a1.475,1.475,0,0,1,.9-.707,1.347,1.347,0,0,1,1.048.141l4.92,2.935a1.457,1.457,0,0,1,.481,1.951l-1.51,2.7A.915.915,0,0,1,299.339,49.205Z" transform="translate(-253.409 -35.465)"/>
      <path id="Trazado_1040291" data-name="Trazado 1040291" d="M231.24,9.815l1.508-2.7a.5.5,0,0,1,.677-.226l4.918,2.934a.537.537,0,0,1,.149.718l-1.508,2.7" transform="translate(-200.213 -5.914)" fill="#ed5481"/>
      <path id="Trazado_1040292" data-name="Trazado 1040292" d="M231.073,8.245a.916.916,0,0,1-.8-1.363l1.338-2.393L227.442,2,226.13,4.348a.916.916,0,0,1-1.6-.894l1.508-2.7a1.479,1.479,0,0,1,.9-.708,1.347,1.347,0,0,1,1.047.142L232.9,3.125a1.452,1.452,0,0,1,.48,1.95l-1.509,2.7A.916.916,0,0,1,231.073,8.245Zm.891-3.547h0Z" transform="translate(-194.303 0)"/>
      <path id="Trazado_1040293" data-name="Trazado 1040293" d="M367.775,91.736l1.507-2.7a.5.5,0,0,1,.677-.226l4.918,2.934a.536.536,0,0,1,.15.719l-1.507,2.7" transform="translate(-318.429 -76.842)" fill="#ed5481"/>
      <path id="Trazado_1040294" data-name="Trazado 1040294" d="M367.606,90.168a.916.916,0,0,1-.8-1.363l1.337-2.394-4.17-2.489-1.312,2.349a.916.916,0,1,1-1.6-.893l1.507-2.7a1.478,1.478,0,0,1,.9-.707,1.348,1.348,0,0,1,1.047.141l4.919,2.935a1.453,1.453,0,0,1,.48,1.953l-1.507,2.7A.915.915,0,0,1,367.606,90.168Z" transform="translate(-312.517 -70.931)"/>
      <path id="Trazado_1040295" data-name="Trazado 1040295" d="M164.155,20.595l29.09,16.634a.811.811,0,0,1,.3,1.112l-5.908,10.135a.828.828,0,0,1-1.121.3L157.426,32.138a.809.809,0,0,1-.3-1.11l5.908-10.136a.826.826,0,0,1,1.121-.3Z" transform="translate(-135.948 -17.737)" fill="#f87ea1"/>
      <path id="Trazado_1040296" data-name="Trazado 1040296" d="M181.005,43.887a1.728,1.728,0,0,1-.859-.228L151.055,27.023a1.725,1.725,0,0,1-.635-2.369l5.906-10.133a1.744,1.744,0,0,1,2.368-.631l29.089,16.633a1.727,1.727,0,0,1,.637,2.368l-5.908,10.134A1.742,1.742,0,0,1,181.005,43.887Zm-28.95-18.4,28.92,16.538,5.807-9.962L157.862,15.524Zm34.818,6.629h0ZM152,25.579Zm5.782-10.1h0Z" transform="translate(-130.032 -11.827)"/>
    </g>
  </g>
</svg>
