<svg xmlns="http://www.w3.org/2000/svg" xmlns:xlink="http://www.w3.org/1999/xlink" width="110" height="110" viewBox="0 0 110 110">
  <defs>
    <filter id="Trazado_982547" x="0" y="0" width="110" height="110" filterUnits="userSpaceOnUse">
      <feOffset dy="3" input="SourceAlpha"/>
      <feGaussianBlur stdDeviation="3" result="blur"/>
      <feFlood flood-opacity="0.161"/>
      <feComposite operator="in" in2="blur"/>
      <feComposite in="SourceGraphic"/>
    </filter>
  </defs>
  <g id="Grupo_1179284" data-name="Grupo 1179284" transform="translate(-3069 -3183)">
    <g id="Grupo_1175194" data-name="Grupo 1175194" transform="translate(3078 3189)">
      <g id="Grupo_1164700" data-name="Grupo 1164700" transform="translate(0 0)">
        <g id="Grupo_1160931" data-name="Grupo 1160931" transform="translate(0 0)">
          <g id="Grupo_1160749" data-name="Grupo 1160749" transform="translate(0 0)">
            <g id="Grupo_1158891" data-name="Grupo 1158891" transform="translate(0 0)">
              <g id="Grupo_1157406" data-name="Grupo 1157406" transform="translate(0 0)">
                <g id="Grupo_1155793" data-name="Grupo 1155793">
                  <g id="Grupo_1154704" data-name="Grupo 1154704">
                    <g id="Grupo_1150790" data-name="Grupo 1150790">
                      <g id="Grupo_1154214" data-name="Grupo 1154214">
                        <g id="Grupo_1152583" data-name="Grupo 1152583">
                          <g id="Grupo_1146973" data-name="Grupo 1146973">
                            <g id="Grupo_1146954" data-name="Grupo 1146954">
                              <g transform="matrix(1, 0, 0, 1, -9, -6)" filter="url(#Trazado_982547)">
                                <g id="Trazado_982547-2" data-name="Trazado 982547" transform="translate(9 6)" fill="#effbfe">
                                  <path d="M 46.00000381469727 90.49986267089844 C 39.99188232421875 90.49986267089844 34.16428375244141 89.32350158691406 28.67905807495117 87.00344848632812 C 23.38021659851074 84.76223754882812 18.62104415893555 81.55341339111328 14.53376388549805 77.46613311767578 C 10.44647026062012 73.37885284423828 7.237643718719482 68.61968994140625 4.996417045593262 63.32085037231445 C 2.676363706588745 57.83565139770508 1.500003814697266 52.00805282592773 1.500003814697266 45.99993133544922 C 1.500003814697266 39.99182510375977 2.676363706588745 34.16422653198242 4.996417045593262 28.67901039123535 C 7.237643718719482 23.38017082214355 10.44647026062012 18.62101173400879 14.53376388549805 14.53373146057129 C 18.62104415893555 10.44645118713379 23.38021659851074 7.237624645233154 28.67905807495117 4.996411323547363 C 34.16428375244141 2.676357984542847 39.99188232421875 1.499997973442078 46.00000381469727 1.499997973442078 C 52.00812530517578 1.499997973442078 57.83573532104492 2.676357984542847 63.32094955444336 4.996411323547363 C 68.61980438232422 7.237624645233154 73.37896728515625 10.44645118713379 77.46625518798828 14.53373146057129 C 81.55353546142578 18.62101173400879 84.76236724853516 23.38017082214355 87.00359344482422 28.67901039123535 C 89.32364654541016 34.16422653198242 90.5 39.99182510375977 90.5 45.99993133544922 C 90.5 52.00805282592773 89.32364654541016 57.83565139770508 87.00359344482422 63.32085037231445 C 84.76236724853516 68.61968994140625 81.55353546142578 73.37885284423828 77.46625518798828 77.46613311767578 C 73.37896728515625 81.55341339111328 68.61980438232422 84.76223754882812 63.32094955444336 87.00344848632812 C 57.83573532104492 89.32350158691406 52.00812530517578 90.49986267089844 46.00000381469727 90.49986267089844 Z" stroke="none"/>
                                  <path d="M 46.00000381469727 3 C 40.19371795654297 3 34.56270217895508 4.136505126953125 29.26338958740234 6.377914428710938 C 24.14333343505859 8.54351806640625 19.54443359375 11.64438629150391 15.59442138671875 15.59439086914062 C 11.64440155029297 19.54440307617188 8.543533325195312 24.14330291748047 6.3779296875 29.26334381103516 C 4.136505126953125 34.56266021728516 3.000007629394531 40.19366073608398 3.000007629394531 45.99993133544922 C 3.000007629394531 51.80620193481445 4.136505126953125 57.43720245361328 6.3779296875 62.73651885986328 C 8.543533325195312 67.85655975341797 11.64440155029297 72.45545959472656 15.59442138671875 76.40547180175781 C 19.54443359375 80.35547637939453 24.14333343505859 83.45634460449219 29.26338958740234 85.6219482421875 C 34.56270217895508 87.86335754394531 40.19371795654297 88.99986267089844 46.00000381469727 88.99986267089844 C 51.80628967285156 88.99986267089844 57.43730545043945 87.86335754394531 62.73663330078125 85.6219482421875 C 67.85667419433594 83.45634460449219 72.45558929443359 80.35547637939453 76.40560150146484 76.40547180175781 C 80.35560607910156 72.45545959472656 83.45648956298828 67.85655975341797 85.62208557128906 62.73651885986328 C 87.86350250244141 57.43720245361328 89 51.80620193481445 89 45.99993133544922 C 89 40.19366073608398 87.86350250244141 34.56266021728516 85.62208557128906 29.26334381103516 C 83.45648956298828 24.14330291748047 80.35560607910156 19.54440307617188 76.40560150146484 15.59439086914062 C 72.45558929443359 11.64438629150391 67.85667419433594 8.54351806640625 62.73663330078125 6.377914428710938 C 57.43730545043945 4.136505126953125 51.80628967285156 3 46.00000381469727 3 M 46.00000381469727 0 C 71.40510559082031 0 92 20.59487152099609 92 45.99993133544922 C 92 71.40499114990234 71.40510559082031 91.99986267089844 46.00000381469727 91.99986267089844 C 20.59491729736328 91.99986267089844 7.62939453125e-06 71.40499114990234 7.62939453125e-06 45.99993133544922 C 7.62939453125e-06 20.59487152099609 20.59491729736328 0 46.00000381469727 0 Z" stroke="none" fill="#397b86"/>
                                </g>
                              </g>
                            </g>
                          </g>
                        </g>
                      </g>
                    </g>
                  </g>
                </g>
              </g>
            </g>
          </g>
        </g>
      </g>
    </g>
    <g id="mano" transform="translate(3079.359 3203)">
      <g id="Grupo_1179283" data-name="Grupo 1179283" transform="translate(14.597 0.956)">
        <g id="Grupo_1179281" data-name="Grupo 1179281" transform="translate(0)">
          <g id="Grupo_1179280" data-name="Grupo 1179280">
            <path id="Trazado_1040232" data-name="Trazado 1040232" d="M78.1,44.025,61.628,46.862,77.811,36.855a5.236,5.236,0,0,0,1.837-6.97,2.5,2.5,0,0,0-3.5-.934L57.35,40.407l14.519-17.03a5.236,5.236,0,0,0-.282-7.1l-.234-.234a2.5,2.5,0,0,0-3.568.027L50.65,33.737l9.124-19.016a5.236,5.236,0,0,0-2.238-6.874L57.45,7.8a2.5,2.5,0,0,0-3.325.9C51.475,13.051,45.2,23.278,41.85,28.158l-.025.036a4.171,4.171,0,0,1-7.051-.338l-3.441-6.077a7.733,7.733,0,0,0-8.184-3.784,2.452,2.452,0,0,0-1.848,3.29c1.276,3.312,4.589,10.675,4.589,10.675a22.018,22.018,0,0,1-.6,14.689,17.58,17.58,0,0,0,28.7,19.092L62.331,57.4a4.518,4.518,0,0,1,1.709-1.072l13.484-4.7a5.236,5.236,0,0,0,3.51-5.12l0-.1A2.5,2.5,0,0,0,78.1,44.025Z" transform="translate(-21.137 -7.501)" fill="#f69583"/>
            <g id="Grupo_1179278" data-name="Grupo 1179278" transform="translate(25.723 0)">
              <path id="Trazado_1040233" data-name="Trazado 1040233" d="M293.664,76.805l-7.794,9.143-10.516,6.408,14.519-17.03a5.235,5.235,0,0,0,.365-6.312,2.5,2.5,0,0,1,2.91.459l.233.233a5.235,5.235,0,0,1,.282,7.1Z" transform="translate(-268.654 -60.929)" fill="#ea806f"/>
              <g id="Grupo_1179277" data-name="Grupo 1179277">
                <path id="Trazado_1040234" data-name="Trazado 1040234" d="M328.867,181.081l-11.4,7.053-8.568,1.476L325.078,179.6a5.238,5.238,0,0,0,2.1-6.41l.026-.015a2.5,2.5,0,0,1,3.5.934A5.235,5.235,0,0,1,328.867,181.081Z" transform="translate(-297.917 -151.727)" fill="#ea806f"/>
                <path id="Trazado_1040235" data-name="Trazado 1040235" d="M235.737,14.721l-4.01,8.358-8.9,9.179,9.123-19.016a5.231,5.231,0,0,0-.652-5.561,2.5,2.5,0,0,1,2.12.12l.084.046a5.235,5.235,0,0,1,2.238,6.874Z" transform="translate(-222.824 -7.501)" fill="#ea806f"/>
              </g>
            </g>
            <g id="Grupo_1179279" data-name="Grupo 1179279" transform="translate(5.195 17.33)">
              <path id="Trazado_1040236" data-name="Trazado 1040236" d="M96.769,166.827l-8.486-7.49,9.376,3.314a1.489,1.489,0,0,0,1.955-1.1l.012-.06a3.115,3.115,0,0,0-1.545-3.354l-2.018-1.115-3.176,1.936,2.139-2.509-4.918-2.716-2.246-3.171-1.674,1.726,1.17-2.439L85.7,147.5a10.415,10.415,0,0,0-6.1-4.124c-.813,1.253-1.566,2.389-2.21,3.327l-.025.036a4.175,4.175,0,0,1-7.055-.345l-.28-.494a10.464,10.464,0,0,0-3.072,9.92,13.1,13.1,0,0,1-1.121,8.673s-2.68,3.986-3.761,5.8a1.459,1.459,0,0,0,.754,2.114,4.6,4.6,0,0,0,5.178-1.4l2.624-3.215a2.483,2.483,0,0,1,4.171.5l.011.023c1.476,3.2,4.13,9.823,5.249,12.639a1.489,1.489,0,0,0,1.859.861l.055-.018a3.114,3.114,0,0,0,2-3.807l-3.444-12.065,8.278,12.076a1.489,1.489,0,0,0,2.089.373l.16-.114a3.114,3.114,0,0,0,.877-4.134l-6.807-11.441L95,171.3a1.489,1.489,0,0,0,2.145-.2,3.114,3.114,0,0,0-.379-4.271Z" transform="translate(-61.869 -143.379)" fill="#ea806f"/>
            </g>
            <path id="Trazado_1040237" data-name="Trazado 1040237" d="M120.716,301.232l-13.484,4.7A4.512,4.512,0,0,0,105.525,307l-8.339,8.339A17.592,17.592,0,0,1,70.644,313.4a17.582,17.582,0,0,0,23.532-1.2l8.339-8.339a4.54,4.54,0,0,1,1.709-1.071l13.484-4.7a5.232,5.232,0,0,0,3.487-4.443l.1-.018a2.5,2.5,0,0,1,2.927,2.382l0,.1a5.234,5.234,0,0,1-3.51,5.121Z" transform="translate(-64.33 -257.101)" fill="#ea806f"/>
          </g>
        </g>
        <g id="Grupo_1179282" data-name="Grupo 1179282" transform="translate(8.03 13.766)">
          <path id="Trazado_1040238" data-name="Trazado 1040238" d="M119.886,135l-9.376-3.314,8.486,7.49a3.114,3.114,0,0,1,.379,4.271,1.489,1.489,0,0,1-2.145.2l-9.876-8.6,6.807,11.441a3.114,3.114,0,0,1-.877,4.134l-.16.114a1.489,1.489,0,0,1-2.089-.373l-8.278-12.076,3.444,12.065a3.114,3.114,0,0,1-2,3.807l-.055.018a1.489,1.489,0,0,1-1.859-.861c-1.118-2.816-3.773-9.441-5.249-12.639l-.011-.023a2.483,2.483,0,0,0-4.171-.5l-2.624,3.215a4.6,4.6,0,0,1-5.178,1.4,1.459,1.459,0,0,1-.754-2.114c1.08-1.814,3.761-5.8,3.761-5.8a13.1,13.1,0,0,0,1.121-8.673,10.458,10.458,0,0,1,18.742-8.319l4.409,6.227,7.974,4.4a3.114,3.114,0,0,1,1.545,3.354l-.012.06A1.489,1.489,0,0,1,119.886,135Z" transform="translate(-84.096 -115.435)" fill="#ffcec0"/>
          <path id="Trazado_1040239" data-name="Trazado 1040239" d="M186.275,133.84l-.013.06a1.489,1.489,0,0,1-1.955,1.1l-1.237-.437a3.113,3.113,0,0,0-1.606-2.6l-7.525-4.154a2.248,2.248,0,0,1-.748-.669l-4.112-5.808a10.462,10.462,0,0,0-11.146-4.085,10.457,10.457,0,0,1,14.412,2.606l4.409,6.228,7.974,4.4A3.116,3.116,0,0,1,186.275,133.84Z" transform="translate(-148.517 -115.44)" fill="#fdb0a0"/>
        </g>
      </g>
      <path id="Trazado_1040240" data-name="Trazado 1040240" d="M75.45,39.934l0-.1A3.46,3.46,0,0,0,71.4,36.538l-11.617,2,11.99-7.415a6.19,6.19,0,0,0,2.173-8.244,3.46,3.46,0,0,0-4.835-1.291L58.128,28.283l-.887-.49,8.816-10.34a6.224,6.224,0,0,0-.334-8.4l-.234-.234A3.435,3.435,0,0,0,63.044,7.81h-.027A3.436,3.436,0,0,0,60.56,8.861l-4.645,4.788a.957.957,0,0,0,1.373,1.332l4.645-4.788a1.547,1.547,0,0,1,2.2-.017l.234.234a4.3,4.3,0,0,1,.23,5.8L55.532,26.849l-4.013-2.216L50,22.492l4.061-4.187a.957.957,0,0,0-1.373-1.332L48.878,20.9l-.411-.581L54.1,8.59A6.184,6.184,0,0,0,51.449.459L51.364.414a3.459,3.459,0,0,0-4.6,1.245c-1.593,2.614-4.654,7.613-7.54,12.179a11.409,11.409,0,0,0-4.68.437.957.957,0,0,0,.565,1.828,9.48,9.48,0,0,1,10.56,3.587l4.41,6.227a.957.957,0,0,0,.318.285l7.974,4.4a2.148,2.148,0,0,1,1.07,2.325l-.012.059a.533.533,0,0,1-.7.395L49.36,30.07a.957.957,0,0,0-.952,1.619l8.486,7.49a2.157,2.157,0,0,1,.262,2.959.533.533,0,0,1-.767.071l-9.876-8.6a.957.957,0,0,0-1.45,1.21l6.807,11.441a2.169,2.169,0,0,1-.607,2.864l-.16.114a.533.533,0,0,1-.747-.134L42.078,37.027a.957.957,0,0,0-1.709.8l3.444,12.065a2.155,2.155,0,0,1-1.388,2.638l-.054.018a.533.533,0,0,1-.665-.308C40.62,49.5,37.93,42.787,36.44,39.561l-.015-.032a3.44,3.44,0,0,0-5.779-.7L28.023,42.04a3.642,3.642,0,0,1-4.1,1.108.511.511,0,0,1-.31-.312.489.489,0,0,1,.042-.417c1.055-1.771,3.706-5.716,3.733-5.755a.963.963,0,0,0,.062-.107,14.085,14.085,0,0,0,1.2-9.308,9.522,9.522,0,0,1,2.822-9.041.957.957,0,0,0-1.3-1.406,11.308,11.308,0,0,0-2,2.454l-2.544-4.492a8.684,8.684,0,0,0-9.2-4.253,3.428,3.428,0,0,0-2.361,1.7,3.389,3.389,0,0,0-.2,2.871c1.226,3.182,4.249,9.922,4.584,10.667a21.1,21.1,0,0,1-.586,13.991,18.559,18.559,0,0,0-1.11,10.168.957.957,0,0,0,1.886-.323,16.647,16.647,0,0,1,.995-9.121,23.025,23.025,0,0,0,.629-15.327.993.993,0,0,0-.043-.116c-.033-.073-3.317-7.377-4.569-10.627a1.481,1.481,0,0,1,.086-1.254,1.519,1.519,0,0,1,1.049-.752,6.772,6.772,0,0,1,7.171,3.316l3.207,5.663a11.428,11.428,0,0,0-.388,6.3,12.161,12.161,0,0,1-1.016,7.984c-.334.5-2.727,4.068-3.754,5.792a2.415,2.415,0,0,0,1.24,3.5,5.553,5.553,0,0,0,6.255-1.69l2.624-3.215a1.528,1.528,0,0,1,1.38-.552,1.483,1.483,0,0,1,1.184.858l.009.019c1.472,3.188,4.146,9.867,5.228,12.591a2.444,2.444,0,0,0,3.054,1.414l.054-.018a4.066,4.066,0,0,0,2.616-4.976l-1.832-6.416,4.956,7.23a2.446,2.446,0,0,0,3.431.613l.16-.114a4.092,4.092,0,0,0,1.146-5.4l-3.752-6.306,5.37,4.677a2.446,2.446,0,0,0,3.522-.324,4.058,4.058,0,0,0,.873-2.8l12.2-2.1A1.547,1.547,0,0,1,73.534,39.9l0,.1a4.26,4.26,0,0,1-2.869,4.185l-13.484,4.7a5.509,5.509,0,0,0-2.07,1.3l-8.338,8.338a16.628,16.628,0,0,1-26.837-4.76.957.957,0,0,0-1.736.8,18.551,18.551,0,0,0,29.926,5.309l8.338-8.338a3.584,3.584,0,0,1,1.347-.845L71.3,45.99a6.165,6.165,0,0,0,4.151-6.056ZM41.23,14.252c2.777-4.407,5.647-9.093,7.172-11.6A1.547,1.547,0,0,1,50.458,2.1l.085.046a4.273,4.273,0,0,1,1.829,5.618L47.2,18.538a11.4,11.4,0,0,0-5.971-4.286ZM58.1,35.188a2.446,2.446,0,0,0,3.211-1.814l.012-.059A4.047,4.047,0,0,0,59.974,29.4l10.133-6.175a1.547,1.547,0,0,1,2.162.577,4.278,4.278,0,0,1-1.5,5.7L57.86,37.479l-4.49-3.963Z" transform="translate(0 0)"/>
    </g>
  </g>
</svg>
