<svg xmlns="http://www.w3.org/2000/svg" xmlns:xlink="http://www.w3.org/1999/xlink" width="110" height="110" viewBox="0 0 110 110">
  <defs>
    <filter id="Trazado_982547" x="0" y="0" width="110" height="110" filterUnits="userSpaceOnUse">
      <feOffset dy="3" input="SourceAlpha"/>
      <feGaussianBlur stdDeviation="3" result="blur"/>
      <feFlood flood-opacity="0.161"/>
      <feComposite operator="in" in2="blur"/>
      <feComposite in="SourceGraphic"/>
    </filter>
  </defs>
  <g id="Grupo_1179311" data-name="Grupo 1179311" transform="translate(-3069 -3549.257)">
    <g id="Grupo_1175196" data-name="Grupo 1175196" transform="translate(3078 3555.257)">
      <g id="Grupo_1164700" data-name="Grupo 1164700" transform="translate(0 0)">
        <g id="Grupo_1160931" data-name="Grupo 1160931" transform="translate(0 0)">
          <g id="Grupo_1160749" data-name="Grupo 1160749" transform="translate(0 0)">
            <g id="Grupo_1158891" data-name="Grupo 1158891" transform="translate(0 0)">
              <g id="Grupo_1157406" data-name="Grupo 1157406" transform="translate(0 0)">
                <g id="Grupo_1155793" data-name="Grupo 1155793">
                  <g id="Grupo_1154704" data-name="Grupo 1154704">
                    <g id="Grupo_1150790" data-name="Grupo 1150790">
                      <g id="Grupo_1154214" data-name="Grupo 1154214">
                        <g id="Grupo_1152583" data-name="Grupo 1152583">
                          <g id="Grupo_1146973" data-name="Grupo 1146973">
                            <g id="Grupo_1146954" data-name="Grupo 1146954">
                              <g transform="matrix(1, 0, 0, 1, -9, -6)" filter="url(#Trazado_982547)">
                                <g id="Trazado_982547-2" data-name="Trazado 982547" transform="translate(9 6)" fill="#effbfe">
                                  <path d="M 46.00000381469727 90.49986267089844 C 39.99188232421875 90.49986267089844 34.16428375244141 89.32350158691406 28.67905807495117 87.00344848632812 C 23.38021659851074 84.76223754882812 18.62104415893555 81.55341339111328 14.53376388549805 77.46613311767578 C 10.44647026062012 73.37885284423828 7.237643718719482 68.61968994140625 4.996417045593262 63.32085037231445 C 2.676363706588745 57.83565139770508 1.500003814697266 52.00805282592773 1.500003814697266 45.99993133544922 C 1.500003814697266 39.99182510375977 2.676363706588745 34.16422653198242 4.996417045593262 28.67901039123535 C 7.237643718719482 23.38017082214355 10.44647026062012 18.62101173400879 14.53376388549805 14.53373146057129 C 18.62104415893555 10.44645118713379 23.38021659851074 7.237624645233154 28.67905807495117 4.996411323547363 C 34.16428375244141 2.676357984542847 39.99188232421875 1.499997973442078 46.00000381469727 1.499997973442078 C 52.00812530517578 1.499997973442078 57.83573532104492 2.676357984542847 63.32094955444336 4.996411323547363 C 68.61980438232422 7.237624645233154 73.37896728515625 10.44645118713379 77.46625518798828 14.53373146057129 C 81.55353546142578 18.62101173400879 84.76236724853516 23.38017082214355 87.00359344482422 28.67901039123535 C 89.32364654541016 34.16422653198242 90.5 39.99182510375977 90.5 45.99993133544922 C 90.5 52.00805282592773 89.32364654541016 57.83565139770508 87.00359344482422 63.32085037231445 C 84.76236724853516 68.61968994140625 81.55353546142578 73.37885284423828 77.46625518798828 77.46613311767578 C 73.37896728515625 81.55341339111328 68.61980438232422 84.76223754882812 63.32094955444336 87.00344848632812 C 57.83573532104492 89.32350158691406 52.00812530517578 90.49986267089844 46.00000381469727 90.49986267089844 Z" stroke="none"/>
                                  <path d="M 46.00000381469727 3 C 40.19371795654297 3 34.56270217895508 4.136505126953125 29.26338958740234 6.377914428710938 C 24.14333343505859 8.54351806640625 19.54443359375 11.64438629150391 15.59442138671875 15.59439086914062 C 11.64440155029297 19.54440307617188 8.543533325195312 24.14330291748047 6.3779296875 29.26334381103516 C 4.136505126953125 34.56266021728516 3.000007629394531 40.19366073608398 3.000007629394531 45.99993133544922 C 3.000007629394531 51.80620193481445 4.136505126953125 57.43720245361328 6.3779296875 62.73651885986328 C 8.543533325195312 67.85655975341797 11.64440155029297 72.45545959472656 15.59442138671875 76.40547180175781 C 19.54443359375 80.35547637939453 24.14333343505859 83.45634460449219 29.26338958740234 85.6219482421875 C 34.56270217895508 87.86335754394531 40.19371795654297 88.99986267089844 46.00000381469727 88.99986267089844 C 51.80628967285156 88.99986267089844 57.43730545043945 87.86335754394531 62.73663330078125 85.6219482421875 C 67.85667419433594 83.45634460449219 72.45558929443359 80.35547637939453 76.40560150146484 76.40547180175781 C 80.35560607910156 72.45545959472656 83.45648956298828 67.85655975341797 85.62208557128906 62.73651885986328 C 87.86350250244141 57.43720245361328 89 51.80620193481445 89 45.99993133544922 C 89 40.19366073608398 87.86350250244141 34.56266021728516 85.62208557128906 29.26334381103516 C 83.45648956298828 24.14330291748047 80.35560607910156 19.54440307617188 76.40560150146484 15.59439086914062 C 72.45558929443359 11.64438629150391 67.85667419433594 8.54351806640625 62.73663330078125 6.377914428710938 C 57.43730545043945 4.136505126953125 51.80628967285156 3 46.00000381469727 3 M 46.00000381469727 0 C 71.40510559082031 0 92 20.59487152099609 92 45.99993133544922 C 92 71.40499114990234 71.40510559082031 91.99986267089844 46.00000381469727 91.99986267089844 C 20.59491729736328 91.99986267089844 7.62939453125e-06 71.40499114990234 7.62939453125e-06 45.99993133544922 C 7.62939453125e-06 20.59487152099609 20.59491729736328 0 46.00000381469727 0 Z" stroke="none" fill="#397b86"/>
                                </g>
                              </g>
                            </g>
                          </g>
                        </g>
                      </g>
                    </g>
                  </g>
                </g>
              </g>
            </g>
          </g>
        </g>
      </g>
    </g>
    <g id="bloque-de-juguete" transform="translate(3097.078 3573.749)">
      <g id="Grupo_1179309" data-name="Grupo 1179309" transform="translate(0.805 0.902)">
        <path id="Trazado_1040324" data-name="Trazado 1040324" d="M73.979,300.438H74c4.177,0,6.434,3.065,6.434,7.243v3.382H66.415v-3.382a7.567,7.567,0,0,1,5.753-7.346A7.862,7.862,0,0,1,73.979,300.438Z" transform="translate(-60.105 -268.94)" fill="#fe7ab6"/>
        <path id="Trazado_1040325" data-name="Trazado 1040325" d="M121.957,298.668h-.02a7.575,7.575,0,0,0-1.811.22,7.566,7.566,0,0,1,5.753,7.344v3.382h3.642v-3.382A7.564,7.564,0,0,0,121.957,298.668Z" transform="translate(-108.063 -267.492)" fill="#fe5ca7"/>
        <g id="Grupo_1179305" data-name="Grupo 1179305" transform="translate(0 40.119)">
          <path id="Trazado_1040326" data-name="Trazado 1040326" d="M33.664,382.911V394.5a.536.536,0,0,1-.536.536l-3.213.214H27.941a.535.535,0,0,1-.533-.491,6.042,6.042,0,0,0-6.021-5.553c-.037,0-.075,0-.112,0-4.145,0-5.877,2.265-6.123,5.336a.534.534,0,0,1-.532.491l-3.094.214H8.038a.536.536,0,0,1-.536-.536V382.7a.536.536,0,0,1,.536-.536H29.915l3.213.214A.536.536,0,0,1,33.664,382.911Z" transform="translate(-7.502 -382.161)" fill="#fece85"/>
          <path id="Trazado_1040327" data-name="Trazado 1040327" d="M218.393,382.162h-3.642a.536.536,0,0,1,.536.536V394.72a.536.536,0,0,1-.536.536h3.642a.536.536,0,0,0,.536-.536V382.7A.535.535,0,0,0,218.393,382.162Z" transform="translate(-192.553 -382.162)" fill="#fec165"/>
        </g>
        <g id="Grupo_1179306" data-name="Grupo 1179306" transform="translate(3.688 47.169)">
          <path id="Trazado_1040328" data-name="Trazado 1040328" d="M52.022,447.981l-.005,0a6.041,6.041,0,0,0-5.909,5.55.534.534,0,0,1-.532.491H41.932a.535.535,0,0,0,.533-.491,6.042,6.042,0,0,1,6.022-5.553Z" transform="translate(-41.932 -447.981)" fill="#fec165"/>
        </g>
        <path id="Trazado_1040329" data-name="Trazado 1040329" d="M96.1,59.8l-.742-.472a4.071,4.071,0,0,0-2.174-.638L88.3,58.677,91.305,53.7l9,2.221-3.4,4.536Z" transform="translate(-79.642 -48.764)" fill="#bb5d4c"/>
        <path id="Trazado_1040330" data-name="Trazado 1040330" d="M106.072,33.948l-.61-.58a4.18,4.18,0,0,0-2.879-1.15h-5.25l4.953-4.787,8.726,2.814Z" transform="translate(-87.71 -25.307)" fill="#ca6e59"/>
        <path id="Trazado_1040331" data-name="Trazado 1040331" d="M159.952,54.8,146.766,58.5a.326.326,0,0,1-.348-.5l.675-2.061,5.385-8.475,2.436,2.315,5.181,4.225A.443.443,0,0,1,159.952,54.8Z" transform="translate(-131.49 -43.196)" fill="#ade194"/>
        <path id="Trazado_1040332" data-name="Trazado 1040332" d="M152.4,72.2l-16.361,4.017a.325.325,0,0,1-.348-.5l1.823-2.869a6.046,6.046,0,0,0,2.46.516,5.267,5.267,0,0,0,5.529-4.959,4.514,4.514,0,0,0-.47-2l.3.287,7.208,4.711A.443.443,0,0,1,152.4,72.2Z" transform="translate(-121.917 -60.103)" fill="#97da7b"/>
        <path id="Trazado_1040333" data-name="Trazado 1040333" d="M309.609,97.671l10.972-11.056,2.154-1.274a.321.321,0,0,1,.549.226l.51,15.324Z" transform="translate(-277.25 -76.928)" fill="#8ac9fe"/>
        <path id="Trazado_1040334" data-name="Trazado 1040334" d="M412.955,88.4l2.3.729V72.4a.321.321,0,0,0-.549-.226l-2.664,2.685V80.3Z" transform="translate(-368.712 -65.169)" fill="#60b7ff"/>
        <path id="Trazado_1040335" data-name="Trazado 1040335" d="M412.365,145.833h2.319l2.825.214a.323.323,0,0,1,.323.323v6.261h-5.791v-6.475A.323.323,0,0,1,412.365,145.833Z" transform="translate(-368.712 -131.027)" fill="#ade194"/>
        <path id="Trazado_1040336" data-name="Trazado 1040336" d="M437.967,145.833h-3.252a.323.323,0,0,1,.325.321v6.477h3.252v-6.477A.323.323,0,0,0,437.967,145.833Z" transform="translate(-388.956 -131.027)" fill="#97da7b"/>
        <path id="Trazado_1040337" data-name="Trazado 1040337" d="M309.87,202.118v11.513l-5.681-2.529a4.542,4.542,0,0,0-4.54-4.543c-2.507,0-5.619,2.034-5.619,4.543l-1.652,1.019-3.166,1.18V201.9a.642.642,0,0,1,.643-.643h16.588l2.785.214A.642.642,0,0,1,309.87,202.118Z" transform="translate(-259.038 -180.518)" fill="#fe7ab6"/>
        <g id="Grupo_1179307" data-name="Grupo 1179307" transform="translate(32.856 20.743)">
          <path id="Trazado_1040338" data-name="Trazado 1040338" d="M322.007,250.731a4.542,4.542,0,0,0-4.54,4.543l-2.169,2.2-.561-1.18-.484-1.019a4.543,4.543,0,0,1,4.541-4.543Z" transform="translate(-314.252 -245.432)" fill="#fe5ca7"/>
          <path id="Trazado_1040339" data-name="Trazado 1040339" d="M451.3,201.26h-3.214a.643.643,0,0,1,.643.643v10.35l3.214,1.378V201.9A.643.643,0,0,0,451.3,201.26Z" transform="translate(-433.747 -201.26)" fill="#fe5ca7"/>
        </g>
        <path id="Trazado_1040340" data-name="Trazado 1040340" d="M419.135,329.155h5.131l2.785-.214a.536.536,0,0,0,.536-.536V312.093l-8.987-3.961v20.487A.535.535,0,0,0,419.135,329.155Z" transform="translate(-374.567 -275.942)" fill="#fece85"/>
        <path id="Trazado_1040341" data-name="Trazado 1040341" d="M470.035,332.2v17.91a.536.536,0,0,1-.536.536h3.214a.536.536,0,0,0,.536-.536V333.58Z" transform="translate(-420.015 -297.43)" fill="#fec165"/>
        <path id="Trazado_1040342" data-name="Trazado 1040342" d="M240.106,329.155h5.666l2.785-.214a.536.536,0,0,0,.536-.536V308.132l-8.987,3.961v17.062Z" transform="translate(-215.192 -275.942)" fill="#ade194"/>
        <path id="Trazado_1040343" data-name="Trazado 1040343" d="M291.543,309.515v19.1a.536.536,0,0,1-.536.536h3.214a.536.536,0,0,0,.536-.536V308.132Z" transform="translate(-260.641 -275.942)" fill="#97da7b"/>
        <path id="Trazado_1040344" data-name="Trazado 1040344" d="M268.211,298.5v-4.6a.536.536,0,0,0-.536-.536l-2.785-.214H240.642a.536.536,0,0,0-.536.536v5.031h25.106Z" transform="translate(-215.192 -262.56)" fill="#8ac9fe"/>
        <path id="Trazado_1040345" data-name="Trazado 1040345" d="M472.713,293.145H469.5a.536.536,0,0,1,.536.536v5.031h3.214v-5.031A.536.536,0,0,0,472.713,293.145Z" transform="translate(-420.015 -262.56)" fill="#60b7ff"/>
        <g id="Grupo_1179308" data-name="Grupo 1179308" transform="translate(0.003)">
          <path id="Trazado_1040346" data-name="Trazado 1040346" d="M7.576,14.706a.428.428,0,0,1,.308-.408,5.693,5.693,0,0,0,1.853-.949l4.33-3.341a3.885,3.885,0,0,1,1.453-.7l6.664-1.625a2.915,2.915,0,0,1,1.662.084l5.688,2.013a2.431,2.431,0,0,1,.645.345l3.538,2.646a.558.558,0,0,1,.136.746l-.017.026a2.089,2.089,0,0,1-2.885.641l-1.757-1.12a5.523,5.523,0,0,0-1.642-.7l-2.933-.725A3.514,3.514,0,0,0,22.034,12l-2.067,1.179a3.4,3.4,0,0,0-1.7,2.608l-.285,2.774a3.4,3.4,0,0,0,1.009,2.784l2.067,2.017a3.4,3.4,0,0,0,.957.657L23.5,24.7a2.4,2.4,0,0,1,1.025,3.475l-.013.021a.456.456,0,0,1-.535.191l-3.256-1.121a6.317,6.317,0,0,1-1.616-.834L15.563,23.9a8.565,8.565,0,0,0-3.4-1.207,9.843,9.843,0,0,0-4.074.535.428.428,0,0,1-.559-.41Z" transform="translate(-7.532 -7.602)" fill="#d78878"/>
        </g>
      </g>
      <g id="Grupo_1179310" data-name="Grupo 1179310" transform="translate(0.002 0.098)">
        <path id="Trazado_1040347" data-name="Trazado 1040347" d="M54.842,85.239a.8.8,0,0,0-.8-.8H52.655V75.4a.8.8,0,0,0-.8-.8h-.908V69.46a.8.8,0,0,0-.8-.8H48.153V61.1a.8.8,0,0,0-1.374-.566L32.83,74.594H30.98a.8.8,0,0,0-.8.8v9.038H25.72a.8.8,0,0,0-.8.8c0,2.041,0,6.745,0,8.731H23.067v-.576A8.377,8.377,0,0,0,14.7,85.027h-.02a8.377,8.377,0,0,0-8.367,8.367v.576H.805a.8.8,0,0,0-.8.8v13.093a.8.8,0,0,0,.8.8H8.649a.8.8,0,0,0,.8-.8,5.237,5.237,0,1,1,10.475,0,.8.8,0,0,0,.8.8h14.19a.8.8,0,0,0,.8-.8V91.608h8.311v9.712a.8.8,0,0,0,1.607,0V91.608h7.594v15.455H45.641v-1.995a.8.8,0,0,0-1.607,0v2.8a.8.8,0,0,0,.8.8h9.2a.8.8,0,0,0,.8-.8C54.842,103.684,54.842,89.148,54.842,85.239Zm-5.5-10.645H45.01v-4.33h4.328ZM46.546,63.052v5.6H44.207a.8.8,0,0,0-.8.8v5.133h-8.31ZM31.783,76.2H51.049v8.235H46.7a5.344,5.344,0,0,0-10.567,0H31.783V76.2Zm13.282,8.235h-7.3a3.736,3.736,0,0,1,7.3,0ZM14.69,101.02a6.855,6.855,0,0,0-6.8,6.043H1.609V95.577h7.96a.8.8,0,0,0,0-1.607H7.919v-.576a6.768,6.768,0,0,1,6.761-6.761h.02a6.768,6.768,0,0,1,6.761,6.761v.576H13.317a.8.8,0,0,0,0,1.607h11.6v11.487H21.487A6.855,6.855,0,0,0,14.69,101.02Zm19.427,6.043H26.523V91.608h1.923a.8.8,0,1,0,0-1.607H26.523v-3.96H53.236V90H32.195a.8.8,0,1,0,0,1.607h1.923Z" transform="translate(-0.002 -53.851)"/>
        <path id="Trazado_1040348" data-name="Trazado 1040348" d="M360.242,55.581h1.711a.8.8,0,1,0,0-1.607h-1.711a.8.8,0,0,0,0,1.607Z" transform="translate(-320.94 -48.203)"/>
        <path id="Trazado_1040349" data-name="Trazado 1040349" d="M303.356,55.581h1.711a.8.8,0,0,0,0-1.607h-1.711a.8.8,0,0,0,0,1.607Z" transform="translate(-270.147 -48.203)"/>
        <path id="Trazado_1040350" data-name="Trazado 1040350" d="M339.785,20.851a.8.8,0,0,0,.8-.8V18.336a.8.8,0,0,0-1.607,0v1.712A.8.8,0,0,0,339.785,20.851Z" transform="translate(-302.674 -15.666)"/>
        <path id="Trazado_1040351" data-name="Trazado 1040351" d="M339.785,77.756a.8.8,0,0,0,.8-.8V75.241a.8.8,0,1,0-1.607,0v1.711A.8.8,0,0,0,339.785,77.756Z" transform="translate(-302.674 -66.475)"/>
        <path id="Trazado_1040352" data-name="Trazado 1040352" d="M58.126,238.462a.8.8,0,1,0,0,1.607h1.711a.8.8,0,1,0,0-1.607Z" transform="translate(-51.183 -212.931)"/>
        <path id="Trazado_1040353" data-name="Trazado 1040353" d="M1.24,238.462a.8.8,0,1,0,0,1.607H2.951a.8.8,0,1,0,0-1.607Z" transform="translate(-0.39 -212.931)"/>
        <path id="Trazado_1040354" data-name="Trazado 1040354" d="M38.473,202.824a.8.8,0,0,0-1.607,0v1.711a.8.8,0,1,0,1.607,0Z" transform="translate(-32.917 -180.393)"/>
        <path id="Trazado_1040355" data-name="Trazado 1040355" d="M37.669,258.925a.8.8,0,0,0-.8.8v1.712a.8.8,0,0,0,1.607,0v-1.712A.8.8,0,0,0,37.669,258.925Z" transform="translate(-32.917 -231.202)"/>
        <path id="Trazado_1040356" data-name="Trazado 1040356" d="M14.261,19.8a5.509,5.509,0,0,1-1.411-.727L9.307,16.544A9.424,9.424,0,0,0,5.563,15.2a11.6,11.6,0,0,0-5.054.78A.8.8,0,1,0,1.1,17.469a9.878,9.878,0,0,1,4.219-.685,7.654,7.654,0,0,1,3.052,1.067l3.544,2.533a7.116,7.116,0,0,0,1.822.94l3.256,1.121a1.261,1.261,0,0,0,1.488-.541,3.207,3.207,0,0,0-1.368-4.637l-.4-.184,5.512-1.25a.8.8,0,0,0-.355-1.567l-5.476,1.242,5.452-8.58c1.334.812,7,4.523,8.416,5.436L25.556,13.43A.8.8,0,0,0,25.911,15l6.56-1.487a.8.8,0,0,0,.26-1.457L26.823,8.214a2.883,2.883,0,0,0,.968-.938l.017-.026a1.367,1.367,0,0,0-.333-1.821L23.937,2.783a3.227,3.227,0,0,0-.858-.459L17.391.311A3.708,3.708,0,0,0,15.271.2L8.607,1.829a4.66,4.66,0,0,0-1.753.843L2.523,6.013A4.86,4.86,0,0,1,.668,6.9.8.8,0,1,0,1.04,8.461,6.456,6.456,0,0,0,3.5,7.285l4.33-3.341A3.063,3.063,0,0,1,8.987,3.39l6.664-1.625a2.106,2.106,0,0,1,1.2.061l5.688,2.013a1.624,1.624,0,0,1,.431.231l3.344,2.5a1.286,1.286,0,0,1-1.658.238L22.9,5.689a6.41,6.41,0,0,0-1.881-.806l-2.934-.725a4.3,4.3,0,0,0-3.176.441L12.845,5.778A4.214,4.214,0,0,0,10.746,9l-.285,2.774a4.185,4.185,0,0,0,1.247,3.441l2.068,2.017a4.2,4.2,0,0,0,1.183.812l1.485.681a1.6,1.6,0,0,1,.8,2.1Zm2.7-9.02a4.867,4.867,0,0,0-2.6-.764l-2.1-.007.087-.848a2.584,2.584,0,0,1,.065-.364l3.254-.122a3.286,3.286,0,0,1,2.372.9l.139.132-.837,1.317Zm-1.249-4.79A2.7,2.7,0,0,1,17.7,5.717l2.6.643L19.051,8.329A4.9,4.9,0,0,0,15.6,7.074l-1.913.072ZM12.83,14.066a2.587,2.587,0,0,1-.771-2.127l.033-.32,2.257.007a3.263,3.263,0,0,1,1.745.512l.382.243L14.42,15.618Z" transform="translate(-0.002 -0.098)"/>
      </g>
    </g>
  </g>
</svg>
