<svg xmlns="http://www.w3.org/2000/svg" xmlns:xlink="http://www.w3.org/1999/xlink" width="315" height="319" viewBox="0 0 315 319">
  <defs>
    <clipPath id="clip-path">
      <rect id="Rectángulo_415656" data-name="Rectángulo 415656" width="315" height="319" transform="translate(1105 6326)" fill="#fff" stroke="#707070" stroke-width="1" opacity="0.73"/>
    </clipPath>
  </defs>
  <g id="Enmascarar_grupo_1098809" data-name="Enmascarar grupo 1098809" transform="translate(-1105 -6326)" clip-path="url(#clip-path)">
    <g id="Grupo_1179225" data-name="Grupo 1179225" transform="translate(2252.501 -1003.714)">
      <path id="Trazado_1039908" data-name="Trazado 1039908" d="M47.582,127.524A107.625,107.625,0,0,0,63.3,135.73q4.664,1.981,9.478,3.557a.292.292,0,0,0,.136.019.254.254,0,0,0,.1.03.263.263,0,0,0,.281-.241,41.6,41.6,0,0,1,.872-6.185s0,.008-.008.016c0-.021.011-.042.016-.062,0,0,0-.005,0-.007s0,.005,0,.007a46.208,46.208,0,0,1,4.088-11.347.094.094,0,0,0,.013-.028v0a.226.226,0,0,0,.011-.028v0a34.963,34.963,0,0,1,4.159-6.256c-3.428-.667-6.725-1.38-9.945-2.17l.007,0A129.468,129.468,0,0,1,41.5,101.478v21.806C43.474,124.772,45.5,126.195,47.582,127.524Z" transform="translate(-1189 7338.046)" fill="#c1877b"/>
      <path id="Trazado_1039909" data-name="Trazado 1039909" d="M78.285,120.9a.228.228,0,0,1-.011.028v0a.094.094,0,0,1-.013.028A46.193,46.193,0,0,0,74.173,132.3a.463.463,0,0,1-.007.046,41.6,41.6,0,0,0-.872,6.185.263.263,0,0,1-.281.241.255.255,0,0,1-.1-.03.292.292,0,0,1-.136-.019q-4.81-1.583-9.478-3.557a107.625,107.625,0,0,1-15.716-8.206c-2.085-1.329-4.109-2.752-6.082-4.238v4.055c3.7,2.507,7.573,4.885,11.562,7.09a136.269,136.269,0,0,0,17.095,7.979,114.639,114.639,0,0,0,15.795,4.8H86a.857.857,0,0,0,.53-.162.818.818,0,0,0,.3-.537.806.806,0,0,0-.166-.578.844.844,0,0,0-.535-.3c-.709-.155-1.422-.322-2.127-.5q-1.314-.33-2.623-.688l.019-.015-.015,0a13.464,13.464,0,0,0,1.083-.827,20.582,20.582,0,0,0,5.472-8.056,31.161,31.161,0,0,0,2.181-13.2A22.614,22.614,0,0,0,89.5,117.5l.019,0s0-.005,0-.008l.328.059q2.331.394,4.684.733h.016a.828.828,0,0,0,.864-.7.8.8,0,0,0-.7-.875q-2.862-.416-5.712-.885a.8.8,0,0,0-.74-.489.772.772,0,0,0-.252.042.752.752,0,0,0-.331.232c-1.789-.309-3.518-.632-5.226-.964a34.907,34.907,0,0,0-4.159,6.256v0Z" transform="translate(-1189 7338.614)" fill="#b67f74"/>
      <path id="Trazado_1039910" data-name="Trazado 1039910" d="M136.079,47.9a7.278,7.278,0,0,0-4.358,1.416,9.919,9.919,0,0,0-2.275,2.354,18.138,18.138,0,0,0-1.9,3.469,22.19,22.19,0,0,0-.941,2.613,38.463,38.463,0,0,0-1.346,12.721,42.331,42.331,0,0,0,2.678,13.221,24.452,24.452,0,0,0,6.841,10.236,13.1,13.1,0,0,0,1.843,1.33,7.448,7.448,0,0,0,1.46.681,4.832,4.832,0,0,0,1.364.257,4.425,4.425,0,0,0,1.4-.208,4.333,4.333,0,0,0,2.018-1.5,8.866,8.866,0,0,0,1.392-2.615,21.978,21.978,0,0,0,.941-3.587c.232-1.266.406-2.6.547-4.21a89.932,89.932,0,0,0,.216-9.817c-.076-3.208-.266-6.56-.578-10.253-.233-2.719-.522-5.434-.861-8.069-.146-1.133-.3-2.274-.477-3.407a7.9,7.9,0,0,0,.872.613.9.9,0,0,0,.491.152.774.774,0,0,0,.639-.33.832.832,0,0,0,.144-.639.748.748,0,0,0-.313-.5c-.726-.465-1.459-.93-2.213-1.362a.79.79,0,0,0-.788-.645.685.685,0,0,0-.128.008,1.517,1.517,0,0,0-.162.049,20.127,20.127,0,0,0-2.685-1.226,11.04,11.04,0,0,0-3.818-.755" transform="translate(-1185.391 7335.736)" fill="#4b4843"/>
      <path id="Trazado_1039911" data-name="Trazado 1039911" d="M217.645,72.312a4.162,4.162,0,0,0-1.389.286,4.992,4.992,0,0,0-2.229,1.658,10.035,10.035,0,0,0-1.325,2.378,19.263,19.263,0,0,0-.93,2.895,48.459,48.459,0,0,0-1.108,6.183c-.09.717-.171,1.443-.249,2.163l-.073.632c-.09.8-.184,1.6-.289,2.4l-.081.6a25.8,25.8,0,0,0-.346,5.352A5.562,5.562,0,0,0,209.8,97.9a5.454,5.454,0,0,0,.179.556,3.251,3.251,0,0,0,.282.519,2.38,2.38,0,0,0,1.768,1.056,2.141,2.141,0,0,0,.283.016,4.544,4.544,0,0,0,.87-.105,7.8,7.8,0,0,0,1.505-.551,13.786,13.786,0,0,0,3.026-1.925,14.974,14.974,0,0,0,2.083-2.145,15.3,15.3,0,0,0,1.623-2.513,19.624,19.624,0,0,0,1.929-5.813,24.676,24.676,0,0,0,.237-6.224,24.058,24.058,0,0,0-1.276-5.927.8.8,0,0,0-.769-.492.852.852,0,0,0-.338.074.806.806,0,0,0-.215.141A4.543,4.543,0,0,0,219.35,72.8a3.44,3.44,0,0,0-1.389-.474,2.61,2.61,0,0,0-.315-.017" transform="translate(-1181.752 7336.789)" fill="#45423d"/>
      <path id="Trazado_1039912" data-name="Trazado 1039912" d="M134.316,48.088a7.433,7.433,0,0,0-2.6,1.214,9.879,9.879,0,0,0-2.285,2.36,18.1,18.1,0,0,0-1.9,3.472,21.6,21.6,0,0,0-.941,2.616,38.394,38.394,0,0,0-1.349,12.725A42.329,42.329,0,0,0,127.914,83.7a24.5,24.5,0,0,0,6.846,10.243,12.668,12.668,0,0,0,1.845,1.332,7.179,7.179,0,0,0,1.468.681,5.205,5.205,0,0,0,1.115.245,43.287,43.287,0,0,1-2.884-6.794,46.176,46.176,0,0,1-1.793-7.355,40.935,40.935,0,0,1-.492-7.533,32.055,32.055,0,0,1,.338-3.843,26.868,26.868,0,0,1,.791-3.626,18.858,18.858,0,0,1,3.268-6.459c.22-.269.44-.537.684-.787s.481-.481.733-.7c.513-.443,1.047-.855,1.593-1.251.6-.432,1.194-.851,1.773-1.3a16.2,16.2,0,0,0,1.278-1.094c-.127-.974-.261-1.954-.414-2.927a4.289,4.289,0,0,0,.839.627.9.9,0,0,0,.5.164.767.767,0,0,0,.656-.347.835.835,0,0,0,.154-.652.794.794,0,0,0-.325-.509c-.725-.464-1.459-.928-2.212-1.36a.8.8,0,0,0-.8-.652.757.757,0,0,0-.126.007c-.094.029-.13.041-.171.057a17.962,17.962,0,0,0-2.669-1.227,11.022,11.022,0,0,0-3.826-.761,7.274,7.274,0,0,0-1.76.208" transform="translate(-1185.392 7335.735)" fill="#45423d"/>
      <path id="Trazado_1039913" data-name="Trazado 1039913" d="M150.48,113.841a.81.81,0,0,0-.789.713q-.158.972-.383,1.931a23.851,23.851,0,0,1-2.179,5.678,24.247,24.247,0,0,1-3.576,4.782,38.569,38.569,0,0,1-5.773,4.733.81.81,0,0,0-.611.63,1.091,1.091,0,0,0-.025.226,24.118,24.118,0,0,0,.339,6.864,19.966,19.966,0,0,0,2.205,5.952,18.924,18.924,0,0,0,3.788,4.717,17.49,17.49,0,0,0,4.9,3.115,17.294,17.294,0,0,0,6.864,1.378,18.787,18.787,0,0,0,2.489-.167,21.184,21.184,0,0,0,9.915-4.322.762.762,0,0,0,.29-.519.8.8,0,0,0-.162-.595.767.767,0,0,0-.516-.289,20.505,20.505,0,0,1-1.14-2.939,18.876,18.876,0,0,1-.693-4.3,21.65,21.65,0,0,1,.575-5.458,28.224,28.224,0,0,1,2.1-5.657.748.748,0,0,0,.273-.14.892.892,0,0,0,.3-.539,6.3,6.3,0,0,0,.119-.657c.3-.526.609-1.055.932-1.572a.863.863,0,0,0,.148-.6.806.806,0,0,0-.31-.511.845.845,0,0,0-.491-.153.79.79,0,0,0-.487.161,7.365,7.365,0,0,0-.611-1.635,12.764,12.764,0,0,0-3.662-4.229,18.444,18.444,0,0,0-2.548-1.618,17.118,17.118,0,0,0-2.7-1.158,14.543,14.543,0,0,0-4.628-.8c-.346,0-.694.013-1.04.045a8.584,8.584,0,0,0-2.762.706,26.085,26.085,0,0,0,.638-2.9.707.707,0,0,0-.146-.543.833.833,0,0,0-.56-.328Z" transform="translate(-1184.88 7338.579)" fill="#c1877b"/>
      <path id="Trazado_1039914" data-name="Trazado 1039914" d="M149.251,114.558c-.106.648-.233,1.28-.379,1.919a24.085,24.085,0,0,1-2.124,5.575q.749,1.023,1.553,2.007c-.017-.02-.028-.037-.045-.056a37.705,37.705,0,0,0,7.2,6.862c-.02-.013-.037-.025-.057-.037a24.59,24.59,0,0,0,2.4,1.5,19.715,19.715,0,0,0,2.343,1.088,15.873,15.873,0,0,0,1.842.566,13.709,13.709,0,0,0,1.772.306c-.02,0-.045,0-.065,0a12.653,12.653,0,0,0,1.516.057c.293-.009.584-.029.875-.057a29.236,29.236,0,0,1,1.614-3.965.6.6,0,0,0,.273-.13.929.929,0,0,0,.3-.546,5.362,5.362,0,0,0,.122-.669c.294-.517.6-1.047.925-1.565a.811.811,0,0,0-.668-1.3.815.815,0,0,0-.5.171,5.624,5.624,0,0,0-.583-1.625,12.711,12.711,0,0,0-3.662-4.238,17.818,17.818,0,0,0-2.555-1.618,16.214,16.214,0,0,0-2.7-1.157,14.446,14.446,0,0,0-4.638-.806c-.346,0-.693.011-1.043.044a8.643,8.643,0,0,0-2.766.718,20.787,20.787,0,0,0,.669-2.885.742.742,0,0,0-.151-.558.868.868,0,0,0-.579-.338l-.081,0a.841.841,0,0,0-.811.742" transform="translate(-1184.462 7338.578)" fill="#ab776d"/>
      <path id="Trazado_1039915" data-name="Trazado 1039915" d="M215.4,94.472a6.738,6.738,0,0,0-1.592.2c-.123.028-.249.061-.371.1a.243.243,0,0,0-.131-.105.783.783,0,0,0-.366-.091.845.845,0,0,0-.252.041.867.867,0,0,0-.47.4l-.163.236a4.018,4.018,0,0,1-.524.306.8.8,0,0,0-.329,1.017,66.925,66.925,0,0,0-4.78,8.426c-.47,1-.888,1.991-1.239,2.964a18.77,18.77,0,0,0-.82,2.846,8.371,8.371,0,0,0-.163,2.468,4.346,4.346,0,0,0,.993,2.422,4.749,4.749,0,0,0,3.8,1.454,10.533,10.533,0,0,0,1.721-.151,13.772,13.772,0,0,0,2.929-.861,9.265,9.265,0,0,0,2.1-1.17,11.634,11.634,0,0,0,3.022-3.573,17.229,17.229,0,0,0,1.753-4.55,18.2,18.2,0,0,0,.493-4.774,11.49,11.49,0,0,0-.845-4.144A6.474,6.474,0,0,0,219.2,96.3a5.125,5.125,0,0,0-1.461-1.241A4.462,4.462,0,0,0,216,94.5c-.2-.02-.4-.032-.6-.032" transform="translate(-1181.986 7337.744)" fill="#b67f74"/>
      <path id="Trazado_1039916" data-name="Trazado 1039916" d="M215.111,98.888a7.424,7.424,0,0,0-2.241,1.1,11.191,11.191,0,0,0-1.887,1.707,12.288,12.288,0,0,0-1.5,2.041.605.605,0,0,0,1.007.673,15.886,15.886,0,0,1,1.106-1.468,12.741,12.741,0,0,1,2.064-1.88,8.158,8.158,0,0,1,1.647-.877,5.552,5.552,0,0,1,1.158-.262,4.884,4.884,0,0,1,.957.053.63.63,0,0,0,.663-.591.638.638,0,0,0-.159-.452.666.666,0,0,0-.432-.208,5.272,5.272,0,0,0-.819-.064,5.77,5.77,0,0,0-1.569.222" transform="translate(-1181.76 7337.925)" fill="#9e6e64"/>
      <path id="Trazado_1039917" data-name="Trazado 1039917" d="M192.17,50.883h-.184c-4.125,0-8.327.276-12.254.575A73.409,73.409,0,0,0,166.345,53.6a38.635,38.635,0,0,0-10.984,4.684,27.205,27.205,0,0,0-4.4,3.522,24.558,24.558,0,0,0-3.518,4.406,26.506,26.506,0,0,0-2.543,5.369,32.717,32.717,0,0,0-1.464,6.391c-.13.975-.224,2-.286,3.118a3.253,3.253,0,0,0-.379-.273,12.827,12.827,0,0,0-1.9-.987,12.56,12.56,0,0,0-2.067-.681,10.47,10.47,0,0,0-2.349-.277,9.547,9.547,0,0,0-1.628.139,8.607,8.607,0,0,0-3.242,1.3,10.687,10.687,0,0,0-2.647,2.524,13.286,13.286,0,0,0-1.779,3.262,16.913,16.913,0,0,0-1.011,7.609,15.279,15.279,0,0,0,.869,3.853,14.706,14.706,0,0,0,.8,1.783,12.89,12.89,0,0,0,1.113,1.7,11.6,11.6,0,0,0,2.883,2.667,14.384,14.384,0,0,0,7.915,2.127c.317,0,.634-.008.949-.023a38.914,38.914,0,0,0,5.826,13.2,37.983,37.983,0,0,0,5.413,6.276,42.418,42.418,0,0,0,18.63,10.08,40.565,40.565,0,0,0,6.945,1.1c.8.056,1.625.085,2.447.085a39.069,39.069,0,0,0,4.506-.268,33.058,33.058,0,0,0,13.056-4.43,32.371,32.371,0,0,0,5.751-4.423,37.733,37.733,0,0,0,4.528-5.311,62.178,62.178,0,0,0,6.884-12.919,94.544,94.544,0,0,0,4.58-14.9,101.3,101.3,0,0,0,1.875-11.467,76.738,76.738,0,0,0,.444-9.369.826.826,0,0,0,.428-.679,19.9,19.9,0,0,0-1.214-8.1,18.455,18.455,0,0,0-3.873-6.51c-2.543-2.7-6.266-4.669-11.064-5.867a46.46,46.46,0,0,0-6.781-1.113c-2.08-.2-4.33-.306-6.879-.31" transform="translate(-1185.354 7335.864)" fill="#c1877b"/>
      <path id="Trazado_1039918" data-name="Trazado 1039918" d="M191.3,50.863c-4.132,0-8.329.277-12.254.575a72.91,72.91,0,0,0-13.393,2.148,38.41,38.41,0,0,0-10.99,4.682,27.139,27.139,0,0,0-4.4,3.525,24.437,24.437,0,0,0-3.521,4.412,26.436,26.436,0,0,0-2.547,5.371,32.8,32.8,0,0,0-1.467,6.4c-.13.987-.224,2-.285,3.118a1.226,1.226,0,0,0-.346-.29l-.076-.048a16.546,16.546,0,0,0,.777,2.344h0a9.276,9.276,0,0,0,1.116,1.971,5.8,5.8,0,0,0,.912.939l.006,0,.007,0a.066.066,0,0,1,.014.011h0l.015.013a4.513,4.513,0,0,0,.9.524l-.065-.025a4.5,4.5,0,0,0,1.031.286H146.7l.037,0-.008,0a.08.08,0,0,1,.022,0h.01a.013.013,0,0,0,.008,0h0a5.7,5.7,0,0,0,1.178-.008h0a.3.3,0,0,1,.061-.008h-.024a7.322,7.322,0,0,0,1.712-.477l-.066.024a5.825,5.825,0,0,0,.767-.391c.2-.122.383-.244.562-.379,0,0,0,0,0,0l.005-.005,0,0a.18.18,0,0,1,.036-.028s-.012.008-.017.016a.138.138,0,0,1,.025-.02s0,0-.008,0a8.048,8.048,0,0,0,.774-.7,9.378,9.378,0,0,0,.615-.718,13.455,13.455,0,0,0,1.634-2.9l-.024.062a27.566,27.566,0,0,0,1.206-3.627c.285-1.075.53-2.159.787-3.243a.275.275,0,0,1,.184-.184.261.261,0,0,1,.2.028c.233.106.468.208.7.31-.021-.008-.041-.02-.062-.028a21.156,21.156,0,0,0,2.689.949,19.288,19.288,0,0,0,2.331.489h-.021a15.2,15.2,0,0,0,4.01,0H166a14.976,14.976,0,0,0,2.061-.44,18.98,18.98,0,0,0,1.919-.681l-.062.025a28.658,28.658,0,0,0,6.162-3.753c.22-.171.439-.346.655-.517a.264.264,0,0,1,.412.053c.163.228.334.456.5.684l-.011-.013.011.013s0,0,0,0,0,0,0,0a.125.125,0,0,1,.016.022.079.079,0,0,0-.008-.011l.008.011a.029.029,0,0,1,.007.009,17.561,17.561,0,0,0,1.39,1.572,18.268,18.268,0,0,0,1.548,1.365,16.709,16.709,0,0,0,1.855,1.242,18.033,18.033,0,0,0,1.9.941l-.009-.006-.023-.009a.106.106,0,0,1,.023.009,19.451,19.451,0,0,0,2.577.863,22.53,22.53,0,0,0,2.616.5h0a30.916,30.916,0,0,0,7.9-.094h-.013A49.105,49.105,0,0,0,207.6,75.226a.263.263,0,0,1,.322.183,8.089,8.089,0,0,0,.473,1.626c-.008-.021-.02-.041-.028-.062a7.327,7.327,0,0,0,.473.929,8.568,8.568,0,0,0,.493.718,9.052,9.052,0,0,0,1.54,1.523.444.444,0,0,0-.049-.041,13.114,13.114,0,0,0,2.913,1.659l-.06-.024a22.18,22.18,0,0,0,5.391,1.4l-.07-.013q.7.094,1.4.153c.016-.15.032-.3.048-.451a76.351,76.351,0,0,0,.444-9.372.789.789,0,0,0,.428-.676,19.92,19.92,0,0,0-1.218-8.105,18.518,18.518,0,0,0-3.875-6.52c-2.55-2.7-6.275-4.677-11.075-5.868a46.032,46.032,0,0,0-6.784-1.116c-2.05-.2-4.3-.306-6.883-.31H191.3ZM162.033,76.008a.231.231,0,0,1,.049.007c-.017,0-.033,0-.049-.007m3.969,0c-.017,0-.033,0-.049.007a.222.222,0,0,1,.049-.007m18.311.5a.2.2,0,0,1,.029.013.2.2,0,0,0-.029-.013m-36.326,10.3c-.012,0-.024,0-.036.008h0a.176.176,0,0,1,.041-.008" transform="translate(-1184.666 7335.864)" fill="#b67f74"/>
      <path id="Trazado_1039919" data-name="Trazado 1039919" d="M126.184,88.374a16.519,16.519,0,0,0-.065,3.839,15.447,15.447,0,0,0,.871,3.859,13.543,13.543,0,0,0,.8,1.785,12.567,12.567,0,0,0,1.112,1.7,11.615,11.615,0,0,0,2.889,2.668,14.349,14.349,0,0,0,7.926,2.135c.317,0,.635-.008.949-.02a38.516,38.516,0,0,0,5.81,13.185,37.611,37.611,0,0,0,5.415,6.28,42.393,42.393,0,0,0,18.027,9.927q-1.942-.785-3.818-1.717a41.587,41.587,0,0,1-6.5-4.034,49.242,49.242,0,0,1-6.133-5.513,50.475,50.475,0,0,1-5.28-6.626,41.533,41.533,0,0,1-6.344-14.807.23.23,0,0,1,0-.071h-.007c-.293,0-.587,0-.885-.008a15.364,15.364,0,0,1-3.439-.492,14.9,14.9,0,0,1-3.1-1.194,14.417,14.417,0,0,1-4.878-4.14,14.078,14.078,0,0,1-2.759-9.286c.008-.1.013-.2.021-.3a17.391,17.391,0,0,0-.611,2.824" transform="translate(-1185.355 7337.359)" fill="#b67f74"/>
      <path id="Trazado_1039920" data-name="Trazado 1039920" d="M128.509,92.338" transform="translate(-1185.248 7337.651)" fill="#b67f74"/>
      <path id="Trazado_1039921" data-name="Trazado 1039921" d="M176.186,70.541h0" transform="translate(-1183.192 7336.712)" fill="#b67f74"/>
      <path id="Trazado_1039922" data-name="Trazado 1039922" d="M176.209,70.575a0,0,0,0,0,0,0l-.007-.009.008.013" transform="translate(-1183.192 7336.713)" fill="#b67f74"/>
      <path id="Trazado_1039923" data-name="Trazado 1039923" d="M144.709,84.555l0,0h0l.007,0" transform="translate(-1184.55 7337.316)" fill="#b67f74"/>
      <path id="Trazado_1039924" data-name="Trazado 1039924" d="M144.713,84.559l0,0h0l0,0" transform="translate(-1184.549 7337.316)" fill="#b67f74"/>
      <path id="Trazado_1039925" data-name="Trazado 1039925" d="M144.729,84.57h0" transform="translate(-1184.549 7337.316)" fill="#b67f74"/>
      <path id="Trazado_1039926" data-name="Trazado 1039926" d="M144.733,84.574v0h0l0,0" transform="translate(-1184.549 7337.317)" fill="#b67f74"/>
      <path id="Trazado_1039927" data-name="Trazado 1039927" d="M144.746,84.584a.063.063,0,0,0-.014-.009.054.054,0,0,1,.014.009" transform="translate(-1184.548 7337.317)" fill="#b67f74"/>
      <path id="Trazado_1039928" data-name="Trazado 1039928" d="M146.573,85.344l0,0h-.009l.014,0" transform="translate(-1184.47 7337.35)" fill="#b67f74"/>
      <path id="Trazado_1039929" data-name="Trazado 1039929" d="M136.353,84.135a11.67,11.67,0,0,0-.7,14.649.535.535,0,0,0,.934-.325.586.586,0,0,0-.135-.387c-.023-.033-.049-.066-.073-.1a8.1,8.1,0,0,1-.83-1.65,10.869,10.869,0,0,1-.53-2.594,13.6,13.6,0,0,1,.2-3.187,14.79,14.79,0,0,1,1.153-3.314,20.819,20.819,0,0,1,1.217-2.019.835.835,0,0,0-.074-1.007.867.867,0,0,0-.638-.273.722.722,0,0,0-.523.208m0,3.136c-.018.034-.034.07-.053.1l.053-.1M135.2,90.612c-.008.046-.017.091-.027.136.009-.045.019-.09.027-.136m.347,5.715c.016.042.03.088.045.134-.015-.045-.03-.089-.045-.134m.843,1.666c.016.022.031.045.046.069Z" transform="translate(-1185.035 7337.289)" fill="#9e6e64"/>
      <path id="Trazado_1039930" data-name="Trazado 1039930" d="M130.342,83.63a.576.576,0,0,0-.248.77.582.582,0,0,0,.77.252c.11-.053.217-.1.325-.143a4.223,4.223,0,0,1,.855-.176,5.14,5.14,0,0,1,.964.055,4.812,4.812,0,0,1,.936.306,5.791,5.791,0,0,1,.868.579,7.381,7.381,0,0,1,.815.933.8.8,0,0,0,.953.179.809.809,0,0,0,.346-1.072,4.1,4.1,0,0,0-2.912-2.119,5.592,5.592,0,0,0-1.189-.127,5.815,5.815,0,0,0-2.483.563" transform="translate(-1185.182 7337.251)" fill="#9e6e64"/>
      <path id="Trazado_1039931" data-name="Trazado 1039931" d="M188.159,85.429h-.013a.316.316,0,0,0-.312.294c-.031.49-.07.981-.109,1.474a25.636,25.636,0,0,0-.008,6,8.753,8.753,0,0,0,.453,1.734,8.44,8.44,0,0,0,.7,1.4c.13.216.269.428.408.639a10.263,10.263,0,0,1,1,1.8,3.193,3.193,0,0,1,.129.616,3.053,3.053,0,0,1-.032.576,4,4,0,0,1-.28.8,5.124,5.124,0,0,1-.448.682,4.06,4.06,0,0,1-.544.483,4.75,4.75,0,0,1-.808.4,5.962,5.962,0,0,1-1.154.232c-.179.011-.358.016-.533.016a9.067,9.067,0,0,1-1.478-.122,8.573,8.573,0,0,1-1.745-.574,7.393,7.393,0,0,1-1.313-.862,6.058,6.058,0,0,1-.647-.707.853.853,0,0,0-.676-.3.894.894,0,0,0-.862.619.927.927,0,0,0,.049.692,5.59,5.59,0,0,0,3.743,3,8.843,8.843,0,0,0,1.33.262,6.552,6.552,0,0,0,.8.049c.126,0,.249,0,.376-.008a6.544,6.544,0,0,0,2.485-.6,5.781,5.781,0,0,0,1.034-.612,4.64,4.64,0,0,0,.808-.743,5.333,5.333,0,0,0,1.037-1.8,4.444,4.444,0,0,0,.159-.734,3.319,3.319,0,0,0-.089-1.3,4.269,4.269,0,0,0-.5-1.152,11.593,11.593,0,0,0-.891-1.253l-.114-.147c-.177-.227-.355-.457-.519-.691a7.85,7.85,0,0,1-.81-1.588,10.848,10.848,0,0,1-.488-2.425,31.8,31.8,0,0,1,.1-4.816l.07-1a.3.3,0,0,0-.079-.22A.32.32,0,0,0,188.159,85.429Z" transform="translate(-1183.035 7337.354)" fill="#9e6e64"/>
      <path id="Trazado_1039932" data-name="Trazado 1039932" d="M76.734,120.7l.005-.007.013-.025c-.006.01-.01.022-.018.032" transform="translate(-1187.481 7338.873)" fill="#b67f74"/>
      <path id="Trazado_1039933" data-name="Trazado 1039933" d="M88.567,111.054a.846.846,0,0,0-.627.276.539.539,0,0,0-.147.115,55.036,55.036,0,0,0-7.336,12.079A67.683,67.683,0,0,0,75.6,138.412a48.832,48.832,0,0,0-.994,10.23,29.607,29.607,0,0,0,1.52,9.261,4.649,4.649,0,0,0,1.142,1.2c2.243.121,4.29.179,6.26.179A76.87,76.87,0,0,0,94.82,158.5a55.6,55.6,0,0,0,16.484-5.176,91.675,91.675,0,0,0,15.6-10.4c1.381-1.084,2.751-2.184,4.12-3.284,1.085-.874,2.168-1.745,3.26-2.612q1.838-1.468,3.711-2.894l.688-.513c.384-.286.767-.571,1.141-.86.5-.387,1-.787,1.5-1.19l.5-.407c.663-.534,1.336-1.06,2.029-1.561a.754.754,0,0,0,.257-.566.482.482,0,0,0-.017-.17.6.6,0,0,0,.313-.3.808.808,0,0,0-.346-1.09c-1.749-.912-3.1-1.61-4.519-2.285-1.248-.6-2.691-1.244-4.413-1.985-2.8-1.193-5.745-2.314-8.991-3.427a170.456,170.456,0,0,0-18.374-5.1c-6.867-1.546-13.788-2.741-19.049-3.61a.9.9,0,0,0-.152-.013" transform="translate(-1187.573 7338.459)" fill="#fc7"/>
      <path id="Trazado_1039934" data-name="Trazado 1039934" d="M90.81,112.506c.017-.017.028-.037.045-.053a43.554,43.554,0,0,0-3.578,5.281,53.639,53.639,0,0,0-2.771,5.57c.008-.025.017-.045.024-.066a72.659,72.659,0,0,0-3.386,10c-.407,1.548-.782,3.1-1.1,4.67-.3,1.475-.547,2.954-.758,4.441,0-.024.008-.045.013-.069a68.2,68.2,0,0,0-.648,7.8A52.317,52.317,0,0,0,79,157.743v.013a.009.009,0,0,0,0,.005.022.022,0,0,1,0,.015.05.05,0,0,0,0-.009q.091.715.207,1.432c.666.026,1.306.045,1.927.059-.218-1.688-.372-3.384-.435-5.084a61.746,61.746,0,0,1,.839-12.562,70.989,70.989,0,0,1,4.849-16.344,68.655,68.655,0,0,1,7.585-13.323q-1.213-.211-2.365-.409c-.273.318-.538.645-.8.97" transform="translate(-1187.399 7338.479)" fill="#fefefe"/>
      <path id="Trazado_1039935" data-name="Trazado 1039935" d="M92.781,122.066a.091.091,0,0,0-.013.021A65.087,65.087,0,0,0,85.291,153.9v-.065a53.657,53.657,0,0,0,.44,5.35q1.15-.034,2.27-.1c-.132-1.525-.219-3.054-.248-4.583a64.695,64.695,0,0,1,.791-11.675A61.1,61.1,0,0,1,97.4,119.462a63.939,63.939,0,0,1,4.385-6.055c-.9-.18-1.794-.357-2.679-.526a48.917,48.917,0,0,0-6.323,9.185" transform="translate(-1187.113 7338.538)" fill="#fefefe"/>
      <path id="Trazado_1039936" data-name="Trazado 1039936" d="M92.459,121.7v0s.008-.013.013-.017-.008.013-.013.017" transform="translate(-1186.802 7338.917)" fill="#fefefe"/>
      <path id="Trazado_1039937" data-name="Trazado 1039937" d="M78.988,155.855v-.005h0v.006" transform="translate(-1187.384 7340.391)" fill="#fefefe"/>
      <path id="Trazado_1039938" data-name="Trazado 1039938" d="M133.412,132.256q-3.765.483-7.494,1.214-3.66.728-7.273,1.675c.024,0,.045-.012.069-.017a134.8,134.8,0,0,0-16.132,5.406c-1.495.608-2.978,1.252-4.49,1.826-1.451.55-2.913,1.059-4.4,1.5A51.593,51.593,0,0,1,88,145.232l.005,0a64.484,64.484,0,0,0-.359,8.468c.024,1.42.108,2.947.244,4.558,2.195-.111,4.272-.314,6.365-.619a55.756,55.756,0,0,0,16.494-5.183,91.946,91.946,0,0,0,15.61-10.4q2.067-1.627,4.115-3.289l.771-.615c.831-.663,1.659-1.332,2.493-1.992q1.84-1.466,3.712-2.893l.688-.513c.383-.286.767-.571,1.141-.861.105-.081.212-.167.318-.248q-3.1.214-6.19.611" transform="translate(-1187.011 7339.347)" fill="#f5c472"/>
      <path id="Trazado_1039939" data-name="Trazado 1039939" d="M85.532,145.052a42.064,42.064,0,0,1-4.726.257,58.95,58.95,0,0,0-.188,7.42c.052,1.556.193,3.208.426,5.062.766.04,1.5.048,2.223.048.9,0,1.781-.017,2.64-.041l-.024-.2-.081-.712c-.151-1.455-.252-2.905-.31-4.433a56.425,56.425,0,0,1,.269-7.424l-.228.024" transform="translate(-1187.315 7339.924)" fill="#f5c472"/>
      <path id="Trazado_1039940" data-name="Trazado 1039940" d="M44.641,222.185a52.367,52.367,0,0,0,5.481.489c1.915.077,3.83.057,5.746-.008,2.011-.07,4.019-.2,6.024-.37q2.047-.089,4.089-.261,3.158-.258,6.294-.705l.413-.041q3.136-.318,6.259-.729a132.673,132.673,0,0,0,24.611-5.424q2.995-1,5.917-2.2c1.821-.746,3.61-1.569,5.374-2.441a100.318,100.318,0,0,0,9.568-5.419,118.368,118.368,0,0,0,17.562-13.8,134.111,134.111,0,0,0,15.194-17.056,135.77,135.77,0,0,0,10.794-16.824q2.9-5.34,5.256-10.949c-.1-.131-.189-.272-.293-.4-.4-.4-.8-.792-1.211-1.179-.155-.123-.314-.242-.478-.356-.2-.136-.343-.233-.489-.327-.094-.057-.191-.111-.289-.163l-.221-.111a.545.545,0,0,0-.2.12.83.83,0,0,0-.152.186.3.3,0,0,0-.125.071,10.676,10.676,0,0,1-2.018,1.387,13.5,13.5,0,0,1-3,1.035,18.967,18.967,0,0,1-3.837.37q-.372,0-.745-.013a15.932,15.932,0,0,1-3.865-.708,21.988,21.988,0,0,1-4.8-2.248,21.309,21.309,0,0,1-4-3.307,15.544,15.544,0,0,1-2.133-3.009,11.186,11.186,0,0,1-.912-2.5,8.972,8.972,0,0,1-.171-2.039,8.643,8.643,0,0,1,.354-2.047,10.552,10.552,0,0,1,1.087-2.292c.216-.325.443-.634.688-.94a.847.847,0,0,0,.1-.878c-.431-.149-.805-.263-1.181-.372a24.716,24.716,0,0,0-4.546-.429,24.03,24.03,0,0,0-3,.188,29.174,29.174,0,0,0-7.239,1.92,53.939,53.939,0,0,0-13.241,8.122c-2.57,2.029-5.054,4.193-7.457,6.287-1.95,1.7-4.077,3.555-6.18,5.273-.86.7-1.768,1.418-2.677,2.135l-.93.737-2.025,1.605-2.033,1.614-1.471,1.165q-3.325,2.635-6.646,5.256c-6.169,4.86-11.345,8.891-16.29,12.684-10.9,8.359-20.779,15.592-30.1,22.034v26.278Q43.057,221.952,44.641,222.185Z" transform="translate(-1189 7339.116)" fill="#eebf70"/>
      <path id="Trazado_1039941" data-name="Trazado 1039941" d="M74.581,147.188a29.426,29.426,0,0,0,1.528,9.266.778.778,0,0,0,.379.5.814.814,0,0,0,.778.714q1.083.055,2.115.094l-.009-.077-.024,0-.02-.282-.032-.154c-.042-.306-.082-.611-.119-.917a52.156,52.156,0,0,1-.346-7.685c.025-1.059.081-2.195.171-3.376-.588-.028-1.171-.069-1.756-.121-.88-.086-1.761-.192-2.633-.322-.032.8-.045,1.59-.032,2.364" transform="translate(-1187.574 7339.916)" fill="#f5c472"/>
      <path id="Trazado_1039942" data-name="Trazado 1039942" d="M157.171,173.385a134.11,134.11,0,0,1-15.194,17.056,118.372,118.372,0,0,1-17.562,13.8,100.327,100.327,0,0,1-9.568,5.419c-1.764.872-3.553,1.7-5.374,2.441q-2.917,1.2-5.917,2.2a132.673,132.673,0,0,1-24.611,5.424q-3.123.408-6.259.729l-.413.041q-3.137.443-6.294.705-2.04.169-4.089.261c-2,.166-4.013.3-6.024.37-1.915.066-3.83.086-5.746.008a52.359,52.359,0,0,1-5.481-.489q-1.58-.233-3.141-.591v23.614a3.31,3.31,0,0,0,3.4,3.112h91.514q1.222-.784,2.433-1.613a97.061,97.061,0,0,0,16.5-14.361A98.5,98.5,0,0,0,168.175,214a88.216,88.216,0,0,0,8.02-18.64c.845-2.819,1.59-5.826,2.212-8.936a94.1,94.1,0,0,0,1.435-9.842,71.454,71.454,0,0,0,.192-10.083,49,49,0,0,0-1.463-9.679,33.936,33.936,0,0,0-2.833-7.345,27.15,27.15,0,0,0-2.517-3.862q-2.353,5.6-5.256,10.949A135.64,135.64,0,0,1,157.171,173.385Z" transform="translate(-1189 7339.949)" fill="#e4b76b"/>
      <path id="Trazado_1039943" data-name="Trazado 1039943" d="M164.492,193.354a12.344,12.344,0,0,0-5.289,3.431,18.143,18.143,0,0,0-2.046,2.824,25.687,25.687,0,0,0-1.609,3.219,64.671,64.671,0,0,0-3.439,11.837q-.263,1.2-.513,2.408c-.628,2.954-1.272,6-2.184,8.916l-1.654.115-.571.037c-.008,0-.069.011-.065.016s-.053.017-.049.017c-4.771.293-9.739.453-14.543.607h-.11c-1.988.065-3.916.126-5.839.2-2.937.111-5.912.253-9.1.44-2.954.179-5.384.355-7.637.555-8.377.745-19.2,2.224-28.677,7.122a42.71,42.71,0,0,0-7.84,5.2q-1.8,1.058-3.647,2.05-2.078,1.125-4.184,2.2c-.677.35-1.353.7-2.034,1.043L63,245.82c-.444.233-.892.46-1.345.672l-.37.175a15.7,15.7,0,0,0-2.34,1.239,5.054,5.054,0,0,0-1.1.977,3.069,3.069,0,0,0-.656,1.409,2.924,2.924,0,0,0,.945,2.693,5.73,5.73,0,0,0,3.394,1.121l.2,0a32.591,32.591,0,0,0-3.061,4.829,12.493,12.493,0,0,0-.986,2.489,4.814,4.814,0,0,0-.126,2.225,2.558,2.558,0,0,0,1,1.581,1.981,1.981,0,0,0,1.129.321,2.9,2.9,0,0,0,.529-.048,5.278,5.278,0,0,0,1.7-.734,15.539,15.539,0,0,0,1.9-1.422,46.607,46.607,0,0,0,4.335-4.393l.212-.236.208-.241a35.854,35.854,0,0,0-1.34,4.723,13.808,13.808,0,0,0-.379,4.828,3.612,3.612,0,0,0,.721,1.728,2.323,2.323,0,0,0,1.654.8c.062,0,.106.008.151.008a2.9,2.9,0,0,0,2.029-1.043,13.333,13.333,0,0,0,1.894-2.661q.38-.66.73-1.332a3.025,3.025,0,0,0,.093.851,2.294,2.294,0,0,0,1,1.528,1.6,1.6,0,0,0,.566.188.841.841,0,0,0,.175.013,2.3,2.3,0,0,0,.236-.013,1.517,1.517,0,0,0,.457-.1,3.362,3.362,0,0,0,.558-.261,9.59,9.59,0,0,0,2.4-2.3,32.794,32.794,0,0,0,4.466-7.6c1.12-2.5,2.033-5.057,2.942-7.672.371-.106.758-.2,1.145-.3a47.8,47.8,0,0,1,8.394-1.014c1.446-.073,2.884-.105,4.4-.105q1.554,0,3.105.045c6.059.179,12.208.777,18.148,1.36,6.015.586,12.171,1.19,18.255,1.365q1.731.055,3.456.052a77.279,77.279,0,0,0,14.306-1.2,53.322,53.322,0,0,0,8.439-2.29,33.048,33.048,0,0,0,6.706-3.394l.176-.116q.773-.7,1.5-1.457a34.365,34.365,0,0,0,2.616-3.089s0,0,0,.008a33.832,33.832,0,0,0,2.7-4.266,42.22,42.22,0,0,0,2.038-4.413h0s0-.009.005-.015h0a64.393,64.393,0,0,0,3.34-12.641c.407-2.4.729-4.8,1.055-7.212.291-2.147.568-4.295.816-6.445-.332-.784-.7-1.545-1.092-2.274a17.475,17.475,0,0,0-3.933-4.788,22.163,22.163,0,0,0-5.5-3.5A19.8,19.8,0,0,0,169,192.657a14.391,14.391,0,0,0-4.506.7" transform="translate(-1188.326 7341.978)" fill="#c1877b"/>
      <path id="Trazado_1039944" data-name="Trazado 1039944" d="M177.119,229.729h0l0,0s0-.006,0-.01a.008.008,0,0,0,0,.005" transform="translate(-1183.152 7343.576)" fill="#c1877b"/>
      <path id="Trazado_1039945" data-name="Trazado 1039945" d="M163.753,193.339a12.352,12.352,0,0,0-5.3,3.431,18.4,18.4,0,0,0-2.05,2.832,26.261,26.261,0,0,0-1.61,3.219,64.673,64.673,0,0,0-3.439,11.836c-.077.35-.154.7-.232,1.056,1.613,1.235,3.271,2.4,4.991,3.48a50.407,50.407,0,0,0,6.3,3.358s-.008,0-.013-.008a41.488,41.488,0,0,0,4.865,1.789,39.773,39.773,0,0,0,4.963,1.116c-.025,0-.045,0-.069-.008,1.055.164,2.11.286,3.173.363,1.1.073,2.188.106,3.285.1a.262.262,0,0,1,.252.269.255.255,0,0,1-.119.21.3.3,0,0,1,.05.01.261.261,0,0,1,.159.33,29.269,29.269,0,0,1-4.491,9.148,24.23,24.23,0,0,1-3.288,3.585,25.574,25.574,0,0,1-3.928,2.864,29.054,29.054,0,0,1-3.431,1.748c-1.43.611-2.893,1.157-4.376,1.622a52.634,52.634,0,0,1-9.2,1.971,90.592,90.592,0,0,1-18.74.074c-3.142-.265-6.28-.615-9.417-.983q-2.37-.275-4.742-.554c-1.7-.2-3.4-.408-5.1-.6-3.407-.384-6.825-.709-10.256-.758-.889-.012-1.776-.017-2.661.012q-.947.023-1.887.041c-1.356.017-2.709.037-4.066.118a0,0,0,0,0,0,0,.025.025,0,0,1-.017,0h-.045a21.279,21.279,0,0,0-5.28.917l.065-.024a9.9,9.9,0,0,0-2.148,1.016,0,0,0,0,1,0,0l0,0s0,0,0,0a6.345,6.345,0,0,0-.8.636c-.2.183-.387.379-.571.582a.019.019,0,0,0,.005-.008l-.01.015.005-.006a.144.144,0,0,1-.024.028h0s0,.007-.008.007l0,0h0l0,0s0,0,0,0a10.431,10.431,0,0,0-.816,1.12c-.228.371-.432.746-.628,1.133-.37.754-.688,1.532-.986,2.315s-.575,1.569-.88,2.343c-.644,1.618-1.234,3.26-1.907,4.865a27.372,27.372,0,0,1-2.33,4.564,16.136,16.136,0,0,1-1.581,2.033,11.391,11.391,0,0,1-.9.9c-.127.116-.257.226-.387.336a1.286,1.286,0,0,0,.228.145,1.641,1.641,0,0,0,.57.2.891.891,0,0,0,.179.013,2.3,2.3,0,0,0,.237-.013,1.49,1.49,0,0,0,.444-.1,3.387,3.387,0,0,0,.578-.269,9.489,9.489,0,0,0,2.409-2.3,32.666,32.666,0,0,0,4.466-7.612c1.137-2.538,2.078-5.182,2.943-7.672.358-.094.741-.192,1.129-.289a47.5,47.5,0,0,1,8.393-1.011c1.365-.073,2.8-.105,4.4-.105q1.552,0,3.105.045c6.161.179,12.257.777,18.144,1.36l.277.024c5.908.575,12.02,1.166,17.981,1.341q1.731.055,3.456.052a77.567,77.567,0,0,0,14.306-1.2,53.179,53.179,0,0,0,8.446-2.3,32.818,32.818,0,0,0,6.707-3.394l.09-.056.09-.057c.517-.468,1.015-.958,1.5-1.458a35.112,35.112,0,0,0,2.616-3.089,34.441,34.441,0,0,0,2.7-4.266,42.672,42.672,0,0,0,2.037-4.413,64.243,64.243,0,0,0,3.349-12.663c.4-2.319.721-4.747,1.011-6.891l.045-.321c.289-2.148.566-4.295.815-6.446-.338-.8-.705-1.565-1.1-2.281a17.4,17.4,0,0,0-3.936-4.8,22.166,22.166,0,0,0-5.51-3.5,19.735,19.735,0,0,0-7.982-1.817,14.283,14.283,0,0,0-4.515.705" transform="translate(-1187.593 7341.977)" fill="#b67f74"/>
      <path id="Trazado_1039946" data-name="Trazado 1039946" d="M84.126,245.876l.008-.008h0l-.008.008" transform="translate(-1187.162 7344.272)" fill="#b67f74"/>
      <path id="Trazado_1039947" data-name="Trazado 1039947" d="M76.192,254.69c-.318.546-.611,1.108-.885,1.678-.281.591-.526,1.2-.757,1.81a34.41,34.41,0,0,0-1.21,3.985.26.26,0,0,0,.5.126,35.816,35.816,0,0,1,1.413-4.515c-.007.021-.016.045-.024.066.192-.469.391-.929.607-1.386.244-.513.517-1.014.8-1.507a.265.265,0,0,0-.1-.359.255.255,0,0,0-.124-.031.262.262,0,0,0-.231.134" transform="translate(-1187.627 7344.647)" fill="#9e6e64"/>
      <path id="Trazado_1039948" data-name="Trazado 1039948" d="M70.928,251.658a29.065,29.065,0,0,0-2.783,3.805.262.262,0,0,0,.457.258q.732-1.192,1.568-2.31c-.016.02-.028.036-.045.056q.563-.738,1.174-1.442a.267.267,0,0,0,0-.371.277.277,0,0,0-.191-.074.229.229,0,0,0-.179.078" transform="translate(-1187.852 7344.519)" fill="#9e6e64"/>
      <path id="Trazado_1039949" data-name="Trazado 1039949" d="M69.722,243.323c-.669.6-1.336,1.206-1.988,1.821q-1.051.984-2.066,2.012c-1.312,1.321-2.571,2.686-3.809,4.075a.278.278,0,0,0-.09.178.255.255,0,0,0,.062.188.263.263,0,0,0,.183.09.244.244,0,0,0,.188-.062q1.853-2.078,3.858-4.017c1.333-1.291,2.714-2.538,4.161-3.7a.383.383,0,0,0-.252-.674.367.367,0,0,0-.245.091" transform="translate(-1188.126 7344.159)" fill="#9e6e64"/>
      <path id="Trazado_1039950" data-name="Trazado 1039950" d="M166.336,143.161a.778.778,0,0,0-.739.463c-2.449,6.074-5.08,12.511-7.82,19.135q-1.973,4.772-3.981,9.538l-.363.855c-.529,1.256-1.055,2.507-1.569,3.77-.614,1.511-1.21,3.027-1.8,4.547q-.965,2.494-1.911,4.991l-.192.51-.038.1c-2.234,5.9-4.767,12.577-7.728,18.731a.809.809,0,0,0,.063.8.858.858,0,0,0,.089.163,27.37,27.37,0,0,0,5.307,5.65,45.688,45.688,0,0,0,6.729,4.5,71.553,71.553,0,0,0,7.14,3.476,58.843,58.843,0,0,0,8.021,2.8,43.131,43.131,0,0,0,11.025,1.549l.37,0a26.623,26.623,0,0,0,5.634-.6,22.985,22.985,0,0,0,5.356-2.038,1.184,1.184,0,0,0,.193-.127l.053-.2.187-.537.041-.13a104.136,104.136,0,0,0,2.038-19.541c.053-3.142-.014-6.479-.2-9.919-.155-2.813-.446-5.677-.864-8.509a75.038,75.038,0,0,0-4.462-16.969,52.915,52.915,0,0,0-3.823-7.707c-.619-1.034-1.3-2.04-1.948-2.983s-1.33-1.885-2.124-2.922a37.478,37.478,0,0,0-5.612-5.988,14.228,14.228,0,0,0-6.777-3.389c-.042,0-.082-.007-.124-.007a.97.97,0,0,0-.171-.017" transform="translate(-1184.748 7339.843)" fill="#fc7"/>
      <path id="Trazado_1039951" data-name="Trazado 1039951" d="M143.8,195.083c.212.257.424.513.644.766a.577.577,0,0,1-.041-.052,45.3,45.3,0,0,0,4.295,4.359,46.5,46.5,0,0,0,4.687,3.639,44.8,44.8,0,0,0,5.329,3.1,45.818,45.818,0,0,0,5.607,2.331H164.3a44.231,44.231,0,0,0,5.656,1.507,43.457,43.457,0,0,0,5.656.737H175.6a.053.053,0,0,1,.025,0h.032a41.838,41.838,0,0,0,5.579-.029c1-.073,1.992-.183,2.982-.317,1.015-.139,2.025-.3,3.023-.493h-.011a32.176,32.176,0,0,0,3.382-.847c.374-.119.746-.249,1.116-.384q.152-1.479.264-3-.3.108-.6.213c-1.141.4-2.29.8-3.456,1.126a34.488,34.488,0,0,1-6.356,1.129,39.974,39.974,0,0,1-11.935-.827,44.661,44.661,0,0,1-14.4-6.023,45.454,45.454,0,0,1-6.185-4.755,44.508,44.508,0,0,1-4.322-4.559q-.468,1.181-.951,2.367" transform="translate(-1184.589 7341.98)" fill="#fefefe"/>
      <path id="Trazado_1039952" data-name="Trazado 1039952" d="M174.319,210.705l-.008,0H174.3a.151.151,0,0,0,.023,0" transform="translate(-1183.274 7342.756)" fill="#fefefe"/>
      <path id="Trazado_1039953" data-name="Trazado 1039953" d="M141.319,200.855c.143.175.289.346.436.513a.134.134,0,0,1-.028-.024,47.859,47.859,0,0,0,9.343,8.215s0,0-.008,0a56.438,56.438,0,0,0,13.349,6.678h0l.007,0s0,0,0,0,.008,0,.011,0h0a47.075,47.075,0,0,0,12,2.469,36.986,36.986,0,0,0,4.511.012,33.027,33.027,0,0,0,4.323-.554l-.069.011a27.727,27.727,0,0,0,3.382-.892c.761-.252,1.511-.542,2.249-.864q.232-1.281.428-2.587a30.543,30.543,0,0,1-3.059,1.014c-1.214.334-2.445.611-3.684.827-1.181.2-2.371.367-3.565.46a39.554,39.554,0,0,1-13.247-1.247,47.789,47.789,0,0,1-14.559-6.74,50.739,50.739,0,0,1-10.709-9.785q-.541,1.252-1.1,2.491" transform="translate(-1184.696 7342.224)" fill="#fefefe"/>
      <path id="Trazado_1039954" data-name="Trazado 1039954" d="M163.463,215.5h0" transform="translate(-1183.741 7342.963)" fill="#fefefe"/>
      <path id="Trazado_1039955" data-name="Trazado 1039955" d="M170.759,148.222a61.6,61.6,0,0,1,6.1,13.516,72.785,72.785,0,0,1,2.97,14.693,89.686,89.686,0,0,1,.184,15.166,107.016,107.016,0,0,1-2.208,15.178q-.48,2.178-1.038,4.344l.275,0h.286c1.088,0,2.172-.041,3.223-.13a34.192,34.192,0,0,0,6.356-1.129c1.174-.331,2.355-.737,3.456-1.124l.3-.106.289-.126c.177-2.234.282-4.573.322-6.964.053-3.138-.013-6.475-.2-9.918-.16-2.844-.453-5.708-.864-8.508a75.013,75.013,0,0,0-4.467-16.979,52.749,52.749,0,0,0-3.822-7.706c-.639-1.063-1.345-2.106-1.952-2.982-.627-.921-1.321-1.883-2.123-2.93a37.8,37.8,0,0,0-5.615-5.99,16.7,16.7,0,0,0-4.47-2.755q1.6,2.151,3,4.446" transform="translate(-1183.555 7339.87)" fill="#f5c472"/>
      <path id="Trazado_1039956" data-name="Trazado 1039956" d="M190.277,208.786l-.257.081-.122.037-.6.2a32.134,32.134,0,0,1-3.387.851c-.9.179-1.886.338-3.01.493-1.088.146-2.062.248-2.983.318-1,.069-1.992.11-2.946.11-.35,0-.705-.008-1.08-.041-.032,0-.062,0-.094,0q-.7,2.472-1.505,4.907c.756.044,1.508.069,2.259.069.945,0,1.943-.038,2.962-.115,1.1-.086,2.269-.236,3.565-.46,1.266-.22,2.51-.5,3.683-.827a25.542,25.542,0,0,0,3.044-1.027l.007-.005c.241-1.518.439-3.07.6-4.627Z" transform="translate(-1183.274 7342.671)" fill="#f5c472"/>
      <path id="Trazado_1039957" data-name="Trazado 1039957" d="M189.329,215.759l-.114.049c-.429.167-.816.314-1.174.449-.282.1-.551.2-.8.276-.53.175-1.067.338-1.61.481-.582.155-1.174.3-1.768.416a32.656,32.656,0,0,1-4.262.541q-1.064.067-2.127.066c-.791,0-1.594-.029-2.379-.078-.467-.029-.934-.071-1.42-.141l-.1-.009c-.42,1.174-.852,2.343-1.308,3.508a38.036,38.036,0,0,0,4.917.331l.371,0a26.376,26.376,0,0,0,5.635-.611,22.621,22.621,0,0,0,5.363-2.037,1.919,1.919,0,0,0,.2-.127l.053-.208.188-.533.041-.13c.163-.768.309-1.53.446-2.3Z" transform="translate(-1183.361 7342.971)" fill="#f5c472"/>
      <path id="Trazado_1039958" data-name="Trazado 1039958" d="M166.378,30.91c-.5,0-1,.017-1.5.041a25.965,25.965,0,0,0-13.933,5.083,27.126,27.126,0,0,0-3.351,2.992,28.6,28.6,0,0,0-3.049,3.889,24.411,24.411,0,0,0-4.015,9.779.865.865,0,0,0,.275.768,49.249,49.249,0,0,0-1.82,8.214c-.147,1.082-.256,2.128-.33,3.2-.2,2.864-.266,5.788-.2,8.692.049,1.866.154,3.57.322,5.208a32.267,32.267,0,0,0,.795,4.679,12.239,12.239,0,0,0,1.46,3.682,4.616,4.616,0,0,0,2.507,2.1,3.7,3.7,0,0,0,1.046.151,4.172,4.172,0,0,0,.682-.057,4.886,4.886,0,0,0,.906-.252,3.962,3.962,0,0,0,.952-.539,6.607,6.607,0,0,0,1.563-1.658,14.358,14.358,0,0,0,1.322-2.348A34.422,34.422,0,0,0,152,78.882c.546-1.97.964-3.939,1.3-5.6.095-.477.183-.953.27-1.429l.089-.479a13.985,13.985,0,0,0,4.18,1.329,22.052,22.052,0,0,0,3.776.318c.611,0,1.223-.025,1.83-.07a21.6,21.6,0,0,0,5.606-1.145,16.348,16.348,0,0,0,2.54-1.142,12.613,12.613,0,0,0,2.185-1.541,9.59,9.59,0,0,0,2.158-2.721,7.956,7.956,0,0,0,.412-.905,2.147,2.147,0,0,0,.246.515,14.248,14.248,0,0,0,1.619,2.14,17.985,17.985,0,0,0,4.3,3.4,25.6,25.6,0,0,0,5.376,2.327,31.778,31.778,0,0,0,5.895,1.252,35.249,35.249,0,0,0,4.067.244,30.471,30.471,0,0,0,5.662-.522,22.98,22.98,0,0,0,4.346-1.248,16.511,16.511,0,0,0,2.323-1.158.668.668,0,0,0-.019.327,7.085,7.085,0,0,0,.376,1.6,7.7,7.7,0,0,0,1.554,2.584,12.816,12.816,0,0,0,5.305,3.434,16.669,16.669,0,0,0,3.057.795,14,14,0,0,0,2.215.159c.31,0,.615,0,.921-.02a22.77,22.77,0,0,0,7.073-1.476,23.5,23.5,0,0,0,10.721-8.414,28.491,28.491,0,0,0,5.022-13,20.737,20.737,0,0,0-.22-6.087,19.964,19.964,0,0,0-.763-2.8,18.456,18.456,0,0,0-1.154-2.581,19.9,19.9,0,0,0-7.509-7.721,21.873,21.873,0,0,0-5.018-2.166,22.468,22.468,0,0,0-5.454-.868c-.237-.008-.473-.013-.709-.013a22.635,22.635,0,0,0-4.859.563,21.207,21.207,0,0,0-9.186,4.8,5.713,5.713,0,0,0-.366-1.291,11.183,11.183,0,0,0-1.329-2.447,12.811,12.811,0,0,0-4.083-3.629,16.387,16.387,0,0,0-5.239-1.888,18.914,18.914,0,0,0-3.47-.318,21.364,21.364,0,0,0-2.218.122,17.6,17.6,0,0,0-4.79,1.232,15.129,15.129,0,0,0-2.182,1.129,12.4,12.4,0,0,0-1.223.869,3.583,3.583,0,0,0-1.1-1.089,6.225,6.225,0,0,0-2.2-.873c-.38-.073-.754-.118-1.13-.159a5.7,5.7,0,0,0-.6-.037,1.416,1.416,0,0,0-.653.217,3.274,3.274,0,0,0-.918.82c-.144.168-.25.287-.364.4l-.161-.051a8.9,8.9,0,0,1-1.618-.876,9.769,9.769,0,0,0-1.6-.892,28.658,28.658,0,0,0-3.795-1.186,26.336,26.336,0,0,0-6.111-.714" transform="translate(-1184.82 7335.003)" fill="#4b4843"/>
      <path id="Trazado_1039959" data-name="Trazado 1039959" d="M164.845,30.926A26,26,0,0,0,150.9,36.019a27.129,27.129,0,0,0-3.354,2.991,28.871,28.871,0,0,0-3.048,3.9,24.454,24.454,0,0,0-4.021,9.788.886.886,0,0,0,.281.782,44.4,44.4,0,0,0-1.52,6.27c.057-.048.115-.1.171-.146a16.118,16.118,0,0,0,1.34-1.316l-.024.025a50.131,50.131,0,0,0,5.363-8.052,33.813,33.813,0,0,1,2.831-4.185,26.132,26.132,0,0,1,3.631-3.63,25.184,25.184,0,0,1,5.932-3.651,19.778,19.778,0,0,1,6.508-1.646,15.964,15.964,0,0,1,3.243.1,14.085,14.085,0,0,1,6.137,2.385,16.539,16.539,0,0,1,2.542,2.2,9.322,9.322,0,0,1,1.427-1.227,7.837,7.837,0,0,1,1.561-.86,5.918,5.918,0,0,1,1.565-.4,5.236,5.236,0,0,1,1.516.041,5.445,5.445,0,0,1,1.434.477,6.662,6.662,0,0,1,.7.412,7.671,7.671,0,0,1,.607.481,8.273,8.273,0,0,1,1.894,2.6,25.414,25.414,0,0,1,1.817-2.09,29.142,29.142,0,0,1,2.531-2.326A27.82,27.82,0,0,1,194.81,36.9a23.664,23.664,0,0,1,3.17-1.679,17.984,17.984,0,0,1,3.39-1.1,13.921,13.921,0,0,1,2.942-.335c.114,0,.228,0,.346.008s.253.01.381.019a17.089,17.089,0,0,0-4.557-1.522,19.671,19.671,0,0,0-3.472-.318c-.644,0-1.37.041-2.217.122a17.677,17.677,0,0,0-4.8,1.243,13.962,13.962,0,0,0-2.179,1.129,11.114,11.114,0,0,0-1.235.868,3.054,3.054,0,0,0-1.075-1.088,6.256,6.256,0,0,0-2.205-.885c-.387-.073-.761-.118-1.136-.159a5.706,5.706,0,0,0-.6-.037,1.342,1.342,0,0,0-.66.227,3.229,3.229,0,0,0-.916.807c-.155.179-.261.3-.376.415l-.135-.049a9.346,9.346,0,0,1-1.61-.872,9.114,9.114,0,0,0-1.614-.9,27.055,27.055,0,0,0-3.793-1.186,26.135,26.135,0,0,0-6.121-.725c-.5,0-1,.017-1.5.041" transform="translate(-1184.786 7335.002)" fill="#45423d"/>
      <path id="Trazado_1039960" data-name="Trazado 1039960" d="M178.316,33.536a4.626,4.626,0,0,0-1.178.917,4.883,4.883,0,0,0-.889,1.365.786.786,0,0,0,.477,1,.773.773,0,0,0,.607-.032.83.83,0,0,0,.391-.44c.02-.046.041-.09.06-.132a4.256,4.256,0,0,1,.438-.643,4.359,4.359,0,0,1,.578-.5,4.565,4.565,0,0,1,.853-.42,5.162,5.162,0,0,1,1.062-.211,5.249,5.249,0,0,1,1.15.087,4.889,4.889,0,0,1,.9.317,4.369,4.369,0,0,1,.718.488,2.985,2.985,0,0,1,.841,1.279.786.786,0,0,0,1.443-.081.85.85,0,0,0-.037-.608,4.655,4.655,0,0,0-1.854-2.241,5.449,5.449,0,0,0-2.759-.806l-.141,0a5.586,5.586,0,0,0-2.662.67m4.524,1.336.051.025-.051-.025" transform="translate(-1183.192 7335.087)" fill="#45423d"/>
      <path id="Trazado_1039961" data-name="Trazado 1039961" d="M173.685,32.471a.77.77,0,0,0-.391.44.787.787,0,0,0,.473,1,11.347,11.347,0,0,1,2.217.836A14.68,14.68,0,0,1,177.67,35.8a.783.783,0,0,0,.885-1.292,12.889,12.889,0,0,0-4.262-2.07,1.1,1.1,0,0,0-.285-.043.711.711,0,0,0-.322.075m2.119,2.185c.06.03.12.063.178.094-.061-.033-.121-.063-.178-.094" transform="translate(-1183.319 7335.067)" fill="#45423d"/>
      <path id="Trazado_1039962" data-name="Trazado 1039962" d="M169.845,32.387a.792.792,0,0,0,.721.84,14.886,14.886,0,0,1,1.593.238,18.968,18.968,0,0,1,4.235,1.562q.405.213.8.433a.829.829,0,0,0,.595.123.776.776,0,0,0,.493-.322.787.787,0,0,0-.2-1.088,18.723,18.723,0,0,0-7.4-2.506c-.023,0-.046,0-.068,0a.789.789,0,0,0-.768.724" transform="translate(-1183.466 7335.036)" fill="#45423d"/>
      <path id="Trazado_1039963" data-name="Trazado 1039963" d="M168.259,32.188a.788.788,0,0,0,.721.84,17.292,17.292,0,0,1,2.413.321l-.04-.009a25.65,25.65,0,0,1,5.7,2.051.769.769,0,0,0,.607-.032.8.8,0,0,0,.4-.444.778.778,0,0,0-.038-.6.851.851,0,0,0-.439-.4,22.656,22.656,0,0,0-8.488-2.448h-.046a.787.787,0,0,0-.79.722" transform="translate(-1183.534 7335.027)" fill="#45423d"/>
      <path id="Trazado_1039964" data-name="Trazado 1039964" d="M239.852,52.152a.265.265,0,0,0-.22.3,12.472,12.472,0,0,1,.277,2.458v-.07a15.31,15.31,0,0,1-.473,3.745c0-.024.011-.053.016-.077a20.293,20.293,0,0,1-2,4.889c.017-.032.037-.065.053-.1a21.864,21.864,0,0,1-3.459,4.542,23.958,23.958,0,0,1-4.71,3.63,19.546,19.546,0,0,1-4.225,1.818,15.014,15.014,0,0,1-3.43.506,10.762,10.762,0,0,1-5.44-1.35,11.831,11.831,0,0,1-1.681-1.119,1.1,1.1,0,0,0-1.321,1.756c.391.314.775.628,1.19.913a14.48,14.48,0,0,0,1.5.869,12.053,12.053,0,0,0,5.778,1.226,12.371,12.371,0,0,0,2.738-.379,16.321,16.321,0,0,0,2.836-.982,19.357,19.357,0,0,0,2.669-1.5,23.042,23.042,0,0,0,4.551-4.083,26.649,26.649,0,0,0,2.811-3.871,23.95,23.95,0,0,0,2.086-4.311,15.683,15.683,0,0,0,.75-8.589.274.274,0,0,0-.261-.226.219.219,0,0,0-.037,0" transform="translate(-1181.613 7335.919)" fill="#45423d"/>
      <path id="Trazado_1039965" data-name="Trazado 1039965" d="M232.382,60.944a10.891,10.891,0,0,1-.586,1.28l.024-.042c-.007.015-.017.03-.025.045s-.007.014-.011.021l.009-.018a12.4,12.4,0,0,1-1.878,2.468,16.486,16.486,0,0,1-3.182,2.466l.022-.01-.041.023c-.019.01-.038.023-.057.033.014-.007.026-.016.039-.024a19.348,19.348,0,0,1-1.774.9.523.523,0,0,0,.013.97.476.476,0,0,0,.4,0,23.468,23.468,0,0,0,2.266-1.406,17.728,17.728,0,0,0,2.232-1.854,13.64,13.64,0,0,0,1.793-2.172,11.969,11.969,0,0,0,1.247-2.482.263.263,0,0,0-.146-.338.253.253,0,0,0-.095-.019.26.26,0,0,0-.244.166M226.7,67.186l.019-.009.019-.013-.038.022m5.1-4.956s0,0,0,0v0l0,.006" transform="translate(-1181.104 7336.291)" fill="#45423d"/>
      <path id="Trazado_1039966" data-name="Trazado 1039966" d="M214.322,54.233a15.438,15.438,0,0,1-.42,2.575c.008-.025.012-.049.021-.074a15.62,15.62,0,0,1-1.475,3.645,16.025,16.025,0,0,1-2.483,3.275,18.26,18.26,0,0,1-3.572,2.7l.06-.037a22.335,22.335,0,0,1-10.876,2.958h.252a20.848,20.848,0,0,1-5.116-.581,18.746,18.746,0,0,1-4.453-1.762,18.071,18.071,0,0,1-3.018-2.217,1.092,1.092,0,0,0-.848-.22,1.145,1.145,0,0,0-.974,1.291c.029.094.053.188.078.282a1.194,1.194,0,0,0,.366.473c5.79,5.464,14.905,5.9,21.931,2.758a20.574,20.574,0,0,0,4.2-2.546,19.761,19.761,0,0,0,3.382-3.394,16.071,16.071,0,0,0,3.464-9.067.262.262,0,0,0-.228-.289l-.028,0a.262.262,0,0,0-.261.231M186.406,67.017l.073.043Zm14.681,1.51-.069.02.069-.02" transform="translate(-1182.967 7335.999)" fill="#45423d"/>
      <path id="Trazado_1039967" data-name="Trazado 1039967" d="M149.445,68.28a.258.258,0,0,0-.22.293c.056.541.094,1.088.1,1.634,0-.024,0-.053,0-.077a25.353,25.353,0,0,1-.187,3.1,23.393,23.393,0,0,1-.606,3.183,26.963,26.963,0,0,1-.894,2.713,19.745,19.745,0,0,1-1.212,2.541,14.423,14.423,0,0,1-1.253,1.815.691.691,0,0,0,.122.962.7.7,0,0,0,.962-.122,13.235,13.235,0,0,0,2-3.456,21.549,21.549,0,0,0,1.174-4.14,27.6,27.6,0,0,0,.306-8.223.257.257,0,0,0-.257-.222.209.209,0,0,0-.037,0m-3.037,13.409a0,0,0,0,1,0,0,0,0,0,0,0,0,0" transform="translate(-1184.536 7336.614)" fill="#45423d"/>
      <path id="Trazado_1039968" data-name="Trazado 1039968" d="M146.392,74.822a12.316,12.316,0,0,1-.317,1.966,13.96,13.96,0,0,1-1.267,3.148l.006-.009c-.1.17-.208.338-.316.5a.649.649,0,0,0-.122.465.633.633,0,0,0,.236.4.606.606,0,0,0,.465.122.629.629,0,0,0,.48-.374,15.216,15.216,0,0,0,1.692-6.112.433.433,0,0,0-.371-.481.354.354,0,0,0-.057,0,.429.429,0,0,0-.428.374M146.1,76.7c0,.013-.006.025-.01.038,0-.013.007-.025.01-.038" transform="translate(-1184.564 7336.88)" fill="#45423d"/>
      <path id="Trazado_1039969" data-name="Trazado 1039969" d="M171.769,106.165a.5.5,0,0,0-.18.078.9.9,0,0,0-.267.112.47.47,0,0,0-.2.366,3.813,3.813,0,0,0,1.062,2.811,11.417,11.417,0,0,0,2.588,2.381,7.017,7.017,0,0,0,.977.531,12.271,12.271,0,0,0,1.3.509,10.841,10.841,0,0,0,1.316.348,3.69,3.69,0,0,0,1.227.062c.048-.006.1-.016.142-.026a1.229,1.229,0,0,0,.679-.4,1.055,1.055,0,0,0,.1-1.024,3.348,3.348,0,0,0-.282-.614,7.775,7.775,0,0,0-.416-.663,10.01,10.01,0,0,0-1.158-1.4,11.045,11.045,0,0,0-2.969-2.146,8.714,8.714,0,0,0-3.653-.95,1.191,1.191,0,0,0-.271.022" transform="translate(-1183.412 7338.247)" fill="#f9a19d"/>
      <path id="Trazado_1039970" data-name="Trazado 1039970" d="M170.5,104.384a8.458,8.458,0,0,0,.176,3.327,7.481,7.481,0,0,0,1.635,3.081,9.241,9.241,0,0,0,3.4,2.422,10.529,10.529,0,0,0,4.067.864,8.635,8.635,0,0,0,2.014-.22,7.762,7.762,0,0,0,1.751-.624,6.3,6.3,0,0,0,2.529-2.252,6.914,6.914,0,0,0,.753-1.8,8.656,8.656,0,0,0,.3-2.083.268.268,0,0,0,0-.041h-.018a20.554,20.554,0,0,1-2.263-.215,29.179,29.179,0,0,1-5.046-1.271,35.211,35.211,0,0,1-4.931-2.11,27.947,27.947,0,0,1-3.341-2.048,8.746,8.746,0,0,0-1.026,2.967m9.268,8.6a9.922,9.922,0,0,1-1.885-.185,11.2,11.2,0,0,1-1.756-.557,9.956,9.956,0,0,1-1.667-.952,8.136,8.136,0,0,1-1.142-1.05,7.719,7.719,0,0,1-.878-1.287,7.614,7.614,0,0,1-.616-1.8c-.017-.091-.031-.187-.044-.279a11.921,11.921,0,0,1,1.331.145,9.813,9.813,0,0,1,1.722.529,11.232,11.232,0,0,1,1.684.935,12.127,12.127,0,0,1,1.841,1.607,12.931,12.931,0,0,1,1.65,2.314q.142.272.271.548c-.171.011-.338.023-.511.031" transform="translate(-1183.441 7338.043)" fill="#4b4843"/>
      <path id="Trazado_1039971" data-name="Trazado 1039971" d="M185.816,106.286l-.026,0-.055,0,.081.006" transform="translate(-1182.78 7338.253)" fill="#4b4843"/>
      <path id="Trazado_1039972" data-name="Trazado 1039972" d="M167.681,95.234c1.645.325,3.423-1.645,3.969-4.4s-.346-5.253-1.991-5.58-3.425,1.645-3.97,4.4.347,5.254,1.992,5.58" transform="translate(-1183.652 7337.345)" fill="#4b4843"/>
      <path id="Trazado_1039973" data-name="Trazado 1039973" d="M196.751,100.392c1.645.325,3.424-1.645,3.97-4.4s-.347-5.253-1.992-5.58-3.424,1.645-3.97,4.4.347,5.254,1.992,5.58" transform="translate(-1182.398 7337.568)" fill="#4b4843"/>
      <path id="Trazado_1039974" data-name="Trazado 1039974" d="M172.063,70.719h-.1c-3.608.024-6.533,1.548-6.522,3.4.012,1.821,2.914,3.3,6.469,3.3a10.692,10.692,0,0,0,4.7-1.012c1.243-.64,1.925-1.486,1.919-2.384-.012-1.822-2.914-3.3-6.469-3.3" transform="translate(-1183.656 7336.72)" fill="#45423d"/>
      <path id="Trazado_1039975" data-name="Trazado 1039975" d="M200.623,74.643c-1.9,0-3.232.621-3.555,1.662a2.7,2.7,0,0,0,1.038,2.631,9.623,9.623,0,0,0,3.814,2.142,10.757,10.757,0,0,0,3.153.514c1.9,0,3.236-.622,3.559-1.663.51-1.63-1.667-3.772-4.857-4.771a10.711,10.711,0,0,0-3.152-.514" transform="translate(-1182.295 7336.889)" fill="#45423d"/>
      <path id="Trazado_1039976" data-name="Trazado 1039976" d="M72.807,131.629c0-.007,0-.011.008-.016s.006-.032.007-.046C72.818,131.588,72.811,131.608,72.807,131.629Z" transform="translate(-1187.65 7339.344)" fill="#b67f74"/>
    </g>
  </g>
</svg>
