<svg xmlns="http://www.w3.org/2000/svg" xmlns:xlink="http://www.w3.org/1999/xlink" width="108" height="108" viewBox="0 0 108 108">
  <defs>
    <filter id="Trazado_978624" x="0" y="0" width="108" height="108" filterUnits="userSpaceOnUse">
      <feOffset dy="3" input="SourceAlpha"/>
      <feGaussianBlur stdDeviation="3" result="blur"/>
      <feFlood flood-opacity="0.161"/>
      <feComposite operator="in" in2="blur"/>
      <feComposite in="SourceGraphic"/>
    </filter>
  </defs>
  <g id="Grupo_1179102" data-name="Grupo 1179102" transform="translate(-616 -1252)">
    <g id="Grupo_1172348" data-name="Grupo 1172348" transform="translate(0 806.5)">
      <g id="Grupo_1171897" data-name="Grupo 1171897" transform="translate(625 451.5)">
        <g id="Grupo_1171052" data-name="Grupo 1171052" transform="translate(0)">
          <g id="Grupo_1164581" data-name="Grupo 1164581">
            <g id="Grupo_1144123" data-name="Grupo 1144123">
              <g transform="matrix(1, 0, 0, 1, -9, -6)" filter="url(#Trazado_978624)">
                <g id="Trazado_978624-2" data-name="Trazado 978624" transform="translate(9 6)" fill="#effbfe">
                  <path d="M 45 88.5 C 39.12687683105469 88.5 33.43022537231445 87.35007476806641 28.06830024719238 85.08217620849609 C 22.88852500915527 82.89131164550781 18.23629951477051 79.75458526611328 14.2408504486084 75.75914764404297 C 10.24541282653809 71.76370239257812 7.108687400817871 67.11147308349609 4.917825222015381 61.93170166015625 C 2.649924993515015 56.56977462768555 1.5 50.87312316894531 1.5 45 C 1.5 39.12687683105469 2.649924993515015 33.43022537231445 4.917825222015381 28.06830024719238 C 7.108687400817871 22.88852500915527 10.24541282653809 18.23629951477051 14.2408504486084 14.2408504486084 C 18.23629951477051 10.24541282653809 22.88852500915527 7.108687400817871 28.06830024719238 4.917825222015381 C 33.43022537231445 2.649924993515015 39.12687683105469 1.5 45 1.5 C 50.87312316894531 1.5 56.56977462768555 2.649924993515015 61.93170166015625 4.917825222015381 C 67.11147308349609 7.108687400817871 71.76370239257812 10.24541282653809 75.75914764404297 14.2408504486084 C 79.75458526611328 18.23629951477051 82.89131164550781 22.88852500915527 85.08217620849609 28.06830024719238 C 87.35007476806641 33.43022537231445 88.5 39.12687683105469 88.5 45 C 88.5 50.87312316894531 87.35007476806641 56.56977462768555 85.08217620849609 61.93170166015625 C 82.89131164550781 67.11147308349609 79.75458526611328 71.76370239257812 75.75914764404297 75.75914764404297 C 71.76370239257812 79.75458526611328 67.11147308349609 82.89131164550781 61.93170166015625 85.08217620849609 C 56.56977462768555 87.35007476806641 50.87312316894531 88.5 45 88.5 Z" stroke="none"/>
                  <path d="M 45 3 C 39.32871246337891 3 33.82865524291992 4.110054016113281 28.65262985229492 6.299339294433594 C 23.65165710449219 8.414573669433594 19.15968322753906 11.44334411621094 15.301513671875 15.301513671875 C 11.44334411621094 19.15968322753906 8.414573669433594 23.65165710449219 6.299339294433594 28.65262985229492 C 4.110054016113281 33.82865524291992 3 39.32871246337891 3 45 C 3 50.67128753662109 4.110054016113281 56.17134475708008 6.299339294433594 61.34737396240234 C 8.414573669433594 66.34834289550781 11.44334411621094 70.84031677246094 15.301513671875 74.698486328125 C 19.15968322753906 78.55665588378906 23.65165710449219 81.58542633056641 28.65262985229492 83.70066070556641 C 33.82865524291992 85.88994598388672 39.32871246337891 87 45 87 C 50.67128753662109 87 56.17134475708008 85.88994598388672 61.34737396240234 83.70066070556641 C 66.34834289550781 81.58542633056641 70.84031677246094 78.55665588378906 74.698486328125 74.698486328125 C 78.55665588378906 70.84031677246094 81.58542633056641 66.34834289550781 83.70066070556641 61.34737396240234 C 85.88994598388672 56.17134475708008 87 50.67128753662109 87 45 C 87 39.32871246337891 85.88994598388672 33.82865524291992 83.70066070556641 28.65262985229492 C 81.58542633056641 23.65165710449219 78.55665588378906 19.15968322753906 74.698486328125 15.301513671875 C 70.84031677246094 11.44334411621094 66.34834289550781 8.414573669433594 61.34737396240234 6.299339294433594 C 56.17134475708008 4.110054016113281 50.67128753662109 3 45 3 M 45 0 C 69.85281372070312 0 90 20.14718627929688 90 45 C 90 69.85281372070312 69.85281372070312 90 45 90 C 20.14718627929688 90 0 69.85281372070312 0 45 C 0 20.14718627929688 20.14718627929688 0 45 0 Z" stroke="none" fill="#397b86"/>
                </g>
              </g>
            </g>
          </g>
        </g>
      </g>
    </g>
    <g id="Playground" transform="translate(634.999 1249.384)">
      <path id="Trazado_1038550" data-name="Trazado 1038550" d="M118.5,311.288v19.526h-4.7a.948.948,0,0,1-.948-.948v-5.342a4.72,4.72,0,0,0-4.137-4.763,4.588,4.588,0,0,0-5.038,4.566v5.539a.948.948,0,0,1-.948.948h-4.7V311.288Z" transform="translate(-81.197 -251.201)" fill="#118ab2"/>
      <path id="Trazado_1038551" data-name="Trazado 1038551" d="M248.015,311.327h2.845v19.525h-2.845Z" transform="translate(-213.559 -251.235)" fill="#0c7591"/>
      <path id="Trazado_1038552" data-name="Trazado 1038552" d="M98.044,107.12h4.19v10.215h-4.19Z" transform="translate(-81.221 -71.038)" fill="#ffd166"/>
      <path id="Trazado_1038553" data-name="Trazado 1038553" d="M236.562,107.12h4.19v10.215h-4.19Z" transform="translate(-203.452 -71.038)" fill="#ffd166"/>
      <path id="Trazado_1038554" data-name="Trazado 1038554" d="M248.015,107.116h2.845v10.213h-2.845Z" transform="translate(-213.559 -71.035)" fill="#f9bd46"/>
      <path id="Trazado_1038555" data-name="Trazado 1038555" d="M98.044,178.788v17.473h20.473V178.788Zm10.237,13.835a5.1,5.1,0,1,1,5.1-5.1,5.1,5.1,0,0,1-5.1,5.1Z" transform="translate(-81.221 -134.28)" fill="#06d6a0"/>
      <path id="Trazado_1038556" data-name="Trazado 1038556" d="M247.935,178.816h2.845v17.468h-2.845Z" transform="translate(-213.488 -134.305)" fill="#0baa7d"/>
      <path id="Trazado_1038557" data-name="Trazado 1038557" d="M70.625,43.246l10.259-7.651a4.792,4.792,0,0,1,5.729,0l10.259,7.651a.948.948,0,0,1-.567,1.708H71.191a.948.948,0,0,1-.567-1.708Z" transform="translate(-56.689 -7.084)" fill="#ef476f"/>
      <path id="Trazado_1038558" data-name="Trazado 1038558" d="M186.986,44.971h-2.845a.954.954,0,0,0,.569-1.716l-10.26-7.643a4.6,4.6,0,0,0-1.441-.73,4.75,4.75,0,0,1,4.286.73l10.26,7.643a.954.954,0,0,1-.569,1.716Z" transform="translate(-147.371 -7.098)" fill="#cc325e"/>
      <path id="Trazado_1038559" data-name="Trazado 1038559" d="M297.3,284.006v2.411a.945.945,0,0,1-.944.948H284.609a.946.946,0,0,1-.946-.948v-6.192a3.7,3.7,0,0,0-2.856-3.653,3.633,3.633,0,0,0-4.4,3.547v6.3a.948.948,0,0,1-.948.948H272.2V262.049s13.743.711,14.928,11.38c0,0,1.008,8.712,9.839,9.246Z" transform="translate(-234.896 -207.752)" fill="#ef476f"/>
      <path id="Trazado_1038560" data-name="Trazado 1038560" d="M272.211,263.4v-1.356s11.645.607,14.414,9.018a13.32,13.32,0,0,0-1.46-2.323c-3.86-4.817-10.346-5.339-12.954-5.339Z" transform="translate(-234.91 -207.751)" fill="#cc325e"/>
      <path id="Trazado_1038561" data-name="Trazado 1038561" d="M422.709,409.966a9.872,9.872,0,0,0,7.065,3.234l.332,1.3c-4.163,0-6.069-1.821-7.4-4.533Z" transform="translate(-367.712 -338.276)" fill="#cc325e"/>
      <path id="Trazado_1038562" data-name="Trazado 1038562" d="M23.916,379.722H14.991a.948.948,0,0,1-.948-.948v-2.44a.948.948,0,0,1,.948-.948h1.851V372a.948.948,0,0,1,.948-.948h1.851v-3.388a.948.948,0,0,1,.948-.948h3.33Z" transform="translate(-7.096 -300.109)" fill="#ffd166"/>
      <path id="Trazado_1038563" data-name="Trazado 1038563" d="M73.847,366.736h2.845v13.011H73.847Z" transform="translate(-59.869 -300.129)" fill="#f9bd46"/>
      <path id="Trazado_1038564" data-name="Trazado 1038564" d="M461.422,440.744h2.845V444.1a.948.948,0,0,1-.948.948h-1.9Z" transform="translate(-401.874 -365.436)" fill="#cc325e"/>
      <path id="Trazado_1038565" data-name="Trazado 1038565" d="M272.195,252.268c2.2,0,7.629.413,10.71,4.261a19.661,19.661,0,0,1,2.706,5.816c1.612,4.674,3.618,10.489,11.689,10.489a1.44,1.44,0,1,0,0-2.879c-6.017,0-7.322-3.772-8.973-8.551a21.981,21.981,0,0,0-3.177-6.679c-3.858-4.818-10.345-5.336-12.956-5.336Z" transform="translate(-234.895 -196.58)" fill="#ffd166"/>
      <path id="Trazado_1038566" data-name="Trazado 1038566" d="M446.644,425.052a1.433,1.433,0,0,1-1.441,1.432,11.48,11.48,0,0,1-5.4-1.176,13.289,13.289,0,0,0,2.551.228A1.433,1.433,0,0,0,443.8,424.1a1.516,1.516,0,0,0-.123-.588,11,11,0,0,0,1.527.095,1.441,1.441,0,0,1,1.441,1.441Z" transform="translate(-382.8 -350.233)" fill="#f9bd46"/>
      <path id="Trazado_1038567" data-name="Trazado 1038567" d="M27.062,59.287a6.047,6.047,0,1,0-6.047-6.047A6.046,6.046,0,0,0,27.062,59.287Zm0-10.2a4.15,4.15,0,1,1-4.15,4.15A4.15,4.15,0,0,1,27.062,49.09ZM62.407,72.423c-5.344,0-6.431-3.148-8.076-7.911-1.345-3.908-3.669-12.1-16.084-12.632,0-12.061,0-2.987,0-13.065h4.227a.949.949,0,0,0,.567-1.709l-12.55-9.36a5.777,5.777,0,0,0-6.863,0l-12.55,9.36a.949.949,0,0,0,.567,1.709h4.23c0,17.28,0,26.017,0,26.837H12.547a.948.948,0,0,0-.948.948v3.388H9.748a.948.948,0,0,0-.948.948v3.389H6.949A.948.948,0,0,0,6,75.273v4.336a.948.948,0,0,0,.948.948H22.475a.948.948,0,0,0,.948-.948V73.121c0-4.808,7.278-4.81,7.278,0v6.488a.948.948,0,0,0,.948.948h9.865a.948.948,0,0,0,.948-.948V72.363c0-3.541,5.359-3.541,5.359,0v7.148a.96.96,0,0,0-.005.1.948.948,0,0,0,.948.948H62.407a.948.948,0,0,0,.948-.948V77a2.389,2.389,0,0,0-.948-4.577Zm-9.87-7.293c1.632,4.726,3.174,9.189,9.87,9.189a.491.491,0,0,1,0,.983c-7.394,0-9.2-5.233-10.819-9.928-1.32-3.795-3.056-10.115-13.341-10.614v-.983c11.026.513,12.96,7.486,14.291,11.353ZM32.164,38.814v4.741h-10.2V38.814Zm4.186,6.638V61.028H17.774V45.452Zm0-1.9H34.061V38.814h2.293ZM24.764,29.266a3.866,3.866,0,0,1,4.6,0l10.259,7.651H14.505Zm-4.7,9.548v4.741H17.774V38.814ZM7.9,76.221H9.748a.948.948,0,0,0,.948-.948V71.884h1.851a.948.948,0,0,0,.948-.948V67.548h2.379V78.661H7.9Zm13.629-3.1v5.539H17.771V62.928H36.354V78.661H32.6V73.121c0-7.316-11.071-7.315-11.071,0Zm28.192,5.539v-6.3c0-6.047-9.152-6.049-9.152,0v6.3H38.25c0-12.866,0-20.754,0-22,8.9.47,10.248,5.594,11.575,9.412,1.559,4.518,3.689,10.626,11.637,11.084v1.507Z" transform="translate(0)"/>
    </g>
  </g>
</svg>
