<svg xmlns="http://www.w3.org/2000/svg" xmlns:xlink="http://www.w3.org/1999/xlink" width="505" height="307" viewBox="0 0 505 307">
  <defs>
    <clipPath id="clip-path">
      <rect id="Rectángulo_415652" data-name="Rectángulo 415652" width="505" height="307" transform="translate(915 1576)" fill="#fff" stroke="#707070" stroke-width="1"/>
    </clipPath>
  </defs>
  <g id="Enmascarar_grupo_1098806" data-name="Enmascarar grupo 1098806" transform="translate(-915 -1576)" clip-path="url(#clip-path)">
    <g id="Grupo_1179126" data-name="Grupo 1179126" transform="translate(8.15 11.839)">
      <ellipse id="Elipse_12403" data-name="Elipse 12403" cx="218.5" cy="186" rx="218.5" ry="186" transform="translate(940.85 1667.161)" fill="#f6f9ff"/>
      <g id="OBJECTS" transform="translate(941.211 1563.765)">
        <g id="Grupo_1179109" data-name="Grupo 1179109" transform="translate(0 94.033)">
          <g id="Grupo_1179103" data-name="Grupo 1179103" transform="translate(33.299 128.855)">
            <path id="Trazado_1038568" data-name="Trazado 1038568" d="M242.448,411.779c2.89,6.423,2.088,13.044-1.791,14.789s-9.365-2.047-12.255-8.47-2.088-13.044,1.791-14.789S239.559,405.355,242.448,411.779Z" transform="translate(-142.29 -374.636)" fill="#4aacd1"/>
            <path id="Trazado_1038569" data-name="Trazado 1038569" d="M233.686,391.5s10.833,10.621,6.911,19.772-19.445,5.385-24.348-6.049Z" transform="translate(-138.682 -370.693)" fill="#d99ca2"/>
            <path id="Trazado_1038570" data-name="Trazado 1038570" d="M233.686,391.5,216.25,405.223A18.828,18.828,0,0,0,222.8,413.2c8.726-3.8,15.665-15.5,15.665-15.5h0A34.214,34.214,0,0,0,233.686,391.5Z" transform="translate(-138.682 -370.693)" fill="#af6781"/>
            <path id="Trazado_1038571" data-name="Trazado 1038571" d="M137,407.778s1.114,10.077,13.3,17.485,13.484,2.343,13.484,2.343l4.537-9.884L143.361,405Z" transform="translate(-111.232 -375.369)" fill="#433959"/>
            <path id="Trazado_1038572" data-name="Trazado 1038572" d="M136.549,404.958l-19.216,37.693,14.816,9.875s19.794-20.769,24.822-33.406C156.97,419.121,146.4,403.651,136.549,404.958Z" transform="translate(-104.42 -375.328)" fill="#d99ca2"/>
            <path id="Trazado_1038573" data-name="Trazado 1038573" d="M145.642,404.958l-2.058,4.035h0s12.016,9.049,17.3,19.471a53.29,53.29,0,0,0,5.183-9.345S155.489,403.651,145.642,404.958Z" transform="translate(-113.513 -375.328)" fill="#af6781"/>
            <path id="Trazado_1038574" data-name="Trazado 1038574" d="M124.946,439.819l-7.613,14.933,14.816,9.876s5.441-5.711,11.342-12.963C139.125,442.643,130.051,440.366,124.946,439.819Z" transform="translate(-104.42 -387.43)" fill="#f8ffe1"/>
            <path id="Trazado_1038575" data-name="Trazado 1038575" d="M145.661,376.879s-5.392,13.4-8.661,15.2c0,0,19.584,4.034,26.786,19.828l13.575-29.57,9.1,16.442s21.134-.693,26.69-16.442l-13.763-22.667Z" transform="translate(-111.232 -359.667)" fill="#514769"/>
            <path id="Trazado_1038576" data-name="Trazado 1038576" d="M203.407,359.667l-53.724,17.212s-.41,1.018-1.07,2.526h0s20.958,10.648,29.715,9.585l3.056-6.657,2.842,5.137h0s16.933-14.7,20.659-25.3c.006-.016.01-.031.015-.048Z" transform="translate(-115.255 -359.667)" fill="#433959"/>
            <path id="Trazado_1038577" data-name="Trazado 1038577" d="M127.132,468.721S114.63,453.355,99,458.281c0,0-4.956,3.4,3.649,9.937a50.856,50.856,0,0,0,18.846,8.5S126.069,475.081,127.132,468.721Z" transform="translate(-97.577 -393.487)" fill="#4aacd1"/>
            <path id="Trazado_1038578" data-name="Trazado 1038578" d="M109.075,464.044c-5.785-2.961-9.433-2.962-11.337-2.562-.5,1.634-.044,4.355,4.91,8.117a50.855,50.855,0,0,0,18.846,8.5,8.925,8.925,0,0,0,4.1-3.724C122.886,470.482,115.363,467.263,109.075,464.044Z" transform="translate(-97.578 -394.869)" fill="#39759a"/>
          </g>
          <g id="Grupo_1179104" data-name="Grupo 1179104" transform="translate(123.45 78.832)">
            <path id="Trazado_1038579" data-name="Trazado 1038579" d="M235.5,283.455s6.536-1.5,10.458,1.988,11.293,28.65,11.693,36.276c0,0,2.143,8.715-3.3,11.983s-8.388,1.961-8.388,1.961a2.845,2.845,0,0,1-3.595.258c-1.961-1.348-5.556-3.09-4.139-5.378s2.13-3.781,2.13-3.781-2.893-1.921-1.8-3.918,2.288-5.171,4.685-4.292L235.5,305.815Z" transform="translate(-235.5 -283.135)" fill="#d99ca2"/>
            <path id="Trazado_1038580" data-name="Trazado 1038580" d="M235.5,283.456v22.359l2.145,3.532s9.888-13.571,5.137-25.648A15.815,15.815,0,0,0,235.5,283.456Z" transform="translate(-235.5 -283.136)" fill="#af6781"/>
            <line id="Línea_625" data-name="Línea 625" y1="3.595" x2="2.615" transform="translate(10.458 48.934)" fill="none" stroke="#914b60" stroke-linecap="round" stroke-linejoin="round" stroke-miterlimit="10" stroke-width="1"/>
            <line id="Línea_626" data-name="Línea 626" x2="4.031" transform="translate(7.734 35.417)" fill="none" stroke="#914b60" stroke-linecap="round" stroke-linejoin="round" stroke-miterlimit="10" stroke-width="1"/>
            <line id="Línea_627" data-name="Línea 627" x2="2.336" y2="1.085" transform="translate(4.854 43.628)" fill="none" stroke="#914b60" stroke-linecap="round" stroke-linejoin="round" stroke-miterlimit="10" stroke-width="1"/>
            <path id="Trazado_1038581" data-name="Trazado 1038581" d="M244.713,352.4s2.409-2.724,2.551-5.229" transform="translate(-238.691 -305.314)" fill="none" stroke="#914b60" stroke-linecap="round" stroke-linejoin="round" stroke-miterlimit="10" stroke-width="1"/>
            <line id="Línea_628" data-name="Línea 628" y1="3.052" x2="1.988" transform="translate(15.987 48.934)" fill="none" stroke="#914b60" stroke-linecap="round" stroke-linejoin="round" stroke-miterlimit="10" stroke-width="1"/>
          </g>
          <path id="Trazado_1038582" data-name="Trazado 1038582" d="M99.626,328.091a30.031,30.031,0,0,0,3.35,17.9c4.9,8.849,10.591,9.612,10.591,9.612l4.722-3-13.1-26.856C103.957,327.546,99.626,328.091,99.626,328.091Z" transform="translate(-64.907 -219.063)" fill="#39759a"/>
          <g id="Grupo_1179105" data-name="Grupo 1179105" transform="translate(34.72 76.74)">
            <path id="Trazado_1038583" data-name="Trazado 1038583" d="M127.632,296.308s-25.213,16.351-27.882,15.915c0,0,15.954,14.489,13.941,27.507l15.145-9.612s3.235,16.432,1.884,21.225c0,0,20.176,9.786,33.575,5.428s25.165-24.62,25.165-24.62l-15.9-21.889,15.9.437s8.715-15.118,0-30.763l-29.2,4.374Z" transform="translate(-99.75 -279.935)" fill="#4aacd1"/>
            <path id="Trazado_1038584" data-name="Trazado 1038584" d="M150.25,303.561s.124,14.679,9.383,14.945,10.419-14.986,6.935-22.378Z" transform="translate(-117.242 -285.544)" fill="#d99ca2"/>
            <path id="Trazado_1038585" data-name="Trazado 1038585" d="M150.25,303.561a26.931,26.931,0,0,0,.312,3.422c3.213.341,11.757.973,17.8-1.064a22.681,22.681,0,0,0-1.8-9.791Z" transform="translate(-117.242 -285.544)" fill="#af6781"/>
            <path id="Trazado_1038586" data-name="Trazado 1038586" d="M146.732,315.147S147.4,326.1,159,324.788s14.539-12.659,12.989-26.347" transform="translate(-116.023 -286.345)" fill="none" stroke="#39759a" stroke-linecap="round" stroke-linejoin="round" stroke-miterlimit="10" stroke-width="1"/>
            <line id="Línea_629" data-name="Línea 629" x1="1.961" y1="12.674" transform="translate(27.126 37.509)" fill="none" stroke="#39759a" stroke-linecap="round" stroke-linejoin="round" stroke-miterlimit="10" stroke-width="1"/>
            <path id="Trazado_1038587" data-name="Trazado 1038587" d="M196.868,316.5s1.448,5.5,10.326,6.427" transform="translate(-133.389 -292.6)" fill="none" stroke="#39759a" stroke-linecap="round" stroke-linejoin="round" stroke-miterlimit="10" stroke-width="1"/>
            <path id="Trazado_1038588" data-name="Trazado 1038588" d="M111.323,324.054s14.773,12.274,12.728,26.927" transform="translate(-103.759 -295.217)" fill="none" stroke="#39759a" stroke-linecap="round" stroke-linejoin="round" stroke-miterlimit="10" stroke-width="1"/>
            <path id="Trazado_1038589" data-name="Trazado 1038589" d="M226.667,281.83s8.5,11.005,0,29.088" transform="translate(-143.711 -280.591)" fill="none" stroke="#39759a" stroke-linecap="round" stroke-linejoin="round" stroke-miterlimit="10" stroke-width="1"/>
          </g>
          <g id="Grupo_1179107" data-name="Grupo 1179107" transform="translate(8.776)">
            <path id="Trazado_1038590" data-name="Trazado 1038590" d="M76.47,241.681s-15.014-16.2-16.014-26.418c0,0-2.615-18.438,5.556-28.242s9.151-2.179,9.151-2.179,9.042-6.754,11.22-12.854,4.139-10.458,9.478-9.26,5.883,8.17,4.793,10.785c0,0,11-13.29,22.659-10.131,0,0,6.863,2.832,1.2,8.824,0,0,9.587-6.645,15.251-1.634s-3.05,8.061-3.05,8.061,11.221-2.069,12.638,2.506-9.042,10.349-9.042,10.349a28.539,28.539,0,0,1,1.416,17.553Z" transform="translate(-60.058 -162.529)" fill="#433959"/>
            <path id="Trazado_1038591" data-name="Trazado 1038591" d="M182,227.881s1.471-8.5,11.275-6.536,7.027,18.029-.98,18.411l-8.661-5.413Z" transform="translate(-102.295 -182.799)" fill="#af6781"/>
            <path id="Trazado_1038592" data-name="Trazado 1038592" d="M196.471,229.29s-2.505-2.941-5.229-.98-4.575,8.061-4.575,8.061" transform="translate(-103.912 -185.08)" fill="none" stroke="#914b60" stroke-linecap="round" stroke-linejoin="round" stroke-miterlimit="10" stroke-width="1"/>
            <path id="Trazado_1038593" data-name="Trazado 1038593" d="M132.333,208.75s12.909,11.275,13.073,19.936c0,0,15.85,3.1,12.746,17.975s-20.1,26.962-39.381,29.9S83.8,268.23,83.8,268.23s-11.7,9.029-19.609-4.085c-6.209-10.295,3.1-21.9,13.726-17.811,0,0,6.046,2.288,7.19,5.066,0,0,8.334-9.641,1.634-22.55,0,0,12.419-8.007,12.909-14.053,0,0,15.85,3.268,19.282-3.758C118.934,211.038,130.7,212.672,132.333,208.75Z" transform="translate(-60.799 -178.539)" fill="#d99ca2"/>
            <path id="Trazado_1038594" data-name="Trazado 1038594" d="M131.941,211.038c-3.432,7.027-19.282,3.758-19.282,3.758-.49,6.046-12.909,14.053-12.909,14.053,11.112,1.471,15.687-9.641,15.687-9.641,9.968,2.615,18.875-4.575,18.875-4.575,10.35-.726,11.029-5.883,11.029-5.883C143.706,212.672,131.941,211.038,131.941,211.038Z" transform="translate(-73.806 -178.539)" fill="#af6781"/>
            <path id="Trazado_1038595" data-name="Trazado 1038595" d="M157.267,264.4a28.281,28.281,0,0,1-15.687,1.2c-8.606-1.852-11.765,2.615-12.637,7.626s3.486,12.528,17.43,11.438,16.123-10.567,16.45-15.033S159.61,263.625,157.267,264.4Z" transform="translate(-83.881 -197.747)" fill="#4a303e"/>
            <path id="Trazado_1038596" data-name="Trazado 1038596" d="M146.357,291.4c-.93-3.244-4.843-6.273-9.989-7.368a17.151,17.151,0,0,0-6.81-.127C131.013,288.082,136,292.135,146.357,291.4Z" transform="translate(-84.13 -204.473)" fill="#ff6f89"/>
            <path id="Trazado_1038597" data-name="Trazado 1038597" d="M74.072,284.033s-3.922-5.883,1.2-8.606,9.26,2.681,9.26,2.681-4.249,2.984-.763,5.925" transform="translate(-64.415 -201.368)" fill="none" stroke="#914b60" stroke-linecap="round" stroke-linejoin="round" stroke-miterlimit="10" stroke-width="1"/>
            <path id="Trazado_1038598" data-name="Trazado 1038598" d="M158.194,264.4a28.28,28.28,0,0,1-15.687,1.2c-5.857-1.26-9.187.409-10.994,3.181a15.83,15.83,0,0,0,7.727,4.317c0-.006,0-.012,0-.018,0-2.307,1.36-4.177,3.037-4.177s3.037,1.87,3.037,4.177q0,.214-.016.422a36.534,36.534,0,0,0,13.223-4.2l.593-5.082A3.881,3.881,0,0,0,158.194,264.4Z" transform="translate(-84.808 -197.753)" fill="#f8ffe1"/>
            <path id="Trazado_1038599" data-name="Trazado 1038599" d="M151.833,300.833s2.832,1.416,4.466,0" transform="translate(-91.846 -210.434)" fill="none" stroke="#914b60" stroke-linecap="round" stroke-linejoin="round" stroke-miterlimit="10" stroke-width="1"/>
            <path id="Trazado_1038600" data-name="Trazado 1038600" d="M134.625,249.15s2.642-5.577,7.435-2.092" transform="translate(-85.886 -191.411)" fill="none" stroke="#914b60" stroke-linecap="round" stroke-linejoin="round" stroke-miterlimit="10" stroke-width="1"/>
            <path id="Trazado_1038601" data-name="Trazado 1038601" d="M168.133,236.455s2.854-4.685,7.1-2.179" transform="translate(-97.492 -187.125)" fill="none" stroke="#914b60" stroke-linecap="round" stroke-linejoin="round" stroke-miterlimit="10" stroke-width="1"/>
            <path id="Trazado_1038602" data-name="Trazado 1038602" d="M127.5,237.036s2.778-4.873,6.7-5.036" transform="translate(-83.418 -186.592)" fill="none" stroke="#433959" stroke-linecap="round" stroke-linejoin="round" stroke-miterlimit="10" stroke-width="1"/>
            <path id="Trazado_1038603" data-name="Trazado 1038603" d="M163.835,223.647s5.01-2.466,8.768,0" transform="translate(-96.003 -183.319)" fill="none" stroke="#433959" stroke-linecap="round" stroke-linejoin="round" stroke-miterlimit="10" stroke-width="1"/>
            <path id="Trazado_1038604" data-name="Trazado 1038604" d="M83.167,196.667s2.887,4.466,0,14.107" transform="translate(-68.062 -174.353)" fill="none" stroke="#514769" stroke-linecap="round" stroke-linejoin="round" stroke-miterlimit="10" stroke-width="1"/>
            <path id="Trazado_1038605" data-name="Trazado 1038605" d="M119.338,179.333s-1.58,7.953-5.338,11.874c0,0,6.61-5.719,10.168-3.1s-2.324,7.68-2.324,7.68" transform="translate(-78.742 -168.349)" fill="none" stroke="#514769" stroke-linecap="round" stroke-linejoin="round" stroke-miterlimit="10" stroke-width="1"/>
            <path id="Trazado_1038606" data-name="Trazado 1038606" d="M147.355,209.089a5.03,5.03,0,0,0-3.1-5.964" transform="translate(-89.22 -176.59)" fill="none" stroke="#514769" stroke-linecap="round" stroke-linejoin="round" stroke-miterlimit="10" stroke-width="1"/>
            <path id="Trazado_1038607" data-name="Trazado 1038607" d="M155.393,177.333s-4.894,3.541-6.178,6.4c0,0,7.651-3.84,9.557-1.716s-2.418,5.719-2.418,5.719" transform="translate(-90.939 -167.657)" fill="none" stroke="#514769" stroke-linecap="round" stroke-linejoin="round" stroke-miterlimit="10" stroke-width="1"/>
            <path id="Trazado_1038608" data-name="Trazado 1038608" d="M94.006,237.539s-5.175-4.977-10.839-3.387" transform="translate(-68.062 -187.228)" fill="none" stroke="#514769" stroke-linecap="round" stroke-linejoin="round" stroke-miterlimit="10" stroke-width="1"/>
            <path id="Trazado_1038609" data-name="Trazado 1038609" d="M158.992,244.347a6.709,6.709,0,0,1-2.159-4.847" transform="translate(-93.578 -189.189)" fill="none" stroke="#914b60" stroke-linecap="round" stroke-linejoin="round" stroke-miterlimit="10" stroke-width="1"/>
            <g id="Grupo_1179106" data-name="Grupo 1179106" transform="translate(23.384 33.917)">
              <path id="Trazado_1038610" data-name="Trazado 1038610" d="M143.459,236.542c.945,5.9-2.675,11.386-8.085,12.253s-10.563-3.215-11.508-9.115,2.675-11.386,8.085-12.253S142.514,230.641,143.459,236.542Z" transform="translate(-105.491 -218.885)" fill="none" stroke="#fff" stroke-linecap="round" stroke-linejoin="round" stroke-miterlimit="10" stroke-width="1"/>
              <ellipse id="Elipse_12400" data-name="Elipse 12400" cx="9.921" cy="10.82" rx="9.921" ry="10.82" transform="matrix(0.987, -0.158, 0.158, 0.987, 40.91, 3.137)" fill="none" stroke="#fff" stroke-linecap="round" stroke-linejoin="round" stroke-miterlimit="10" stroke-width="1"/>
              <path id="Trazado_1038611" data-name="Trazado 1038611" d="M153.564,239.034s2.7-2.281,5.194-.832" transform="translate(-115.829 -222.49)" fill="none" stroke="#fff" stroke-linecap="round" stroke-linejoin="round" stroke-miterlimit="10" stroke-width="1"/>
              <line id="Línea_630" data-name="Línea 630" y1="10.655" x2="19.289" transform="translate(0 23.822)" fill="none" stroke="#fff" stroke-linecap="round" stroke-linejoin="round" stroke-miterlimit="10" stroke-width="1"/>
            </g>
            <path id="Trazado_1038612" data-name="Trazado 1038612" d="M158.667,248.778s.871-5.12,4.139-3.595,3.7,5.447,0,7.517" transform="translate(-94.213 -191.06)" fill="none" stroke="#914b60" stroke-linecap="round" stroke-linejoin="round" stroke-miterlimit="10" stroke-width="1"/>
          </g>
          <g id="Grupo_1179108" data-name="Grupo 1179108" transform="translate(0 93.499)">
            <path id="Trazado_1038613" data-name="Trazado 1038613" d="M81.351,321.1l-15.033-5.175s.327-4.358-1.907-6.319c0,0-.763-3.922-4.575-3.976A2.455,2.455,0,0,0,56.8,307.65s-6.392-3.159-7.7-.98a6.3,6.3,0,0,0-.817,4.3s-3.666,2.669-.09,6.373c0,0-2.552,3.758.977,5.729,0,0,2.109,7.4,12.512,7.343,0,0,14.761,13.754,22.85,13.59,0,0,6.255-.738,9.3-5.516C93.834,338.493,89.195,327.123,81.351,321.1Z" transform="translate(-46.632 -305.575)" fill="#d99ca2"/>
            <path id="Trazado_1038614" data-name="Trazado 1038614" d="M112.232,346.722s-4.639-11.369-12.482-17.388c0,0,6.472,11.437,7.575,21.547A11.638,11.638,0,0,0,112.232,346.722Z" transform="translate(-65.03 -313.805)" fill="#af6781"/>
            <path id="Trazado_1038615" data-name="Trazado 1038615" d="M61.895,308.75s-1.871,5.5,1.179,7.789,4.466-3.894,4.466-3.894" transform="translate(-51.722 -306.675)" fill="none" stroke="#914b60" stroke-linecap="round" stroke-linejoin="round" stroke-miterlimit="10" stroke-width="1"/>
            <path id="Trazado_1038616" data-name="Trazado 1038616" d="M49.167,313.833s6.12.235,7.949.826" transform="translate(-47.51 -308.436)" fill="none" stroke="#914b60" stroke-linecap="round" stroke-linejoin="round" stroke-miterlimit="10" stroke-width="1"/>
            <path id="Trazado_1038617" data-name="Trazado 1038617" d="M49.029,322.634a70.561,70.561,0,0,1,9.214.844c4.085.735,2.952-2.635,2.952-2.635" transform="translate(-47.462 -310.864)" fill="none" stroke="#914b60" stroke-linecap="round" stroke-linejoin="round" stroke-miterlimit="10" stroke-width="1"/>
            <path id="Trazado_1038618" data-name="Trazado 1038618" d="M61.6,325.035s2.533,3.327,0,4.389-7.353,0-7.353,0" transform="translate(-49.27 -312.316)" fill="none" stroke="#914b60" stroke-linecap="round" stroke-linejoin="round" stroke-miterlimit="10" stroke-width="1"/>
            <path id="Trazado_1038619" data-name="Trazado 1038619" d="M63,332.353a8.148,8.148,0,0,1,5.121,1.713" transform="translate(-52.301 -314.849)" fill="none" stroke="#914b60" stroke-linecap="round" stroke-linejoin="round" stroke-miterlimit="10" stroke-width="1"/>
            <line id="Línea_631" data-name="Línea 631" y2="3.159" transform="translate(19.686 10.354)" fill="none" stroke="#914b60" stroke-linecap="round" stroke-linejoin="round" stroke-miterlimit="10" stroke-width="1"/>
          </g>
        </g>
        <g id="Grupo_1179116" data-name="Grupo 1179116" transform="translate(138.317 89.518)">
          <g id="Grupo_1179110" data-name="Grupo 1179110" transform="translate(55.041 148.777)">
            <path id="Trazado_1038620" data-name="Trazado 1038620" d="M438.277,416.869s3.686-4.941,7.892-3.63,11.29,18.943,8.2,21.11-9.542-4.236-9.542-4.236Z" transform="translate(-375.645 -393.554)" fill="#00a979"/>
            <path id="Trazado_1038621" data-name="Trazado 1038621" d="M379.492,432.137l8.1,10.715s3.773,6.013,12.9,3.953,23.973-14.65,23.973-14.65l-6.549-13.245L400.1,423.926Z" transform="translate(-355.284 -395.594)" fill="#c3838f"/>
            <path id="Trazado_1038622" data-name="Trazado 1038622" d="M439.222,432.155s0-9.706-6.549-13.245L422.1,421.888c1.423,2.8,5.558,11.384,6.566,18.188A131.661,131.661,0,0,0,439.222,432.155Z" transform="translate(-370.04 -395.594)" fill="#f8ffe1"/>
            <path id="Trazado_1038623" data-name="Trazado 1038623" d="M405.343,424.326,400.1,425.8l-20.608,8.212,6.153,8.141C397.328,439.086,404.479,425.984,405.343,424.326Z" transform="translate(-355.284 -397.47)" fill="#af6781"/>
            <path id="Trazado_1038624" data-name="Trazado 1038624" d="M342.455,395.323l21.614,30.24s20.974-3.811,28.537-15.648l-10.954-26.676Z" transform="translate(-342.455 -383.239)" fill="#ae8a7d"/>
            <path id="Trazado_1038625" data-name="Trazado 1038625" d="M382.069,388.759l-2.2-4.486-37.418,11.408,18.775,26.269C380.241,414.864,382.069,388.759,382.069,388.759Z" transform="translate(-342.455 -383.597)" fill="#7c6077"/>
          </g>
          <g id="Grupo_1179111" data-name="Grupo 1179111" transform="translate(1.767 147.742)">
            <path id="Trazado_1038626" data-name="Trazado 1038626" d="M311.667,408.908a32.021,32.021,0,0,0,10.07,18.519c9.1,8.5,18.315,5.883,18.315,5.883l6.789-4.286-27.08-25.951Z" transform="translate(-278.517 -389.074)" fill="#7c6077"/>
            <path id="Trazado_1038627" data-name="Trazado 1038627" d="M318.01,405.667,278.4,435.516l6.88,15.469s15.711-6.972,22.368-12.637,18.859-6.1,29.753-16.123Z" transform="translate(-266.994 -389.973)" fill="#c3838f"/>
            <path id="Trazado_1038628" data-name="Trazado 1038628" d="M333.331,405.667l-10.7,8.061h0s9.554,7.986,12.28,18.717c5.59-2.161,11.891-4.776,17.808-10.219Z" transform="translate(-282.315 -389.973)" fill="#af6781"/>
            <path id="Trazado_1038629" data-name="Trazado 1038629" d="M290.325,437.583,278.4,446.57l6.881,15.469a171.521,171.521,0,0,0,15.994-8.23C299.172,447.4,293.365,440.754,290.325,437.583Z" transform="translate(-266.994 -401.028)" fill="#f8ffe1"/>
            <path id="Trazado_1038630" data-name="Trazado 1038630" d="M330.4,387.981,311.667,401.49s21.693,6.754,28.385,24.4c0,0,38.067-21.148,33.274-44.236Z" transform="translate(-278.517 -381.656)" fill="#fae0b3"/>
            <path id="Trazado_1038631" data-name="Trazado 1038631" d="M338.656,387.981l-3.165,2.282s29.39,5.86,46.427-2.811a20.186,20.186,0,0,0-.34-5.8Z" transform="translate(-286.769 -381.656)" fill="#ae8a7d"/>
            <path id="Trazado_1038632" data-name="Trazado 1038632" d="M311.667,432.7a10.617,10.617,0,0,0,5.12-1.2" transform="translate(-278.517 -398.919)" fill="none" stroke="#914b60" stroke-linecap="round" stroke-linejoin="round" stroke-miterlimit="10" stroke-width="1"/>
            <path id="Trazado_1038633" data-name="Trazado 1038633" d="M272.355,448.1s-7.668-8.061-10.5-5.665,1.568,23.095,5.251,24.62,12.131-3.486,12.131-3.486Z" transform="translate(-260.95 -402.552)" fill="#00a979"/>
            <path id="Trazado_1038634" data-name="Trazado 1038634" d="M261.854,442.639c-2.832,2.4,1.568,23.095,5.251,24.62a5.008,5.008,0,0,0,2.307.258c-1.648-16.285-5.157-22.54-7.482-24.931C261.906,442.6,261.878,442.618,261.854,442.639Z" transform="translate(-260.95 -402.76)" fill="#235435"/>
            <path id="Trazado_1038635" data-name="Trazado 1038635" d="M389.726,410.051s-5.3-8.438.2-16.718" transform="translate(-304.759 -385.701)" fill="none" stroke="#ae8a7d" stroke-linecap="round" stroke-linejoin="round" stroke-miterlimit="10" stroke-width="1"/>
          </g>
          <g id="Grupo_1179112" data-name="Grupo 1179112" transform="translate(12.585 88.291)">
            <path id="Trazado_1038636" data-name="Trazado 1038636" d="M420.389,300.368s5.542,5.665,3.69,18.738-9.26,14.431-9.26,14.431l-5.372-.637,3.621-33.094Z" transform="translate(-323.203 -293.854)" fill="#235435"/>
            <path id="Trazado_1038637" data-name="Trazado 1038637" d="M281.749,339.667a6.2,6.2,0,0,0-4.249,6.1c0,4.9,2.451,15.666,32.109,12.9l.293-17.5S292.207,339.776,281.749,339.667Z" transform="translate(-277.5 -307.661)" fill="#235435"/>
            <path id="Trazado_1038638" data-name="Trazado 1038638" d="M324.416,302.219s-10.785-.816-16.232,3.215S288.793,324.5,284,324.5c0,0,22.877,4.793,28.106,15.033L310.922,358.7s16.654,6.1,33.866,2.179,23.748-8.279,23.748-8.279L358.078,330.6l13.29,1.576A48.391,48.391,0,0,1,376.938,299s-13.877-.837-26.577-2.86C338.9,294.322,324.416,302.219,324.416,302.219Z" transform="translate(-279.751 -292.491)" fill="#00a979"/>
            <path id="Trazado_1038639" data-name="Trazado 1038639" d="M330.625,296.779l5.474,4.575s-6.145,9.587,5.534,11.765S355.054,296.6,352.222,290.7Z" transform="translate(-295.901 -290.7)" fill="#c3838f"/>
            <path id="Trazado_1038640" data-name="Trazado 1038640" d="M353.32,299.722c.287-3.6-.144-7.035-1.1-9.021l-21.6,6.079S339.042,303.192,353.32,299.722Z" transform="translate(-295.901 -290.7)" fill="#af6781"/>
            <line id="Línea_632" data-name="Línea 632" x2="5.534" y2="4.575" transform="translate(40.198 10.654)" fill="none" stroke="#914b60" stroke-linecap="round" stroke-linejoin="round" stroke-miterlimit="10" stroke-width="1"/>
            <path id="Trazado_1038641" data-name="Trazado 1038641" d="M326.715,348.177s.109-6.1,0-9.914-1.185-12.528.048-17.43" transform="translate(-294.36 -301.137)" fill="none" stroke="#235435" stroke-linecap="round" stroke-linejoin="round" stroke-miterlimit="10" stroke-width="1"/>
            <path id="Trazado_1038642" data-name="Trazado 1038642" d="M392.906,343.57a50.971,50.971,0,0,1-8.353-10.248" transform="translate(-314.58 -305.463)" fill="none" stroke="#235435" stroke-linecap="round" stroke-linejoin="round" stroke-miterlimit="10" stroke-width="1"/>
            <path id="Trazado_1038643" data-name="Trazado 1038643" d="M378.667,303.194s.344-5.1,2.95-7.181" transform="translate(-312.541 -292.54)" fill="none" stroke="#235435" stroke-linecap="round" stroke-linejoin="round" stroke-miterlimit="10" stroke-width="1"/>
            <path id="Trazado_1038644" data-name="Trazado 1038644" d="M412.4,299.8s-7.9,16.876-3.621,33.094" transform="translate(-322.529 -293.854)" fill="none" stroke="#235435" stroke-linecap="round" stroke-linejoin="round" stroke-miterlimit="10" stroke-width="1"/>
            <path id="Trazado_1038645" data-name="Trazado 1038645" d="M293.727,334.47s15.457,3.462,20.564,12.035" transform="translate(-283.121 -305.861)" fill="none" stroke="#235435" stroke-linecap="round" stroke-linejoin="round" stroke-miterlimit="10" stroke-width="1"/>
          </g>
          <g id="Grupo_1179113" data-name="Grupo 1179113" transform="translate(0)">
            <path id="Trazado_1038646" data-name="Trazado 1038646" d="M276.346,236.588s-3.228-9.641-13.032-4.412-4.943,26.962,10.785,24.674Z" transform="translate(-258.247 -181.6)" fill="#af6781"/>
            <path id="Trazado_1038647" data-name="Trazado 1038647" d="M268.744,242.307A7.292,7.292,0,0,1,272.67,241c3.595,0,5.066,4.425,5.066,4.425" transform="translate(-261.883 -185.194)" fill="none" stroke="#914b60" stroke-linecap="round" stroke-linejoin="round" stroke-miterlimit="10" stroke-width="1"/>
            <path id="Trazado_1038648" data-name="Trazado 1038648" d="M279.86,213.552s-8.007-6.536-4.085-17.811c0,0-6.863-3.1-7.027-9.478s4.739-10.458,8.987-9.8c0,0-4.249-10.948,4.249-14.543s15.605,3.595,15.605,3.595,4.243-10.948,14.009-9.8,9.967,9.968,9.967,9.968,5.519-6.536,12.545-5.066,9.641,6.7,9.151,9.968c0,0,8.013-1.961,12.1,2.288a12.489,12.489,0,0,1,3.428,9.478s11.6-1.8,12.746,8.334-5.883,17.975-14.216,16.668c0,0,.654,15.2-7.19,18.9Z" transform="translate(-261.883 -155.622)" fill="#4a303e"/>
            <path id="Trazado_1038649" data-name="Trazado 1038649" d="M287.616,210.278s-8.334,13.073-7.353,29.413c0,0-12.092,22.877,25.328,30.557,0,0,27.452,4.085,39.544-12.909,0,0,13.726,9.151,21.243.327s5.883-19.445,0-22.55-13.89-.49-17.648,8.17c0,0-8.5-.654-8.334-16.177,0,0-11.438-2.124-14.053-13.726,0,0-11.112,6.373-19.609-5.883C306.734,207.5,300.362,217.631,287.616,210.278Z" transform="translate(-265.227 -173.591)" fill="#c3838f"/>
            <path id="Trazado_1038650" data-name="Trazado 1038650" d="M351.48,227.109s-11.439-2.124-14.053-13.726c0,0-11.112,6.373-19.609-5.883a12.951,12.951,0,0,1-7.42,5.117,16.46,16.46,0,0,0,6.638-.215s9.181,7.408,17.591,5.665a26.324,26.324,0,0,0,17.017,12.975A35.668,35.668,0,0,1,351.48,227.109Z" transform="translate(-276.31 -173.591)" fill="#af6781"/>
            <path id="Trazado_1038651" data-name="Trazado 1038651" d="M403.342,266.17S406.937,258,400.4,258s-9.15,7.093-9.15,7.093,6.209.587,4.084,6.143" transform="translate(-304.316 -191.083)" fill="none" stroke="#914b60" stroke-linecap="round" stroke-linejoin="round" stroke-miterlimit="10" stroke-width="1"/>
            <path id="Trazado_1038652" data-name="Trazado 1038652" d="M319.5,262.967s9.8-2.347,11.765-7.138c0,0,11.781,12.221,4.739,19.23a12.14,12.14,0,0,1-9.641,3.432S325.056,272.281,319.5,262.967Z" transform="translate(-279.463 -190.331)" fill="#4a303e"/>
            <path id="Trazado_1038653" data-name="Trazado 1038653" d="M342.492,268.224c-3.723.524-6.617,4.415-6.617,9.145A10.778,10.778,0,0,0,337,282.214a11.742,11.742,0,0,0,4.675-2.861C344.871,276.173,344.188,271.922,342.492,268.224Z" transform="translate(-285.135 -194.624)" fill="#ff6f89"/>
            <path id="Trazado_1038654" data-name="Trazado 1038654" d="M325.215,266.072s7.725-1.73,10.656-6.2a34.824,34.824,0,0,0-3.221-4.041c-1.308,3.195-6.1,5.3-9.151,6.352Z" transform="translate(-280.848 -190.331)" fill="#f8ffe1"/>
            <ellipse id="Elipse_12401" data-name="Elipse 12401" cx="1.879" cy="2.124" rx="1.879" ry="2.124" transform="translate(24.758 58.829)" fill="#4a303e"/>
            <path id="Trazado_1038655" data-name="Trazado 1038655" d="M335.16,245.267A2.267,2.267,0,1,1,332.892,243,2.267,2.267,0,0,1,335.16,245.267Z" transform="translate(-283.317 -185.887)" fill="#4a303e"/>
            <path id="Trazado_1038656" data-name="Trazado 1038656" d="M302.309,258.642s-1.879-2.369-.654-4.167,4.249-1.716,7.19.9" transform="translate(-273.138 -189.437)" fill="none" stroke="#914b60" stroke-linecap="round" stroke-linejoin="round" stroke-miterlimit="10" stroke-width="1"/>
            <path id="Trazado_1038657" data-name="Trazado 1038657" d="M308.154,249.581s4.148-3.375,4.148-7.706" transform="translate(-275.533 -185.498)" fill="none" stroke="#914b60" stroke-linecap="round" stroke-linejoin="round" stroke-miterlimit="10" stroke-width="1"/>
            <path id="Trazado_1038658" data-name="Trazado 1038658" d="M312.875,263.376s12.01-.631,16.1-7.547" transform="translate(-277.168 -190.331)" fill="none" stroke="#914b60" stroke-linecap="round" stroke-linejoin="round" stroke-miterlimit="10" stroke-width="1"/>
            <path id="Trazado_1038659" data-name="Trazado 1038659" d="M325.188,289.154s8.689.763,11.923-2.712" transform="translate(-281.433 -200.934)" fill="none" stroke="#914b60" stroke-linecap="round" stroke-linejoin="round" stroke-miterlimit="10" stroke-width="1"/>
            <path id="Trazado_1038660" data-name="Trazado 1038660" d="M337.563,294.807a9.971,9.971,0,0,0,5.406-1.307" transform="translate(-285.72 -203.379)" fill="none" stroke="#914b60" stroke-linecap="round" stroke-linejoin="round" stroke-miterlimit="10" stroke-width="1"/>
            <path id="Trazado_1038661" data-name="Trazado 1038661" d="M295.125,229.015a10.124,10.124,0,0,1,8.516-2.479" transform="translate(-271.02 -180.127)" fill="none" stroke="#4a303e" stroke-linecap="round" stroke-linejoin="round" stroke-miterlimit="10" stroke-width="1"/>
            <path id="Trazado_1038662" data-name="Trazado 1038662" d="M329.5,227.833s5.229.436,8.627,3.377" transform="translate(-282.927 -180.634)" fill="none" stroke="#4a303e" stroke-linecap="round" stroke-linejoin="round" stroke-miterlimit="10" stroke-width="1"/>
            <path id="Trazado_1038663" data-name="Trazado 1038663" d="M290.335,207.853a14.493,14.493,0,0,1-4.085-7.353" transform="translate(-267.946 -171.166)" fill="none" stroke="#7c6077" stroke-linecap="round" stroke-linejoin="round" stroke-miterlimit="10" stroke-width="1"/>
            <path id="Trazado_1038664" data-name="Trazado 1038664" d="M373.25,236.167s6.7,1.716,10.45-2.515" transform="translate(-298.081 -182.649)" fill="none" stroke="#7c6077" stroke-linecap="round" stroke-linejoin="round" stroke-miterlimit="10" stroke-width="1"/>
            <path id="Trazado_1038665" data-name="Trazado 1038665" d="M380.875,225.5s3.818,7.063,10.213,6.046c7.19-1.144,6.863-6.046,6.863-6.046" transform="translate(-300.722 -179.826)" fill="none" stroke="#7c6077" stroke-linecap="round" stroke-linejoin="round" stroke-miterlimit="10" stroke-width="1"/>
            <path id="Trazado_1038666" data-name="Trazado 1038666" d="M381.172,178.5s.255,4.275-2.977,6.549" transform="translate(-299.793 -163.546)" fill="none" stroke="#7c6077" stroke-linecap="round" stroke-linejoin="round" stroke-miterlimit="10" stroke-width="1"/>
            <path id="Trazado_1038667" data-name="Trazado 1038667" d="M312.548,170.75a22.673,22.673,0,0,0,0,10.458" transform="translate(-276.841 -160.862)" fill="none" stroke="#7c6077" stroke-linecap="round" stroke-linejoin="round" stroke-miterlimit="10" stroke-width="1"/>
            <path id="Trazado_1038668" data-name="Trazado 1038668" d="M320.92,204.383a7.871,7.871,0,0,1-1.471-5.883" transform="translate(-279.413 -170.474)" fill="none" stroke="#7c6077" stroke-linecap="round" stroke-linejoin="round" stroke-miterlimit="10" stroke-width="1"/>
            <path id="Trazado_1038669" data-name="Trazado 1038669" d="M282.5,187.5a7.619,7.619,0,0,0,4.494,3.432" transform="translate(-266.647 -166.664)" fill="none" stroke="#7c6077" stroke-linecap="round" stroke-linejoin="round" stroke-miterlimit="10" stroke-width="1"/>
            <path id="Trazado_1038670" data-name="Trazado 1038670" d="M384.553,242.3s9.2-1.471,12.752-1.307" transform="translate(-301.996 -185.188)" fill="none" stroke="#7c6077" stroke-linecap="round" stroke-linejoin="round" stroke-miterlimit="10" stroke-width="1"/>
            <line id="Línea_633" data-name="Línea 633" y1="0.695" x2="5.552" transform="translate(81.383 60.953)" fill="none" stroke="#7c6077" stroke-linecap="round" stroke-linejoin="round" stroke-miterlimit="10" stroke-width="1"/>
          </g>
          <g id="Grupo_1179114" data-name="Grupo 1179114" transform="translate(16.613 119.056)">
            <path id="Trazado_1038671" data-name="Trazado 1038671" d="M356.845,350.6s4.568,4.5,2.839,7.209-5.833-1.756-5.833-1.756Z" transform="translate(-307.975 -342.214)" fill="#914b60"/>
            <path id="Trazado_1038672" data-name="Trazado 1038672" d="M291.732,341.175s-11.225,7.966-7.194,19.949,28.379.436,29.822-2.505c0,0,5.647,4.139,11.008.763,0,0,1.329,2.07,4.271.763s3.6-3.268,2.179-5.229a4.3,4.3,0,0,0,.718-5.883s3.313-1.743,2.659-4.358-5.011-8.17-10.458-6.646-10.376,6.427-10.376,6.427l-10.744,1.828S296.311,341.925,291.732,341.175Z" transform="translate(-283.664 -337.768)" fill="#c3838f"/>
            <path id="Trazado_1038673" data-name="Trazado 1038673" d="M288.925,347.766a31.32,31.32,0,0,1,16.512.324s-7.3-4.36-11.884-5.109A22.354,22.354,0,0,0,288.925,347.766Z" transform="translate(-285.486 -339.574)" fill="#af6781"/>
            <path id="Trazado_1038674" data-name="Trazado 1038674" d="M307.628,350.786s-10.581-.521-12.378,3.728" transform="translate(-287.677 -342.27)" fill="none" stroke="#914b60" stroke-linecap="round" stroke-linejoin="round" stroke-miterlimit="10" stroke-width="1"/>
            <line id="Línea_634" data-name="Línea 634" x1="5.083" y1="2.803" transform="translate(43.07 14.343)" fill="none" stroke="#914b60" stroke-linecap="round" stroke-linejoin="round" stroke-miterlimit="10" stroke-width="1"/>
            <line id="Línea_635" data-name="Línea 635" x1="5.185" y1="2.767" transform="translate(43.686 8.496)" fill="none" stroke="#914b60" stroke-linecap="round" stroke-linejoin="round" stroke-miterlimit="10" stroke-width="1"/>
            <line id="Línea_636" data-name="Línea 636" y1="1.688" x2="1.367" transform="translate(41.703 19.924)" fill="none" stroke="#914b60" stroke-linecap="round" stroke-linejoin="round" stroke-miterlimit="10" stroke-width="1"/>
          </g>
          <g id="Grupo_1179115" data-name="Grupo 1179115" transform="translate(103.264 70.617)">
            <path id="Trazado_1038675" data-name="Trazado 1038675" d="M416.3,312.1l11.76,1.241s7.408.436,11.548-7.844,4.139-19.136,4.139-19.136,4.467-.909,6.972-7.009c0,0,3.595-.544,2.615-4.9a3.357,3.357,0,0,0,.169-4.9c-2.348-2.724-6.706-4.139-10.3-1.961,0,0,0-3.815-3.595-3.923s-.327,3.16-2.07,5.448-4.249,5.011-4.575,11.112c0,0-7.734,8.817-8.824,11.163l-3.036-.376S415.547,300.836,416.3,312.1Z" transform="translate(-416.233 -263.661)" fill="#c3838f"/>
            <path id="Trazado_1038676" data-name="Trazado 1038676" d="M457.247,286.246s-5.883.9-7.026-1.471,1.307-4.249,3.513-4.412,9.641.544,8.661,4.766" transform="translate(-427.905 -269.439)" fill="none" stroke="#914b60" stroke-linecap="round" stroke-linejoin="round" stroke-miterlimit="10" stroke-width="1"/>
            <path id="Trazado_1038677" data-name="Trazado 1038677" d="M452.578,279.031s-1.28-2.725,1.988-3.787,8.334-.518,11.275,3.05" transform="translate(-428.736 -267.505)" fill="none" stroke="#914b60" stroke-linecap="round" stroke-linejoin="round" stroke-miterlimit="10" stroke-width="1"/>
            <path id="Trazado_1038678" data-name="Trazado 1038678" d="M454.214,273.893s-1.194-2.156,2.074-4.226" transform="translate(-429.315 -265.741)" fill="none" stroke="#914b60" stroke-linecap="round" stroke-linejoin="round" stroke-miterlimit="10" stroke-width="1"/>
            <line id="Línea_637" data-name="Línea 637" x1="2.832" y2="0.481" transform="translate(24.686 22.699)" fill="none" stroke="#914b60" stroke-linecap="round" stroke-linejoin="round" stroke-miterlimit="10" stroke-width="1"/>
            <path id="Trazado_1038679" data-name="Trazado 1038679" d="M426.906,306.078s-3,4.361-2.669,8.936" transform="translate(-418.996 -278.353)" fill="none" stroke="#914b60" stroke-linecap="round" stroke-linejoin="round" stroke-miterlimit="10" stroke-width="1"/>
          </g>
        </g>
        <g id="Grupo_1179124" data-name="Grupo 1179124" transform="translate(278.842 100.006)">
          <g id="Grupo_1179117" data-name="Grupo 1179117" transform="translate(93.819 142.381)">
            <path id="Trazado_1038680" data-name="Trazado 1038680" d="M669.022,410.817l3.534-.817s5.617.654,5.453,9.641-2.121,14.171-4.492,14.112-6.813-11.876-6.813-11.876Z" transform="translate(-634.068 -396.601)" fill="#ff6f89"/>
            <path id="Trazado_1038681" data-name="Trazado 1038681" d="M616.9,401.175s-2.261,28.088,12.773,28.714,24.838-13.6,24.838-13.6,2.941-9.79-2.778-12.568l-8.17,1.156s3.268-9.163.327-15.372Z" transform="translate(-616.774 -389.5)" fill="#424082"/>
            <path id="Trazado_1038682" data-name="Trazado 1038682" d="M644.895,392.9a12.5,12.5,0,0,0-1.011-3.4L616.9,401.175a62.266,62.266,0,0,0,.066,8.765c3.358-.746,9.462-2.518,14.177-6.223C638,398.324,644.895,392.9,644.895,392.9Z" transform="translate(-616.774 -389.5)" fill="#201e5d"/>
            <path id="Trazado_1038683" data-name="Trazado 1038683" d="M668.7,423.818s2.941-9.79-2.778-12.568l-8.17,1.156s5.137,8.993,2.99,19.351A37.909,37.909,0,0,0,668.7,423.818Z" transform="translate(-630.967 -397.034)" fill="#d99ca2"/>
          </g>
          <g id="Grupo_1179118" data-name="Grupo 1179118" transform="translate(33.5 145.781)">
            <path id="Trazado_1038684" data-name="Trazado 1038684" d="M564.765,394.7S549.95,417.12,543.25,434.768l10.757,13.509s15.878-18.418,18.928-23.589,20.153-21.711,20.153-21.711Z" transform="translate(-530.989 -394.702)" fill="#424082"/>
            <path id="Trazado_1038685" data-name="Trazado 1038685" d="M570.335,400.719a48.3,48.3,0,0,0,22.059,12.355c5.075-5.26,10.076-10.1,10.076-10.1L574.147,394.7S572.622,397.011,570.335,400.719Z" transform="translate(-540.37 -394.702)" fill="#201e5d"/>
            <path id="Trazado_1038686" data-name="Trazado 1038686" d="M553.757,460.668s7.577-8.79,13.269-15.93c-3.268-9.922-11.488-13.19-16.294-14.26a174.985,174.985,0,0,0-8.2,17.771Z" transform="translate(-530.739 -407.094)" fill="#d99ca2"/>
            <path id="Trazado_1038687" data-name="Trazado 1038687" d="M548.07,468.7a15.351,15.351,0,0,0-6.672-10.567c-4.223-2.739-13.835-6.645-16.558-2.941s11.176,16.668,18.987,16.341C543.827,471.537,547.662,471.537,548.07,468.7Z" transform="translate(-524.491 -415.13)" fill="#ff6f89"/>
            <path id="Trazado_1038688" data-name="Trazado 1038688" d="M543.829,472.378a6.211,6.211,0,0,0,2.842-.769c-1.007-3.735-5.984-8.654-11.6-12.3-5.458-3.545-8.763-3.444-10.406-2.942C522.877,460.441,536.231,472.7,543.829,472.378Z" transform="translate(-524.494 -415.971)" fill="#9a408f"/>
          </g>
          <g id="Grupo_1179119" data-name="Grupo 1179119" transform="translate(30.175 83.449)">
            <path id="Trazado_1038689" data-name="Trazado 1038689" d="M519.409,336.664s-.478,8.683,8.447,16.232c6.891,5.828,9.594,3.377,9.594,3.377l3.045-2.715-16.515-19.415Z" transform="translate(-519.404 -311.394)" fill="#9a408f"/>
            <path id="Trazado_1038690" data-name="Trazado 1038690" d="M547.015,302.489s-6.957,6.6-11.7,11.5-15.909,10.621-15.909,10.621,17.557,8.17,18.04,19.609l12.877-11.48,2.067,3.146-5.381,7.026a40.388,40.388,0,0,1,12.979,7.68L551.66,366.6s12.255,10.295,27.452,9.968,23.2-13.89,36.44-15.033c0,0-5.992-43.793-44.12-62.2Z" transform="translate(-519.407 -299.339)" fill="#ff6f89"/>
            <path id="Trazado_1038691" data-name="Trazado 1038691" d="M563.167,306c.871.327,5.665,4.9,5.665,4.9a15.42,15.42,0,0,0,3.486,8.933s9.419-5.338,10.32-16.668Z" transform="translate(-534.562 -300.665)" fill="#d99ca2"/>
            <path id="Trazado_1038692" data-name="Trazado 1038692" d="M563.172,306a11.732,11.732,0,0,1,1.96,1.509h0a48.5,48.5,0,0,0,16.111,1.667,20.632,20.632,0,0,0,1.394-6.011L563.168,306Z" transform="translate(-534.563 -300.665)" fill="#af6781"/>
            <line id="Línea_638" data-name="Línea 638" x2="5.665" y2="4.139" transform="translate(31.437 7.731)" fill="none" stroke="#af6781" stroke-linecap="round" stroke-linejoin="round" stroke-miterlimit="10" stroke-width="1"/>
            <path id="Trazado_1038693" data-name="Trazado 1038693" d="M561.643,366a25.436,25.436,0,0,0,11.89,15.469c9.8,5.556,10.785,2.4,10.785,2.4A46.036,46.036,0,0,0,561.643,366Z" transform="translate(-534.035 -322.429)" fill="#9a408f"/>
            <line id="Línea_639" data-name="Línea 639" y1="11.693" x2="10.081" transform="translate(32.989 24.852)" fill="none" stroke="#9a408f" stroke-linecap="round" stroke-linejoin="round" stroke-miterlimit="10" stroke-width="1"/>
            <path id="Trazado_1038694" data-name="Trazado 1038694" d="M596.333,376.635a55.774,55.774,0,0,0,15.143-31.51" transform="translate(-546.05 -315.198)" fill="none" stroke="#9a408f" stroke-linecap="round" stroke-linejoin="round" stroke-miterlimit="10" stroke-width="1"/>
            <line id="Línea_640" data-name="Línea 640" y1="5.432" x2="5.494" transform="translate(63.765 32.638)" fill="none" stroke="#9a408f" stroke-linecap="round" stroke-linejoin="round" stroke-miterlimit="10" stroke-width="1"/>
            <path id="Trazado_1038695" data-name="Trazado 1038695" d="M608.4,376.035a15.37,15.37,0,0,0,10.636,0c5.665-2.138,9.042-2.9,11.548-2.574" transform="translate(-550.228 -324.988)" fill="none" stroke="#9a408f" stroke-linecap="round" stroke-linejoin="round" stroke-miterlimit="10" stroke-width="1"/>
            <line id="Línea_641" data-name="Línea 641" x1="4.714" y1="5.879" transform="translate(26.208 27.52)" fill="none" stroke="#9a408f" stroke-linecap="round" stroke-linejoin="round" stroke-miterlimit="10" stroke-width="1"/>
            <path id="Trazado_1038696" data-name="Trazado 1038696" d="M577.167,319.61s9.368-2.724,17.757,2.288c0,0,2.086-13.048-1.3-19.379" transform="translate(-539.412 -300.44)" fill="none" stroke="#9a408f" stroke-linecap="round" stroke-linejoin="round" stroke-miterlimit="10" stroke-width="1"/>
            <path id="Trazado_1038697" data-name="Trazado 1038697" d="M556.556,309.533,551,319.969a15.754,15.754,0,0,1,17.1,2.07" transform="translate(-530.348 -302.87)" fill="none" stroke="#9a408f" stroke-linecap="round" stroke-linejoin="round" stroke-miterlimit="10" stroke-width="1"/>
            <path id="Trazado_1038698" data-name="Trazado 1038698" d="M528.99,332.61s16.184,6.017,16.429,18.987" transform="translate(-522.724 -310.863)" fill="none" stroke="#9a408f" stroke-linecap="round" stroke-linejoin="round" stroke-miterlimit="10" stroke-width="1"/>
            <path id="Trazado_1038699" data-name="Trazado 1038699" d="M566.712,359.381s18.308,3.13,23.465,17.454" transform="translate(-535.79 -320.136)" fill="none" stroke="#9a408f" stroke-linecap="round" stroke-linejoin="round" stroke-miterlimit="10" stroke-width="1"/>
          </g>
          <g id="Grupo_1179120" data-name="Grupo 1179120" transform="translate(16.511)">
            <path id="Trazado_1038700" data-name="Trazado 1038700" d="M612.62,193.631s13.539-8.9,24.433-4.685,17.212,15.766,13.073,25.352a187.435,187.435,0,0,1-8.279,16.831s7.787-1.091,9.558-5.039c0,0,3.732,17.22-13.262,20.689s-24.947-2.135-24.947-2.135Z" transform="translate(-538.027 -177.26)" fill="#faf492"/>
            <path id="Trazado_1038701" data-name="Trazado 1038701" d="M616.42,193.509a37.657,37.657,0,0,0-3.8,2.1l.554,49.16c.968-1.131,1.95-2.283,2.962-3.484C638.858,214.319,621.148,197.3,616.42,193.509Z" transform="translate(-538.027 -179.233)" fill="#f5c05b"/>
            <path id="Trazado_1038702" data-name="Trazado 1038702" d="M611.517,196.715s15.947,9.119,5.849,28.946L604,202.13Z" transform="translate(-535.042 -180.344)" fill="#d064a5"/>
            <path id="Trazado_1038703" data-name="Trazado 1038703" d="M586.807,171.668l11.18,1.6s3.934,2.4,1.422,8.825a89.963,89.963,0,0,1-6.61,12.945l-7.3-1.586Z" transform="translate(-528.634 -171.668)" fill="#ff6f89"/>
            <path id="Trazado_1038704" data-name="Trazado 1038704" d="M584.191,193.455s-5.556-18.628,0-21.461S589.2,185.5,584.191,193.455Z" transform="translate(-527.325 -171.668)" fill="#9a408f"/>
            <path id="Trazado_1038705" data-name="Trazado 1038705" d="M614.313,179.93a22.268,22.268,0,0,1,4.672,8,5.259,5.259,0,0,1-2.707,6.226l-15.526,7.719-9.587-7.408Z" transform="translate(-530.596 -174.53)" fill="#ff6f89"/>
            <path id="Trazado_1038706" data-name="Trazado 1038706" d="M591.167,193.888s10.458-17.43,21.134-15.469S591.167,193.888,591.167,193.888Z" transform="translate(-530.597 -173.953)" fill="#9a408f"/>
            <path id="Trazado_1038707" data-name="Trazado 1038707" d="M515.078,252.723s-2.179-11.195-11-8.171-8.07,27.752,8.766,24.267Z" transform="translate(-498.499 -196.734)" fill="#af6781"/>
            <path id="Trazado_1038708" data-name="Trazado 1038708" d="M504.61,254.679s1.586-2.792,4.785-.964,4.6,8.2,4.6,8.2" transform="translate(-500.616 -199.872)" fill="none" stroke="#914b60" stroke-linecap="round" stroke-linejoin="round" stroke-miterlimit="10" stroke-width="1"/>
            <path id="Trazado_1038709" data-name="Trazado 1038709" d="M514.962,231.748c-3.319,12.236,3.467,19.12,3.467,19.12a75.7,75.7,0,0,1,2.63-16.964A20.324,20.324,0,0,1,514.962,231.748Z" transform="translate(-503.885 -192.478)" fill="#faf492"/>
            <path id="Trazado_1038710" data-name="Trazado 1038710" d="M555.365,195.173s1.634-14.38-12.582-15.2-22.877,9.641-22.877,9.641-8.5,10.948-21.406,2.451c0,0-.49,27.616,26.962,24.021s25.982-10.131,25.982-10.131,1.307,17.811,18.3,20.753l2.778,7.951s4.249-10.893,13.073-11.546c0,0-1.486-20.933-14.38-28.269C561.738,189.453,555.365,195.173,555.365,195.173Z" transform="translate(-498.499 -174.53)" fill="#faf492"/>
            <path id="Trazado_1038711" data-name="Trazado 1038711" d="M590.763,236.983c-8.824.654-13.073,11.546-13.073,11.546l-2.778-7.951c-16.139-2.794-18.129-18.987-18.289-20.61.024.971-.924,6.706-25.995,9.989a30.881,30.881,0,0,1-9.789-.133,75.772,75.772,0,0,0-2.63,16.964s-10.785,11.272,0,22.794S569.683,283.49,580.3,266.2l1.471-2.745s6.536,5.229,13.4.49S604.979,239.108,590.763,236.983Z" transform="translate(-503.666 -188.398)" fill="#d99ca2"/>
            <path id="Trazado_1038712" data-name="Trazado 1038712" d="M558.693,227.07s7.517,15.143,20.153,13.509c-16.139-2.794-18.129-18.987-18.289-20.61.024.971-.924,6.706-25.995,9.989a30.881,30.881,0,0,1-9.789-.133S545.293,235.676,558.693,227.07Z" transform="translate(-507.6 -188.398)" fill="#af6781"/>
            <path id="Trazado_1038713" data-name="Trazado 1038713" d="M624.482,270.036s4.575-3.286,0-7.208c0,0-.981-9.314,7.68-7.68" transform="translate(-542.125 -200.517)" fill="none" stroke="#af6781" stroke-linecap="round" stroke-linejoin="round" stroke-miterlimit="10" stroke-width="1"/>
            <path id="Trazado_1038714" data-name="Trazado 1038714" d="M540.923,269.146s-2.451-3.08,0-4.481,6.536,1.044,6.536,1.044" transform="translate(-512.816 -203.729)" fill="none" stroke="#af6781" stroke-linecap="round" stroke-linejoin="round" stroke-miterlimit="10" stroke-width="1"/>
            <path id="Trazado_1038715" data-name="Trazado 1038715" d="M547.011,260.973s2.825-3.349,2.934-6.89" transform="translate(-515.302 -200.214)" fill="none" stroke="#af6781" stroke-linecap="round" stroke-linejoin="round" stroke-miterlimit="10" stroke-width="1"/>
            <ellipse id="Elipse_12402" data-name="Elipse 12402" cx="1.961" cy="2.86" rx="1.961" ry="2.86" transform="translate(21.734 54.141)" fill="#4a303e"/>
            <path id="Trazado_1038716" data-name="Trazado 1038716" d="M566.589,260.084c-.405,1.511-1.677,2.483-2.839,2.171s-1.776-1.79-1.37-3.3,1.676-2.483,2.839-2.171S566.995,258.573,566.589,260.084Z" transform="translate(-520.583 -201.13)" fill="#4a303e"/>
            <path id="Trazado_1038717" data-name="Trazado 1038717" d="M528.75,243.416a9.484,9.484,0,0,1,7.244-2.451" transform="translate(-508.977 -195.648)" fill="none" stroke="#f3ec9b" stroke-linecap="round" stroke-linejoin="round" stroke-miterlimit="10" stroke-width="1"/>
            <path id="Trazado_1038718" data-name="Trazado 1038718" d="M568.75,242.833s5.5,0,8.334,3.949" transform="translate(-522.832 -196.318)" fill="none" stroke="#f3ec9b" stroke-linecap="round" stroke-linejoin="round" stroke-miterlimit="10" stroke-width="1"/>
            <path id="Trazado_1038719" data-name="Trazado 1038719" d="M553.167,280.413s5.011.054,7.136-3c0,0,5.447,9.478,2.724,11.656S553.167,280.413,553.167,280.413Z" transform="translate(-517.435 -208.297)" fill="#4a303e"/>
            <path id="Trazado_1038720" data-name="Trazado 1038720" d="M556.78,280.148l1.669,2.389a18.907,18.907,0,0,0,4.688-2c-.815-1.784-1.583-3.121-1.583-3.121A7.568,7.568,0,0,1,556.78,280.148Z" transform="translate(-518.686 -208.296)" fill="#fff"/>
            <path id="Trazado_1038721" data-name="Trazado 1038721" d="M566.78,292.137c1.23-.984.792-3.458-.057-5.874-1.114.925-2.939,2.854-2.693,5.4C565.106,292.4,566.086,292.692,566.78,292.137Z" transform="translate(-521.189 -211.361)" fill="#ff6f89"/>
            <path id="Trazado_1038722" data-name="Trazado 1038722" d="M550.083,281.207a13.929,13.929,0,0,0,6.837-.869" transform="translate(-516.366 -209.308)" fill="none" stroke="#af6781" stroke-linecap="round" stroke-linejoin="round" stroke-miterlimit="10" stroke-width="1"/>
            <path id="Trazado_1038723" data-name="Trazado 1038723" d="M566.667,299.919s3.758.708,4.194-2.669" transform="translate(-522.111 -215.166)" fill="none" stroke="#af6781" stroke-linecap="round" stroke-linejoin="round" stroke-miterlimit="10" stroke-width="1"/>
            <line id="Línea_642" data-name="Línea 642" x1="3.268" y1="1.961" transform="translate(74.841 73.096)" fill="none" stroke="#af6781" stroke-linecap="round" stroke-linejoin="round" stroke-miterlimit="10" stroke-width="1"/>
            <path id="Trazado_1038724" data-name="Trazado 1038724" d="M518.478,233.2a21.825,21.825,0,0,0,9.165,1.66" transform="translate(-505.419 -192.98)" fill="none" stroke="#d29f4f" stroke-linecap="round" stroke-linejoin="round" stroke-miterlimit="10" stroke-width="1"/>
            <line id="Línea_643" data-name="Línea 643" y1="6.733" x2="2.275" transform="translate(52.958 24.837)" fill="none" stroke="#d29f4f" stroke-linecap="round" stroke-linejoin="round" stroke-miterlimit="10" stroke-width="1"/>
            <path id="Trazado_1038725" data-name="Trazado 1038725" d="M607.5,250.591s5.338.273,7.843-1.716" transform="translate(-536.254 -198.41)" fill="none" stroke="#d29f4f" stroke-linecap="round" stroke-linejoin="round" stroke-miterlimit="10" stroke-width="1"/>
            <line id="Línea_644" data-name="Línea 644" x1="1.961" y2="6.633" transform="translate(101.857 53.869)" fill="none" stroke="#d29f4f" stroke-linecap="round" stroke-linejoin="round" stroke-miterlimit="10" stroke-width="1"/>
            <path id="Trazado_1038726" data-name="Trazado 1038726" d="M498.5,198.5s5.323,8.606,17.641,5.883" transform="translate(-498.499 -180.962)" fill="none" stroke="#d29f4f" stroke-linecap="round" stroke-linejoin="round" stroke-miterlimit="10" stroke-width="1"/>
          </g>
          <g id="Grupo_1179121" data-name="Grupo 1179121" transform="translate(0 110.11)">
            <path id="Trazado_1038727" data-name="Trazado 1038727" d="M506.054,340.128l-15.79,9.131-8.684-1.126s-3.595-1.226-4.739,1.471-3.268,6.455-3.268,6.455-1.8,4.575,2.941,4.739c0,0-.188,3.132,4.142,1.743,0,0,.651,3.868,3.756,3.541l2.473-.875a4.476,4.476,0,0,0,3.764,1.638c2.451-.163,4.412-2.941,5.066-3.84a7.351,7.351,0,0,0,.654-3.186l20.215-11.62S511,342.254,506.054,340.128Z" transform="translate(-473.238 -340.128)" fill="#d99ca2"/>
            <path id="Trazado_1038728" data-name="Trazado 1038728" d="M523.444,340.128s4.673,4.992,5.943,10.705l4.585-2.635S528.391,342.254,523.444,340.128Z" transform="translate(-490.628 -340.128)" fill="#af6781"/>
            <line id="Línea_645" data-name="Línea 645" y1="2.665" x2="3.928" transform="translate(13.646 22.412)" fill="none" stroke="#af6781" stroke-linecap="round" stroke-linejoin="round" stroke-miterlimit="10" stroke-width="1"/>
            <line id="Línea_646" data-name="Línea 646" y1="5.42" x2="3.865" transform="translate(7.418 16.992)" fill="none" stroke="#af6781" stroke-linecap="round" stroke-linejoin="round" stroke-miterlimit="10" stroke-width="1"/>
            <line id="Línea_647" data-name="Línea 647" y1="7.306" x2="3.513" transform="translate(3.276 13.363)" fill="none" stroke="#af6781" stroke-linecap="round" stroke-linejoin="round" stroke-miterlimit="10" stroke-width="1"/>
            <path id="Trazado_1038729" data-name="Trazado 1038729" d="M474.791,392.184" transform="translate(-473.776 -358.159)" fill="none" stroke="#af6781" stroke-linecap="round" stroke-linejoin="round" stroke-miterlimit="10" stroke-width="1"/>
          </g>
          <g id="Grupo_1179122" data-name="Grupo 1179122" transform="translate(10.841 120.628)">
            <path id="Trazado_1038730" data-name="Trazado 1038730" d="M515.867,362.612c-.544-.109-4.466-.121-7.517-2.838s-8.2-6.059-13.756-.71-6.67,17.383-1.141,19.235,10.1,3.781,12.718,6.194,12.116,4.537,15.251-.8,7.408-12.653,3.086-16.749C521.655,364.237,515.867,362.612,515.867,362.612Z" transform="translate(-489.825 -356.219)" fill="#aaf4db"/>
            <path id="Trazado_1038731" data-name="Trazado 1038731" d="M532.837,389.2c3-5.112,7.043-12.035,3.585-16.21-2.2-1.117-5.7-1.741-9.583,1.965-5.215,4.982-4.872,13.761-1.971,17.541C528.008,392.7,531.244,391.915,532.837,389.2Z" transform="translate(-501.239 -361.73)" fill="#4fb2ac"/>
            <path id="Trazado_1038732" data-name="Trazado 1038732" d="M506.515,358.425s-16.491,6.715-13.439,22.155a3.615,3.615,0,0,0,4.557,2.812,5.126,5.126,0,0,0,2.676-2.15" transform="translate(-490.821 -356.983)" fill="none" stroke="#fff" stroke-linecap="round" stroke-linejoin="round" stroke-miterlimit="10" stroke-width="1"/>
            <path id="Trazado_1038733" data-name="Trazado 1038733" d="M513.385,360.572s-8.489,2.832-6.223,22.308" transform="translate(-495.697 -357.727)" fill="none" stroke="#fff" stroke-linecap="round" stroke-linejoin="round" stroke-miterlimit="10" stroke-width="1"/>
            <path id="Trazado_1038734" data-name="Trazado 1038734" d="M510.942,385.8s2.631-17.022,9.559-20.427" transform="translate(-497.139 -359.39)" fill="none" stroke="#fff" stroke-linecap="round" stroke-linejoin="round" stroke-miterlimit="10" stroke-width="1"/>
            <path id="Trazado_1038735" data-name="Trazado 1038735" d="M516.886,382.437s6.181-14.516,13.695-13.25" transform="translate(-499.198 -360.684)" fill="none" stroke="#fff" stroke-linecap="round" stroke-linejoin="round" stroke-miterlimit="10" stroke-width="1"/>
          </g>
          <g id="Grupo_1179123" data-name="Grupo 1179123" transform="translate(36.44 127.621)">
            <path id="Trazado_1038736" data-name="Trazado 1038736" d="M532,397.5s1.975,4.891,1.881,6.4,5.55,2.258,4.327-4.139Z" transform="translate(-530.032 -377.511)" fill="#af6781"/>
            <path id="Trazado_1038737" data-name="Trazado 1038737" d="M551.928,366.919l-9.532,9.212-4.821-1.561a3.542,3.542,0,0,0-3.758,1.961,68,68,0,0,1-4.1,5.627,3.267,3.267,0,0,0-.687,2.519c.27,1.786,1.184,4.466,4.243,4.191,0,0,.875,3.432,5.042,2.451,0,0,2.264,3.677,5.5,1.144v-1.852c3.1.436,5.747-2.573,6.519-5.533,0,0,10.657-7.779,12.349-11.991C562.682,373.087,559.39,369.369,551.928,366.919Z" transform="translate(-528.989 -366.919)" fill="#d99ca2"/>
            <path id="Trazado_1038738" data-name="Trazado 1038738" d="M572.36,376.558a12.89,12.89,0,0,0,2.477-3.469s-3.292-3.719-10.754-6.168A56.366,56.366,0,0,1,572.36,376.558Z" transform="translate(-541.145 -366.919)" fill="#af6781"/>
            <line id="Línea_648" data-name="Línea 648" x2="6.046" y2="2.606" transform="translate(13.406 9.212)" fill="none" stroke="#af6781" stroke-linecap="round" stroke-linejoin="round" stroke-miterlimit="10" stroke-width="1"/>
            <path id="Trazado_1038739" data-name="Trazado 1038739" d="M535.363,397.816s-.735-3.513,0-5.066" transform="translate(-531.084 -375.866)" fill="none" stroke="#af6781" stroke-linecap="round" stroke-linejoin="round" stroke-miterlimit="10" stroke-width="1"/>
            <path id="Trazado_1038740" data-name="Trazado 1038740" d="M543,400.943s-1.062-4.8,0-6.241" transform="translate(-533.679 -376.542)" fill="none" stroke="#af6781" stroke-linecap="round" stroke-linejoin="round" stroke-miterlimit="10" stroke-width="1"/>
            <path id="Trazado_1038741" data-name="Trazado 1038741" d="M551.669,403.316V398.74l2.022-.49" transform="translate(-536.845 -377.771)" fill="none" stroke="#af6781" stroke-linecap="round" stroke-linejoin="round" stroke-miterlimit="10" stroke-width="1"/>
          </g>
        </g>
        <g id="Grupo_1179125" data-name="Grupo 1179125" transform="translate(145.601 0)">
          <path id="Trazado_1038742" data-name="Trazado 1038742" d="M530.333,23.46s8.933,38.782,18.519,51.637c0,0,71.028,12.637,92.379,10.022,0,0-36.167-40.743-46.625-66.452C594.607,18.667,552.339,28.253,530.333,23.46Z" transform="translate(-359.773 -18.666)" fill="#00a979"/>
          <path id="Trazado_1038743" data-name="Trazado 1038743" d="M530.333,23.46s52.073,46.517,110.9,61.659c0,0-36.167-40.743-46.625-66.452C594.607,18.667,552.339,28.253,530.333,23.46Z" transform="translate(-359.773 -18.666)" fill="#d064a5"/>
          <line id="Línea_649" data-name="Línea 649" y1="56.43" x2="45.754" transform="translate(189.08 0.001)" fill="none" stroke="#153f4d" stroke-linecap="round" stroke-linejoin="round" stroke-miterlimit="10" stroke-width="1"/>
          <path id="Trazado_1038744" data-name="Trazado 1038744" d="M530.333,26s53.707,48.8,110.9,61.659" transform="translate(-359.773 -21.206)" fill="none" stroke="#153f4d" stroke-linecap="round" stroke-linejoin="round" stroke-miterlimit="10" stroke-width="1"/>
          <path id="Trazado_1038745" data-name="Trazado 1038745" d="M467.9,214.208c20.9-34.814,63.467-93.329,63.467-93.329" transform="translate(-338.148 -54.07)" fill="none" stroke="#f8ffe1" stroke-linecap="round" stroke-linejoin="round" stroke-miterlimit="10" stroke-width="1"/>
          <path id="Trazado_1038746" data-name="Trazado 1038746" d="M361,322.707s5.9.664,12.954,7.149c8.576,7.885,22.895,37.492,51.45,23.454,22.529-11.076-9.165-39.792-3.615-62.608" transform="translate(-301.121 -112.891)" fill="none" stroke="#f8ffe1" stroke-linecap="round" stroke-linejoin="round" stroke-miterlimit="10" stroke-width="1"/>
          <path id="Trazado_1038747" data-name="Trazado 1038747" d="M530.333,26l22.659,62.015,88.24-.356" transform="translate(-359.773 -21.206)" fill="none" stroke="#f8ffe1" stroke-linecap="round" stroke-linejoin="round" stroke-miterlimit="10" stroke-width="1"/>
          <line id="Línea_650" data-name="Línea 650" y1="66.808" x2="41.615" transform="translate(193.219 0.001)" fill="none" stroke="#f8ffe1" stroke-linecap="round" stroke-linejoin="round" stroke-miterlimit="10" stroke-width="1"/>
          <path id="Trazado_1038748" data-name="Trazado 1038748" d="M311.822,374.417s-1.321,27.114-26.906,26.929-17.449-26.284,9.095-13.67,33.169,62.847,81.936,44.148C392,425.667,429.819,390.8,429.819,390.8" transform="translate(-269.39 -141.888)" fill="none" stroke="#fff" stroke-linecap="round" stroke-linejoin="round" stroke-miterlimit="10" stroke-width="1"/>
        </g>
      </g>
    </g>
  </g>
</svg>
