<svg xmlns="http://www.w3.org/2000/svg" xmlns:xlink="http://www.w3.org/1999/xlink" width="108" height="108" viewBox="0 0 108 108">
  <defs>
    <filter id="Trazado_904820" x="0" y="0" width="108" height="108" filterUnits="userSpaceOnUse">
      <feOffset dy="3" input="SourceAlpha"/>
      <feGaussianBlur stdDeviation="3" result="blur"/>
      <feFlood flood-opacity="0.161"/>
      <feComposite operator="in" in2="blur"/>
      <feComposite in="SourceGraphic"/>
    </filter>
  </defs>
  <g id="Grupo_1179148" data-name="Grupo 1179148" transform="translate(-200 -2170)">
    <g id="Grupo_1175137" data-name="Grupo 1175137" transform="translate(-0.455 1414.33)">
      <g id="Grupo_1173787" data-name="Grupo 1173787" transform="translate(209.455 761.67)">
        <g id="Grupo_1171910" data-name="Grupo 1171910" transform="translate(0)">
          <g id="Grupo_1167341" data-name="Grupo 1167341">
            <g id="Grupo_1166792" data-name="Grupo 1166792">
              <g transform="matrix(1, 0, 0, 1, -9, -6)" filter="url(#Trazado_904820)">
                <g id="Trazado_904820-2" data-name="Trazado 904820" transform="translate(9 6)" fill="#fdfbec">
                  <path d="M 44.99999618530273 88.50003051757812 C 39.12687301635742 88.50003051757812 33.43022155761719 87.35010528564453 28.06829643249512 85.08219909667969 C 22.88852119445801 82.89134216308594 18.23629570007324 79.75461578369141 14.24084663391113 75.75916290283203 C 10.24540901184082 71.76371765136719 7.108683586120605 67.11150360107422 4.917821407318115 61.93172836303711 C 2.649921178817749 56.56978988647461 1.499996185302734 50.87313842773438 1.499996185302734 45.00001525878906 C 1.499996185302734 39.12689208984375 2.649921178817749 33.43024063110352 4.917821407318115 28.06831550598145 C 7.108683586120605 22.88854026794434 10.24540901184082 18.23631477355957 14.24084663391113 14.24086570739746 C 18.23629570007324 10.24541568756104 22.88852119445801 7.10869026184082 28.06829643249512 4.917840480804443 C 33.43022155761719 2.649927854537964 39.12687301635742 1.50000274181366 44.99999618530273 1.50000274181366 C 50.87311935424805 1.50000274181366 56.56977081298828 2.649927854537964 61.93169784545898 4.917840480804443 C 67.11147308349609 7.10869026184082 71.76369476318359 10.24541568756104 75.75914764404297 14.24086570739746 C 79.75458526611328 18.23631477355957 82.89131164550781 22.88854026794434 85.08216857910156 28.06831550598145 C 87.35007476806641 33.43024063110352 88.5 39.12689208984375 88.5 45.00001525878906 C 88.5 50.87313842773438 87.35007476806641 56.56978988647461 85.08216857910156 61.93172836303711 C 82.89131164550781 67.11150360107422 79.75458526611328 71.76371765136719 75.75914764404297 75.75916290283203 C 71.76369476318359 79.75461578369141 67.11147308349609 82.89134216308594 61.93169784545898 85.08219909667969 C 56.56977081298828 87.35010528564453 50.87311935424805 88.50003051757812 44.99999618530273 88.50003051757812 Z" stroke="none"/>
                  <path d="M 44.99999618530273 3 C 39.32870864868164 3 33.82865142822266 4.110061645507812 28.65262603759766 6.299346923828125 C 23.65165710449219 8.414573669433594 19.15968322753906 11.44334411621094 15.301513671875 15.301513671875 C 11.44333648681641 19.15968322753906 8.414566040039062 23.65165710449219 6.299339294433594 28.65262985229492 C 4.110054016113281 33.82867050170898 2.999992370605469 39.32872772216797 2.999992370605469 45.00001525878906 C 2.999992370605469 50.67130279541016 4.110054016113281 56.17136001586914 6.299339294433594 61.34738922119141 C 8.414566040039062 66.34837341308594 11.44333648681641 70.84033203125 15.301513671875 74.69850158691406 C 19.15968322753906 78.55668640136719 23.65165710449219 81.58545684814453 28.65262603759766 83.70068359375 C 33.82865142822266 85.88996887207031 39.32870864868164 87.00003051757812 44.99999618530273 87.00003051757812 C 50.67128372192383 87.00003051757812 56.17134094238281 85.88996887207031 61.34736633300781 83.70068359375 C 66.34834289550781 81.58545684814453 70.84030914306641 78.55668640136719 74.69847869873047 74.69850158691406 C 78.55665588378906 70.84033203125 81.58542633056641 66.34837341308594 83.70065307617188 61.34738922119141 C 85.88993835449219 56.17136001586914 87 50.67130279541016 87 45.00001525878906 C 87 39.32872772216797 85.88993835449219 33.82867050170898 83.70065307617188 28.65262985229492 C 81.58542633056641 23.65165710449219 78.55665588378906 19.15968322753906 74.69847869873047 15.301513671875 C 70.84030914306641 11.44334411621094 66.34834289550781 8.414573669433594 61.34736633300781 6.299346923828125 C 56.17134094238281 4.110061645507812 50.67128372192383 3 44.99999618530273 3 M 44.99999618530273 0 C 69.85281372070312 0 90 20.14718627929688 90 45.00001525878906 C 90 69.85282897949219 69.85281372070312 90.00003051757812 44.99999618530273 90.00003051757812 C 20.14717864990234 90.00003051757812 -7.62939453125e-06 69.85282897949219 -7.62939453125e-06 45.00001525878906 C -7.62939453125e-06 20.14718627929688 20.14717864990234 0 44.99999618530273 0 Z" stroke="none" fill="#84792b"/>
                </g>
              </g>
            </g>
          </g>
        </g>
      </g>
    </g>
    <g id="chico" transform="translate(198.199 2190)">
      <g id="Grupo_1179128" data-name="Grupo 1179128" transform="translate(46.866 50.027)">
        <g id="Grupo_1179127" data-name="Grupo 1179127" transform="translate(0 1.432)">
          <path id="Trazado_1038749" data-name="Trazado 1038749" d="M206.876,427.985h-2.09l-6.763,4.2v3.905l1.36,1.124h14.988a9.455,9.455,0,0,0-2.059-5.882A9.352,9.352,0,0,0,206.876,427.985Z" transform="translate(-195.668 -427.798)" fill="#ff8e9e"/>
          <path id="Trazado_1038750" data-name="Trazado 1038750" d="M187.856,426.438a9.23,9.23,0,0,0-4.57,1.206,9.455,9.455,0,0,0-4.781,8.211h3.716a9.419,9.419,0,0,1,7.492-9.231,9.269,9.269,0,0,0-1.857-.187Z" transform="translate(-178.504 -426.438)" fill="#ea5b70"/>
        </g>
        <path id="Trazado_1038751" data-name="Trazado 1038751" d="M222.7,414.57l-4.57,2.639a7.07,7.07,0,0,0,4.57,5.205,7.069,7.069,0,0,0,4.572-5.205Z" transform="translate(-213.344 -414.57)" fill="#ffbf9d"/>
      </g>
      <g id="Grupo_1179129" data-name="Grupo 1179129" transform="translate(34.351 31.403)">
        <circle id="Elipse_12404" data-name="Elipse 12404" cx="4.354" cy="4.354" r="4.354" transform="translate(0)" fill="#ffbf9d"/>
        <circle id="Elipse_12405" data-name="Elipse 12405" cx="4.354" cy="4.354" r="4.354" transform="translate(35.026)" fill="#ffbf9d"/>
      </g>
      <g id="Grupo_1179130" data-name="Grupo 1179130" transform="translate(38.705 24.896)">
        <path id="Trazado_1038752" data-name="Trazado 1038752" d="M110.872,217.172l15,17.273h5.412q.849-.142,1.669-.363A17.52,17.52,0,0,0,145.9,217.172l-17.512-10.861Z" transform="translate(-110.872 -206.311)" fill="#ffd4bd"/>
        <path id="Trazado_1038753" data-name="Trazado 1038753" d="M116.678,275.16l-2.9-2.9-2.9,2.9a17.524,17.524,0,0,0,20.416,17.273,17.518,17.518,0,0,1-14.61-17.273Z" transform="translate(-110.873 -264.299)" fill="#ffbf9d"/>
      </g>
      <g id="Grupo_1179135" data-name="Grupo 1179135" transform="translate(71.869 46.58)">
        <g id="Grupo_1179134" data-name="Grupo 1179134">
          <g id="Grupo_1179133" data-name="Grupo 1179133">
            <g id="Grupo_1179131" data-name="Grupo 1179131" transform="translate(3.62)">
              <path id="Trazado_1038754" data-name="Trazado 1038754" d="M417.51,386l-1.81,1.81v11.755h4.525a5.432,5.432,0,0,0,2.715-4.7V391.43A5.437,5.437,0,0,0,417.51,386Z" transform="translate(-415.7 -386)" fill="#8288cb"/>
            </g>
            <g id="Grupo_1179132" data-name="Grupo 1179132">
              <path id="Trazado_1038755" data-name="Trazado 1038755" d="M391.139,386a5.445,5.445,0,0,0-5.429,5.43l2.715,2.413,2.715-2.413Z" transform="translate(-385.709 -386)" fill="#676fb2"/>
              <path id="Trazado_1038756" data-name="Trazado 1038756" d="M391.129,434.437V431H385.7c0,.017,0,.034,0,.051v3.384a5.426,5.426,0,0,0,8.145,4.7,5.432,5.432,0,0,1-2.715-4.7Z" transform="translate(-385.699 -425.57)" fill="#4c5699"/>
            </g>
          </g>
        </g>
        <path id="Trazado_1038757" data-name="Trazado 1038757" d="M417.422,416a1.844,1.844,0,0,0-1.723,1.859v1.212a1.81,1.81,0,1,0,3.62,0V417.81A1.81,1.81,0,0,0,417.422,416Z" transform="translate(-412.079 -412.38)" fill="#9ea2e3"/>
      </g>
      <g id="Grupo_1179137" data-name="Grupo 1179137" transform="translate(38.705 18.244)">
        <path id="Trazado_1038758" data-name="Trazado 1038758" d="M189.239,154.768a17.513,17.513,0,0,0-21.238,0v6.6h15.293l5.945-5.619Z" transform="translate(-161.107 -151.182)" fill="#ce857a"/>
        <path id="Trazado_1038759" data-name="Trazado 1038759" d="M301.86,189.076H300.68l-5.945,5.619,3.319,3.25a13.735,13.735,0,0,0,9.519,4.07A17.467,17.467,0,0,0,301.86,189.076Z" transform="translate(-272.548 -184.503)" fill="#ce857a"/>
        <g id="Grupo_1179136" data-name="Grupo 1179136" transform="translate(0 1.412)">
          <path id="Trazado_1038760" data-name="Trazado 1038760" d="M184.821,163.145a23.092,23.092,0,0,1-12.228,3.767h-3.928a23.2,23.2,0,0,1-4.416-.508l-5.336,1.207v11.372l10.1,0a19.354,19.354,0,0,0,18.177-14.086A1.569,1.569,0,0,0,184.821,163.145Z" transform="translate(-153.116 -162.883)" fill="#d6948c"/>
          <path id="Trazado_1038761" data-name="Trazado 1038761" d="M122.006,182.256a23,23,0,0,1-4.239-1.346,17.476,17.476,0,0,0-6.894,13.926h5.8A17.447,17.447,0,0,1,122.006,182.256Z" transform="translate(-110.873 -178.735)" fill="#ce857a"/>
        </g>
      </g>
      <g id="Grupo_1179140" data-name="Grupo 1179140" transform="translate(42.547 37.256)">
        <g id="Grupo_1179139" data-name="Grupo 1179139" transform="translate(0)">
          <g id="Grupo_1179138" data-name="Grupo 1179138">
            <ellipse id="Elipse_12406" data-name="Elipse 12406" cx="3.733" cy="2.973" rx="3.733" ry="2.973" fill="#ff8e9e"/>
            <ellipse id="Elipse_12407" data-name="Elipse 12407" cx="3.733" cy="2.973" rx="3.733" ry="2.973" transform="translate(19.874)" fill="#ff8e9e"/>
          </g>
          <ellipse id="Elipse_12408" data-name="Elipse 12408" cx="1.982" cy="2.218" rx="1.982" ry="2.218" transform="translate(11.749 1.126)" fill="#4c5699"/>
        </g>
      </g>
      <g id="Grupo_1179145" data-name="Grupo 1179145" transform="translate(36.981 0.905)">
        <g id="Grupo_1179141" data-name="Grupo 1179141" transform="translate(0 5.66)">
          <path id="Trazado_1038762" data-name="Trazado 1038762" d="M131.732,54.4a1.8,1.8,0,0,0-1.243.5h-3.9v4.789a1.665,1.665,0,1,1,1.665,1.665,1.667,1.667,0,0,1-1.665-1.665v4.789h3.9a1.808,1.808,0,0,0,3.053-1.314V56.21A1.81,1.81,0,0,0,131.732,54.4Z" transform="translate(-122.971 -54.4)" fill="#ffce71"/>
          <path id="Trazado_1038763" data-name="Trazado 1038763" d="M100.211,59.685a4.891,4.891,0,0,1,3.9-4.789,5.285,5.285,0,1,0,0,9.578A4.891,4.891,0,0,1,100.211,59.685Z" transform="translate(-96.591 -54.4)" fill="#ffb357"/>
        </g>
        <g id="Grupo_1179142" data-name="Grupo 1179142" transform="translate(14.201)">
          <path id="Trazado_1038764" data-name="Trazado 1038764" d="M228.713,32.695H225.48v3.62h3.233a1.666,1.666,0,0,1,0,3.331h-4.44l2.445,2.815a2.34,2.34,0,0,0,1.767.806h.228a5.286,5.286,0,0,0,0-10.571Z" transform="translate(-223.066 -29.655)" fill="#7ce3ff"/>
          <path id="Trazado_1038765" data-name="Trazado 1038765" d="M217.893,9.31a1.81,1.81,0,0,0-3.62,0V19.3c0,.006,0,.012,0,.018a1.81,1.81,0,0,0,1.81,1.793h3.609a1.817,1.817,0,0,1-1.8-1.8v-10Z" transform="translate(-214.273 -7.5)" fill="#55dafe"/>
        </g>
        <g id="Grupo_1179144" data-name="Grupo 1179144" transform="translate(28.715 4.54)">
          <g id="Grupo_1179143" data-name="Grupo 1179143" transform="translate(3.622 0.306)">
            <path id="Trazado_1038766" data-name="Trazado 1038766" d="M368.525,90.885a1.877,1.877,0,0,0-1.777-.325,1.669,1.669,0,0,1-2.184-1.586v4.985H368A1.8,1.8,0,0,0,368.525,90.885Z" transform="translate(-364.564 -83.989)" fill="#ff8e9e"/>
            <path id="Trazado_1038767" data-name="Trazado 1038767" d="M364.564,52.647V47.662H368a1.8,1.8,0,0,1,.524,3.074,1.877,1.877,0,0,1-1.777.325,1.669,1.669,0,0,0-2.184,1.586" transform="translate(-364.564 -47.662)" fill="#ff8e9e"/>
          </g>
          <path id="Trazado_1038768" data-name="Trazado 1038768" d="M338.174,50.415a5.334,5.334,0,0,1,3.437-4.985,5.29,5.29,0,1,0,0,9.97,5.334,5.334,0,0,1-3.437-4.985Z" transform="translate(-334.552 -45.124)" fill="#ea5b70"/>
        </g>
      </g>
      <g id="Grupo_1179146" data-name="Grupo 1179146" transform="translate(29.706 39.692)">
        <path id="Trazado_1038769" data-name="Trazado 1038769" d="M60.5,353.338,56.8,347.8H55.628v8.648h2.255l1.207-1.058.755-.231A1.207,1.207,0,0,0,60.5,353.338Z" transform="translate(-53.296 -345.526)" fill="#efedff"/>
        <path id="Trazado_1038770" data-name="Trazado 1038770" d="M42.59,340.41l-.495-1.618a1.776,1.776,0,0,1-2.295-1.7V331.2l-1.135-1.7a1.289,1.289,0,0,0-2.364.728v8.7a1.221,1.221,0,0,0,1.577,1.149l.755-.231.48,1.569a1.873,1.873,0,0,0,1.75,1.329,1.786,1.786,0,0,0,.441-.054A1.81,1.81,0,0,0,42.59,340.41Z" transform="translate(-36.301 -328.924)" fill="#d4d4ff"/>
      </g>
      <g id="Grupo_1179147" data-name="Grupo 1179147" transform="translate(28.801 -0.909)">
        <path id="Trazado_1038771" data-name="Trazado 1038771" d="M175.779,304.182a2.569,2.569,0,0,0-2.566,2.566.905.905,0,1,0,1.81,0,.756.756,0,0,1,1.512,0,.905.905,0,1,0,1.81,0A2.569,2.569,0,0,0,175.779,304.182Z" transform="translate(-155.786 -267.475)"/>
        <path id="Trazado_1038772" data-name="Trazado 1038772" d="M297.162,307.653a.905.905,0,0,0,.905-.905.756.756,0,0,1,1.512,0,.905.905,0,1,0,1.81,0,2.566,2.566,0,0,0-5.132,0A.905.905,0,0,0,297.162,307.653Z" transform="translate(-263.982 -267.475)"/>
        <path id="Trazado_1038773" data-name="Trazado 1038773" d="M238.351,313.688a2.9,2.9,0,1,0-2.887,3.123A3.015,3.015,0,0,0,238.351,313.688Zm-3.963,0A1.1,1.1,0,1,1,235.465,315,1.214,1.214,0,0,1,234.388,313.688Z" transform="translate(-207.988 -273.088)"/>
        <path id="Trazado_1038774" data-name="Trazado 1038774" d="M95.282,59.265a6.121,6.121,0,0,0,2.108-.37,2.718,2.718,0,0,0,4.083-2.345V49.6a2.718,2.718,0,0,0-4.083-2.345,6.122,6.122,0,0,0-2.108-.37,6.191,6.191,0,1,0,0,12.381Zm0-10.571a4.329,4.329,0,0,1,1.849.411.9.9,0,0,0,1.006-.162.9.9,0,0,1,1.526.656V56.55a.9.9,0,0,1-1.526.656.905.905,0,0,0-1.006-.162,4.33,4.33,0,0,1-1.849.411,4.38,4.38,0,1,1,0-8.761Z" transform="translate(-81.816 -41.224)"/>
        <path id="Trazado_1038775" data-name="Trazado 1038775" d="M121.661,82.041a2.57,2.57,0,1,0-2.57-2.57A2.573,2.573,0,0,0,121.661,82.041Zm0-3.331a.76.76,0,1,1-.76.76A.761.761,0,0,1,121.661,78.71Z" transform="translate(-108.195 -67.62)"/>
        <path id="Trazado_1038776" data-name="Trazado 1038776" d="M335.365,49.654a2.715,2.715,0,1,0-1.875-5.1.764.764,0,1,1-.019-1.445,2.729,2.729,0,0,0,3.566-3.065A2.643,2.643,0,0,0,335.306,38a6.194,6.194,0,1,0,.059,11.655ZM329,42.7a4.388,4.388,0,0,1,5.7-3,.848.848,0,0,1,.556.663.918.918,0,0,1-1.228,1.022,2.574,2.574,0,1,0,.091,4.865.905.905,0,1,1,.625,1.7A4.386,4.386,0,0,1,329,42.7Z" transform="translate(-291.049 -33.101)"/>
        <path id="Trazado_1038777" data-name="Trazado 1038777" d="M209.488,15.422h3.836a6.191,6.191,0,0,0,0-12.381H212.2V2.715a2.715,2.715,0,0,0-5.43,0V12.733a2.723,2.723,0,0,0,2.715,2.689Zm-.905-12.707a.905.905,0,1,1,1.81,0v1.23a.905.905,0,0,0,.905.905h2.026a4.381,4.381,0,0,1,0,8.761h-3.852a.91.91,0,0,1-.889-.9Z" transform="translate(-185.297 0)"/>
        <path id="Trazado_1038778" data-name="Trazado 1038778" d="M237.678,60.336H239.7a2.571,2.571,0,0,0,0-5.141h-2.026a.905.905,0,0,0-.905.905v3.331A.9.9,0,0,0,237.678,60.336Zm.905-3.33H239.7a.762.762,0,0,1,0,1.52h-1.121Z" transform="translate(-211.676 -48.534)"/>
        <path id="Trazado_1038779" data-name="Trazado 1038779" d="M84.985,180.436c1.186,3.057,4.048,4.623,5.087,4.623,1.021,0,4.287-1.679,5.324-5.326a18.5,18.5,0,0,0,12.329-12.378,5.256,5.256,0,0,0,0-10.509,18.31,18.31,0,0,0-1.963-4.386,20.336,20.336,0,0,0,1.734-4.2,2.473,2.473,0,0,0-3.731-2.756,22.359,22.359,0,0,1-2.961,1.629,18.421,18.421,0,0,0-21.96.364.928.928,0,0,0-.256,1.2.905.905,0,0,0,1.334.257,16.619,16.619,0,0,1,18.839-1.007,22.119,22.119,0,0,1-6.719,1.178.925.925,0,0,0-.914.892.9.9,0,0,0,.922.919,24,24,0,0,0,12.706-3.915.663.663,0,0,1,1,.743,18.341,18.341,0,0,1-17.316,13.429l-14.954,0a16.613,16.613,0,0,1,3.933-9.854.929.929,0,0,0-.055-1.28.9.9,0,0,0-1.3.079,18.412,18.412,0,0,0-3.646,6.706,5.256,5.256,0,0,0,0,10.509A18.5,18.5,0,0,0,83.5,179.307a10.4,10.4,0,0,0-3.687,7.9.929.929,0,0,0,.965.917l18.591,0a.914.914,0,0,0,.957-.943,10.445,10.445,0,0,0-1.924-5.965.9.9,0,1,0-1.479,1.034,8.457,8.457,0,0,1,1.545,4.062H96.564v-.834a.93.93,0,0,0-.877-.943.905.905,0,0,0-.933.9v.872H85.341v-.834a.93.93,0,0,0-.877-.943.905.905,0,0,0-.933.9v.872H81.676a8.587,8.587,0,0,1,3.31-5.881Zm23.19-21.734a3.45,3.45,0,0,1,0,6.8,18.446,18.446,0,0,0,.316-3.4h0A18.491,18.491,0,0,0,108.176,158.7ZM71.97,165.5a3.45,3.45,0,0,1,0-6.8,18.392,18.392,0,0,0-.318,3.4h0A18.446,18.446,0,0,0,71.97,165.5Zm18.106,17.748a6.152,6.152,0,0,1-3.2-3.009,18.5,18.5,0,0,0,6.4,0A6.161,6.161,0,0,1,90.076,183.249Zm10.4-24.537a20.464,20.464,0,0,0,4.208-4.5,16.517,16.517,0,0,1,1.965,6.942,12.652,12.652,0,0,1-6.274-2.364Zm-26.989,4.294,14.963,0h.017a19.85,19.85,0,0,0,10.351-3.115,14.539,14.539,0,0,0,7.837,3.085,16.608,16.608,0,0,1-33.168.034Z" transform="translate(-62.654 -126.344)"/>
        <path id="Trazado_1038780" data-name="Trazado 1038780" d="M384.534,378.5a6.368,6.368,0,0,0-6.335,6.387v3.384a6.335,6.335,0,1,0,12.671,0v-3.435A6.342,6.342,0,0,0,384.534,378.5Zm.905,1.9a4.539,4.539,0,0,1,3.529,3.529h-1.876a2.711,2.711,0,0,0-1.653-1.656Zm-.906,3.529a.9.9,0,0,1,.906.905V386.1a.905.905,0,1,1-1.81,0v-1.212A.938.938,0,0,1,384.534,383.93Zm-.9-3.528v1.874a2.735,2.735,0,0,0-1.659,1.705H380.1A4.565,4.565,0,0,1,383.629,380.4Zm5.43,7.868a4.525,4.525,0,1,1-9.05,0v-2.479h1.81v.307a2.715,2.715,0,1,0,5.43,0v-.358h1.81Z" transform="translate(-336.036 -332.825)"/>
        <path id="Trazado_1038781" data-name="Trazado 1038781" d="M32.822,322.39a2.195,2.195,0,0,0-4.022,1.231v8.7a2.126,2.126,0,0,0,2.635,2.042l.216.707a2.749,2.749,0,0,0,3.28,1.887,2.715,2.715,0,0,0,1.928-3.425l-.231-.756a2.111,2.111,0,0,0,1.029-3.157Zm3.168,8.694-.755.231a.905.905,0,0,0-.6,1.13l.495,1.618a.9.9,0,0,1-.644,1.142.947.947,0,0,1-1.1-.662l-.48-1.569a.905.905,0,0,0-1.13-.6l-.755.231a.316.316,0,0,1-.408-.284v-8.7a.383.383,0,0,1,.707-.221l4.836,7.232a.3.3,0,0,1-.163.456Z" transform="translate(-28.801 -282.621)"/>
      </g>
    </g>
  </g>
</svg>
