<svg xmlns="http://www.w3.org/2000/svg" xmlns:xlink="http://www.w3.org/1999/xlink" width="113" height="113" viewBox="0 0 113 113">
  <defs>
    <filter id="Trazado_982547" x="0" y="0" width="113" height="113" filterUnits="userSpaceOnUse">
      <feOffset dy="3" input="SourceAlpha"/>
      <feGaussianBlur stdDeviation="3" result="blur"/>
      <feFlood flood-opacity="0.161"/>
      <feComposite operator="in" in2="blur"/>
      <feComposite in="SourceGraphic"/>
    </filter>
  </defs>
  <g id="Grupo_1179568" data-name="Grupo 1179568" transform="translate(-324.764 -4100.901)">
    <g id="Grupo_1179559" data-name="Grupo 1179559" transform="translate(333.764 4106.901)">
      <g id="Grupo_1175141" data-name="Grupo 1175141">
        <g id="Grupo_1173988" data-name="Grupo 1173988">
          <g id="Grupo_1172010" data-name="Grupo 1172010">
            <g id="Grupo_1171046" data-name="Grupo 1171046">
              <g id="Grupo_1148525" data-name="Grupo 1148525">
                <g transform="matrix(1, 0, 0, 1, -9, -6)" filter="url(#Trazado_982547)">
                  <g id="Trazado_982547-2" data-name="Trazado 982547" transform="translate(9 6)" fill="#effbfe">
                    <path d="M 47.5 93.5 C 41.28937149047852 93.5 35.26533508300781 92.28397369384766 29.59518623352051 89.88570404052734 C 24.11771965026855 87.56893157958984 19.19813346862793 84.25196075439453 14.97309303283691 80.02691650390625 C 10.74804019927979 75.80186462402344 7.431066513061523 70.88229370117188 5.114293098449707 65.40481567382812 C 2.716026782989502 59.73468017578125 1.5 53.71062850952148 1.5 47.5 C 1.5 41.28937149047852 2.716026782989502 35.26533508300781 5.114293098449707 29.59518623352051 C 7.431066513061523 24.11771965026855 10.74804019927979 19.19813346862793 14.97309303283691 14.97309303283691 C 19.19813346862793 10.74804019927979 24.11771965026855 7.431066513061523 29.59518623352051 5.114293098449707 C 35.26533508300781 2.716026782989502 41.28937149047852 1.5 47.5 1.5 C 53.71062850952148 1.5 59.73468017578125 2.716026782989502 65.40481567382812 5.114293098449707 C 70.88229370117188 7.431066513061523 75.80186462402344 10.74804019927979 80.02691650390625 14.97309303283691 C 84.25196075439453 19.19813346862793 87.56893157958984 24.11771965026855 89.88570404052734 29.59518623352051 C 92.28397369384766 35.26533508300781 93.5 41.28937149047852 93.5 47.5 C 93.5 53.71062850952148 92.28397369384766 59.73468017578125 89.88570404052734 65.40481567382812 C 87.56893157958984 70.88229370117188 84.25196075439453 75.80186462402344 80.02691650390625 80.02691650390625 C 75.80186462402344 84.25196075439453 70.88229370117188 87.56893157958984 65.40481567382812 89.88570404052734 C 59.73468017578125 92.28397369384766 53.71062850952148 93.5 47.5 93.5 Z" stroke="none"/>
                    <path d="M 47.5 3 C 41.49121475219727 3 35.66376876831055 4.176155090332031 30.17950439453125 6.495796203613281 C 24.88084411621094 8.736953735351562 20.12152099609375 11.94598388671875 16.03375244140625 16.03375244140625 C 11.94598388671875 20.12152099609375 8.736953735351562 24.88084411621094 6.495796203613281 30.17950439453125 C 4.176155090332031 35.66376876831055 3 41.49121475219727 3 47.5 C 3 53.50878524780273 4.176155090332031 59.33623123168945 6.495796203613281 64.82049560546875 C 8.736953735351562 70.11915588378906 11.94598388671875 74.87847900390625 16.03375244140625 78.96624755859375 C 20.12152099609375 83.05401611328125 24.88084411621094 86.26304626464844 30.17950439453125 88.50419616699219 C 35.66376876831055 90.82384490966797 41.49121475219727 92 47.5 92 C 53.50878524780273 92 59.33623123168945 90.82384490966797 64.82049560546875 88.50419616699219 C 70.11915588378906 86.26304626464844 74.87847900390625 83.05401611328125 78.96624755859375 78.96624755859375 C 83.05401611328125 74.87847900390625 86.26304626464844 70.11915588378906 88.50419616699219 64.82049560546875 C 90.82384490966797 59.33623123168945 92 53.50878524780273 92 47.5 C 92 41.49121475219727 90.82384490966797 35.66376876831055 88.50419616699219 30.17950439453125 C 86.26304626464844 24.88084411621094 83.05401611328125 20.12152099609375 78.96624755859375 16.03375244140625 C 74.87847900390625 11.94598388671875 70.11915588378906 8.736953735351562 64.82049560546875 6.495796203613281 C 59.33623123168945 4.176155090332031 53.50878524780273 3 47.5 3 M 47.5 0 C 73.7335205078125 0 95 21.2664794921875 95 47.5 C 95 73.7335205078125 73.7335205078125 95 47.5 95 C 21.2664794921875 95 0 73.7335205078125 0 47.5 C 0 21.2664794921875 21.2664794921875 0 47.5 0 Z" stroke="none" fill="#397b86"/>
                  </g>
                </g>
              </g>
            </g>
          </g>
        </g>
      </g>
    </g>
    <g id="caja-de-almacenaje" transform="translate(353.603 4108.248)">
      <g id="Grupo_1179564" data-name="Grupo 1179564" transform="translate(0.847 21.727)">
        <circle id="Elipse_12444" data-name="Elipse 12444" cx="16.84" cy="16.84" r="16.84" transform="translate(16.772 0)" fill="#ffe177"/>
        <ellipse id="Elipse_12445" data-name="Elipse 12445" cx="16.839" cy="16.84" rx="16.839" ry="16.84" transform="translate(16.772 0)" fill="#ffe177"/>
        <path id="Trazado_1041766" data-name="Trazado 1041766" d="M342.689,33.372a16.8,16.8,0,0,0-13.184-4.884,16.839,16.839,0,0,1,0,33.582,16.839,16.839,0,0,0,13.184-28.7Z" transform="translate(-297.17 -28.44)" fill="#f7c952"/>
        <path id="Trazado_1041767" data-name="Trazado 1041767" d="M259.2,95.922a16.84,16.84,0,0,1-23.815,0l14.051-14.953,9.764-8.862A16.84,16.84,0,0,1,259.2,95.922Z" transform="translate(-213.686 -67.174)" fill="#e4f6f9"/>
        <path id="Trazado_1041768" data-name="Trazado 1041768" d="M342.689,72.107l-1.4,1.273A16.84,16.84,0,0,1,329.505,100.8a16.839,16.839,0,0,0,13.184-28.7Z" transform="translate(-297.171 -67.174)" fill="#d4f2f6"/>
        <path id="Trazado_1041769" data-name="Trazado 1041769" d="M259.207,72.1l-3.574,10.14a16.539,16.539,0,0,1-10.1,10.1l-10.14,3.574,3.776-10.351a16.233,16.233,0,0,1,9.687-9.687Z" transform="translate(-213.688 -67.17)" fill="#a2aee6"/>
        <path id="Trazado_1041770" data-name="Trazado 1041770" d="M430.56,74.231l.75-2.129-1.9.693A16.9,16.9,0,0,1,430.56,74.231Z" transform="translate(-385.791 -67.17)" fill="#8795de"/>
        <g id="Grupo_1179562" data-name="Grupo 1179562" transform="translate(3.908 1.179)">
          <circle id="Elipse_12446" data-name="Elipse 12446" cx="5.277" cy="5.277" r="5.277" transform="translate(0 0)" fill="#d88a55"/>
          <path id="Trazado_1041771" data-name="Trazado 1041771" d="M78.786,38.878a5.287,5.287,0,0,0-1.277.156,5.277,5.277,0,0,1,0,10.241,5.277,5.277,0,1,0,1.277-10.4Z" transform="translate(-73.509 -38.878)" fill="#c57a44"/>
          <circle id="Elipse_12447" data-name="Elipse 12447" cx="5.277" cy="5.277" r="5.277" transform="translate(18.178 0)" fill="#d88a55"/>
          <path id="Trazado_1041772" data-name="Trazado 1041772" d="M239.72,38.878a5.287,5.287,0,0,0-1.277.156,5.277,5.277,0,0,1,0,10.241,5.277,5.277,0,1,0,1.277-10.4Z" transform="translate(-216.265 -38.878)" fill="#c57a44"/>
        </g>
        <path id="Trazado_1041773" data-name="Trazado 1041773" d="M82.62,182.293h4.6a7.029,7.029,0,0,1,6.811,5.29l1.632,6.391H74.177l1.632-6.391A7.029,7.029,0,0,1,82.62,182.293Z" transform="translate(-66.646 -166.031)" fill="#d88a55"/>
        <path id="Trazado_1041774" data-name="Trazado 1041774" d="M176.389,187.583a7.029,7.029,0,0,0-6.811-5.29h-2.554a7.029,7.029,0,0,1,6.811,5.29l1.632,6.391h2.554Z" transform="translate(-150.617 -166.031)" fill="#c57a44"/>
        <path id="Trazado_1041775" data-name="Trazado 1041775" d="M57.731,261.621H9.37a1.946,1.946,0,0,1-1.87-2.014V233.352H59.6v26.255a1.946,1.946,0,0,1-1.87,2.014Z" transform="translate(-7.5 -212.76)" fill="#ffe5c2"/>
        <path id="Trazado_1041776" data-name="Trazado 1041776" d="M466.07,233.353v26.255a2.014,2.014,0,0,1-2.014,2.014h2.554a2.014,2.014,0,0,0,2.014-2.014V233.353Z" transform="translate(-416.524 -212.761)" fill="#fed2a4"/>
        <path id="Trazado_1041777" data-name="Trazado 1041777" d="M9.971,159.606A2.471,2.471,0,0,0,7.5,162.077v5.859h4.942v-5.859A2.471,2.471,0,0,0,9.971,159.606Z" transform="translate(-7.5 -145.668)" fill="#ffe5c2"/>
        <path id="Trazado_1041778" data-name="Trazado 1041778" d="M19.349,159.606a2.459,2.459,0,0,0-1.277.355,2.47,2.47,0,0,1,1.194,2.116v5.859H21.82v-5.859A2.471,2.471,0,0,0,19.349,159.606Z" transform="translate(-16.878 -145.668)" fill="#fed2a4"/>
        <path id="Trazado_1041779" data-name="Trazado 1041779" d="M463.217,159.606a2.471,2.471,0,0,0-2.471,2.471v5.859h4.942v-5.859A2.471,2.471,0,0,0,463.217,159.606Z" transform="translate(-413.587 -145.668)" fill="#ffe5c2"/>
        <path id="Trazado_1041780" data-name="Trazado 1041780" d="M472.595,159.606a2.459,2.459,0,0,0-1.277.355,2.47,2.47,0,0,1,1.194,2.116v5.859h2.554v-5.859A2.471,2.471,0,0,0,472.595,159.606Z" transform="translate(-422.965 -145.668)" fill="#fed2a4"/>
        <g id="Grupo_1179563" data-name="Grupo 1179563" transform="translate(4.621 26.5)">
          <path id="Trazado_1041781" data-name="Trazado 1041781" d="M59.18,336.826H49.368a.956.956,0,0,1-.956-.956v-9.9a.956.956,0,0,1,.956-.956H60.136v10.853A.956.956,0,0,1,59.18,336.826Z" transform="translate(-48.412 -320.572)" fill="#fe73c5"/>
          <path id="Trazado_1041782" data-name="Trazado 1041782" d="M122.091,325.018v10.853a.956.956,0,0,1-.956.956h2.554a.956.956,0,0,0,.956-.956V325.018Z" transform="translate(-113.685 -320.572)" fill="#fe4fb7"/>
          <path id="Trazado_1041783" data-name="Trazado 1041783" d="M163.93,297.467H152.206V286.615a.956.956,0,0,1,.956-.956h9.812a.956.956,0,0,1,.956.956Z" transform="translate(-141.828 -285.659)" fill="#97da7b"/>
          <path id="Trazado_1041784" data-name="Trazado 1041784" d="M227.483,285.659h-2.554a.956.956,0,0,1,.956.956v10.853h2.554V286.615A.956.956,0,0,0,227.483,285.659Z" transform="translate(-206.846 -285.659)" fill="#79cf59"/>
          <path id="Trazado_1041785" data-name="Trazado 1041785" d="M266.768,336.826h-9.812a.956.956,0,0,1-.956-.956V325.018h11.724v10.853A.956.956,0,0,1,266.768,336.826Z" transform="translate(-235.244 -320.572)" fill="#a6e7f0"/>
          <path id="Trazado_1041786" data-name="Trazado 1041786" d="M329.679,325.018v10.853a.956.956,0,0,1-.956.956h2.554a.956.956,0,0,0,.956-.956V325.018Z" transform="translate(-300.007 -320.572)" fill="#6bd9e7"/>
          <path id="Trazado_1041787" data-name="Trazado 1041787" d="M370.562,297.467H359.794V286.615a.956.956,0,0,1,.956-.956h9.812a.956.956,0,0,1,.956.956v9.9A.956.956,0,0,1,370.562,297.467Z" transform="translate(-328.659 -285.659)" fill="#a2aee6"/>
          <path id="Trazado_1041788" data-name="Trazado 1041788" d="M435.071,285.659h-2.554a.956.956,0,0,1,.956.956v9.9a.956.956,0,0,1-.956.956h2.554a.956.956,0,0,0,.956-.956v-9.9A.956.956,0,0,0,435.071,285.659Z" transform="translate(-393.168 -285.659)" fill="#8795de"/>
        </g>
        <path id="Trazado_1041789" data-name="Trazado 1041789" d="M99.257,80.779H91.48a5.523,5.523,0,0,1-5.523-5.523v-1.88a5.523,5.523,0,0,1,5.523-5.523h7.777a5.523,5.523,0,0,1,5.523,5.523v1.88A5.523,5.523,0,0,1,99.257,80.779Z" transform="translate(-78.054 -63.401)" fill="#d88a55"/>
        <path id="Trazado_1041790" data-name="Trazado 1041790" d="M183.651,67.853H181.1a5.523,5.523,0,0,1,5.523,5.523v1.88a5.523,5.523,0,0,1-5.523,5.523h2.554a5.523,5.523,0,0,0,5.523-5.523v-1.88A5.523,5.523,0,0,0,183.651,67.853Z" transform="translate(-163.136 -63.401)" fill="#c57a44"/>
      </g>
      <g id="Grupo_1179565" data-name="Grupo 1179565" transform="translate(0 20.872)">
        <path id="Trazado_1041791" data-name="Trazado 1041791" d="M52.092,35.32a16.789,16.789,0,0,0-4.651-9.509l0,0h0a16.125,16.125,0,0,0-15.323-4.5.807.807,0,0,0-.592.966.787.787,0,0,0,.944.606,14.55,14.55,0,0,1,12.93,3.2l-8.411,3.14a16.045,16.045,0,0,0-9.482,9.7l-.979,2.747a7.433,7.433,0,0,0-2.764-3.134,6.067,6.067,0,0,0,3.54-4.974A5.842,5.842,0,0,0,26.241,22,5.657,5.657,0,0,0,21.2,25.118H14.373A5.657,5.657,0,0,0,9.331,22,5.842,5.842,0,0,0,8.272,33.559a6.067,6.067,0,0,0,3.539,4.974A7.47,7.47,0,0,0,8.59,42.912H6.173V38.142a3.127,3.127,0,0,0-3.087-3.159A3.127,3.127,0,0,0,0,38.142v30.57a2.7,2.7,0,0,0,2.662,2.724H45.184a.807.807,0,0,0,0-1.613H2.662a1.1,1.1,0,0,1-1.086-1.111V44.525H52.219V68.711a1.1,1.1,0,0,1-1.086,1.111H48.872a.807.807,0,0,0,0,1.613h2.261a2.7,2.7,0,0,0,2.662-2.724V38.142a3.17,3.17,0,0,0-1.7-2.822Zm-4.471,2.822v4.771H40.071A16.468,16.468,0,0,0,44.3,36.3l2.889-8.388A15.149,15.149,0,0,1,50.446,35,3.134,3.134,0,0,0,47.622,38.142Zm-10.1-7.408,8.06-3.009-2.77,8.041a14.811,14.811,0,0,1-5.228,7.147h-9.83l1.226-3.439a14.454,14.454,0,0,1,8.541-8.74ZM26.241,23.615A4.229,4.229,0,0,1,27.329,31.9v-.718a6.052,6.052,0,0,0-4.4-5.859A4.073,4.073,0,0,1,26.241,23.615ZM5.211,27.832a4.174,4.174,0,0,1,4.12-4.217,4.073,4.073,0,0,1,3.311,1.708,6.213,6.213,0,0,0-4.4,6.577,4.208,4.208,0,0,1-3.032-4.067Zm4.608,5.139v-1.79a4.435,4.435,0,0,1,4.35-4.451H21.4a4.438,4.438,0,0,1,4.35,4.451v1.79a4.406,4.406,0,0,1-4.35,4.451H18.574v-1.8h.491a.807.807,0,0,0,0-1.613H16.517a.807.807,0,0,0,0,1.613H17v1.8H14.169A4.406,4.406,0,0,1,9.819,32.971Zm5.828,6.064h4.276a5.756,5.756,0,0,1,5.405,3.877H10.243A5.755,5.755,0,0,1,15.648,39.035ZM1.576,42.912V38.142A1.53,1.53,0,0,1,3.087,36.6,1.53,1.53,0,0,1,4.6,38.142v4.771Zm47.622,0V38.142a1.511,1.511,0,1,1,3.021,0v4.771H49.2Z" transform="translate(0 -20.872)"/>
        <path id="Trazado_1041792" data-name="Trazado 1041792" d="M390.5,312.4a2.5,2.5,0,0,0,2.548-1.946,2.288,2.288,0,0,0-1.755-2.529c-.685-.253-1.324-.527-1.543-.623a.271.271,0,0,1-.083-.247c.011-.077.069-.267.368-.357a1.788,1.788,0,0,1,1.467.343.847.847,0,0,0,1.085-1.3,3.49,3.49,0,0,0-3.041-.664,2.151,2.151,0,0,0-1.557,1.739,2.032,2.032,0,0,0,.99,2c.034.015.83.369,1.727.7.173.064.734.3.673.642a.856.856,0,0,1-.88.549,1.875,1.875,0,0,1-1.378-.575.847.847,0,1,0-1.255,1.138A3.545,3.545,0,0,0,390.5,312.4Z" transform="translate(-347.895 -274.659)"/>
        <path id="Trazado_1041793" data-name="Trazado 1041793" d="M286.106,352.822h0a.847.847,0,0,0,.847-.845l.007-2.69,1.687-2.592a.847.847,0,0,0-1.42-.924l-1.115,1.712-1.128-1.728a.847.847,0,1,0-1.419.926l1.7,2.6-.007,2.687a.847.847,0,0,0,.845.849Z" transform="translate(-253.878 -310.769)"/>
        <path id="Trazado_1041794" data-name="Trazado 1041794" d="M82.763,345.372H79.584a.847.847,0,0,0,0,1.694h.736v4.909a.847.847,0,1,0,1.694,0v-4.909h.749a.847.847,0,0,0,0-1.694Z" transform="translate(-70.521 -310.769)"/>
        <path id="Trazado_1041795" data-name="Trazado 1041795" d="M174.848,304.949a3.725,3.725,0,1,0,3.725,3.725A3.729,3.729,0,0,0,174.848,304.949Zm0,5.756a2.031,2.031,0,1,1,2.031-2.031A2.033,2.033,0,0,1,174.848,310.705Z" transform="translate(-153.343 -274.656)"/>
        <path id="Trazado_1041796" data-name="Trazado 1041796" d="M64.065,296.107h9a1.735,1.735,0,0,0,1.653-1.8v-2.643h9.1a1.735,1.735,0,0,0,1.653-1.8v-9.9a1.735,1.735,0,0,0-1.653-1.8h-9a1.735,1.735,0,0,0-1.653,1.8V282.6H66.821a.85.85,0,0,0,0,1.694h6.341V294.3a.1.1,0,0,1-.1.109h-9a.1.1,0,0,1-.1-.109V279.962a1.735,1.735,0,0,0-1.653-1.8h-9a1.735,1.735,0,0,0-1.653,1.8V282.6h-9.1a1.735,1.735,0,0,0-1.653,1.8v9.9a1.735,1.735,0,0,0,1.653,1.8h9a1.735,1.735,0,0,0,1.653-1.8v-2.643h9.2V294.3A1.735,1.735,0,0,0,64.065,296.107Zm10.65-16.145a.1.1,0,0,1,.1-.109h9a.1.1,0,0,1,.1.109v9.9a.1.1,0,0,1-.1.109h-9.1ZM51.662,294.3a.1.1,0,0,1-.1.109h-9a.1.1,0,0,1-.1-.109v-9.9a.1.1,0,0,1,.1-.109h9.1Zm1.554-4.337V279.962a.1.1,0,0,1,.1-.109h9a.1.1,0,0,1,.1.109v10.005Z" transform="translate(-36.291 -251.652)"/>
        <path id="Trazado_1041797" data-name="Trazado 1041797" d="M117.665,124.641a.867.867,0,1,0,.867.867A.867.867,0,0,0,117.665,124.641Z" transform="translate(-104.555 -113.503)"/>
        <path id="Trazado_1041798" data-name="Trazado 1041798" d="M208.179,126.375a.867.867,0,1,0-.867-.867A.867.867,0,0,0,208.179,126.375Z" transform="translate(-185.581 -113.503)"/>
      </g>
    </g>
  </g>
</svg>
