<svg xmlns="http://www.w3.org/2000/svg" xmlns:xlink="http://www.w3.org/1999/xlink" width="295" height="211" viewBox="0 0 295 211">
  <defs>
    <clipPath id="clip-path">
      <rect id="Rectángulo_415668" data-name="Rectángulo 415668" width="295" height="211" transform="translate(180 4703)" fill="#fff" stroke="#707070" stroke-width="1" opacity="0.84"/>
    </clipPath>
  </defs>
  <g id="Enmascarar_grupo_1098811" data-name="Enmascarar grupo 1098811" transform="translate(-180 -4703)" clip-path="url(#clip-path)">
    <g id="Grupo_1179378" data-name="Grupo 1179378">
      <ellipse id="Elipse_12443" data-name="Elipse 12443" cx="124" cy="117" rx="124" ry="117" transform="translate(208 4754)" fill="#ebe9f0" opacity="0.66"/>
      <g id="Grupo_1179377" data-name="Grupo 1179377" transform="translate(197 4706.881)">
        <path id="Trazado_1040605" data-name="Trazado 1040605" d="M1230.175,1985.028a352.957,352.957,0,0,0,32.606,21.281c4.375-4.022,5.106-5.251,8.954-9.781-7.7-8.465-14.936-17.337-21.76-26.527-.242-.324-.484-.649-.721-.973-.058-.082-.121-.16-.179-.242,7.4-18.159,19.81-35.985,27.791-53.253-14.694-5.522-28.763-12.714-42.872-19.6-5.948,21.131-8.712,60.15-9.66,76.673A14.386,14.386,0,0,0,1230.175,1985.028Z" transform="translate(-1107.224 -1647.313)" fill="#f7b294"/>
        <path id="Trazado_1040606" data-name="Trazado 1040606" d="M740.837,1921.932c-.286,7.057-2.439,32.4-2.439,32.4l12.976,3.582s.106-.324.3-.925c.6-1.868,2.052-6.427,3.819-12.308,5.271-17.545,13.373-46.86,10.173-51.641-1.583-2.367-5.522-4.056-10.74-5.247-.581-.135-1.176-.261-1.791-.382s-1.234-.232-1.873-.344l-.968-.16c-1.926-.31-3.959-.566-6.06-.784-.276-.024-.552-.053-.833-.082-.469-.049-.939-.092-1.413-.131-.378-.029-.755-.063-1.133-.1l-2.168-.16q-1.67-.109-3.354-.2c-2.231-.116-4.477-.2-6.7-.252-.392-.01-.779-.014-1.171-.024q-2.236-.051-4.409-.058c-3.814-.024-7.444.014-10.687.092h-.1c-.629.019-1.244.034-1.844.048h-.073c-.6.014-1.186.034-1.747.053-1.205.039-2.323.077-3.34.116-1.1.044-2.091.092-2.943.131l-.576.029c-.174.01-.339.019-.5.024s-.319.014-.465.024-.281.014-.407.024c-1,.053-1.544.087-1.544.087l-12.09,32s42.862,1.96,52.3,2.739c.4.029.74.063,1.011.092h.024a2.459,2.459,0,0,1,.789.135C740.871,1921.018,740.861,1921.429,740.837,1921.932Z" transform="translate(-513.006 -1638.176)" fill="#f7b294"/>
        <path id="Trazado_1040607" data-name="Trazado 1040607" d="M1275.723,1915.534c-7.981,17.269-20.386,35.094-27.791,53.253.058.082.121.16.179.242.237.324.479.649.721.973,6.824,9.191,14.06,18.063,21.76,26.527-3.848,4.53-4.578,5.76-8.954,9.781q-3.233-1.868-6.43-3.812c.678-7.4-.5-14.687-4.672-21.278-6.121-9.986-15.244-20.613-26.226-25.179,1.466-18.881,4.126-44.42,8.542-60.1C1246.961,1902.82,1261.03,1910.013,1275.723,1915.534Z" transform="translate(-1106.082 -1647.314)" opacity="0.2"/>
        <path id="Trazado_1040608" data-name="Trazado 1040608" d="M810.8,1921.935c-.286,7.057-2.439,32.4-2.439,32.4l13.276,2.657c.6-1.868,2.052-6.428,3.819-12.308-8.993-16.654-7.579-38.342-.566-56.888-.581-.135-1.176-.261-1.791-.382s-1.234-.232-1.873-.344l-.968-.16c-1.926-.31-3.959-.566-6.06-.784-.276-.024-.552-.053-.833-.082l-1.413-.131c-.378-.029-.755-.063-1.133-.1l-2.168-.16q-1.67-.109-3.354-.2c-2.231-.111-4.477-.194-6.7-.252-.392-.01-.779-.014-1.171-.024q-2.229-.043-4.409-.058c-3.809-.024-7.444.019-10.687.092h-.1c-.629.019-1.244.034-1.844.048h-.073c-.6.019-1.186.034-1.747.053-1.205.039-2.323.077-3.34.116-1.1.049-2.091.092-2.943.131l-.576.029c-.174.01-.339.019-.5.024s-.319.014-.465.024-.281.014-.407.024c-1,.053-1.544.087-1.544.087l-12.09,32s42.862,1.96,52.3,2.74c.4.029.741.063,1.011.092h.024a2.453,2.453,0,0,1,.789.135C810.835,1921.02,810.825,1921.432,810.8,1921.935Z" transform="translate(-582.97 -1638.178)" opacity="0.2"/>
        <g id="Grupo_1179365" data-name="Grupo 1179365" transform="translate(149.547 345.298)">
          <path id="Trazado_1040609" data-name="Trazado 1040609" d="M1224.891,2516.5c2.569,1.476,5.172,3.126,7.679,4.8.716.479,1.426.959,2.122,1.438-3.005,7.293-6.929,15.386-10.635,22.346-3.781.087-8.607-1.739-10.466-5.209a7.116,7.116,0,0,1-.213-6.057c.084-.22.174-.442.269-.657a23.633,23.633,0,0,1,1.873-3.311C1218.487,2525.264,1221.59,2520.856,1224.891,2516.5Z" transform="translate(-1212.805 -2516.5)" fill="#e7363e"/>
          <path id="Trazado_1040610" data-name="Trazado 1040610" d="M1232.579,2547.31c.716.479,1.426.959,2.122,1.438-3.005,7.293-6.929,15.386-10.635,22.345-3.781.087-8.607-1.739-10.466-5.209a7.115,7.115,0,0,1-.213-6.056c.084-.22.174-.442.269-.656a40.634,40.634,0,0,1,10.487,5.262C1226.687,2558.648,1229.508,2552.856,1232.579,2547.31Z" transform="translate(-1212.816 -2542.51)" fill="#ededed"/>
          <path id="Trazado_1040611" data-name="Trazado 1040611" d="M1315.341,2608.009a.294.294,0,0,0,.117.57,15.183,15.183,0,0,1,4.456.819c.574.138.9-.79.333-1A7.473,7.473,0,0,0,1315.341,2608.009Z" transform="translate(-1314.599 -2593.531)" fill="#3d3d3d"/>
          <path id="Trazado_1040612" data-name="Trazado 1040612" d="M1309.1,2592.587a.328.328,0,0,0-.036.647c1.5.477,3.027.867,4.53,1.351.688.221,1-.87.391-1.179A7.991,7.991,0,0,0,1309.1,2592.587Z" transform="translate(-1307.385 -2580.648)" fill="#3d3d3d"/>
        </g>
        <g id="Grupo_1179366" data-name="Grupo 1179366" transform="translate(222.267 313.82)">
          <path id="Trazado_1040613" data-name="Trazado 1040613" d="M714.06,2314.44c-.933,2.813-1.776,5.777-2.531,8.694-.215.834-.424,1.665-.625,2.486,7.1,3.439,15.416,6.862,22.816,9.584,2.878-2.454,5.262-7.03,4.337-10.856a7.116,7.116,0,0,0-3.875-4.659c-.209-.108-.424-.214-.638-.31a23.588,23.588,0,0,0-3.6-1.222C724.675,2316.711,719.423,2315.49,714.06,2314.44Z" transform="translate(-710.904 -2314.44)" fill="#e7363e"/>
          <path id="Trazado_1040614" data-name="Trazado 1040614" d="M711.529,2349.886c-.215.834-.424,1.665-.625,2.486,7.1,3.438,15.416,6.862,22.816,9.584,2.878-2.453,5.262-7.029,4.337-10.856a7.115,7.115,0,0,0-3.875-4.659c-.209-.108-.424-.214-.638-.311a40.651,40.651,0,0,0-4.317,10.91C723.476,2354.419,717.514,2351.978,711.529,2349.886Z" transform="translate(-710.904 -2341.193)" fill="#ededed"/>
          <path id="Trazado_1040615" data-name="Trazado 1040615" d="M750.9,2335.11a.3.3,0,0,1,.293.5,15.173,15.173,0,0,0-2.778,3.579c-.336.485-1.2.012-.917-.526A7.473,7.473,0,0,1,750.9,2335.11Z" transform="translate(-729.644 -2331.868)" fill="#3d3d3d"/>
          <path id="Trazado_1040616" data-name="Trazado 1040616" d="M765.4,2326.949a.328.328,0,0,1,.458.458c-.8,1.356-1.68,2.663-2.479,4.024-.366.624-1.326.018-1.077-.618A8,8,0,0,1,765.4,2326.949Z" transform="translate(-746.562 -2324.95)" fill="#3d3d3d"/>
        </g>
        <path id="Trazado_1040617" data-name="Trazado 1040617" d="M730.489,879.433c3.313-12.927,6.144-25.952,8.532-38.866-3-3.846-5.909-8.01-6.743-12.816a3.833,3.833,0,0,1-.029-1.56,1.537,1.537,0,0,1,.976-1.14,2.1,2.1,0,0,1,1.546.329,11.548,11.548,0,0,1,3.871,3.717,38.323,38.323,0,0,1-.213-8.882,2.391,2.391,0,0,1,.675-1.41c1.072-1.04,2.5-.25,3.348.7a8.629,8.629,0,0,1,2.146,5.013,15.769,15.769,0,0,1,2.863-6.219,2.439,2.439,0,0,1,1.623-.852c1.619-.12,2.3,1.521,2.491,2.919a13.568,13.568,0,0,1-.94,7.334,15.828,15.828,0,0,1,4.058-3.4,1.7,1.7,0,0,1,1.214-.216c1.126.25,1.191,1.559,1.039,2.57a23,23,0,0,1-8.14,14.277,328.9,328.9,0,0,1-.64,40.9,21.644,21.644,0,0,1-6.7,14.045c-9.753,9.226-29.312,27.327-41.631,36.029a162.108,162.108,0,0,1-6.018-27.563A441.343,441.343,0,0,0,730.489,879.433Z" transform="translate(-504.722 -736.83)" fill="#f7b294"/>
        <path id="Trazado_1040618" data-name="Trazado 1040618" d="M740.506,914.021c2.369.564,3.844-.751,5.591-2.063.2-.146.512.091.38.316a5.7,5.7,0,0,1-6.155,2.775C739.685,914.874,739.845,913.863,740.506,914.021Z" transform="translate(-501.407 -816.586)" fill="#d17656"/>
        <path id="Trazado_1040619" data-name="Trazado 1040619" d="M821.467,1118.746a441.587,441.587,0,0,0,36.671-24.912q2.867-11.187,5.255-22.43c-.789,14.347-.857,28.755,1.377,42.962-10.455,9.766-26.594,24.392-37.285,31.944A162.29,162.29,0,0,1,821.467,1118.746Z" transform="translate(-632.371 -951.231)" opacity="0.2"/>
        <path id="Trazado_1040620" data-name="Trazado 1040620" d="M1390.433,1402.137c12.285-.249,24.52-.97,36.554-2.242a162.3,162.3,0,0,1,11.881,25.586,327.944,327.944,0,0,1-58.267-3.528l-.026,0a3.85,3.85,0,0,1-1.82-.794l9.873-23.363Q1389.52,1399.968,1390.433,1402.137Z" transform="translate(-1293.287 -1226.773)" fill="#f7b294"/>
        <path id="Trazado_1040621" data-name="Trazado 1040621" d="M1379.879,1404.693l2.915-6.9q.894,2.175,1.806,4.344c12.285-.249,24.52-.97,36.554-2.242a162.292,162.292,0,0,1,11.881,25.586,326.007,326.007,0,0,1-54.283-2.96A149.428,149.428,0,0,0,1379.879,1404.693Z" transform="translate(-1287.452 -1226.775)" opacity="0.2"/>
        <path id="Trazado_1040622" data-name="Trazado 1040622" d="M858.022,1283.862a165.522,165.522,0,0,0,31.17-25.6,107.646,107.646,0,0,0-9.09-25.707c-8.987,6.1-18.613,11.074-28.354,15.875C854.047,1260.126,855.724,1272.162,858.022,1283.862Z" transform="translate(-661.511 -1087.273)" fill="#e6cdb1"/>
        <path id="Trazado_1040623" data-name="Trazado 1040623" d="M1404.723,1371.277a181.592,181.592,0,0,0-.006,28.333c13.444,2.733,26.67,6.207,39.849,10.018a224.731,224.731,0,0,0-8.4-44.785C1425.566,1366.693,1415.326,1369.428,1404.723,1371.277Z" transform="translate(-1302.944 -1198.957)" fill="#e6cdb1"/>
        <path id="Trazado_1040624" data-name="Trazado 1040624" d="M986.516,1400.333c6.408-24.308,6.635-54.271,1.483-79,22.737-8.4,45.886-3.872,67.635-8.815,7.68,23.515,7.274,46.055,9.8,83.309C1041.025,1406.773,1012.485,1406.681,986.516,1400.333Z" transform="translate(-858.743 -1154.781)" fill="#f9ead6"/>
        <path id="Trazado_1040625" data-name="Trazado 1040625" d="M992.064,1608.525c20.107,17.694,46.9,23.35,72.318,19.763.3,5.352.635,11.02,1.046,17.084-24.4,10.946-52.945,10.855-78.913,4.507a168.6,168.6,0,0,0,5.1-41.768C991.762,1608.249,991.91,1608.39,992.064,1608.525Z" transform="translate(-858.741 -1404.327)" opacity="0.4"/>
        <path id="Trazado_1040626" data-name="Trazado 1040626" d="M834.162,1879.034c2.033.934,4.114,1.8,6.224,2.609a125.7,125.7,0,0,0,29.548,7.173q1.895.232,3.775.406c4.685-9.278,14.215-27.887,14.065-28.052,2.865.668,5.881.315,8.76.915a402,402,0,0,0,42.886,6.611,151.812,151.812,0,0,0,12.448-42c-3.533-.649-7.57-1.1-11.708-1.5l-1.505-.145h0c-2.556-.237-5.13-.465-7.628-.716-.426-2.889-1.176-3.509-1.6-6.4-1.341.039-53.442.406-78.2.169a213.634,213.634,0,0,0-9.888,27.292c-.164.566-.329,1.128-.484,1.694A248.382,248.382,0,0,0,834.162,1879.034Z" transform="translate(-721.448 -1581.459)" fill="#b6bf40"/>
        <path id="Trazado_1040627" data-name="Trazado 1040627" d="M1190.168,1314.487c.931-.135,1.651-.216,2.027-.241a20.37,20.37,0,0,1,9.685,1.467c1.242.583,2.438,1.574,2.373,3.068-.172,3.92-6.5,4.342-9.274,4.566a40.691,40.691,0,0,1-15.206-1.528,4.061,4.061,0,0,1-1.867-1c-1.52-1.674.984-3.34,2.317-3.9A40.56,40.56,0,0,1,1190.168,1314.487Z" transform="translate(-1027.311 -1156.191)" fill="#e6cdb1"/>
        <g id="Grupo_1179367" data-name="Grupo 1179367" transform="translate(153.368 146.175)">
          <path id="Trazado_1040628" data-name="Trazado 1040628" d="M1217.5,1239.712q1.782,7.873,4.229,15.659a41.577,41.577,0,0,1-19.752.327c.675-5.772,1.331-11.616,2.006-17.388A78.8,78.8,0,0,1,1217.5,1239.712Z" transform="translate(-1201.981 -1238.31)" fill="#f7b294"/>
          <path id="Trazado_1040629" data-name="Trazado 1040629" d="M1227.441,1239.713c.748,3.307,1.6,6.6,2.52,9.886a93.25,93.25,0,0,0-17.008-2.874c.322-2.81.644-5.621.971-8.414A78.8,78.8,0,0,1,1227.441,1239.713Z" transform="translate(-1211.918 -1238.311)" opacity="0.4"/>
        </g>
        <g id="Grupo_1179373" data-name="Grupo 1179373" transform="translate(0 0)">
          <g id="Grupo_1179368" data-name="Grupo 1179368" transform="translate(0 41.345)">
            <path id="Trazado_1040630" data-name="Trazado 1040630" d="M1832.548,577.708c-3.529.543-6.313,3.311-8.272,6.3-5.6,8.536-6.334,19.414-5.152,29.554s4.086,20.028,5.124,30.183-.017,21.057-5.974,29.348c-6.076,8.457-16.689,13.023-27.1,13.084a37.006,37.006,0,0,1-24.294-8.705,31.84,31.84,0,0,1-11.067-23.09c-.15-8.79,3.761-17.564,10.872-22.733,1.6,6.906,6.953,12.981,13.8,14.808s14.865-1.067,18.446-7.185c2.818-4.815,2.753-10.8,1.7-16.283s-3-10.778-3.7-16.313a36.72,36.72,0,0,1,45.716-40.129C1839.057,570.553,1835.217,573.034,1832.548,577.708Z" transform="translate(-1755.806 -565.399)" fill="#e27441"/>
            <path id="Trazado_1040631" data-name="Trazado 1040631" d="M1742.614,668.741c7.589,5.88,18.218,3.615,24.464-3.073,6.728-7.2,8.291-17.385,7.527-26.88-.737-9.149-3.78-17.857-1.629-27.055a33.518,33.518,0,0,1,12.391-19.078,33.881,33.881,0,0,1,25.338-6.189c.424.065.24.7-.177.642-19.539-2.7-37.631,12.77-37.3,32.666.085,5.143,1.412,10.157,2.106,15.231a53.432,53.432,0,0,1,.185,14.68c-1.072,7.612-4.608,15.141-10.936,19.758-6.691,4.881-16.235,5.474-22.854.186C1741.092,669.121,1741.986,668.253,1742.614,668.741Z" transform="translate(-1721.877 -582.848)" fill="#c95a2f"/>
            <path id="Trazado_1040632" data-name="Trazado 1040632" d="M1770.2,714.018a26.479,26.479,0,0,0,25.924-7.105c6.938-7.085,9.851-17.182,9.513-26.926-.371-10.677-3.8-20.979-4.4-31.646-.518-9.088.713-18.755,5.875-26.476,4.791-7.166,12.692-12.391,21.5-12.257a.3.3,0,0,1,0,.6c-9.56-.017-17.7,6.456-22.066,14.635-5.11,9.563-4.886,21.146-3.292,31.575,1.549,10.136,4.566,20.264,3.267,30.609-1.053,8.388-4.752,16.642-11.181,22.274-6.833,5.987-16.679,8.778-25.458,5.893A.613.613,0,0,1,1770.2,714.018Z" transform="translate(-1744.181 -602.718)" fill="#c95a2f"/>
            <path id="Trazado_1040633" data-name="Trazado 1040633" d="M2004.8,1124.934a20.631,20.631,0,0,0,14.819,12.347,20.1,20.1,0,0,0,19.517-7.75c.236-.312.772-.012.535.313a21.1,21.1,0,0,1-19.3,8.635,20.8,20.8,0,0,1-16.687-13.074C2003.435,1124.765,2004.535,1124.295,2004.8,1124.934Z" transform="translate(-1991.503 -1037.509)" fill="#c95a2f"/>
            <path id="Trazado_1040634" data-name="Trazado 1040634" d="M1808.7,646.586c8.917-23.184,2.639-46.369-2.19-70.31.612-.625,1.245-1.231,1.9-1.809a37.381,37.381,0,0,1,33.51-7.93c-3.592,4.009-7.432,6.49-10.1,11.164-3.529.543-6.313,3.311-8.272,6.3-5.6,8.536-6.334,19.414-5.152,29.554s4.086,20.028,5.124,30.183-.017,21.057-5.974,29.348c-6.076,8.457-16.689,13.023-27.1,13.084a37.008,37.008,0,0,1-24.294-8.705,32.439,32.439,0,0,1-10.346-17.214c6,5.93,13.488,10.054,22.4,10.054C1792.732,669.819,1803.863,658.686,1808.7,646.586Z" transform="translate(-1755.085 -565.393)" opacity="0.2"/>
          </g>
          <path id="Trazado_1040635" data-name="Trazado 1040635" d="M1834.768,536.289a2.39,2.39,0,0,1,1.243-2.042c.524-2,3.335-1.854,4.32-.308q.25-1.043.55-2.062a1.161,1.161,0,0,1,2.263.211q.458-1.769.941-3.517c.679-2.447,4.778-2.066,4.566.618-.025.315-.051.629-.076.944.425-1.068.864-2.128,1.331-3.173.442-.989,1.826-.243,1.648.695-1.655,8.728-3.707,17.271-5.083,25.971q-.622,6.038-1.359,12.063a2.392,2.392,0,0,1-3.539,1.751,2.366,2.366,0,0,1-.254.012c-1.336.858-3.324.625-3.7-1.359C1835.817,556.461,1834.013,546.106,1834.768,536.289Z" transform="translate(-1777.001 -491.207)" fill="#b6bf40"/>
          <path id="Trazado_1040636" data-name="Trazado 1040636" d="M1232.893,500.695c-10.913-5.007-20.136-13.208-27.665-22.56-8.86-11.005-15.677-24.106-16.969-38.175-1.549-16.858,5.266-34.1,17.294-46.015s28.925-18.509,45.852-18.838c10.643-.207,21.673,2.125,30.139,8.578,7.392,5.634,12.337,14.059,14.957,22.976s3.061,18.341,2.667,27.627c-.564,13.308-2.838,26.638-7.837,38.985a80.194,80.194,0,0,1-15.976,25.22c-2.933,3.083-5.168,5.41-9.39,6-5.187.725-10.138,1.453-15.4.976A54.221,54.221,0,0,1,1232.893,500.695Z" transform="translate(-1124.002 -363.395)" fill="#e27441"/>
          <g id="Grupo_1179369" data-name="Grupo 1179369" transform="translate(194.825 63.388)">
            <path id="Trazado_1040637" data-name="Trazado 1040637" d="M901.751,711.8a13.791,13.791,0,0,1,9.818-4.9,11.756,11.756,0,0,1,9.813,4.631,14.545,14.545,0,0,1,2.455,8.414,21.946,21.946,0,0,1-11.774,19.706c-1.567.826-5.352,3.059-6.778,1.1-.792-1.089-.913-3.213-1.275-4.505q-.734-2.622-1.571-5.214-.93-2.88-1.985-5.718c-.56-1.506-1.5-2.925-2.009-4.417C897.46,718.014,899.955,713.909,901.751,711.8Z" transform="translate(-898.222 -706.889)" fill="#f7b294"/>
            <path id="Trazado_1040638" data-name="Trazado 1040638" d="M927.639,766.932a9.343,9.343,0,0,1,3.539-2.63,4.964,4.964,0,0,1,4.293.24c2,1.219,2.51,3.9,2.383,6.233A18.888,18.888,0,0,1,929.9,785.03a5.252,5.252,0,0,1-3.559,1.205,4.123,4.123,0,0,1-3.146-3.226c-.61-2.442,0-5.916.533-8.36A17.123,17.123,0,0,1,927.639,766.932Z" transform="translate(-916.107 -755.044)" fill="#d17656"/>
            <path id="Trazado_1040639" data-name="Trazado 1040639" d="M945.495,783.02c-.61-2.442,0-5.916.533-8.36a17.12,17.12,0,0,1,3.911-7.717,9.343,9.343,0,0,1,3.539-2.63,5.33,5.33,0,0,1,3.22-.212c-4.741,6.688-7.579,14.249-7.421,22.159a3.184,3.184,0,0,1-.635-.014A4.124,4.124,0,0,1,945.495,783.02Z" transform="translate(-938.406 -755.056)" opacity="0.2"/>
            <path id="Trazado_1040640" data-name="Trazado 1040640" d="M956.781,736.454q-.734-2.622-1.571-5.214-.93-2.88-1.985-5.717c-.56-1.506-1.5-2.925-2.009-4.417-.986-2.879,1.51-6.984,3.307-9.094a13.858,13.858,0,0,1,9.327-4.871c-.513,10.2,1.458,20.6,4.538,30.387a22.392,22.392,0,0,1-3.554,2.332c-1.567.826-5.352,3.059-6.778,1.1C957.264,739.871,957.142,737.746,956.781,736.454Z" transform="translate(-950.993 -707.102)" opacity="0.2"/>
          </g>
          <path id="Trazado_1040641" data-name="Trazado 1040641" d="M951.688,487.651c3.6,7.051,11.285,14.192,14.466,21.439,15.831,36.116,31.944,53.282,64.624,52.594,22.517-.476,47.3-18.158,52.253-39.25a26.884,26.884,0,0,0,.524-8.684c-.751-8.092-4.484-16.249-7.362-24.152-.846-2.325-1.615-4.628-2.216-6.9-3.26-12.346-7.841-26.247-14.85-36.914-8.378-12.749-21.811-15.862-37.057-16.4s-30.416,4.456-43.22,12.747a68.08,68.08,0,0,0-19.926,18.994C953.8,468.818,947.494,479.42,951.688,487.651Z" transform="translate(-871.363 -409.198)" fill="#f7b294"/>
          <path id="Trazado_1040642" data-name="Trazado 1040642" d="M954.411,840.231a12.127,12.127,0,0,0,7.424,3.67,15.268,15.268,0,0,0,8.22-1.442A16.618,16.618,0,0,0,973.83,840c-.751-8.092-4.484-16.25-7.362-24.152a13.709,13.709,0,0,0-10.363,3.34,16.1,16.1,0,0,0-4.7,9.222C950.727,832.565,951.556,837.139,954.411,840.231Z" transform="translate(-761.639 -735.449)" fill="#e7363e" opacity="0.3"/>
          <path id="Trazado_1040643" data-name="Trazado 1040643" d="M1373.453,990.717a13.663,13.663,0,0,1,1.112,11.836,16.031,16.031,0,0,1-8.208,8.762,15.211,15.211,0,0,1-8.22,1.442,12.093,12.093,0,0,1-7.423-3.67c-2.858-3.091-3.684-7.665-3.01-11.821a16.06,16.06,0,0,1,4.7-9.22C1358.274,982.6,1369.141,983.889,1373.453,990.717Z" transform="translate(-1224.965 -878.001)" fill="#e7363e" opacity="0.3"/>
          <path id="Trazado_1040644" data-name="Trazado 1040644" d="M1127.917,683.309c1.247.687,2.552,1.808,2.4,3.223a2.663,2.663,0,0,1-1.337,1.906c-3.474,2.1-9.562,1.053-13.2.015a6.6,6.6,0,0,1-2.7-1.308,3.786,3.786,0,0,1-1.151-2.034,3,3,0,0,1,.129-1.722,3.343,3.343,0,0,1,2.127-1.783C1118.415,680.244,1124.1,681.2,1127.917,683.309Z" transform="translate(-943.17 -621.624)" fill="#c95a2f"/>
          <path id="Trazado_1040645" data-name="Trazado 1040645" d="M1212.3,906.865c1.691-2.115,3.736-4.243,3.4-7.2-.387-3.382-3.874-4.379-6.755-3.778-.432.09-.607-.62-.187-.757,2.987-.975,6.6-.3,7.937,2.868,1.525,3.6-.761,7.488-3.48,9.795C1212.642,908.284,1211.843,907.44,1212.3,906.865Z" transform="translate(-1045.083 -802.073)" fill="#d17656"/>
          <g id="Grupo_1179370" data-name="Grupo 1179370" transform="translate(146.741 123.078)">
            <path id="Trazado_1040646" data-name="Trazado 1040646" d="M1080.453,1103.018a5.548,5.548,0,0,1-.659-5.772c1.117-2.016,3.61-2.773,5.886-3.14,5.844-.941,11.81-.505,17.728-.655,4.341-.11,12.73-3.84,17.73-3.362,1.731.166,3.043,2.191,3.445,3.841a7.547,7.547,0,0,1-1.4,6.016c-.207.292-.434.567-.668.836-12.045-6.417-26.874-2.965-36.036,6.362-.389-.163-.775-.331-1.158-.51A12.176,12.176,0,0,1,1080.453,1103.018Z" transform="translate(-1079.251 -1090.047)" fill="#c4222e"/>
            <path id="Trazado_1040647" data-name="Trazado 1040647" d="M1129.626,1141.172a17.948,17.948,0,0,1-4.1,3.321c-9.428,5.878-21.707,7.315-31.933,3.041C1102.751,1138.206,1117.58,1134.755,1129.626,1141.172Z" transform="translate(-1086.361 -1130.437)" fill="#e7363e"/>
          </g>
          <path id="Trazado_1040648" data-name="Trazado 1040648" d="M1110.553,812.708c3.134-1.01,6.892,1.993,8.082,4.73.123.282-.244.643-.5.4-1.786-1.659-3.8-4.485-6.605-3.967-3.578.66-1.965,5.588-2.028,8.091-.02.778-1.173.745-1.319.038C1107.581,819.091,1106.853,813.9,1110.553,812.708Z" transform="translate(-930.851 -732.666)" fill="#441e04"/>
          <path id="Trazado_1040649" data-name="Trazado 1040649" d="M1367.345,907.727c-2.563,2.067-2.112,6.856-.476,9.353.169.258.672.149.613-.2-.408-2.4-1.668-5.636.3-7.7,2.514-2.63,5.75,1.42,7.879,2.74.661.41,1.266-.573.755-1.082C1374.313,908.741,1370.372,905.287,1367.345,907.727Z" transform="translate(-1228.97 -812.344)" fill="#441e04"/>
          <path id="Trazado_1040650" data-name="Trazado 1040650" d="M1002.571,993.45c12.81,21.015,34.555,38.336,59.146,37.39,14.156-.615,31.469-5.6,43.137-17.2-10.119,13.881-28.27,23.905-45.148,24.263-29.21.615-45.185-13.037-59.553-41.733Q1001.4,994.846,1002.571,993.45Z" transform="translate(-900.292 -885.421)" opacity="0.2"/>
          <path id="Trazado_1040651" data-name="Trazado 1040651" d="M1029.683,461.131a68.081,68.081,0,0,1,19.926-18.994c12.8-8.291,27.973-13.285,43.22-12.747s28.678,3.646,37.057,16.4c6.118,9.311,10.386,21.085,13.54,32.139-14.846,2.489-30.5-2.154-45.221-5.253,4.356,2.42,8.228,4.84,13.068,6.292-17.908,1.936-34.848-4.356-51.787-8.712,2.468,16.574-4.058,33.917-15.083,46.978-.3-.492-.6-.985-.889-1.483.288.5.589.991.889,1.483q-1.177,1.394-2.418,2.722-2.56-5.112-5.071-10.86c-3.181-7.246-10.868-14.388-14.466-21.439C1018.255,479.421,1024.556,468.819,1029.683,461.131Z" transform="translate(-942.124 -409.199)" opacity="0.2"/>
          <g id="Grupo_1179371" data-name="Grupo 1179371" transform="translate(71.628)">
            <path id="Trazado_1040652" data-name="Trazado 1040652" d="M1429.432,797.884c-.44,1.353-.627,3.064.45,3.995a2.663,2.663,0,0,0,2.279.477c3.971-.841,7.7-5.767,9.648-9.014a6.6,6.6,0,0,0,1.079-2.8,3.786,3.786,0,0,0-.55-2.271,3,3,0,0,0-1.271-1.168,3.343,3.343,0,0,0-2.771.153C1434.273,789.153,1430.781,793.739,1429.432,797.884Z" transform="translate(-1376.787 -711.019)" fill="#c95a2f"/>
            <path id="Trazado_1040653" data-name="Trazado 1040653" d="M988.64,415.7a113.5,113.5,0,0,0,10.451-63.372,108.619,108.619,0,0,0,44.2,10.623,72.049,72.049,0,0,1-21.446-11.663,188.52,188.52,0,0,0,66.913,16.2c6.407-9.126,10.577-19.612,10.051-30.75s-5.693-22.2-14.6-28.911c-6.511-4.908-14.677-7.331-22.82-7.754s-16.288,1.061-24.109,3.369a116.529,116.529,0,0,0-55.5,36.139c-5.141,6.061-12.451,9.76-16.479,16.611s-6.364,14.875-5.53,22.779c.831,7.876,4.744,15.185,9.88,21.214S982.236,411.036,988.64,415.7Z" transform="translate(-959.601 -299.998)" fill="#e27441"/>
            <path id="Trazado_1040654" data-name="Trazado 1040654" d="M1642.444,708.8a249.971,249.971,0,0,0,4.313-59.19c-.025-.517.769-.512.8,0a224.714,224.714,0,0,1-3.933,59.516C1643.468,709.9,1642.3,709.572,1642.444,708.8Z" transform="translate(-1615.175 -594.822)" fill="#c95a2f"/>
            <path id="Trazado_1040655" data-name="Trazado 1040655" d="M1675.164,788.229c1.968-12.019,1.131-24.128.32-36.211-.034-.5.724-.487.771,0,1.173,12.135,2.181,24.437.061,36.528C1676.182,789.306,1675.041,788.98,1675.164,788.229Z" transform="translate(-1649.773 -681.288)" fill="#c95a2f"/>
            <path id="Trazado_1040656" data-name="Trazado 1040656" d="M992.757,361.111c10.288-9.062,25.68-11.815,38.379-6.435a37.421,37.421,0,0,1,22.175,30.286c.043.418-.6.41-.651,0a35.673,35.673,0,0,0-59.048-23C993.025,362.469,992.168,361.629,992.757,361.111Z" transform="translate(-919.196 -343.846)" fill="#c95a2f"/>
            <path id="Trazado_1040657" data-name="Trazado 1040657" d="M1103.366,473.474a44.889,44.889,0,0,1,44.4,15.254c.255.313-.184.764-.449.449a44.982,44.982,0,0,0-43.665-14.668C1102.978,474.658,1102.69,473.632,1103.366,473.474Z" transform="translate(-1030.928 -445.508)" fill="#c95a2f"/>
            <path id="Trazado_1040658" data-name="Trazado 1040658" d="M1226.871,533.612a102.594,102.594,0,0,0,49.733,12.661.348.348,0,0,1,0,.7,99.072,99.072,0,0,1-50.351-12.3C1225.562,534.289,1226.179,533.233,1226.871,533.612Z" transform="translate(-1179.183 -497.15)" fill="#c95a2f"/>
            <path id="Trazado_1040659" data-name="Trazado 1040659" d="M1460.038,592.741a52.8,52.8,0,0,0,20.838,9.347c.481.1.272.809-.2.729a48.707,48.707,0,0,1-21.217-9.083C1458.875,593.3,1459.442,592.3,1460.038,592.741Z" transform="translate(-1419.731 -547.043)" fill="#c95a2f"/>
          </g>
          <g id="Grupo_1179372" data-name="Grupo 1179372" transform="translate(86.372 104.517)">
            <path id="Trazado_1040660" data-name="Trazado 1040660" d="M1569.186,970.993a13.791,13.791,0,0,0-10.518,3.132,11.756,11.756,0,0,0-4,10.088,14.543,14.543,0,0,0,3.959,7.819,21.947,21.947,0,0,0,22.064,6.337c1.708-.469,6-1.425,5.7-3.831-.166-1.336-1.529-2.97-2.148-4.16q-1.256-2.416-2.417-4.879-1.29-2.738-2.459-5.53c-.621-1.482-.906-3.16-1.553-4.6C1576.567,972.6,1571.938,971.306,1569.186,970.993Z" transform="translate(-1554.592 -970.903)" fill="#f7b294"/>
            <path id="Trazado_1040661" data-name="Trazado 1040661" d="M1584.157,1038.977a9.34,9.34,0,0,0-4.381.5,4.964,4.964,0,0,0-2.969,3.109c-.624,2.254.832,4.561,2.521,6.179a18.888,18.888,0,0,0,15.549,4.969,5.252,5.252,0,0,0,3.422-1.553,4.123,4.123,0,0,0,.091-4.505c-1.224-2.2-4.043-4.318-6.1-5.738A17.131,17.131,0,0,0,1584.157,1038.977Z" transform="translate(-1570.635 -1028.323)" fill="#d17656"/>
            <path id="Trazado_1040662" data-name="Trazado 1040662" d="M1597.774,1047.671c-1.224-2.2-4.043-4.318-6.1-5.738a17.119,17.119,0,0,0-8.129-2.96,9.344,9.344,0,0,0-4.381.5,5.329,5.329,0,0,0-2.5,2.046c8.033,1.641,15.272,5.221,20.563,11.1a3.177,3.177,0,0,0,.454-.445A4.121,4.121,0,0,0,1597.774,1047.671Z" transform="translate(-1570.021 -1028.32)" opacity="0.2"/>
          </g>
        </g>
        <g id="Grupo_1179374" data-name="Grupo 1179374" transform="translate(65 122.553)">
          <path id="Trazado_1040663" data-name="Trazado 1040663" d="M1701.8,1095.035a2.189,2.189,0,0,1,2.1.1,15.682,15.682,0,0,1,3.975,2.481,13.609,13.609,0,0,1-2.091-7.091c-.026-1.229.278-2.686,1.414-3.145,1.05-.423,2.215.274,3.008,1.084a18.378,18.378,0,0,1,3.125,5.051,8.64,8.64,0,0,1,1.321-5.29c.589-.913,1.611-1.782,2.656-1.481.951.267,1.391,1.338,1.64,2.293a42.426,42.426,0,0,1,.991,8.055,11.514,11.514,0,0,1,3.233-4.283,2.09,2.09,0,0,1,1.474-.57,1.537,1.537,0,0,1,1.142.972,3.771,3.771,0,0,1,.217,1.545c-.058,4.878-2.27,9.45-4.626,13.725,3.171,8.9,6.572,17.813,10.214,26.67l-9.874,23.363a3.917,3.917,0,0,1-1.379-2.091q-.233-.895-.458-1.791a329.262,329.262,0,0,1-8.105-44.243,23.013,23.013,0,0,1-10.3-12.806C1701.2,1096.705,1701.047,1095.566,1701.8,1095.035Z" transform="translate(-1701.247 -1086.68)" fill="#f7b294"/>
          <path id="Trazado_1040664" data-name="Trazado 1040664" d="M1792.45,1176.914a7.785,7.785,0,0,0,6.746,1.626.279.279,0,0,1,.162.527,6.978,6.978,0,0,1-7.543-1.282C1791.31,1177.33,1791.911,1176.462,1792.45,1176.914Z" transform="translate(-1783.253 -1162.75)" fill="#d17656"/>
        </g>
        <path id="Trazado_1040665" data-name="Trazado 1040665" d="M855.013,1234.883q1.785-1.137,3.542-2.325a107.646,107.646,0,0,1,9.09,25.707,159.951,159.951,0,0,1-15.9,14.639A75.351,75.351,0,0,0,855.013,1234.883Z" transform="translate(-639.963 -1087.279)" opacity="0.4"/>
        <path id="Trazado_1040666" data-name="Trazado 1040666" d="M1542.022,1400.725c1.772-.309,3.532-.649,5.287-1,1.488,12.287,5.141,24.386,13.166,33.548-6.118-1.534-12.265-2.957-18.46-4.216A181.667,181.667,0,0,1,1542.022,1400.725Z" transform="translate(-1440.243 -1228.405)" opacity="0.4"/>
        <g id="Grupo_1179375" data-name="Grupo 1179375" transform="translate(73.372 136.591)" opacity="0.2">
          <path id="Trazado_1040667" data-name="Trazado 1040667" d="M1701.247,1340.25q1.758,4.489,3.587,8.965l-2.915,6.9C1701.943,1350.823,1701.71,1345.526,1701.247,1340.25Z" transform="translate(-1682.865 -1314.785)"/>
          <path id="Trazado_1040668" data-name="Trazado 1040668" d="M1792.45,1176.914a7.785,7.785,0,0,0,6.746,1.626.279.279,0,0,1,.162.527,6.978,6.978,0,0,1-7.543-1.282C1791.31,1177.33,1791.911,1176.462,1792.45,1176.914Z" transform="translate(-1791.625 -1176.787)"/>
        </g>
        <path id="Trazado_1040669" data-name="Trazado 1040669" d="M1082.74,1859.461q2.754-.251,5.5-.575c0-.011-.008-.019-.009-.03-.778-6.817-1.089-13.671-1.979-20.484-.923-7.069-2.309-14.03-3.623-21.031-.134-.715.929-1.03,1.1-.3a191.5,191.5,0,0,1,3.551,20.408c.287,2.212.571,4.449.826,6.694,6.336-7.175,4.183-18.63,2.567-27.29-.134-.715.93-1.03,1.1-.3a58.153,58.153,0,0,1,1.55,17.564c-.3,4.13-1.527,8.765-5.083,11.244a107.453,107.453,0,0,1,.731,13.449,199.6,199.6,0,0,0,19.731-3.344.255.255,0,0,1,.136.492q-5.2,1.364-10.46,2.386a69.032,69.032,0,0,0,7.951-.254c.273-.032.332.422.065.479-5.218,1.116-10.659.6-15.949,1.2a.321.321,0,0,1-.215-.053c-2.489.351-4.988.649-7.5.878C1082.02,1860.649,1082.025,1859.526,1082.74,1859.461Z" transform="translate(-917.25 -1579.942)" fill="#a3a32b"/>
        <path id="Trazado_1040670" data-name="Trazado 1040670" d="M1375.921,1854.157a36.513,36.513,0,0,0,3.949-1.224h0a37.661,37.661,0,0,0,14.912-10.144,31.311,31.311,0,0,0,7.754-16.122.289.289,0,0,0-.557-.155,43.718,43.718,0,0,1-8.557,15.613,33.565,33.565,0,0,1-13.256,9.128,35.129,35.129,0,0,1-3.766,1.21C1376.24,1853.03,1376.075,1853.592,1375.921,1854.157Z" transform="translate(-1256.522 -1588.531)" fill="#a3a32b"/>
        <path id="Trazado_1040671" data-name="Trazado 1040671" d="M939.859,1836.838a26.487,26.487,0,0,1-29.407-4.763c-.629-.571-1.549.334-.939.939a26.579,26.579,0,0,0,31.851,3.969Z" transform="translate(-722.652 -1593.247)" fill="#a3a32b"/>
        <path id="Trazado_1040672" data-name="Trazado 1040672" d="M921.493,1817.93c.426,2.894,1.176,3.514,1.6,6.4,2.5.252,5.072.479,7.628.716h0l1.505.145c4.138.4,8.175.852,11.708,1.5-.055.382-.118.763-.176,1.144-28.864-3.208-57.918-4.349-86.274,4.281a100.218,100.218,0,0,0-23.331,10.724,212.424,212.424,0,0,1,9.131-24.745C868.052,1818.337,920.153,1817.969,921.493,1817.93Z" transform="translate(-713.52 -1581.459)" opacity="0.2"/>
        <g id="Grupo_1179376" data-name="Grupo 1179376" transform="translate(127.154 158.303)">
          <path id="Trazado_1040673" data-name="Trazado 1040673" d="M1049.345,1792.188s2.1,7.906,1.359,8.13-82.175.895-82.175.895,2.966-6.862,3.336-6.862S1049.345,1791.815,1049.345,1792.188Z" transform="translate(-968.529 -1717.998)" fill="#9c9e2d"/>
          <path id="Trazado_1040674" data-name="Trazado 1040674" d="M1340.167,1337.06s11.237,78.949,5.133,79.135-12.391-77.533-12.012-77.794S1340.167,1337.06,1340.167,1337.06Z" transform="translate(-1321.604 -1333.804)" fill="#b6bf40"/>
          <path id="Trazado_1040675" data-name="Trazado 1040675" d="M1067.949,1316.16s10.1,79.209,3.993,79.252-11.271-77.82-10.889-78.072S1067.949,1316.16,1067.949,1316.16Z" transform="translate(-1005.979 -1316.16)" fill="#b6bf40"/>
        </g>
        <path id="Trazado_1040676" data-name="Trazado 1040676" d="M836.023,1863.01l4.449.989s-3.213,13.593-6.3,24.838a142.088,142.088,0,0,1-6.549,18.906L822.8,1907a158.462,158.462,0,0,0,7.785-21.625C833.428,1874.627,836.023,1863.01,836.023,1863.01Z" transform="translate(-608.281 -1619.516)" fill="#9c9e2d"/>
        <path id="Trazado_1040677" data-name="Trazado 1040677" d="M1360.649,2190.631l-2.41,5.251a165.038,165.038,0,0,1-21.687-3.893,89.623,89.623,0,0,1-18.783-7.476l.8-5s13.868,5.343,19.648,7.105A121.688,121.688,0,0,0,1360.649,2190.631Z" transform="translate(-1205.568 -1886.709)" fill="#9c9e2d"/>
      </g>
    </g>
  </g>
</svg>
