<svg xmlns="http://www.w3.org/2000/svg" xmlns:xlink="http://www.w3.org/1999/xlink" width="110" height="110" viewBox="0 0 110 110">
  <defs>
    <filter id="Trazado_982547" x="0" y="0" width="110" height="110" filterUnits="userSpaceOnUse">
      <feOffset dy="3" input="SourceAlpha"/>
      <feGaussianBlur stdDeviation="3" result="blur"/>
      <feFlood flood-opacity="0.161"/>
      <feComposite operator="in" in2="blur"/>
      <feComposite in="SourceGraphic"/>
    </filter>
  </defs>
  <g id="Grupo_1179241" data-name="Grupo 1179241" transform="translate(-3069 -2085)">
    <g id="Grupo_1175188" data-name="Grupo 1175188" transform="translate(3078 2091)">
      <g id="Grupo_1164700" data-name="Grupo 1164700" transform="translate(0 0)">
        <g id="Grupo_1160931" data-name="Grupo 1160931" transform="translate(0 0)">
          <g id="Grupo_1160749" data-name="Grupo 1160749" transform="translate(0 0)">
            <g id="Grupo_1158891" data-name="Grupo 1158891" transform="translate(0 0)">
              <g id="Grupo_1157406" data-name="Grupo 1157406" transform="translate(0 0)">
                <g id="Grupo_1155793" data-name="Grupo 1155793">
                  <g id="Grupo_1154704" data-name="Grupo 1154704">
                    <g id="Grupo_1150790" data-name="Grupo 1150790">
                      <g id="Grupo_1154214" data-name="Grupo 1154214">
                        <g id="Grupo_1152583" data-name="Grupo 1152583">
                          <g id="Grupo_1146973" data-name="Grupo 1146973">
                            <g id="Grupo_1146954" data-name="Grupo 1146954">
                              <g transform="matrix(1, 0, 0, 1, -9, -6)" filter="url(#Trazado_982547)">
                                <g id="Trazado_982547-2" data-name="Trazado 982547" transform="translate(9 6)" fill="#effbfe">
                                  <path d="M 46.00000381469727 90.49986267089844 C 39.99188232421875 90.49986267089844 34.16428375244141 89.32350158691406 28.67905807495117 87.00344848632812 C 23.38021659851074 84.76223754882812 18.62104415893555 81.55341339111328 14.53376388549805 77.46613311767578 C 10.44647026062012 73.37885284423828 7.237643718719482 68.61968994140625 4.996417045593262 63.32085037231445 C 2.676363706588745 57.83565139770508 1.500003814697266 52.00805282592773 1.500003814697266 45.99993133544922 C 1.500003814697266 39.99182510375977 2.676363706588745 34.16422653198242 4.996417045593262 28.67901039123535 C 7.237643718719482 23.38017082214355 10.44647026062012 18.62101173400879 14.53376388549805 14.53373146057129 C 18.62104415893555 10.44645118713379 23.38021659851074 7.237624645233154 28.67905807495117 4.996411323547363 C 34.16428375244141 2.676357984542847 39.99188232421875 1.499997973442078 46.00000381469727 1.499997973442078 C 52.00812530517578 1.499997973442078 57.83573532104492 2.676357984542847 63.32094955444336 4.996411323547363 C 68.61980438232422 7.237624645233154 73.37896728515625 10.44645118713379 77.46625518798828 14.53373146057129 C 81.55353546142578 18.62101173400879 84.76236724853516 23.38017082214355 87.00359344482422 28.67901039123535 C 89.32364654541016 34.16422653198242 90.5 39.99182510375977 90.5 45.99993133544922 C 90.5 52.00805282592773 89.32364654541016 57.83565139770508 87.00359344482422 63.32085037231445 C 84.76236724853516 68.61968994140625 81.55353546142578 73.37885284423828 77.46625518798828 77.46613311767578 C 73.37896728515625 81.55341339111328 68.61980438232422 84.76223754882812 63.32094955444336 87.00344848632812 C 57.83573532104492 89.32350158691406 52.00812530517578 90.49986267089844 46.00000381469727 90.49986267089844 Z" stroke="none"/>
                                  <path d="M 46.00000381469727 3 C 40.19371795654297 3 34.56270217895508 4.136505126953125 29.26338958740234 6.377914428710938 C 24.14333343505859 8.54351806640625 19.54443359375 11.64438629150391 15.59442138671875 15.59439086914062 C 11.64440155029297 19.54440307617188 8.543533325195312 24.14330291748047 6.3779296875 29.26334381103516 C 4.136505126953125 34.56266021728516 3.000007629394531 40.19366073608398 3.000007629394531 45.99993133544922 C 3.000007629394531 51.80620193481445 4.136505126953125 57.43720245361328 6.3779296875 62.73651885986328 C 8.543533325195312 67.85655975341797 11.64440155029297 72.45545959472656 15.59442138671875 76.40547180175781 C 19.54443359375 80.35547637939453 24.14333343505859 83.45634460449219 29.26338958740234 85.6219482421875 C 34.56270217895508 87.86335754394531 40.19371795654297 88.99986267089844 46.00000381469727 88.99986267089844 C 51.80628967285156 88.99986267089844 57.43730545043945 87.86335754394531 62.73663330078125 85.6219482421875 C 67.85667419433594 83.45634460449219 72.45558929443359 80.35547637939453 76.40560150146484 76.40547180175781 C 80.35560607910156 72.45545959472656 83.45648956298828 67.85655975341797 85.62208557128906 62.73651885986328 C 87.86350250244141 57.43720245361328 89 51.80620193481445 89 45.99993133544922 C 89 40.19366073608398 87.86350250244141 34.56266021728516 85.62208557128906 29.26334381103516 C 83.45648956298828 24.14330291748047 80.35560607910156 19.54440307617188 76.40560150146484 15.59439086914062 C 72.45558929443359 11.64438629150391 67.85667419433594 8.54351806640625 62.73663330078125 6.377914428710938 C 57.43730545043945 4.136505126953125 51.80628967285156 3 46.00000381469727 3 M 46.00000381469727 0 C 71.40510559082031 0 92 20.59487152099609 92 45.99993133544922 C 92 71.40499114990234 71.40510559082031 91.99986267089844 46.00000381469727 91.99986267089844 C 20.59491729736328 91.99986267089844 7.62939453125e-06 71.40499114990234 7.62939453125e-06 45.99993133544922 C 7.62939453125e-06 20.59487152099609 20.59491729736328 0 46.00000381469727 0 Z" stroke="none" fill="#397b86"/>
                                </g>
                              </g>
                            </g>
                          </g>
                        </g>
                      </g>
                    </g>
                  </g>
                </g>
              </g>
            </g>
          </g>
        </g>
      </g>
    </g>
    <g id="rompecabezas" transform="translate(3095.697 2109)">
      <g id="Grupo_1179239" data-name="Grupo 1179239" transform="translate(1.129 0.828)">
        <path id="Trazado_1040155" data-name="Trazado 1040155" d="M274.066,64.627l3.06-2.31a5.343,5.343,0,0,1,3.286-2.53l5.645-2.884-10.891-3.377-6.97,9.144Z" transform="translate(-239.498 -48.455)" fill="#ffc4c8"/>
        <path id="Trazado_1040156" data-name="Trazado 1040156" d="M325.78,93.59l1.451-2.7a5.343,5.343,0,0,1,2.129-2.076l5.34-2.777-1.245-1.867-7.194,1.9a5.344,5.344,0,0,0-3.286,2.53L321.465,91.9Z" transform="translate(-286.897 -75.723)" fill="#fdb4ba"/>
        <path id="Trazado_1040157" data-name="Trazado 1040157" d="M28.416,206.537a3.691,3.691,0,0,1-.089.809l-.463.222a7.27,7.27,0,0,0-3.179-.373c-3.359,0-5.379,3.134-7.386,4.652a3.679,3.679,0,0,0-.822-.091c-2.06,0-2.787,1.181-3.961,3.224H9.124A1.323,1.323,0,0,1,7.8,213.656V199.42A1.323,1.323,0,0,1,9.124,198.1H23.366a1.323,1.323,0,0,1,1.322,1.323v2.973a.439.439,0,0,0,.391.437,3.729,3.729,0,0,1,3.337,3.707Z" transform="translate(-7.802 -177.092)" fill="#60b7ff"/>
        <path id="Trazado_1040158" data-name="Trazado 1040158" d="M140.022,352.881l-.083,13.7a1.323,1.323,0,0,1-1.322,1.323l-2.588.284H124.8a1.323,1.323,0,0,1-1.322-1.322l-.912-3.136a3.959,3.959,0,0,1-3.734-3.982c0-.283.95-.558,1.01-.822,1.1.527,2.511,0,3.814,0,3.221,0,5.02-1.13,6.441-3.785l.986-.2a3.732,3.732,0,0,0,4.554-3.325.332.332,0,0,1,.329-.309l2.734.251A1.322,1.322,0,0,1,140.022,352.881Z" transform="translate(-106.595 -313.418)" fill="#fec165"/>
        <path id="Trazado_1040159" data-name="Trazado 1040159" d="M276.84,352.631v14.236a1.322,1.322,0,0,1-1.323,1.322h-3.306a1.322,1.322,0,0,0,1.322-1.322V352.631a1.322,1.322,0,0,0-1.17-1.314.312.312,0,0,1,.078-.01h3.076A1.322,1.322,0,0,1,276.84,352.631Z" transform="translate(-243.071 -313.417)" fill="#fdb441"/>
        <path id="Trazado_1040160" data-name="Trazado 1040160" d="M24.712,333.358v3.391a1.322,1.322,0,0,1-1.322,1.322H9.154a1.322,1.322,0,0,1-1.322-1.322v-14.24a1.322,1.322,0,0,1,1.322-1.322h3.39a3.729,3.729,0,0,1,4.549-3.638c0,1.281-.514,2.333-.514,3.636,0,3.36,1.786,5.451,4.5,7.623a3.669,3.669,0,0,0-.091.821A3.729,3.729,0,0,0,24.712,333.358Z" transform="translate(-7.828 -283.298)" fill="#97da7b"/>
        <path id="Trazado_1040161" data-name="Trazado 1040161" d="M92.852,321.926l.487,5.391c-1.777,0-3.75.565-4.124,2.229a8.45,8.45,0,0,1-3.982-11.259,3.728,3.728,0,0,1,2.906,3.638h4.712Z" transform="translate(-75.968 -284.037)" fill="#ade194"/>
        <path id="Trazado_1040162" data-name="Trazado 1040162" d="M224.815,213.2c-.3.324-1.389.195-1.721.463a3.712,3.712,0,0,1-.968-4.344.332.332,0,0,0-.138-.43l-3.531-1.963a.331.331,0,0,1-.128-.45l1.962-3.532a.332.332,0,0,1,.43-.138,3.712,3.712,0,0,0,3.983-.6C227.678,204.394,227.544,210.216,224.815,213.2Z" transform="translate(-195.091 -180.749)" fill="#fe7ab6"/>
        <path id="Trazado_1040163" data-name="Trazado 1040163" d="M278.65,123.631l-6.472,11.823a1.323,1.323,0,0,1-1.8.514l-2.181-.83-.369-.205a.332.332,0,0,0-.438.11,3.709,3.709,0,0,1-5.492.753,8.6,8.6,0,0,0,.943-.887,8.447,8.447,0,0,0,.667-10.569,3.713,3.713,0,0,0-.656-6.023l-.116-2.36,1.751-.582a1.323,1.323,0,0,1,1.8-.514l10.319,5.738,1.529,1.236A1.322,1.322,0,0,1,278.65,123.631Z" transform="translate(-233.896 -102.88)" fill="#fe5ca7"/>
        <path id="Trazado_1040164" data-name="Trazado 1040164" d="M330.018,171.211l-6.873,12.368a1.323,1.323,0,0,1-1.8.514l-2.3-1.276a1.369,1.369,0,0,0,1.2-.7l7.1-12.777a1.356,1.356,0,0,0,.113-1.058l2.044,1.136A1.322,1.322,0,0,1,330.018,171.211Z" transform="translate(-284.749 -150.559)" fill="#fe3d97"/>
        <path id="Trazado_1040165" data-name="Trazado 1040165" d="M103.131,275.5A3.727,3.727,0,0,1,99.8,278.4a.332.332,0,0,0-.309.33v4.4H94.778a3.728,3.728,0,0,0-2.907-3.637,8.451,8.451,0,0,1,11.021-4.091Z" transform="translate(-82.606 -245.242)" fill="#8ac9fe"/>
        <path id="Trazado_1040166" data-name="Trazado 1040166" d="M139.232,354.941l-.16.348a8.447,8.447,0,0,1-11.081,3.637,3.729,3.729,0,0,1,3.637-2.905v-4.714h4.4a.333.333,0,0,1,.33.309A3.73,3.73,0,0,0,139.232,354.941Z" transform="translate(-114.745 -313.417)" fill="#fece85"/>
        <g id="Grupo_1179238" data-name="Grupo 1179238" transform="translate(24.815)">
          <path id="Trazado_1040167" data-name="Trazado 1040167" d="M262.858,9.661a.767.767,0,0,0-.727-.77,7.494,7.494,0,0,1-.935-.1L254.122,7.58a5.1,5.1,0,0,0-2.114.083l-8.726,2.213A3.826,3.826,0,0,0,241.406,11l-5.358,5.829a3.192,3.192,0,0,0-.536.8l-2.476,5.242a.732.732,0,0,0,.3.948l.035.02a2.7,2.7,0,0,0,3.737-.89l1.352-2.518a7.248,7.248,0,0,1,1.472-1.825l2.956-2.644a4.614,4.614,0,0,1,3.218-1.173l3.121.1a4.463,4.463,0,0,1,3.572,1.979l2.034,3.04a4.466,4.466,0,0,1,.541,3.847l-1.158,3.609a4.464,4.464,0,0,1-.706,1.35l-1.3,1.7a3.153,3.153,0,0,0,.947,4.658l.028.016a.6.6,0,0,0,.738-.107l3.086-3.3a8.29,8.29,0,0,0,1.362-1.96l2.553-5.114a8.929,8.929,0,0,1,1.713-2.363.762.762,0,0,0,.224-.542Z" transform="translate(-232.965 -7.507)" fill="#ffd9e1"/>
        </g>
      </g>
      <g id="Grupo_1179240" data-name="Grupo 1179240" transform="translate(0.303 0.001)">
        <path id="Trazado_1040168" data-name="Trazado 1040168" d="M239.888,419.1a.827.827,0,0,0-.827.827v7.262a.5.5,0,0,1-.5.5H231.51a.827.827,0,1,0,0,1.653h7.056a2.152,2.152,0,0,0,2.149-2.149v-7.262A.826.826,0,0,0,239.888,419.1Z" transform="translate(-205.293 -372.909)"/>
        <path id="Trazado_1040169" data-name="Trazado 1040169" d="M33.576,207.483H30.184a.827.827,0,0,0-.827.827,2.9,2.9,0,0,1-5.805,0,.827.827,0,0,0-.827-.827H18.842v-3.139a4.555,4.555,0,0,0,0-8.958v-2.639a2.152,2.152,0,0,0-2.149-2.149H9.534a.827.827,0,1,0,0,1.653h7.158a.5.5,0,0,1,.5.5v3.39a.827.827,0,0,0,.827.827,2.906,2.906,0,0,1,2.878,2.532,9.267,9.267,0,0,0-10.954,4.271c-.121-.01-.243-.015-.366-.015a4.563,4.563,0,0,0-4.481,3.728H2.452a.5.5,0,0,1-.5-.5V192.747a.5.5,0,0,1,.5-.5H5.677a.827.827,0,0,0,0-1.653H2.452A2.152,2.152,0,0,0,.3,192.747v14.236a2.137,2.137,0,0,0,.461,1.325,2.136,2.136,0,0,0-.458,1.322v14.24a2.152,2.152,0,0,0,2.149,2.149H16.691a2.136,2.136,0,0,0,1.323-.459,2.136,2.136,0,0,0,1.321.457h3.327a.827.827,0,1,0,0-1.653H19.335a.5.5,0,0,1-.5-.511v-3.375a.827.827,0,0,0-.827-.827,2.906,2.906,0,0,1-2.879-2.535,9.26,9.26,0,0,0,10.958-4.267c.12.009.24.015.362.015a4.563,4.563,0,0,0,4.481-3.728h2.64a.5.5,0,0,1,.5.5v3.117a.827.827,0,1,0,1.653,0v-3.117A2.151,2.151,0,0,0,33.576,207.483Zm-19.645,7.248a7.611,7.611,0,0,1-3.073-9.027,2.9,2.9,0,0,1,1.618,2.6.827.827,0,0,0,.827.827h3.884v3.139A4.57,4.57,0,0,0,13.931,214.732Zm4.083-14.04a7.567,7.567,0,0,1,2.6.458,2.906,2.906,0,0,1-2.6,1.616.827.827,0,0,0-.827.827v3.886H14.053a4.569,4.569,0,0,0-2.462-3.255A7.613,7.613,0,0,1,18.013,200.692Zm-.827,20.538v2.639a.5.5,0,0,1-.5.5H2.455a.5.5,0,0,1-.5-.5V209.63a.5.5,0,0,1,.537-.5H5.844a.827.827,0,0,0,.827-.827,2.906,2.906,0,0,1,2.536-2.878,9.257,9.257,0,0,0,4.266,10.955,4.567,4.567,0,0,0,3.714,4.846Zm.827-5.306a7.574,7.574,0,0,1-2.6-.458,2.906,2.906,0,0,1,2.6-1.616.827.827,0,0,0,.827-.827v-3.886h3.135a4.569,4.569,0,0,0,2.466,3.257A7.606,7.606,0,0,1,18.013,215.924Z" transform="translate(-0.303 -169.593)"/>
        <path id="Trazado_1040170" data-name="Trazado 1040170" d="M59.89,84.061h1.758a.827.827,0,1,0,0-1.653H59.89a.827.827,0,0,0,0,1.653Z" transform="translate(-52.587 -73.326)"/>
        <path id="Trazado_1040171" data-name="Trazado 1040171" d="M116.7,84.061h1.758a.827.827,0,0,0,0-1.653H116.7a.827.827,0,0,0,0,1.653Z" transform="translate(-103.135 -73.326)"/>
        <path id="Trazado_1040172" data-name="Trazado 1040172" d="M96.271,49.438a.827.827,0,0,0,.827-.827V46.854a.827.827,0,1,0-1.653,0v1.758A.827.827,0,0,0,96.271,49.438Z" transform="translate(-84.959 -40.955)"/>
        <path id="Trazado_1040173" data-name="Trazado 1040173" d="M96.271,106.247a.827.827,0,0,0,.827-.827v-1.758a.827.827,0,1,0-1.653,0v1.758A.827.827,0,0,0,96.271,106.247Z" transform="translate(-84.959 -91.503)"/>
        <path id="Trazado_1040174" data-name="Trazado 1040174" d="M390.945,377.772h-1.758a.827.827,0,1,0,0,1.653h1.758a.827.827,0,1,0,0-1.653Z" transform="translate(-345.593 -336.139)"/>
        <path id="Trazado_1040175" data-name="Trazado 1040175" d="M447.755,377.772H446a.827.827,0,1,0,0,1.653h1.758a.827.827,0,1,0,0-1.653Z" transform="translate(-396.142 -336.139)"/>
        <path id="Trazado_1040176" data-name="Trazado 1040176" d="M425.568,341.391a.827.827,0,0,0-.827.827v1.758a.827.827,0,0,0,1.653,0v-1.758A.827.827,0,0,0,425.568,341.391Z" transform="translate(-377.964 -303.767)"/>
        <path id="Trazado_1040177" data-name="Trazado 1040177" d="M425.568,398.2a.827.827,0,0,0-.827.827v1.758a.827.827,0,1,0,1.653,0v-1.758A.827.827,0,0,0,425.568,398.2Z" transform="translate(-377.964 -354.315)"/>
        <path id="Trazado_1040178" data-name="Trazado 1040178" d="M242.769,14.783a.826.826,0,0,0-1.168-.047,9.72,9.72,0,0,0-2.116,2.815l-2.553,5.114a7.459,7.459,0,0,1-1.226,1.764L232.747,27.6a2.326,2.326,0,0,1-.79-3.036,2.448,2.448,0,0,1,.21-.329l1.3-1.7a5.277,5.277,0,0,0,.837-1.6l1.158-3.609a5.263,5.263,0,0,0-.641-4.559l-2.035-3.04a5.3,5.3,0,0,0-4.233-2.346l-3.122-.1A5.417,5.417,0,0,0,221.64,8.66L218.684,11.3a8.065,8.065,0,0,0-1.639,2.033l-1.35,2.378a1.915,1.915,0,0,1-2.571.742l2.439-5.162a2.356,2.356,0,0,1,.4-.59l5.358-5.829A2.991,2.991,0,0,1,222.788,4l8.726-2.213a4.248,4.248,0,0,1,1.771-.07l7.074,1.211a8.325,8.325,0,0,0,1.846.107.827.827,0,0,0-.089-1.651,6.645,6.645,0,0,1-1.478-.086L233.564.086a5.893,5.893,0,0,0-2.457.1L222.382,2.4A4.64,4.64,0,0,0,220.1,3.757l-5.358,5.829a4.009,4.009,0,0,0-.674,1l-2.477,5.242a1.564,1.564,0,0,0,.639,2.02l.036.021a3.572,3.572,0,0,0,4.243-.535,2.882,2.882,0,0,1-3.3,4.687.826.826,0,0,0-1.124.321l-2.277,4.1a.827.827,0,0,0,.321,1.124l3.441,1.913a4.549,4.549,0,0,0,1.339,4.88,4.537,4.537,0,0,0,2.952,1.1,4.554,4.554,0,0,0,1.251-.176,4.5,4.5,0,0,0,2.252-1.472l2.284,1.27a2.149,2.149,0,0,0,2.923-.834l1.011-1.819a.827.827,0,0,0-1.445-.8l-1.011,1.819a.5.5,0,0,1-.674.193L221.512,32a.826.826,0,0,0-1.124.321,2.88,2.88,0,0,1-3.564,1.285,9.268,9.268,0,0,0,1.291-11.227,4.6,4.6,0,0,0,.459-.674,4.543,4.543,0,0,0-1.123-5.738l1.031-1.817c.091-.16.188-.315.292-.466a.529.529,0,0,1,.67-.157L231.808,20.4a.5.5,0,0,1,.192.674l-3.987,7.174a.827.827,0,1,0,1.445.8l.956-1.72a3.976,3.976,0,0,0,1.635,1.769l.029.016a1.439,1.439,0,0,0,.712.189,1.417,1.417,0,0,0,1.038-.451l3.086-3.3a9.115,9.115,0,0,0,1.5-2.155l2.553-5.114a8.076,8.076,0,0,1,1.757-2.338.827.827,0,0,0,.047-1.168ZM215.791,32.3c-.089.1-.182.192-.277.286a2.886,2.886,0,0,1-.163-3.059.827.827,0,0,0-.321-1.124l-3.375-1.877,1.51-2.718a4.5,4.5,0,0,0,2.689.061,4.566,4.566,0,0,0,.973-.4,7.664,7.664,0,0,1-1.038,8.836Zm11.278-16.708-.125.22-2.777-1.544a4.568,4.568,0,0,1,2.863-2.289l4.489-1.183.658.984-2.649,1.416a6.162,6.162,0,0,0-2.459,2.4Zm-4.327-5.7a3.763,3.763,0,0,1,2.641-.963l3.122.1a3.635,3.635,0,0,1,1.6.43l-3.5.922a6.227,6.227,0,0,0-3.887,3.084L220.274,12.1Zm5.646,6.72a4.606,4.606,0,0,1,1.918-1.962l2.794-1.493.349.522a3.619,3.619,0,0,1,.441,3.135l-.8,2.507a2.137,2.137,0,0,0-.475-.361Z" transform="translate(-186.628 -0.001)"/>
      </g>
    </g>
  </g>
</svg>
