<svg xmlns="http://www.w3.org/2000/svg" xmlns:xlink="http://www.w3.org/1999/xlink" width="295" height="226" viewBox="0 0 295 226">
  <defs>
    <clipPath id="clip-path">
      <rect id="Rectángulo_415653" data-name="Rectángulo 415653" width="295" height="226" transform="translate(180 2567)" fill="#fff" stroke="#707070" stroke-width="1" opacity="0.84"/>
    </clipPath>
  </defs>
  <g id="Enmascarar_grupo_1098807" data-name="Enmascarar grupo 1098807" transform="translate(-180 -2567)" clip-path="url(#clip-path)">
    <g id="Grupo_1179173" data-name="Grupo 1179173" transform="translate(-4.5 6)">
      <ellipse id="Elipse_12409" data-name="Elipse 12409" cx="124" cy="117" rx="124" ry="117" transform="translate(208 2615)" fill="#ebe9f0" opacity="0.66"/>
      <g id="Grupo_1179159" data-name="Grupo 1179159" transform="translate(-568.993 2261.187)">
        <g id="Grupo_1179149" data-name="Grupo 1179149" transform="translate(795.832 319.434)">
          <path id="Trazado_1038782" data-name="Trazado 1038782" d="M1753.759,1336.83l-.217.111C1753.956,1337.017,1754.153,1337.178,1753.759,1336.83Z" transform="translate(-1606.334 -1182.724)" fill="#f4dea8"/>
          <path id="Trazado_1038783" data-name="Trazado 1038783" d="M905.773,545.231q-2.561,8.313-5.911,16.357c14.716,5.693,29.29,10.77,44.445,14.21.424.1.849.192,1.273.283q7.024,1.553,14.236,2.6,3.311.47,6.653.783l.813.076c14.18,1.217,28.668.151,42.055-4.239.329-.106.657-.212.98-.328a79.16,79.16,0,0,0,10.927-4.643,1.925,1.925,0,0,0-.465-.03q-2.16-9.419-3.981-18.9c5.764,4.759,11.695,9.477,18.328,12.927a61.014,61.014,0,0,0,13.544-10.755c.247-.253.485-.51.728-.773a67.442,67.442,0,0,0,10-14.246c.167-.323.333-.642.495-.965a71.647,71.647,0,0,0,4.461-10.993c.142-.46.283-.924.419-1.389q.97-3.341,1.617-6.779c-3.056-.146-6.006-2.683-7.931-5.062a29.307,29.307,0,0,1-4.234-8.1c-9.113-23.561-13.558-49.077-26.072-71.022-9.255-16.226-33.8-16.529-52.432-17.833-8.755-.611-17.747-.465-26.016,2.47-11.654,4.132-23.551,15.68-35.16,19.939-6.9,10.891-9.012,21.217-11.6,33.841s-4.4,25.466-8.391,37.721-10.407,24.122-20.515,32.119A84.641,84.641,0,0,0,896.21,558.41c3.178-4.658,6.658-8.987,9.285-13.973C905.757,544.367,905.51,545.3,905.773,545.231Z" transform="translate(-874.038 -416.111)" fill="#f4dea8"/>
          <path id="Trazado_1038784" data-name="Trazado 1038784" d="M1293.87,1071.913c.424.1.849.192,1.273.283,7.628-19.025,12.978-39.272,16.812-59.312.177-.929-1.233-1.334-1.435-.394-2.319,10.982-4.93,21.9-8.037,32.694C1299.892,1054.191,1296.876,1063.042,1293.87,1071.913Z" transform="translate(-1223.6 -912.225)" fill="#e5cc93"/>
          <path id="Trazado_1038785" data-name="Trazado 1038785" d="M1216.921,1048.835a243.434,243.434,0,0,0,15.918-56.066c.136-.877,1.442-.495,1.324.365a191.4,191.4,0,0,1-16.493,56.017C1217.475,1049.567,1216.742,1049.267,1216.921,1048.835Z" transform="translate(-1159.507 -895.836)" fill="#e5cc93"/>
          <path id="Trazado_1038786" data-name="Trazado 1038786" d="M1088.323,1000.746c12-18.185,19.822-38.551,27.814-58.7.294-.743,1.506-.432,1.218.336-7.658,20.375-15.768,40.847-28.309,58.788C1088.74,1001.6,1088.024,1001.2,1088.323,1000.746Z" transform="translate(-1052.397 -853.663)" fill="#e5cc93"/>
          <path id="Trazado_1038787" data-name="Trazado 1038787" d="M962.983,828.646c16.227-23.461,23.582-51.077,30.985-78.241a.774.774,0,0,1,1.492.411c-6.984,27.22-14.681,55.4-31.726,78.268C963.406,829.523,962.661,829.113,962.983,828.646Z" transform="translate(-948.03 -693.996)" fill="#e5cc93"/>
          <path id="Trazado_1038788" data-name="Trazado 1038788" d="M1426.28,1141.591l.813.076a190.55,190.55,0,0,0,7.5-49.795.655.655,0,0,0-1.308,0A241.15,241.15,0,0,1,1426.28,1141.591Z" transform="translate(-1333.848 -978.241)" fill="#e5cc93"/>
          <path id="Trazado_1038789" data-name="Trazado 1038789" d="M1652.872,1102.911a276.518,276.518,0,0,1,4.93,43.566c.328-.106.657-.212.98-.328a230.2,230.2,0,0,0-4.678-43.581C1653.943,1101.758,1652.717,1102.108,1652.872,1102.911Z" transform="translate(-1522.503 -987.288)" fill="#e5cc93"/>
          <path id="Trazado_1038790" data-name="Trazado 1038790" d="M1703.8,1028.545a124.373,124.373,0,0,0,35.67,34.291c.248-.253.485-.51.728-.773a131.355,131.355,0,0,1-35.458-34.069C1704.334,1027.429,1703.4,1027.964,1703.8,1028.545Z" transform="translate(-1564.836 -925.38)" fill="#e5cc93"/>
          <path id="Trazado_1038791" data-name="Trazado 1038791" d="M1780.567,838.872c8.108,18.338,17.762,38.064,33.568,50.734.167-.323.334-.642.5-.965-15.307-12.912-24.3-32.538-32.78-50.517C1781.435,837.255,1780.187,838.013,1780.567,838.872Z" transform="translate(-1628.776 -767.169)" fill="#e5cc93"/>
          <path id="Trazado_1038792" data-name="Trazado 1038792" d="M1860.709,860.1c6.82,12.584,14.822,25.092,25.082,35.17.142-.46.283-.924.419-1.389-9.724-10.1-17.307-22.389-24.127-34.584C1861.583,858.4,1860.219,859.2,1860.709,860.1Z" transform="translate(-1695.477 -784.792)" fill="#e5cc93"/>
          <path id="Trazado_1038793" data-name="Trazado 1038793" d="M1231.217,814.227c-25.111-18.038-27.936-44.991-25.985-72.189,22.235-13.975,44.328-28.486,71.956-29.35,12.629-.505,25.763-.505,36.877,6.567a33.529,33.529,0,0,1,6.624,5.986c2.628,8.607,5.25,17.226,8.43,25.611.114,11.492-3.076,23.587-6.971,33.569a63.225,63.225,0,0,1-16.173,24.091,133.028,133.028,0,0,1-13.829-10.34q1.712,8.932,3.733,17.8a54.326,54.326,0,0,1-16.67,6.338C1262.536,825.341,1245.866,824.33,1231.217,814.227Z" transform="translate(-1149.384 -662.889)" opacity="0.3"/>
        </g>
        <g id="Grupo_1179150" data-name="Grupo 1179150" transform="translate(780.111 403.862)">
          <path id="Trazado_1038794" data-name="Trazado 1038794" d="M889.725,990.634a169.215,169.215,0,0,1-3.792,29.2,335.471,335.471,0,0,1-88.253-75.412,24,24,0,0,1-16.314-5.3c-.743-.605-1.519-1.517-1.17-2.409a2.288,2.288,0,0,1,1.885-1.112,16.524,16.524,0,0,1,4.89-.1,14.162,14.162,0,0,1-5.878-5c-.722-1.054-1.292-2.5-.56-3.553.676-.969,2.092-1.028,3.245-.772A19.046,19.046,0,0,1,789.4,928.8a9.007,9.007,0,0,1-1.865-5.377c-.008-1.136.388-2.475,1.472-2.812.983-.306,1.982.376,2.742,1.07a43.858,43.858,0,0,1,5.466,6.471,12.05,12.05,0,0,1,.377-5.589,2.188,2.188,0,0,1,.962-1.34,1.6,1.6,0,0,1,1.555.194,4,4,0,0,1,1.073,1.225c2.733,4.3,3.412,9.554,3.8,14.63C831.316,957.273,860.063,976.007,889.725,990.634Z" transform="translate(-780.111 -920.533)" fill="#f7b294"/>
          <path id="Trazado_1038795" data-name="Trazado 1038795" d="M839.023,1001.193c-2.549,2.783-5.406,3.719-9.082,3.958a.428.428,0,0,0-.1.84c3.708.876,7.836-.993,10.142-3.888C840.511,1001.445,839.609,1000.552,839.023,1001.193Z" transform="translate(-821.259 -987.508)" fill="#d17656"/>
          <path id="Trazado_1038796" data-name="Trazado 1038796" d="M1130.968,1158.974a169.208,169.208,0,0,1-3.792,29.2,326.524,326.524,0,0,1-50.5-36.536,93.714,93.714,0,0,0-6.832-28.927A493.358,493.358,0,0,0,1130.968,1158.974Z" transform="translate(-1021.354 -1088.873)" opacity="0.2"/>
        </g>
        <path id="Trazado_1038797" data-name="Trazado 1038797" d="M1183.433,1261.845c-15.609-9.445-31.11-19.034-42.725-33.1a178.692,178.692,0,0,1,10.37-23.619,98.049,98.049,0,0,0,28.484,14.628C1183.935,1233.753,1184.256,1247.2,1183.433,1261.845Z" transform="translate(-300.242 -753.627)" fill="#77cad8"/>
        <g id="Grupo_1179151" data-name="Grupo 1179151" transform="translate(942.78 374.475)">
          <path id="Trazado_1038798" data-name="Trazado 1038798" d="M1789.1,808.916c7.064-13.658,13.557-27.6,19.471-41.525-2.186-4.6-4.206-9.5-3.967-14.585a4,4,0,0,1,.324-1.6,1.6,1.6,0,0,1,1.253-.94,2.188,2.188,0,0,1,1.5.685,12.048,12.048,0,0,1,3.1,4.664,40.026,40.026,0,0,1,1.794-9.1,2.5,2.5,0,0,1,1.007-1.284c1.328-.817,2.6.31,3.254,1.47a9.006,9.006,0,0,1,1.052,5.593c1.159-2.1,2.355-4.249,4.324-5.687a2.545,2.545,0,0,1,1.847-.5c1.678.245,2,2.069,1.877,3.538a14.162,14.162,0,0,1-2.619,7.259,16.516,16.516,0,0,1,4.9-2.545,1.775,1.775,0,0,1,1.286.055c1.092.51.861,1.858.477,2.855a24,24,0,0,1-11.527,12.7,343.145,343.145,0,0,1-12.14,48.534,18.222,18.222,0,0,1-3.991,6.753c-7.5,8.019-28.9,30.613-41.965,41.36a169.175,169.175,0,0,1-8.373-28.232A462.5,462.5,0,0,0,1789.1,808.916Z" transform="translate(-1751.991 -744.958)" fill="#f7b294"/>
          <path id="Trazado_1038799" data-name="Trazado 1038799" d="M2113.719,836.506c3.595,1.15,6.539.544,9.848-1.074a.428.428,0,0,1,.5.682c-2.783,2.6-7.294,3.029-10.734,1.661C2112.554,837.465,2112.894,836.242,2113.719,836.506Z" transform="translate(-2052.488 -820.252)" fill="#d17656"/>
          <path id="Trazado_1038800" data-name="Trazado 1038800" d="M1789.1,1074.529q2.719-5.256,5.323-10.564a152.934,152.934,0,0,0-1.677,37.017c-9.715,10.108-23.136,23.648-32.384,31.255a169.184,169.184,0,0,1-8.372-28.232A462.46,462.46,0,0,0,1789.1,1074.529Z" transform="translate(-1751.989 -1010.571)" opacity="0.2"/>
        </g>
        <path id="Trazado_1038801" data-name="Trazado 1038801" d="M1742.636,1244.648a206.286,206.286,0,0,0,34.887-36.163,136.3,136.3,0,0,0-13.109-21.505c-10.146,7.567-17.239,13.512-27.255,17.291C1737.784,1218.551,1740.527,1230.511,1742.636,1244.648Z" transform="translate(-796.862 -738.522)" fill="#77cad8"/>
        <path id="Trazado_1038802" data-name="Trazado 1038802" d="M1343.91,1364.8c6.575-25.4,6.564-61.267,1.07-87.056,22.356,2.236,46.39,4.987,69.95-1.376,8.126,24.508,8.518,44.486,11.325,83.358C1400.834,1371.263,1371.045,1371.3,1343.91,1364.8Z" transform="translate(-469.432 -812.946)" fill="#bbe5ef"/>
        <path id="Trazado_1038803" data-name="Trazado 1038803" d="M1140.7,1228.733a178.721,178.721,0,0,1,10.369-23.62q2.379,1.8,4.874,3.428c-3.01,11.079-2.731,22.715-1,34.141A100.422,100.422,0,0,1,1140.7,1228.733Z" transform="translate(-300.235 -753.619)" opacity="0.2"/>
        <path id="Trazado_1038804" data-name="Trazado 1038804" d="M1882.05,1189.235c.976-.737,1.971-1.486,3-2.257a136.3,136.3,0,0,1,13.109,21.5,206.079,206.079,0,0,1-13.964,16.642A129.064,129.064,0,0,0,1882.05,1189.235Z" transform="translate(-917.501 -738.52)" opacity="0.2"/>
        <path id="Trazado_1038805" data-name="Trazado 1038805" d="M1520.494,1282.447a6.568,6.568,0,0,1,2.666.863,2.583,2.583,0,0,1,1.244,2.373,3.014,3.014,0,0,1-1.5,1.984c-1.813,1.161-4.066,1.332-6.215,1.47a80.649,80.649,0,0,1-13.888.095,8.467,8.467,0,0,1-2.938-.722,3.321,3.321,0,0,1-1.853-2.273c-.327-1.907,1.137-2.294,2.561-2.532,2.211-.369,4.408-.8,6.63-1.1A46.223,46.223,0,0,1,1520.494,1282.447Z" transform="translate(-597.702 -817.666)" fill="#77cad8"/>
        <g id="Grupo_1179152" data-name="Grupo 1179152" transform="translate(902.882 450.309)">
          <path id="Trazado_1038806" data-name="Trazado 1038806" d="M1529.746,1199.437q1.9,8.209,4.488,16.325c-6.349,1.9-13.885,1.838-20.615.434.677-6.028,1.335-12.13,2.012-18.158A82.305,82.305,0,0,1,1529.746,1199.437Z" transform="translate(-1513.619 -1198.037)" fill="#f7b294"/>
          <path id="Trazado_1038807" data-name="Trazado 1038807" d="M1534.911,1199.436c.8,3.448,1.7,6.884,2.677,10.307a97.356,97.356,0,0,0-17.765-2.92c.323-2.935.646-5.87.974-8.787A82.323,82.323,0,0,1,1534.911,1199.436Z" transform="translate(-1518.784 -1198.036)" opacity="0.4"/>
        </g>
        <g id="Grupo_1179156" data-name="Grupo 1179156" transform="translate(832.195 300)">
          <g id="Grupo_1179153" data-name="Grupo 1179153" transform="translate(122.896 68.921)">
            <path id="Trazado_1038808" data-name="Trazado 1038808" d="M1830.236,715.624a14.4,14.4,0,0,1,10.805-3.8,12.271,12.271,0,0,1,9.561,6.071,15.181,15.181,0,0,1,1.45,9.033,22.907,22.907,0,0,1-14.753,18.88c-1.731.651-5.94,2.473-7.162.258-.679-1.23-.529-3.447-.736-4.832q-.42-2.811-.95-5.6-.589-3.1-1.313-6.179c-.384-1.633-1.172-3.225-1.507-4.836C1824.982,721.5,1828.1,717.577,1830.236,715.624Z" transform="translate(-1825.543 -711.772)" fill="#f7b294"/>
            <path id="Trazado_1038809" data-name="Trazado 1038809" d="M1864.123,772.068a9.754,9.754,0,0,1,4.007-2.264,5.181,5.181,0,0,1,4.414.806c1.909,1.521,2.094,4.363,1.658,6.765a19.714,19.714,0,0,1-10.088,13.731,5.483,5.483,0,0,1-3.842.786,4.3,4.3,0,0,1-2.839-3.75c-.315-2.609.768-6.127,1.637-8.588A17.882,17.882,0,0,1,1864.123,772.068Z" transform="translate(-1852.049 -759.949)" fill="#d17656"/>
            <path id="Trazado_1038810" data-name="Trazado 1038810" d="M1857.433,788.148c-.315-2.609.768-6.127,1.637-8.588a17.867,17.867,0,0,1,5.052-7.485,9.749,9.749,0,0,1,4.007-2.264,5.563,5.563,0,0,1,3.362.2c-5.779,6.311-9.7,13.773-10.564,21.985a3.316,3.316,0,0,1-.656-.1A4.307,4.307,0,0,1,1857.433,788.148Z" transform="translate(-1852.049 -759.956)" opacity="0.2"/>
            <path id="Trazado_1038811" data-name="Trazado 1038811" d="M1829.4,741.255q-.42-2.811-.95-5.6-.589-3.1-1.313-6.179c-.384-1.633-1.172-3.224-1.507-4.836-.647-3.11,2.472-7.037,4.606-8.989a14.464,14.464,0,0,1,10.292-3.833c-1.856,10.5-1.166,21.524.753,32.06a23.368,23.368,0,0,1-3.983,1.954c-1.73.651-5.94,2.473-7.162.258C1829.46,744.856,1829.609,742.639,1829.4,741.255Z" transform="translate(-1825.546 -711.795)" opacity="0.2"/>
          </g>
          <path id="Trazado_1038812" data-name="Trazado 1038812" d="M1117.109,458.616c2.81,7.769,9.844,16.164,12.2,24.082,11.7,39.459,26.163,59.33,60.1,62.862,23.381,2.431,51.345-12.662,59.214-33.863a28.063,28.063,0,0,0,1.67-8.926c.273-8.478-2.534-17.411-4.488-25.969-.574-2.518-1.072-5-1.4-7.433-1.772-13.21-4.712-28.2-10.586-40.159-7.021-14.292-20.529-19.26-36.248-21.792s-32.079.665-46.417,7.588a71.059,71.059,0,0,0-23.1,17.083C1121.737,439.385,1113.833,449.547,1117.109,458.616Z" transform="translate(-1112.15 -388.719)" fill="#f7b294"/>
          <path id="Trazado_1038813" data-name="Trazado 1038813" d="M1784.828,848.339a12.657,12.657,0,0,0,7.213,4.766,15.934,15.934,0,0,0,8.7-.426,17.338,17.338,0,0,0,4.228-2.057c.273-8.478-2.534-17.411-4.488-25.969a14.309,14.309,0,0,0-11.167,2.113,16.8,16.8,0,0,0-6.069,8.94C1782.008,839.921,1782.27,844.766,1784.828,848.339Z" transform="translate(-1666.832 -736.57)" fill="#e7363e" opacity="0.3"/>
          <path id="Trazado_1038814" data-name="Trazado 1038814" d="M1362.288,938.915a14.26,14.26,0,0,1-.386,12.4,16.734,16.734,0,0,1-9.639,8.008,15.872,15.872,0,0,1-8.7.426,12.623,12.623,0,0,1-7.211-4.764c-2.558-3.572-2.819-8.417-1.582-12.633a16.761,16.761,0,0,1,6.068-8.938C1347.619,928.543,1358.708,931.284,1362.288,938.915Z" transform="translate(-1293.42 -825.368)" fill="#e7363e" opacity="0.3"/>
          <path id="Trazado_1038815" data-name="Trazado 1038815" d="M1688.794,675.176c1.2.873,2.408,2.2,2.069,3.65a2.779,2.779,0,0,1-1.632,1.8c-3.87,1.724-10.039-.151-13.676-1.7a6.884,6.884,0,0,1-2.629-1.706,3.953,3.953,0,0,1-.928-2.256,3.135,3.135,0,0,1,.357-1.766,3.49,3.49,0,0,1,2.434-1.57C1679.353,670.768,1685.113,672.5,1688.794,675.176Z" transform="translate(-1574.793 -609.243)" fill="#f2cb75"/>
          <path id="Trazado_1038816" data-name="Trazado 1038816" d="M1399.444,740.942c-.632,1.344-1.047,3.092-.053,4.2a2.78,2.78,0,0,0,2.3.791c4.222-.355,8.722-4.973,11.163-8.082a6.886,6.886,0,0,0,1.481-2.762,3.951,3.951,0,0,0-.275-2.423,3.135,3.135,0,0,0-1.165-1.375,3.491,3.491,0,0,0-2.89-.2C1405.592,732.528,1401.381,736.824,1399.444,740.942Z" transform="translate(-1347.328 -658.751)" fill="#f2cb75"/>
          <path id="Trazado_1038817" data-name="Trazado 1038817" d="M1649.878,882.951c2.025-1.97,4.42-3.909,4.454-7.011.038-3.553-3.444-5.039-6.506-4.79-.459.037-.548-.721-.095-.808,3.22-.622,6.871.547,7.848,4,1.112,3.931-1.76,7.656-4.876,9.692C1650.044,884.465,1649.326,883.487,1649.878,882.951Z" transform="translate(-1554.349 -774.748)" fill="#d17656"/>
          <path id="Trazado_1038818" data-name="Trazado 1038818" d="M1357.76,1032.195c-11.282,16.372-34.587,27.076-54.553,25-25.168-2.619-39.619-14.236-50.183-36.157a80.854,80.854,0,0,0,43.541,26.484C1318.206,1052.373,1340.512,1044.4,1357.76,1032.195Z" transform="translate(-1225.954 -900.354)" opacity="0.2"/>
          <path id="Trazado_1038819" data-name="Trazado 1038819" d="M1128.048,432.09a71.056,71.056,0,0,1,23.1-17.083c14.338-6.923,30.7-10.126,46.416-7.588s29.227,7.5,36.248,21.792c4.309,8.772,7.035,19.175,8.883,29.311-4.739,3.666-10.051,6.5-15.363,6.5-8.083-.505-14.65-7.578-21.217-13.135,1.01,3.536,3.031,6.567,4.547,9.6-8.588,3.536-17.681,11.114-25.763,8.588-13.64-4.042-23.743-15.66-33.847-26.269,0,18.385-4.376,40.113-16.611,54.356-1.8-4.775-3.494-9.927-5.136-15.464-2.353-7.918-9.387-16.313-12.2-24.082C1113.834,449.549,1121.738,439.386,1128.048,432.09Z" transform="translate(-1112.151 -388.72)" opacity="0.2"/>
          <g id="Grupo_1179154" data-name="Grupo 1179154" transform="translate(0 0)">
            <path id="Trazado_1038820" data-name="Trazado 1038820" d="M1103.7,337.7c11.127-16.3,27.55-29.223,46.495-34.763s40.327-3.3,56.97,7.31,28.125,30.912,27.862,50.648c-5.571,3.4-11.625,5.1-17.607,7.723-2.7-12.413-11.512-23-22.713-29a58.521,58.521,0,0,1,16.5,20.911c-3.843,1.7-8.719,3.6-12.562,5.309-10.544-8.67-23.643-14.456-36.782-18.157a166.111,166.111,0,0,0,20.5,20.877c-4.608,1.5-9.156,4.1-13.8,2.695-15.936-4.81-31.314-13.847-41.935-26.665a180.546,180.546,0,0,1-11.921,61.545c-3.035.675-6.642-.418-9.734-.744-7.729-13.795-11.963-29.577-13.418-45.323-.446-4.823-.542-9.884,1.487-14.282S1098.931,336.834,1103.7,337.7Z" transform="translate(-1091.294 -300)" fill="#f4dea8"/>
            <path id="Trazado_1038821" data-name="Trazado 1038821" d="M1219.118,677.163a156.611,156.611,0,0,0,6.651-44.175.355.355,0,0,1,.71,0,140.1,140.1,0,0,1-6.266,44.477A.569.569,0,0,1,1219.118,677.163Z" transform="translate(-1197.701 -576.968)" fill="#e5cc93"/>
            <path id="Trazado_1038822" data-name="Trazado 1038822" d="M1178.036,704.973a219.934,219.934,0,0,0,4.741-43.319.379.379,0,0,1,.758,0,175,175,0,0,1-4.174,43.684C1179.164,706.2,1177.857,705.834,1178.036,704.973Z" transform="translate(-1163.504 -600.817)" fill="#e5cc93"/>
            <path id="Trazado_1038823" data-name="Trazado 1038823" d="M1313.58,511.74a122.763,122.763,0,0,0,41.114,28.966c.366.156.1.8-.274.649a112.822,112.822,0,0,1-41.711-28.745C1312.181,512.025,1313.033,511.161,1313.58,511.74Z" transform="translate(-1275.511 -476.14)" fill="#e5cc93"/>
            <path id="Trazado_1038824" data-name="Trazado 1038824" d="M1420.62,513.3a131,131,0,0,1,45.5,18.077c.368.233.03.819-.342.586a134.337,134.337,0,0,0-45.391-17.811C1419.825,514.045,1420.063,513.2,1420.62,513.3Z" transform="translate(-1365.037 -477.594)" fill="#e5cc93"/>
            <path id="Trazado_1038825" data-name="Trazado 1038825" d="M1464.175,422.752c24.342,5.89,51.851,13.894,65.187,37.114a.34.34,0,0,1-.586.343c-13.645-23.021-40.809-29.971-64.912-36.33A.585.585,0,0,1,1464.175,422.752Z" transform="translate(-1401.158 -402.191)" fill="#e5cc93"/>
            <path id="Trazado_1038826" data-name="Trazado 1038826" d="M1438.774,363.069a84.5,84.5,0,0,1,52.786,9c.368.2.042.753-.327.559a84.447,84.447,0,0,0-52.2-8.628C1438.424,364.09,1438.161,363.166,1438.774,363.069Z" transform="translate(-1380.323 -351.67)" fill="#e5cc93"/>
          </g>
          <g id="Grupo_1179155" data-name="Grupo 1179155" transform="translate(6.189 99.248)">
            <path id="Trazado_1038827" data-name="Trazado 1038827" d="M1145.021,893.382a14.394,14.394,0,0,0-11.3,1.878,12.27,12.27,0,0,0-5.449,9.928,15.18,15.18,0,0,0,3.085,8.612,22.908,22.908,0,0,0,22.028,9.428c1.83-.263,6.4-.7,6.4-3.227,0-1.4-1.2-3.275-1.685-4.588q-.987-2.665-1.869-5.367-.98-3-1.829-6.047c-.45-1.616-.528-3.39-1.011-4.963C1152.459,896,1147.833,894.064,1145.021,893.382Z" transform="translate(-1128.272 -892.965)" fill="#f7b294"/>
            <path id="Trazado_1038828" data-name="Trazado 1038828" d="M1171.667,958.471a9.75,9.75,0,0,0-4.6-.052,5.183,5.183,0,0,0-3.479,2.834c-.939,2.253.27,4.831,1.809,6.726a19.715,19.715,0,0,0,15.458,7.166,5.482,5.482,0,0,0,3.745-1.164,4.3,4.3,0,0,0,.679-4.654c-.982-2.437-3.627-5-5.575-6.735A17.861,17.861,0,0,0,1171.667,958.471Z" transform="translate(-1157.4 -947.252)" fill="#d17656"/>
            <path id="Trazado_1038829" data-name="Trazado 1038829" d="M1190.056,969.324c-.982-2.437-3.627-5-5.575-6.735a17.866,17.866,0,0,0-8.035-4.122,9.753,9.753,0,0,0-4.6-.052,5.563,5.563,0,0,0-2.85,1.8c8.106,2.743,15.138,7.39,19.854,14.169a3.32,3.32,0,0,0,.528-.4A4.3,4.3,0,0,0,1190.056,969.324Z" transform="translate(-1162.179 -947.25)" opacity="0.2"/>
          </g>
          <path id="Trazado_1038830" data-name="Trazado 1038830" d="M1719.967,818.671c2.762-1.33,6.261.779,7.52,3.288.143.286-.175.715-.486.486-1.8-1.33-3.535-3.811-6.155-2.875-3.086,1.1-1.849,5.172-1.591,7.525.079.721-1.135.887-1.271.172C1717.445,824.449,1716.749,820.22,1719.967,818.671Z" transform="translate(-1612.707 -731.515)" fill="#441e04"/>
          <path id="Trazado_1038831" data-name="Trazado 1038831" d="M1459.3,870.915c.932-2.87,1.784-7.584,5.783-7.311,3.572.243,5.536,4.535,6.363,7.483.112.4-.517.7-.693.292-.9-2.07-2.607-6.024-5.213-6.311-3.674-.4-3.75,4.026-4.827,6.443C1460.357,872.311,1459.032,871.743,1459.3,870.915Z" transform="translate(-1397.676 -769.26)" fill="#441e04"/>
          <path id="Trazado_1038832" data-name="Trazado 1038832" d="M1551.133,1085.56c7.986-2.541,18.581-2.473,25.974,2.077a25.135,25.135,0,0,1-7.932,6.258c-6.074,3.157-13.357,4.317-19.886,2.258a20.375,20.375,0,0,1-7.654-4.464C1544.339,1088.839,1547.34,1086.508,1551.133,1085.56Z" transform="translate(-1466.259 -952.676)" fill="#e7363e"/>
          <path id="Trazado_1038833" data-name="Trazado 1038833" d="M1507.37,1020.742a9.4,9.4,0,0,1,.963-6.623,8.494,8.494,0,0,1,6.761-3.543,19.792,19.792,0,0,1,7.729,1.51,54.53,54.53,0,0,0,7.517,2.5,19.041,19.041,0,0,0,11.2-1.118c3-1.274,8.134-5.359,10.2-.791,1.956,4.329-.243,9.93-2.929,13.435-.126.164-.262.318-.393.478-7.392-4.551-17.987-4.618-25.974-2.078-3.792.948-6.793,3.28-9.5,6.129A17.733,17.733,0,0,1,1507.37,1020.742Z" transform="translate(-1437.567 -891.628)" fill="#bc1522"/>
        </g>
        <path id="Trazado_1038834" data-name="Trazado 1038834" d="M1348.77,1474.43c19.688,18.68,48.405,27.228,75.613,23.4.579,7.942,1.145,16.737,1.872,26.809-25.42,11.539-55.21,11.578-82.345,5.074C1348.049,1513.723,1349.575,1493.588,1348.77,1474.43Z" transform="translate(-469.432 -977.859)" opacity="0.3"/>
        <path id="Trazado_1038835" data-name="Trazado 1038835" d="M1507.571,1981.9c.576-21.642-5.274-45.415-6.461-66.622,16.383.288,25.853-.621,42.191-1.879-2.244,21.731-7.259,59.13-12.491,74.983a31.265,31.265,0,0,1-7.859,12.586c-8.287,8.088-23.94,23.255-31.5,30.66-5.471-2.93-.945-5.118-6.017-8.694C1492.265,2010.024,1501.3,1995.824,1507.571,1981.9Z" transform="translate(-587.27 -1343.353)" fill="#f7b294"/>
        <g id="Grupo_1179157" data-name="Grupo 1179157" transform="translate(889.721 672.647)">
          <path id="Trazado_1038836" data-name="Trazado 1038836" d="M1446.929,2526.41c-3.068.4-6.237.943-9.323,1.554-.882.175-1.758.354-2.621.537-.022,8.233.522,17.605,1.309,25.8,3.61,1.6,8.993,1.769,12.174-.833a7.425,7.425,0,0,0,2.629-5.752c.007-.246.01-.5,0-.742a24.692,24.692,0,0,0-.48-3.941C1449.6,2537.421,1448.367,2531.928,1446.929,2526.41Z" transform="translate(-1434.984 -2526.41)" fill="#e7363e"/>
          <path id="Trazado_1038837" data-name="Trazado 1038837" d="M1437.605,2535.689c-.882.175-1.758.354-2.621.537-.022,8.233.522,17.605,1.309,25.8,3.61,1.6,8.993,1.768,12.173-.833a7.428,7.428,0,0,0,2.629-5.753c.007-.246.01-.5,0-.741a42.436,42.436,0,0,0-12.216.875C1438.749,2548.978,1438.347,2542.264,1437.605,2535.689Z" transform="translate(-1434.983 -2534.136)" fill="#ededed"/>
          <path id="Trazado_1038838" data-name="Trazado 1038838" d="M1510.252,2628.992a.307.307,0,0,1-.341.5,15.824,15.824,0,0,0-4.623-.994c-.609-.1-.554-1.123.08-1.1A7.816,7.816,0,0,1,1510.252,2628.992Z" transform="translate(-1493.165 -2610.498)" fill="#3d3d3d"/>
          <path id="Trazado_1038839" data-name="Trazado 1038839" d="M1509.473,2614.024a.342.342,0,0,1-.224.638c-1.639-.142-3.265-.375-4.907-.51-.752-.062-.617-1.239.094-1.293A8.337,8.337,0,0,1,1509.473,2614.024Z" transform="translate(-1492.312 -2598.367)" fill="#3d3d3d"/>
        </g>
        <path id="Trazado_1038840" data-name="Trazado 1038840" d="M1581.355,1990.532c1.485-2.882,2.9-5.766,4.195-8.639.576-21.641-5.274-45.415-6.461-66.622,16.383.288,25.854-.621,42.191-1.879-2.061,19.96-6.46,53.135-11.218,70.695-8.306,1.577-16.682,3.051-25.219,5.328C1583.658,1989.754,1582.5,1990.129,1581.355,1990.532Z" transform="translate(-665.248 -1343.35)" opacity="0.2"/>
        <path id="Trazado_1038841" data-name="Trazado 1038841" d="M1103.9,1904.132s16.243,12.146,24.826,15.922c1.413-15.255,4.384-41.809,4.384-41.809l33.161,13.248s-6.741,36.5-15.144,57.167a11,11,0,0,1-17.855,3.706c-14.152-13.737-38.8-37.67-38.8-37.67Z" transform="translate(-261.741 -1314.086)" fill="#f7b294"/>
        <g id="Grupo_1179158" data-name="Grupo 1179158" transform="translate(814.932 582.369)">
          <path id="Trazado_1038842" data-name="Trazado 1038842" d="M1017.422,1996.037c-1.967-2.387-4.118-4.779-6.276-7.067q-.926-.98-1.849-1.934c-6.982,4.363-14.628,9.81-21.145,14.837.569,3.906,3.288,8.555,7.183,9.863a7.425,7.425,0,0,0,6.27-.835c.212-.125.425-.256.629-.392a24.6,24.6,0,0,0,3.081-2.5C1009.519,2004.155,1013.516,2000.193,1017.422,1996.037Z" transform="translate(-988.151 -1987.037)" fill="#e7363e"/>
          <path id="Trazado_1038843" data-name="Trazado 1038843" d="M1011.144,1988.97c-.617-.653-1.235-1.3-1.849-1.934-6.982,4.363-14.628,9.81-21.145,14.836.569,3.907,3.288,8.555,7.184,9.864a7.427,7.427,0,0,0,6.27-.835c.212-.125.425-.256.629-.392a42.426,42.426,0,0,0-7.242-9.876C1000.5,1997.009,1005.972,1993.1,1011.144,1988.97Z" transform="translate(-988.15 -1987.036)" fill="#ededed"/>
          <path id="Trazado_1038844" data-name="Trazado 1038844" d="M1074.543,2099.667a.308.308,0,0,1-.607-.021,15.826,15.826,0,0,0-1.619-4.443c-.242-.567.656-1.067.974-.518A7.8,7.8,0,0,1,1074.543,2099.667Z" transform="translate(-1058.195 -2076.47)" fill="#3d3d3d"/>
          <path id="Trazado_1038845" data-name="Trazado 1038845" d="M1085.951,2091.435a.343.343,0,0,1-.659.151c-.752-1.464-1.42-2.965-2.179-4.427-.347-.67.721-1.182,1.145-.609A8.345,8.345,0,0,1,1085.951,2091.435Z" transform="translate(-1067.161 -2069.688)" fill="#3d3d3d"/>
        </g>
        <path id="Trazado_1038846" data-name="Trazado 1038846" d="M1269.146,1920.058c1.413-15.255,4.384-41.809,4.384-41.809l33.161,13.248s-6.741,36.5-15.144,57.167a11,11,0,0,1-17.856,3.706l-1.5-1.456a121.185,121.185,0,0,0-9.073-34.052A59.638,59.638,0,0,0,1269.146,1920.058Z" transform="translate(-402.164 -1314.089)" opacity="0.2"/>
        <path id="Trazado_1038847" data-name="Trazado 1038847" d="M1284.03,1783.42a27.728,27.728,0,0,0,2.733,3.01v.005a83.139,83.139,0,0,0,11.372,9.194,44.943,44.943,0,0,0,15.9,6.815,32.573,32.573,0,0,0,5.249.753l7.582-28.143.157-.581h3.092l3.612,31.472s7.224,1.895,21.5,2.238,16.337-1.207,16.337-1.207,4.127-28.891,5.158-52.447q.091-2.069.151-4.1v0c.02-.551.035-1.1.045-1.642.2-7.189.151-13.912.01-19.651-.056-2.329-.126-4.491-.207-6.461-.263.071-.525.136-.788.2-9.492,2.374-18.853,2.632-28.229,2.021-.515-.03-1.025-.071-1.536-.111-6.835-.505-13.68-1.44-20.6-2.314-.252-.035-.5-.065-.758-.1-9.149-1.147-18.423-2.162-27.961-1.91-.232,0-.47.005-.7.015-.157.631-.566,2.627-1.147,5.547-.99,5-2.47,12.685-4.031,20.828-.03.141-.056.278-.081.419a.018.018,0,0,0-.005.015v.02c-.046.222-.086.45-.131.672-.111.586-.222,1.172-.339,1.758C1287.279,1766.193,1284.03,1783.42,1284.03,1783.42Z" transform="translate(-419.575 -1182.678)" fill="#ff889f"/>
        <path id="Trazado_1038848" data-name="Trazado 1038848" d="M1614.435,2211.066s-.086,4.6-.516,5.03-7.223,1.2-18.745.774-20.637-2.494-20.809-2.838a14.2,14.2,0,0,1,.172-4.3c.258-.172,10.49,1.01,20.809,1.591A141.242,141.242,0,0,0,1614.435,2211.066Z" transform="translate(-661.241 -1590.076)" fill="#ef507a"/>
        <path id="Trazado_1038849" data-name="Trazado 1038849" d="M1314.762,2093.936s-.9,4.192-1.29,4.579-9.867-.129-20.508-6.062a48.166,48.166,0,0,1-16.251-15.155l.967-3.611s9.158,8.384,17.025,12.9S1314.762,2093.936,1314.762,2093.936Z" transform="translate(-413.483 -1476.814)" fill="#ef507a"/>
        <path id="Trazado_1038850" data-name="Trazado 1038850" d="M1534.423,1788.458q1.993-.43,4.007-.834a.573.573,0,0,1,.463-.266c.389-.023.781-.037,1.172-.055l.259-.048c.455-7.778,1.763-15.549,2.529-23.3.783-7.929,1.052-15.952,2.008-23.855.1-.861,1.4-.919,1.389,0-.08,8.094-1.154,16.3-1.984,24.351-.285,2.766-.542,5.56-.83,8.357a8.661,8.661,0,0,0,1.974-1.641,22.734,22.734,0,0,0,2.523-4,44.445,44.445,0,0,0,3.493-9.232c1.686-6.3,2.138-12.774,2.918-19.223.113-.932,1.555-.985,1.5,0-.411,7.38-1.26,15.035-3.532,22.1a41.249,41.249,0,0,1-4.264,9.359c-1,1.586-2.677,4.153-4.776,4.185-.461,4.274-1.017,8.544-1.889,12.713a115.847,115.847,0,0,1,20.053-2.189c.4,0,.511.655.1.713-4.351.609-8.694,1.158-13.026,1.776a50.459,50.459,0,0,1,8.043,1.147.357.357,0,0,1-.094.7c-5.134-.369-10.17-.759-15.3-.7-2.132.366-4.261.766-6.386,1.219C1533.948,1789.9,1533.6,1788.637,1534.423,1788.458Z" transform="translate(-627.665 -1197.304)" fill="#f46288"/>
        <path id="Trazado_1038851" data-name="Trazado 1038851" d="M1741.321,1751.705c.177.727.379,1.475.6,2.228a50.63,50.63,0,0,0,1.96,5.542c2.854,6.794,7.4,13.392,13.72,16.08.02-.551.035-1.1.045-1.642a20.714,20.714,0,0,1-6.593-5.163,32.178,32.178,0,0,1-5.506-9.78c-.626-1.632-1.172-3.3-1.682-4.981-.283-.919-.555-1.839-.828-2.758A.891.891,0,0,0,1741.321,1751.705Z" transform="translate(-800.301 -1207.806)" fill="#f46288"/>
        <path id="Trazado_1038852" data-name="Trazado 1038852" d="M1322.21,1757.433a1.291,1.291,0,0,0,.2-.025,34.549,34.549,0,0,0,5.123-.955,43.774,43.774,0,0,0,18.661-10.695,50.617,50.617,0,0,0,8.558-10.609,48.26,48.26,0,0,0,2.6-4.946.092.092,0,0,0,.01-.035.351.351,0,0,0-.621-.323c-.046.076-.091.146-.137.222-1.015,1.712-2.076,3.395-3.193,5.026a57.687,57.687,0,0,1-8.972,10.467,44.08,44.08,0,0,1-4.5,3.536,39.145,39.145,0,0,1-15.2,6.239c-.712.131-1.424.242-2.142.333a.206.206,0,0,0-.056.005C1322.437,1756.26,1322.327,1756.848,1322.21,1757.433Z" transform="translate(-451.365 -1190.376)" fill="#f46288"/>
        <path id="Trazado_1038853" data-name="Trazado 1038853" d="M1305.6,1749.737c.116-.586.228-1.172.338-1.758.046-.222.086-.45.131-.672v-.02a.019.019,0,0,1,.005-.015c.025-.141.051-.278.081-.419,1.561-8.143,3.041-15.832,4.031-20.828.581-2.92.99-4.915,1.147-5.547.232-.01.469-.015.7-.015,9.538-.253,18.813.763,27.961,1.91.253.035.505.065.758.1,6.916.874,13.761,1.809,20.6,2.314.51.041,1.02.081,1.536.111,9.376.611,18.737.354,28.229-2.021.263-.066.526-.131.788-.2.081,1.97.152,4.132.207,6.461.1,3.881.145,8.221.108,12.843-31.583,3.507-64.165,7.575-89.957,25.311C1303.28,1761.929,1304.448,1755.783,1305.6,1749.737Z" transform="translate(-434.756 -1182.68)" opacity="0.15"/>
        <path id="Trazado_1038854" data-name="Trazado 1038854" d="M1427.108,1715.875s.8,8.513,0,8.9-82.07-2.451-82.735-3.224.266-5.61.8-6S1427.041,1714.91,1427.108,1715.875Z" transform="translate(-469.626 -1178.337)" fill="#ef507a"/>
      </g>
    </g>
  </g>
</svg>
