<svg xmlns="http://www.w3.org/2000/svg" xmlns:xlink="http://www.w3.org/1999/xlink" width="110" height="110" viewBox="0 0 110 110">
  <defs>
    <filter id="Trazado_982547" x="0" y="0" width="110" height="110" filterUnits="userSpaceOnUse">
      <feOffset dy="3" input="SourceAlpha"/>
      <feGaussianBlur stdDeviation="3" result="blur"/>
      <feFlood flood-opacity="0.161"/>
      <feComposite operator="in" in2="blur"/>
      <feComposite in="SourceGraphic"/>
    </filter>
  </defs>
  <g id="Grupo_1179270" data-name="Grupo 1179270" transform="translate(-2754 -2451)">
    <g id="Grupo_1175191" data-name="Grupo 1175191" transform="translate(2763 2457)">
      <g id="Grupo_1164700" data-name="Grupo 1164700" transform="translate(0 0)">
        <g id="Grupo_1160931" data-name="Grupo 1160931" transform="translate(0 0)">
          <g id="Grupo_1160749" data-name="Grupo 1160749" transform="translate(0 0)">
            <g id="Grupo_1158891" data-name="Grupo 1158891" transform="translate(0 0)">
              <g id="Grupo_1157406" data-name="Grupo 1157406" transform="translate(0 0)">
                <g id="Grupo_1155793" data-name="Grupo 1155793">
                  <g id="Grupo_1154704" data-name="Grupo 1154704">
                    <g id="Grupo_1150790" data-name="Grupo 1150790">
                      <g id="Grupo_1154214" data-name="Grupo 1154214">
                        <g id="Grupo_1152583" data-name="Grupo 1152583">
                          <g id="Grupo_1146973" data-name="Grupo 1146973">
                            <g id="Grupo_1146954" data-name="Grupo 1146954">
                              <g transform="matrix(1, 0, 0, 1, -9, -6)" filter="url(#Trazado_982547)">
                                <g id="Trazado_982547-2" data-name="Trazado 982547" transform="translate(9 6)" fill="#effbfe">
                                  <path d="M 46.00000381469727 90.49986267089844 C 39.99188232421875 90.49986267089844 34.16428375244141 89.32350158691406 28.67905807495117 87.00344848632812 C 23.38021659851074 84.76223754882812 18.62104415893555 81.55341339111328 14.53376388549805 77.46613311767578 C 10.44647026062012 73.37885284423828 7.237643718719482 68.61968994140625 4.996417045593262 63.32085037231445 C 2.676363706588745 57.83565139770508 1.500003814697266 52.00805282592773 1.500003814697266 45.99993133544922 C 1.500003814697266 39.99182510375977 2.676363706588745 34.16422653198242 4.996417045593262 28.67901039123535 C 7.237643718719482 23.38017082214355 10.44647026062012 18.62101173400879 14.53376388549805 14.53373146057129 C 18.62104415893555 10.44645118713379 23.38021659851074 7.237624645233154 28.67905807495117 4.996411323547363 C 34.16428375244141 2.676357984542847 39.99188232421875 1.499997973442078 46.00000381469727 1.499997973442078 C 52.00812530517578 1.499997973442078 57.83573532104492 2.676357984542847 63.32094955444336 4.996411323547363 C 68.61980438232422 7.237624645233154 73.37896728515625 10.44645118713379 77.46625518798828 14.53373146057129 C 81.55353546142578 18.62101173400879 84.76236724853516 23.38017082214355 87.00359344482422 28.67901039123535 C 89.32364654541016 34.16422653198242 90.5 39.99182510375977 90.5 45.99993133544922 C 90.5 52.00805282592773 89.32364654541016 57.83565139770508 87.00359344482422 63.32085037231445 C 84.76236724853516 68.61968994140625 81.55353546142578 73.37885284423828 77.46625518798828 77.46613311767578 C 73.37896728515625 81.55341339111328 68.61980438232422 84.76223754882812 63.32094955444336 87.00344848632812 C 57.83573532104492 89.32350158691406 52.00812530517578 90.49986267089844 46.00000381469727 90.49986267089844 Z" stroke="none"/>
                                  <path d="M 46.00000381469727 3 C 40.19371795654297 3 34.56270217895508 4.136505126953125 29.26338958740234 6.377914428710938 C 24.14333343505859 8.54351806640625 19.54443359375 11.64438629150391 15.59442138671875 15.59439086914062 C 11.64440155029297 19.54440307617188 8.543533325195312 24.14330291748047 6.3779296875 29.26334381103516 C 4.136505126953125 34.56266021728516 3.000007629394531 40.19366073608398 3.000007629394531 45.99993133544922 C 3.000007629394531 51.80620193481445 4.136505126953125 57.43720245361328 6.3779296875 62.73651885986328 C 8.543533325195312 67.85655975341797 11.64440155029297 72.45545959472656 15.59442138671875 76.40547180175781 C 19.54443359375 80.35547637939453 24.14333343505859 83.45634460449219 29.26338958740234 85.6219482421875 C 34.56270217895508 87.86335754394531 40.19371795654297 88.99986267089844 46.00000381469727 88.99986267089844 C 51.80628967285156 88.99986267089844 57.43730545043945 87.86335754394531 62.73663330078125 85.6219482421875 C 67.85667419433594 83.45634460449219 72.45558929443359 80.35547637939453 76.40560150146484 76.40547180175781 C 80.35560607910156 72.45545959472656 83.45648956298828 67.85655975341797 85.62208557128906 62.73651885986328 C 87.86350250244141 57.43720245361328 89 51.80620193481445 89 45.99993133544922 C 89 40.19366073608398 87.86350250244141 34.56266021728516 85.62208557128906 29.26334381103516 C 83.45648956298828 24.14330291748047 80.35560607910156 19.54440307617188 76.40560150146484 15.59439086914062 C 72.45558929443359 11.64438629150391 67.85667419433594 8.54351806640625 62.73663330078125 6.377914428710938 C 57.43730545043945 4.136505126953125 51.80628967285156 3 46.00000381469727 3 M 46.00000381469727 0 C 71.40510559082031 0 92 20.59487152099609 92 45.99993133544922 C 92 71.40499114990234 71.40510559082031 91.99986267089844 46.00000381469727 91.99986267089844 C 20.59491729736328 91.99986267089844 7.62939453125e-06 71.40499114990234 7.62939453125e-06 45.99993133544922 C 7.62939453125e-06 20.59487152099609 20.59491729736328 0 46.00000381469727 0 Z" stroke="none" fill="#397b86"/>
                                </g>
                              </g>
                            </g>
                          </g>
                        </g>
                      </g>
                    </g>
                  </g>
                </g>
              </g>
            </g>
          </g>
        </g>
      </g>
    </g>
    <g id="mejor-amiga" transform="translate(2776 2415.959)">
      <g id="Grupo_1179242" data-name="Grupo 1179242" transform="translate(31.612 63.015)">
        <path id="Trazado_1040179" data-name="Trazado 1040179" d="M259.372,71.643a16.068,16.068,0,0,1,3.8.455,3.224,3.224,0,0,1,2.913-2.559c1.709,0,3.1,1.731,3.1,3.867,0,.157-.008.311-.023.463a3.314,3.314,0,0,1,4.175.066c1.209,1.209.964,3.413-.546,4.923l-.016.015a15.957,15.957,0,0,1,2.632,8.8v3.031H243.339V87.676A16.033,16.033,0,0,1,259.372,71.643Z" transform="translate(-243.339 -69.539)" fill="#f2b88f"/>
      </g>
      <g id="Grupo_1179243" data-name="Grupo 1179243" transform="translate(31.612 63.015)">
        <path id="Trazado_1040180" data-name="Trazado 1040180" d="M259.372,71.643a16.068,16.068,0,0,1,3.8.455,3.224,3.224,0,0,1,2.913-2.559c1.709,0,3.1,1.731,3.1,3.867,0,.157-.008.311-.023.463a3.314,3.314,0,0,1,4.175.066c1.209,1.209.964,3.413-.546,4.923l-.016.015a15.957,15.957,0,0,1,2.632,8.8v3.031H243.339V87.676A16.033,16.033,0,0,1,259.372,71.643Z" transform="translate(-243.339 -69.539)" fill="#f2b88f"/>
      </g>
      <g id="Grupo_1179244" data-name="Grupo 1179244" transform="translate(31.612 65.119)">
        <path id="Trazado_1040181" data-name="Trazado 1040181" d="M243.339,101.77V104.8h6.421v-2.416c0-6.3,3.28-15.347,9.612-16.647A16.033,16.033,0,0,0,243.339,101.77Z" transform="translate(-243.339 -85.737)" fill="#e3a67b"/>
      </g>
      <g id="Grupo_1179245" data-name="Grupo 1179245" transform="translate(22.794 94.751)">
        <path id="Trazado_1040182" data-name="Trazado 1040182" d="M214.181,327.345c-1.31-7.462-7.115-13.085-14.076-13.085a12.929,12.929,0,0,0-6.412,1.712,13.891,13.891,0,0,0-7.729-2.136c-5.8,0-10.5,2.959-10.5,6.61V322.7l7.833,7.833,28.557.009A2.611,2.611,0,0,0,214.181,327.345Z" transform="translate(-175.463 -313.836)" fill="#a4e7ff"/>
      </g>
      <g id="Grupo_1179246" data-name="Grupo 1179246" transform="translate(22.794 94.761)">
        <path id="Trazado_1040183" data-name="Trazado 1040183" d="M192.026,327.417c1.117-6.359,5.5-11.382,11.078-12.728a12.769,12.769,0,0,0-3-.357,12.929,12.929,0,0,0-6.412,1.712,13.89,13.89,0,0,0-7.729-2.137c-5.8,0-10.5,2.959-10.5,6.61v2.257l7.833,7.833,11.058.009A2.611,2.611,0,0,1,192.026,327.417Z" transform="translate(-175.463 -313.908)" fill="#5ad6ff"/>
      </g>
      <g id="Grupo_1179247" data-name="Grupo 1179247" transform="translate(43.539 95.363)">
        <circle id="Elipse_12424" data-name="Elipse 12424" cx="3.897" cy="3.897" r="3.897" transform="translate(0 0)" fill="#ffcdbe"/>
      </g>
      <g id="Grupo_1179248" data-name="Grupo 1179248" transform="translate(58.496 82.492)">
        <circle id="Elipse_12425" data-name="Elipse 12425" cx="3.522" cy="3.522" r="3.522" fill="#ffdecf"/>
      </g>
      <g id="Grupo_1179249" data-name="Grupo 1179249" transform="translate(33.284 73.477)">
        <path id="Trazado_1040184" data-name="Trazado 1040184" d="M278.963,157.925a15.162,15.162,0,0,1-8.406-7.853,15.161,15.161,0,0,1-8.406,7.853,17.061,17.061,0,0,1-5.667,1.275,14.152,14.152,0,1,0,27.76-.039A16.916,16.916,0,0,1,278.963,157.925Z" transform="translate(-256.215 -150.072)" fill="#ffeee5"/>
      </g>
      <g id="Grupo_1179250" data-name="Grupo 1179250" transform="translate(33.284 81.767)">
        <path id="Trazado_1040185" data-name="Trazado 1040185" d="M260.935,214.922c0-.348.011-.693.028-1.037a16.8,16.8,0,0,1-4.479.839A14.158,14.158,0,0,0,269.1,231.571,21.013,21.013,0,0,1,260.935,214.922Z" transform="translate(-256.214 -213.885)" fill="#ffdecf"/>
      </g>
      <g id="Grupo_1179254" data-name="Grupo 1179254" transform="translate(39.317 84.401)">
        <g id="Grupo_1179251" data-name="Grupo 1179251" transform="translate(0 0)">
          <path id="Trazado_1040186" data-name="Trazado 1040186" d="M303.627,237.482a.974.974,0,0,1-.974-.974v-1.373a.974.974,0,0,1,1.949,0v1.373A.974.974,0,0,1,303.627,237.482Z" transform="translate(-302.653 -234.16)"/>
        </g>
        <g id="Grupo_1179252" data-name="Grupo 1179252" transform="translate(14.29 0)">
          <path id="Trazado_1040187" data-name="Trazado 1040187" d="M413.627,237.482a.974.974,0,0,1-.974-.974v-1.373a.974.974,0,0,1,1.949,0v1.373A.974.974,0,0,1,413.627,237.482Z" transform="translate(-412.653 -234.16)"/>
        </g>
        <g id="Grupo_1179253" data-name="Grupo 1179253" transform="translate(5.261 1.332)">
          <path id="Trazado_1040188" data-name="Trazado 1040188" d="M346.01,247.221a3.472,3.472,0,0,1-2.618-1.192.974.974,0,0,1,1.469-1.28,1.522,1.522,0,0,0,2.3,0,.974.974,0,1,1,1.469,1.28A3.472,3.472,0,0,1,346.01,247.221Z" transform="translate(-343.152 -244.414)"/>
        </g>
      </g>
      <g id="Grupo_1179255" data-name="Grupo 1179255" transform="translate(4.647 95.194)">
        <path id="Trazado_1040189" data-name="Trazado 1040189" d="M63.939,330.317c-1.309-7.453-7.106-13.07-14.06-13.07s-12.751,5.617-14.06,13.07a2.607,2.607,0,0,0,2.326,3.2H61.613a2.607,2.607,0,0,0,2.326-3.2Z" transform="translate(-35.773 -317.247)" fill="#fad989"/>
      </g>
      <g id="Grupo_1179256" data-name="Grupo 1179256" transform="translate(4.647 95.194)">
        <path id="Trazado_1040190" data-name="Trazado 1040190" d="M41.807,330.317c1.116-6.352,5.492-11.369,11.065-12.713a12.758,12.758,0,0,0-2.995-.356c-6.954,0-12.751,5.617-14.06,13.07a2.607,2.607,0,0,0,2.326,3.2h5.99A2.607,2.607,0,0,1,41.807,330.317Z" transform="translate(-35.772 -317.247)" fill="#f6ca56"/>
      </g>
      <g id="Grupo_1179257" data-name="Grupo 1179257" transform="translate(14.856 95.345)">
        <circle id="Elipse_12426" data-name="Elipse 12426" cx="3.897" cy="3.897" r="3.897" transform="translate(0 0)" fill="#d69a8a"/>
      </g>
      <g id="Grupo_1179258" data-name="Grupo 1179258" transform="translate(0.974 63.838)">
        <path id="Trazado_1040191" data-name="Trazado 1040191" d="M42.381,95.824a4.35,4.35,0,0,0-1.222-5.964,4.349,4.349,0,0,0-3.14-6.586c.014-.144.022-.29.022-.437a4.35,4.35,0,0,0-5.717-4.13,4.35,4.35,0,0,0-7.037-1.669,4.35,4.35,0,0,0-7.037,1.669,4.35,4.35,0,0,0-5.717,4.13c0,.148.008.293.022.437a4.349,4.349,0,0,0-3.14,6.586,4.35,4.35,0,0,0-1.222,5.964Z" transform="translate(-7.5 -75.875)" fill="#6b7d8e"/>
      </g>
      <g id="Grupo_1179259" data-name="Grupo 1179259" transform="translate(0.974 66.45)">
        <path id="Trazado_1040192" data-name="Trazado 1040192" d="M16.885,95.98a4.35,4.35,0,0,0-4.35,4.35c0,.148.008.293.022.437a4.349,4.349,0,0,0-3.14,6.586,4.35,4.35,0,0,0-1.222,5.964h7.84c.058-1.92.128-3.389.211-3.874a5.767,5.767,0,0,1,1.058-2.727,3.7,3.7,0,0,1-1.459-3.709,4.035,4.035,0,0,1,2.919-3.234,4.139,4.139,0,0,1-.511-3.572A4.347,4.347,0,0,0,16.885,95.98Z" transform="translate(-7.5 -95.98)" fill="#5f7080"/>
      </g>
      <g id="Grupo_1179262" data-name="Grupo 1179262" transform="translate(1.067 82.221)">
        <g id="Grupo_1179260" data-name="Grupo 1179260" transform="translate(28.329)">
          <circle id="Elipse_12427" data-name="Elipse 12427" cx="3.522" cy="3.522" r="3.522" fill="#e1ac9a"/>
        </g>
        <g id="Grupo_1179261" data-name="Grupo 1179261">
          <circle id="Elipse_12428" data-name="Elipse 12428" cx="3.522" cy="3.522" r="3.522" fill="#d69a8a"/>
        </g>
      </g>
      <g id="Grupo_1179263" data-name="Grupo 1179263" transform="translate(4.608 79.105)">
        <path id="Trazado_1040193" data-name="Trazado 1040193" d="M49.491,195.872a26.337,26.337,0,0,1-11.213-2.235,1.3,1.3,0,0,0-1.779.681,14.154,14.154,0,1,0,26.2-.119,1.3,1.3,0,0,0-1.793-.664A26.049,26.049,0,0,1,49.491,195.872Z" transform="translate(-35.469 -193.395)" fill="#e7beaf"/>
      </g>
      <g id="Grupo_1179264" data-name="Grupo 1179264" transform="translate(4.598 79.215)">
        <path id="Trazado_1040194" data-name="Trazado 1040194" d="M40.011,199.531a21.473,21.473,0,0,1,.425-4.256h0a18.033,18.033,0,0,1-2.231-.9,1.3,1.3,0,0,0-1.779.682,14.16,14.16,0,0,0,9.188,18.9A21.308,21.308,0,0,1,40.011,199.531Z" transform="translate(-35.396 -194.242)" fill="#e1ac9a"/>
      </g>
      <g id="Grupo_1179268" data-name="Grupo 1179268" transform="translate(10.643 84.382)">
        <g id="Grupo_1179265" data-name="Grupo 1179265" transform="translate(0 0)">
          <path id="Trazado_1040195" data-name="Trazado 1040195" d="M82.9,237.342a.974.974,0,0,1-.974-.974v-1.373a.974.974,0,1,1,1.949,0v1.373A.974.974,0,0,1,82.9,237.342Z" transform="translate(-81.928 -234.02)"/>
        </g>
        <g id="Grupo_1179266" data-name="Grupo 1179266" transform="translate(14.29 0)">
          <path id="Trazado_1040196" data-name="Trazado 1040196" d="M192.9,237.342a.974.974,0,0,1-.974-.974v-1.373a.974.974,0,1,1,1.949,0v1.373A.974.974,0,0,1,192.9,237.342Z" transform="translate(-191.928 -234.02)"/>
        </g>
        <g id="Grupo_1179267" data-name="Grupo 1179267" transform="translate(5.261 1.332)">
          <path id="Trazado_1040197" data-name="Trazado 1040197" d="M125.286,247.082a3.472,3.472,0,0,1-2.618-1.192.974.974,0,0,1,1.469-1.28,1.522,1.522,0,0,0,2.3,0,.974.974,0,0,1,1.469,1.28A3.473,3.473,0,0,1,125.286,247.082Z" transform="translate(-122.428 -244.275)"/>
        </g>
      </g>
      <g id="Grupo_1179269" data-name="Grupo 1179269" transform="translate(7.316 94.734)">
        <circle id="Elipse_12429" data-name="Elipse 12429" cx="4.547" cy="4.547" r="4.547" transform="translate(0 0)" fill="#ffdecf"/>
      </g>
      <path id="Trazado_1040198" data-name="Trazado 1040198" d="M61.664,90.5c.117.009.235.015.353.015a4.494,4.494,0,0,0,2.634-8.136V81.152a16.937,16.937,0,0,0-2.4-8.706,5.213,5.213,0,0,0,1.066-2.579A3.757,3.757,0,0,0,62.3,66.722a3.944,3.944,0,0,0-3.958-.864,4.315,4.315,0,0,0-3.978-3.818,4,4,0,0,0-3.52,2.405A17.046,17.046,0,0,0,39,66.506a.974.974,0,1,0,.992,1.677,15.1,15.1,0,0,1,11.229-1.662.974.974,0,0,0,1.167-.677A2.278,2.278,0,0,1,54.36,63.99c1.15,0,2.121,1.325,2.121,2.893,0,.119-.006.24-.018.371a.974.974,0,0,0,1.507.906,2.361,2.361,0,0,1,2.949-.059,1.851,1.851,0,0,1,.467,1.552,3.4,3.4,0,0,1-1.006,1.986l-.019.019a.974.974,0,0,0-.129,1.229A14.993,14.993,0,0,1,62.7,81.152v.418a4.48,4.48,0,0,0-1.445.013A15.911,15.911,0,0,1,56.4,80.429a14.3,14.3,0,0,1-7.875-7.322.974.974,0,0,0-1.8,0,14.3,14.3,0,0,1-7.875,7.322c-.444.182-.9.343-1.352.486a5.318,5.318,0,0,0-1.643-3.356,5.313,5.313,0,0,0-.554-5.033,15.18,15.18,0,0,1,1.826-2.152.974.974,0,1,0-1.361-1.395A17.112,17.112,0,0,0,33.9,71.137a5.285,5.285,0,0,0-1.42-.68,5.325,5.325,0,0,0-6.139-4.917,5.324,5.324,0,0,0-7.578-1.778,5.324,5.324,0,0,0-7.578,1.778,5.325,5.325,0,0,0-6.139,4.917,5.325,5.325,0,0,0-3.377,7.1A5.314,5.314,0,0,0,.552,83.783a4.494,4.494,0,0,0,3.883,6.451,15.043,15.043,0,0,0,3.272,5.418,5.507,5.507,0,0,0-1.1,5.311A18.345,18.345,0,0,0,3.734,108.1a3.851,3.851,0,0,0,.82,3.156,3.23,3.23,0,0,0,2.465,1.183H20.7a.974.974,0,1,0,0-1.949H7.019A1.29,1.29,0,0,1,6.046,110a1.935,1.935,0,0,1-.394-1.566,16.526,16.526,0,0,1,2.036-5.544,5.509,5.509,0,0,0,8.128.24A4.87,4.87,0,0,0,23.6,99.677a14.918,14.918,0,0,0,2.405-1.055,15.529,15.529,0,0,1,5.844,9.811A1.935,1.935,0,0,1,31.46,110a1.29,1.29,0,0,1-.973.488H24.6a.974.974,0,1,0,0,1.949H59.184a3.233,3.233,0,0,0,2.467-1.184,3.855,3.855,0,0,0,.821-3.159A17.629,17.629,0,0,0,56.449,97.5a15.2,15.2,0,0,0,5.215-7Zm.559-1.944a15.168,15.168,0,0,0,.227-5.044,2.545,2.545,0,0,1-.227,5.044Zm-43.65,9.967c-.418-.006-.837-.034-1.253-.079a5.52,5.52,0,0,0-8.088-4.011A13.15,13.15,0,0,1,6.532,80.4a.327.327,0,0,1,.448-.172A27.207,27.207,0,0,0,18.62,82.557a26.861,26.861,0,0,0,11.858-2.442.318.318,0,0,1,.26-.016.33.33,0,0,1,.191.185A13.184,13.184,0,0,1,18.573,98.518Zm14.5-8.283h.04a14.991,14.991,0,0,0,1.814,3.628q-.807-.075-1.635-.075a17.632,17.632,0,0,0-2.07.123,14.93,14.93,0,0,0,1.851-3.674Zm.538-2.042a15.31,15.31,0,0,0,.136-4.858,2.544,2.544,0,0,1-.136,4.858ZM3.437,78.63a.974.974,0,0,0,.284-1.317A3.375,3.375,0,0,1,6.157,72.2.974.974,0,0,0,7,71.14c-.011-.113-.017-.227-.017-.34a3.375,3.375,0,0,1,4.436-3.2.974.974,0,0,0,1.219-.585,3.375,3.375,0,0,1,5.46-1.3.974.974,0,0,0,1.326,0,3.375,3.375,0,0,1,5.46,1.3A.974.974,0,0,0,26.1,67.6a3.376,3.376,0,0,1,4.437,3.2c0,.112-.006.227-.017.34a.974.974,0,0,0,.843,1.063,3.375,3.375,0,0,1,2.436,5.11.974.974,0,0,0,.284,1.317,3.365,3.365,0,0,1,1.426,3.439,4.468,4.468,0,0,0-2.186-.8,15.083,15.083,0,0,0-.6-1.729A2.276,2.276,0,0,0,29.6,78.378,25.268,25.268,0,0,1,18.62,80.609,25.617,25.617,0,0,1,7.835,78.473a2.275,2.275,0,0,0-3.11,1.191,15.083,15.083,0,0,0-.546,1.6,4.468,4.468,0,0,0-2.168.8A3.364,3.364,0,0,1,3.437,78.63ZM2.051,85.743a2.549,2.549,0,0,1,1.7-2.4,15.295,15.295,0,0,0,.138,4.846,2.55,2.55,0,0,1-1.842-2.446Zm9.812,17.111a3.572,3.572,0,1,1,3.572-3.572A3.576,3.576,0,0,1,11.863,102.854Zm6.89-.689a2.913,2.913,0,0,1-1.841-.654,5.474,5.474,0,0,0,.36-1.118c.424.042.85.068,1.275.073h.209a15.3,15.3,0,0,0,2.753-.249,2.927,2.927,0,0,1-2.754,1.946Zm41.8,6.264A1.938,1.938,0,0,1,60.159,110a1.292,1.292,0,0,1-.975.488H33.447a3.91,3.91,0,0,0,.326-2.391,17.612,17.612,0,0,0-6.025-10.589,15.314,15.314,0,0,0,1.43-1.2,14.75,14.75,0,0,1,4.117-.567,15.024,15.024,0,0,1,3.56.418,15.255,15.255,0,0,0,5.729,3.526,4.87,4.87,0,0,0,9.7.007,15.053,15.053,0,0,0,2.425-1.071A15.548,15.548,0,0,1,60.553,108.429Zm-15.875-8.2a15.007,15.007,0,0,0,5.515.006,2.922,2.922,0,0,1-5.515-.006Zm2.758-1.69A13.225,13.225,0,0,1,35,89.728a4.492,4.492,0,0,0,1.969-5.945,5.3,5.3,0,0,0,.312-.78,18.8,18.8,0,0,0,2.3-.771,16.744,16.744,0,0,0,8.037-6.6,16.743,16.743,0,0,0,8.037,6.6A17.938,17.938,0,0,0,60.48,83.47,13.185,13.185,0,0,1,47.436,98.535Z" transform="translate(0 0)"/>
    </g>
  </g>
</svg>
