<svg xmlns="http://www.w3.org/2000/svg" xmlns:xlink="http://www.w3.org/1999/xlink" width="110" height="110" viewBox="0 0 110 110">
  <defs>
    <filter id="Trazado_982547" x="0" y="0" width="110" height="110" filterUnits="userSpaceOnUse">
      <feOffset dy="3" input="SourceAlpha"/>
      <feGaussianBlur stdDeviation="3" result="blur"/>
      <feFlood flood-opacity="0.161"/>
      <feComposite operator="in" in2="blur"/>
      <feComposite in="SourceGraphic"/>
    </filter>
  </defs>
  <g id="Grupo_1179273" data-name="Grupo 1179273" transform="translate(-3069 -2451.257)">
    <g id="Grupo_1175190" data-name="Grupo 1175190" transform="translate(3078 2457.257)">
      <g id="Grupo_1164700" data-name="Grupo 1164700" transform="translate(0 0)">
        <g id="Grupo_1160931" data-name="Grupo 1160931" transform="translate(0 0)">
          <g id="Grupo_1160749" data-name="Grupo 1160749" transform="translate(0 0)">
            <g id="Grupo_1158891" data-name="Grupo 1158891" transform="translate(0 0)">
              <g id="Grupo_1157406" data-name="Grupo 1157406" transform="translate(0 0)">
                <g id="Grupo_1155793" data-name="Grupo 1155793">
                  <g id="Grupo_1154704" data-name="Grupo 1154704">
                    <g id="Grupo_1150790" data-name="Grupo 1150790">
                      <g id="Grupo_1154214" data-name="Grupo 1154214">
                        <g id="Grupo_1152583" data-name="Grupo 1152583">
                          <g id="Grupo_1146973" data-name="Grupo 1146973">
                            <g id="Grupo_1146954" data-name="Grupo 1146954">
                              <g transform="matrix(1, 0, 0, 1, -9, -6)" filter="url(#Trazado_982547)">
                                <g id="Trazado_982547-2" data-name="Trazado 982547" transform="translate(9 6)" fill="#effbfe">
                                  <path d="M 46.00000381469727 90.49986267089844 C 39.99188232421875 90.49986267089844 34.16428375244141 89.32350158691406 28.67905807495117 87.00344848632812 C 23.38021659851074 84.76223754882812 18.62104415893555 81.55341339111328 14.53376388549805 77.46613311767578 C 10.44647026062012 73.37885284423828 7.237643718719482 68.61968994140625 4.996417045593262 63.32085037231445 C 2.676363706588745 57.83565139770508 1.500003814697266 52.00805282592773 1.500003814697266 45.99993133544922 C 1.500003814697266 39.99182510375977 2.676363706588745 34.16422653198242 4.996417045593262 28.67901039123535 C 7.237643718719482 23.38017082214355 10.44647026062012 18.62101173400879 14.53376388549805 14.53373146057129 C 18.62104415893555 10.44645118713379 23.38021659851074 7.237624645233154 28.67905807495117 4.996411323547363 C 34.16428375244141 2.676357984542847 39.99188232421875 1.499997973442078 46.00000381469727 1.499997973442078 C 52.00812530517578 1.499997973442078 57.83573532104492 2.676357984542847 63.32094955444336 4.996411323547363 C 68.61980438232422 7.237624645233154 73.37896728515625 10.44645118713379 77.46625518798828 14.53373146057129 C 81.55353546142578 18.62101173400879 84.76236724853516 23.38017082214355 87.00359344482422 28.67901039123535 C 89.32364654541016 34.16422653198242 90.5 39.99182510375977 90.5 45.99993133544922 C 90.5 52.00805282592773 89.32364654541016 57.83565139770508 87.00359344482422 63.32085037231445 C 84.76236724853516 68.61968994140625 81.55353546142578 73.37885284423828 77.46625518798828 77.46613311767578 C 73.37896728515625 81.55341339111328 68.61980438232422 84.76223754882812 63.32094955444336 87.00344848632812 C 57.83573532104492 89.32350158691406 52.00812530517578 90.49986267089844 46.00000381469727 90.49986267089844 Z" stroke="none"/>
                                  <path d="M 46.00000381469727 3 C 40.19371795654297 3 34.56270217895508 4.136505126953125 29.26338958740234 6.377914428710938 C 24.14333343505859 8.54351806640625 19.54443359375 11.64438629150391 15.59442138671875 15.59439086914062 C 11.64440155029297 19.54440307617188 8.543533325195312 24.14330291748047 6.3779296875 29.26334381103516 C 4.136505126953125 34.56266021728516 3.000007629394531 40.19366073608398 3.000007629394531 45.99993133544922 C 3.000007629394531 51.80620193481445 4.136505126953125 57.43720245361328 6.3779296875 62.73651885986328 C 8.543533325195312 67.85655975341797 11.64440155029297 72.45545959472656 15.59442138671875 76.40547180175781 C 19.54443359375 80.35547637939453 24.14333343505859 83.45634460449219 29.26338958740234 85.6219482421875 C 34.56270217895508 87.86335754394531 40.19371795654297 88.99986267089844 46.00000381469727 88.99986267089844 C 51.80628967285156 88.99986267089844 57.43730545043945 87.86335754394531 62.73663330078125 85.6219482421875 C 67.85667419433594 83.45634460449219 72.45558929443359 80.35547637939453 76.40560150146484 76.40547180175781 C 80.35560607910156 72.45545959472656 83.45648956298828 67.85655975341797 85.62208557128906 62.73651885986328 C 87.86350250244141 57.43720245361328 89 51.80620193481445 89 45.99993133544922 C 89 40.19366073608398 87.86350250244141 34.56266021728516 85.62208557128906 29.26334381103516 C 83.45648956298828 24.14330291748047 80.35560607910156 19.54440307617188 76.40560150146484 15.59439086914062 C 72.45558929443359 11.64438629150391 67.85667419433594 8.54351806640625 62.73663330078125 6.377914428710938 C 57.43730545043945 4.136505126953125 51.80628967285156 3 46.00000381469727 3 M 46.00000381469727 0 C 71.40510559082031 0 92 20.59487152099609 92 45.99993133544922 C 92 71.40499114990234 71.40510559082031 91.99986267089844 46.00000381469727 91.99986267089844 C 20.59491729736328 91.99986267089844 7.62939453125e-06 71.40499114990234 7.62939453125e-06 45.99993133544922 C 7.62939453125e-06 20.59487152099609 20.59491729736328 0 46.00000381469727 0 Z" stroke="none" fill="#397b86"/>
                                </g>
                              </g>
                            </g>
                          </g>
                        </g>
                      </g>
                    </g>
                  </g>
                </g>
              </g>
            </g>
          </g>
        </g>
      </g>
    </g>
    <g id="dibujar" transform="translate(3095.564 2474.321)">
      <g id="Grupo_1179271" data-name="Grupo 1179271" transform="translate(0.848 1.034)">
        <path id="Trazado_1040199" data-name="Trazado 1040199" d="M29.535,55.533l-18.319-18.3a.452.452,0,0,1,0-.64L25.684,22.144l3.847-2.689a.452.452,0,0,1,.639,0L48.485,36.6a.452.452,0,0,1,0,.64L30.174,55.533a.452.452,0,0,1-.639,0Z" transform="translate(-10.678 -18.173)" fill="#eef5f6"/>
        <path id="Trazado_1040200" data-name="Trazado 1040200" d="M163.061,28.22,158.573,32.7a2.58,2.58,0,0,0-.061-3.589l-15.306-15.29a3.644,3.644,0,0,0-2.946-.705L144.1,9.282a.452.452,0,0,1,.639,0l18.32,18.3A.453.453,0,0,1,163.061,28.22Z" transform="translate(-125.254 -9.15)" fill="#deecf1"/>
        <path id="Trazado_1040201" data-name="Trazado 1040201" d="M232.58,215.33l-2.891,1.693L209,224.984a.452.452,0,0,1-.584-.259l-9.316-24.14a.452.452,0,0,1,.259-.585l20.589-7.923,3.412-.561a.452.452,0,0,1,.584.259l8.893,22.97A.452.452,0,0,1,232.58,215.33Z" transform="translate(-177.417 -170.877)" fill="#ade194"/>
        <path id="Trazado_1040202" data-name="Trazado 1040202" d="M397.011,209.268l-4.23,1.628a1.746,1.746,0,0,0,1-2.259L385.4,186.913a2.582,2.582,0,0,0-1.612-1.251l3.581-1.378a.453.453,0,0,1,.584.26l9.316,24.14A.452.452,0,0,1,397.011,209.268Z" transform="translate(-341.258 -164.462)" fill="#97da7b"/>
        <path id="Trazado_1040203" data-name="Trazado 1040203" d="M33.29,293.72l-4.708.682H7.952a.452.452,0,0,1-.452-.452V268.08a.452.452,0,0,1,.452-.452h25.9a.452.452,0,0,1,.452.452l-.565,25.188A.452.452,0,0,1,33.29,293.72Z" transform="translate(-7.5 -238.412)" fill="#8ac9fe"/>
        <path id="Trazado_1040204" data-name="Trazado 1040204" d="M194.068,268.082v25.869a.452.452,0,0,1-.452.452H187.69a1.857,1.857,0,0,0,1.857-1.857V281.312l-1.927-2.553,1.927-11.129h4.069A.452.452,0,0,1,194.068,268.082Z" transform="translate(-167.261 -238.414)" fill="#60b7ff"/>
        <path id="Trazado_1040205" data-name="Trazado 1040205" d="M294.237,288.441l-1.58.609a7.2,7.2,0,0,0-13.436,5.186l-1.58.609a1.211,1.211,0,0,1-1.616-.842,10.192,10.192,0,0,1,18.844-7.272A1.213,1.213,0,0,1,294.237,288.441Z" transform="translate(-245.426 -250.672)" fill="#fe7ab6"/>
        <path id="Trazado_1040206" data-name="Trazado 1040206" d="M316.12,312.519h0l-1.973.761a1.2,1.2,0,0,1-1.43-.434,4.015,4.015,0,0,0-7.292,2.813,1.206,1.206,0,0,1-.769,1.283l-1.972.762a7.2,7.2,0,0,1,13.436-5.186Z" transform="translate(-268.89 -274.141)" fill="#8ac9fe"/>
        <path id="Trazado_1040207" data-name="Trazado 1040207" d="M56.254,325.037c-.887.251-1.94-.98-2.814-1.013-.906-.034-2.05,1.1-2.883.8s-.975-1.922-1.68-2.475-2.3-.294-2.8-1.047c-.487-.726.349-2.1.1-2.991s-1.686-1.621-1.653-2.495c.034-.906,1.53-1.529,1.836-2.362s-.423-2.284.131-2.989,2.119-.33,2.872-.835c.726-.487.977-2.088,1.864-2.339s1.94.98,2.814,1.013c.906.034,2.05-1.1,2.883-.8s.975,1.922,1.68,2.475,2.3.294,2.8,1.047c.487.726-.349,2.1-.1,2.991s1.686,1.621,1.653,2.495c-.034.906-1.53,1.529-1.836,2.362s.423,2.284-.131,2.989-2.119.33-2.872.835c-.727.487-.977,2.088-1.864,2.339Z" transform="translate(-40.334 -273.561)" fill="#fece85"/>
        <circle id="Elipse_12430" data-name="Elipse 12430" cx="3.958" cy="3.958" r="3.958" transform="translate(9.445 38.644)" fill="#fec165"/>
        <path id="Trazado_1040208" data-name="Trazado 1040208" d="M140.778,264.751l-2.983-2.981-1.047.5-2.664.851a8.865,8.865,0,0,0-5.654,6.525l2.463.539a2.461,2.461,0,0,1,2.462,2.462l.523.327A14.332,14.332,0,0,0,140.778,264.751Z" transform="translate(-114.761 -233.217)" fill="#d78878"/>
        <path id="Trazado_1040209" data-name="Trazado 1040209" d="M129.489,336.764c-.092.02-.5-.272-.587-.255l-3.4.6a1.534,1.534,0,0,1-1.894-1.894l-.145-1.015.549-2.722c0-.018.008-.036.012-.054H127a2.461,2.461,0,0,1,2.462,2.462Z" transform="translate(-110.352 -294.994)" fill="#fec165"/>
        <path id="Trazado_1040210" data-name="Trazado 1040210" d="M175.337,265.6l-.443,1.1-.819,2.538a8.873,8.873,0,0,1-6.463,5.752l-1.172-1.723a12.269,12.269,0,0,0,1.1-1.6,8.557,8.557,0,0,0,4.036-7.376,9.009,9.009,0,0,0-.329-2.421l.259-.094Z" transform="translate(-148.475 -233.216)" fill="#ca6e59"/>
        <path id="Trazado_1040211" data-name="Trazado 1040211" d="M127.193,352.605c-.092.02-.183.04-.275.057l-3.937.744a1.778,1.778,0,0,1-2.075-2.1l.257-1.27a7.405,7.405,0,0,0,5.96-.757,2.485,2.485,0,0,1,.04.443Z" transform="translate(-108.056 -310.835)" fill="#fdb441"/>
        <path id="Trazado_1040212" data-name="Trazado 1040212" d="M206.449,225.2l-.751-.059a4,4,0,0,1-3.682-3.984v-.388l5.433-5.422a1.24,1.24,0,0,1,1.753,0l2.681,2.679a1.237,1.237,0,0,1,0,1.751Z" transform="translate(-180.03 -191.717)" fill="#deecf1"/>
        <path id="Trazado_1040213" data-name="Trazado 1040213" d="M239.763,44.555l-1.312-.842a3.349,3.349,0,0,1-.242-4.469l2.837-3.526a38.249,38.249,0,0,1,6.593-6.427l14.927-11.4a2.1,2.1,0,0,1,1.614-.445c1.323.834,1.529,1.943.4,3.419L253.663,34.987a35.643,35.643,0,0,1-6,6.553l-3.425,3.26a3.359,3.359,0,0,1-4.475-.245Z" transform="translate(-211.476 -16.493)" fill="#7a8c98"/>
        <path id="Trazado_1040214" data-name="Trazado 1040214" d="M271.133,21.1l-11.422,14.9a38.226,38.226,0,0,1-6.439,6.579l-3.532,2.83a3.359,3.359,0,0,1-4.475-.245l-1.278-1.277a3.3,3.3,0,0,1-.277-.314,3.359,3.359,0,0,0,4.167-.026l3.532-2.83a38.193,38.193,0,0,0,6.439-6.581l11.422-14.9a2.092,2.092,0,0,0,.445-1.612,2.172,2.172,0,0,1,1.417,3.475Z" transform="translate(-217.011 -16.671)" fill="#687c87"/>
        <path id="Trazado_1040215" data-name="Trazado 1040215" d="M125.415,108.933a3.029,3.029,0,0,0-4.069.115,3,3,0,0,0-.28.312.334.334,0,0,1-.514.01q-.084-.1-.176-.188a3.948,3.948,0,0,0-6.635,3.7.341.341,0,0,1-.245.411,2.253,2.253,0,0,0-1.019.587,2.279,2.279,0,0,0,.177,3.363.329.329,0,0,1,.06.464,3.013,3.013,0,0,0,4.485,4.01l8.374-8.374A3.013,3.013,0,0,0,125.415,108.933Z" transform="translate(-100.028 -96.849)" fill="#8ac9fe"/>
      </g>
      <g id="Grupo_1179272" data-name="Grupo 1179272" transform="translate(0 0)">
        <path id="Trazado_1040216" data-name="Trazado 1040216" d="M36.842,52.536,32.5,54.208,28.5,43.862V34.479l3.123-3.117a4.2,4.2,0,0,0,2.481-.923l3.532-2.831a39.133,39.133,0,0,0,4.152-3.855l5.1-1.964.933,2.418a.848.848,0,1,0,1.582-.61L48.173,20.39a.848.848,0,0,0-1.1-.486l-2.989,1.15L55.642,5.983a2.944,2.944,0,0,0-.258-3.953,2.95,2.95,0,0,0-3.96-.266L44.679,6.913A.848.848,0,1,0,45.708,8.26l6.744-5.149a1.264,1.264,0,0,1,1.731.116A1.243,1.243,0,0,1,54.3,4.952l-11.421,14.9a37.45,37.45,0,0,1-6.3,6.434l-3.532,2.83a2.508,2.508,0,0,1-3.345-.183l-1.279-1.278a2.5,2.5,0,0,1-.181-3.338l2.837-3.526a37.447,37.447,0,0,1,6.447-6.284l5.037-3.845a.848.848,0,1,0-1.029-1.348L36.5,13.16q-.835.637-1.633,1.319L20.615.248a.848.848,0,0,0-1.2,0L6.852,12.8A.848.848,0,1,0,8.05,14L20.016,2.046,33.594,15.608a39.117,39.117,0,0,0-3.837,4.12L26.92,23.254a4.186,4.186,0,0,0-.926,2.478l-3.443,3.436-.644.234H11.9L2.265,19.776l2.987-2.983a.848.848,0,1,0-1.2-1.2L.466,19.176a.848.848,0,0,0,0,1.2L9.5,29.4H.848A.848.848,0,0,0,0,30.25V57.024a.848.848,0,0,0,.848.848H27.655a.848.848,0,0,0,.848-.848V48.572l2.716,7.037a.847.847,0,0,0,1.1.486l5.137-1.977a.848.848,0,1,0-.609-1.582ZM22.033,43.22a2.891,2.891,0,0,1,.591.734c-.015.149-.457.541-.67.73a3.656,3.656,0,0,0-1.115,1.372,3.688,3.688,0,0,0-.042,1.782,2.8,2.8,0,0,1,.042.974,2.784,2.784,0,0,1-.948.189,3.722,3.722,0,0,0-1.732.467A3.555,3.555,0,0,0,17.1,50.858c-.136.258-.42.795-.567.837s-.67-.267-.921-.415a3.553,3.553,0,0,0-1.63-.629,3.7,3.7,0,0,0-1.719.512,2.879,2.879,0,0,1-.9.338,2.733,2.733,0,0,1-.48-.853,3.685,3.685,0,0,0-.971-1.495,3.657,3.657,0,0,0-1.669-.582,2.82,2.82,0,0,1-.95-.263,2.792,2.792,0,0,1,.114-.941A3.762,3.762,0,0,0,7.5,45.551a3.761,3.761,0,0,0-1.03-1.5,2.891,2.891,0,0,1-.591-.734c.015-.149.457-.541.67-.73a3.657,3.657,0,0,0,1.115-1.372,3.687,3.687,0,0,0,.042-1.782,2.8,2.8,0,0,1-.042-.974,2.783,2.783,0,0,1,.948-.19,3.722,3.722,0,0,0,1.732-.467A3.554,3.554,0,0,0,11.4,36.415c.136-.258.42-.795.567-.837s.67.267.921.415a5.727,5.727,0,0,0,1,.5c-.084.279-.155.562-.213.849l-.316,1.567a4.807,4.807,0,0,0-.32,9.373,4.834,4.834,0,0,0,1.223.158,4.777,4.777,0,0,0,2.421-.661,4.831,4.831,0,0,0,2.371-3.936l.816-.154a9.68,9.68,0,0,0,2.026-.62l.139.146Zm-2.925-1.107-3.492.66a.931.931,0,0,1-1.087-1.1l.68-3.368h2.283a1.616,1.616,0,0,1,1.615,1.614ZM13.572,43.7a2.626,2.626,0,0,0,2.358.736l1.382-.261a3.126,3.126,0,0,1-1.489,2.144A3.111,3.111,0,1,1,12.976,40.8l-.109.54A2.62,2.62,0,0,0,13.572,43.7Zm7.23-2.018V39.922a3.314,3.314,0,0,0-3.31-3.309H15.632a8.08,8.08,0,0,1,4.828-4.88l1.576-.572a4.876,4.876,0,0,0,4.133,4.11l-.522,1.505a8.045,8.045,0,0,1-4.844,4.91Zm7.7-11.552a4.208,4.208,0,0,0,1.142.812l-2.7,2.695a3.207,3.207,0,0,1-3.263-3.2l2.729-2.724a4.206,4.206,0,0,0,.813,1.142ZM1.7,56.176V31.1H17.952a9.829,9.829,0,0,0-3.435,3.82,3.831,3.831,0,0,1-.768-.385,2.907,2.907,0,0,0-2.244-.585,2.908,2.908,0,0,0-1.6,1.676,2.911,2.911,0,0,1-.5.774,2.884,2.884,0,0,1-.957.188,2.866,2.866,0,0,0-2.11.827,2.881,2.881,0,0,0-.3,2.26,2.866,2.866,0,0,1,.045.959,2.925,2.925,0,0,1-.648.688,2.89,2.89,0,0,0-1.24,1.935A2.8,2.8,0,0,0,5.25,45.231a2.884,2.884,0,0,1,.62.783,2.888,2.888,0,0,1-.117.991,2.8,2.8,0,0,0,.13,2.24,2.889,2.889,0,0,0,2.071,1,2.922,2.922,0,0,1,.913.246,2.867,2.867,0,0,1,.465.84,2.882,2.882,0,0,0,1.446,1.763,2.865,2.865,0,0,0,2.23-.4,2.832,2.832,0,0,1,.913-.342,2.908,2.908,0,0,1,.833.4,3.614,3.614,0,0,0,1.764.651,1.754,1.754,0,0,0,.48-.066,2.908,2.908,0,0,0,1.6-1.676,2.908,2.908,0,0,1,.5-.774,2.885,2.885,0,0,1,.957-.188,2.866,2.866,0,0,0,2.11-.827,2.881,2.881,0,0,0,.305-2.26,2.866,2.866,0,0,1-.045-.959,2.925,2.925,0,0,1,.648-.688,2.89,2.89,0,0,0,1.24-1.935,2.5,2.5,0,0,0-.879-1.78,9.747,9.747,0,0,0,3.368-3.849V56.176Z" transform="translate(0 0)"/>
        <path id="Trazado_1040217" data-name="Trazado 1040217" d="M371.649,255.253l-6.979-18.085a.848.848,0,1,0-1.582.61l6.673,17.293-15.39,5.922a.848.848,0,1,0,.609,1.582l16.182-6.227a.848.848,0,0,0,.486-1.1Z" transform="translate(-313.835 -209.88)"/>
        <path id="Trazado_1040218" data-name="Trazado 1040218" d="M278.154,282.092a3.151,3.151,0,0,1,3.754,1.166,2.044,2.044,0,0,0,2.436.747l3.553-1.371a2.06,2.06,0,0,0,1.07-2.908,11.039,11.039,0,0,0-20.412,7.877,2.062,2.062,0,0,0,2.746,1.436l3.553-1.371a2.043,2.043,0,0,0,1.3-2.19,3.152,3.152,0,0,1,2-3.385Zm-7.463,5.365a.367.367,0,0,1-.306-.018.352.352,0,0,1-.181-.231,9.344,9.344,0,0,1,17.276-6.667.352.352,0,0,1,.021.293.367.367,0,0,1-.215.219l-.831.321a8.049,8.049,0,0,0-14.934,5.763Zm3.786-1.747a.36.36,0,0,1-.234.376l-1.129.436a6.352,6.352,0,0,1,11.747-4.533l-1.128.435a.359.359,0,0,1-.425-.121,4.863,4.863,0,0,0-8.831,3.408Z" transform="translate(-237.934 -243.04)"/>
        <path id="Trazado_1040219" data-name="Trazado 1040219" d="M105.1,110.919a3.861,3.861,0,0,0,6.023,4.745l8.374-8.374a3.86,3.86,0,0,0-5.383-5.534,4.761,4.761,0,0,0-3.206-1.229h0a4.8,4.8,0,0,0-4.752,5.452,3.109,3.109,0,0,0-1.056,4.942Zm1.3-3.093a1.4,1.4,0,0,1,.852-.407.848.848,0,0,0,.716-1.112,3.1,3.1,0,0,1,2.94-4.086h0a3.08,3.08,0,0,1,2.192.908,3.193,3.193,0,0,1,.356.425.848.848,0,0,0,1.432-.069,2.164,2.164,0,1,1,3.409,2.6l-8.374,8.374a2.165,2.165,0,0,1-3.063-3.061l.014-.014a.848.848,0,0,0-.181-1.338,1.362,1.362,0,0,1-.292-.224A1.418,1.418,0,0,1,106.4,107.827Z" transform="translate(-92.502 -89.164)"/>
      </g>
    </g>
  </g>
</svg>
