<svg xmlns="http://www.w3.org/2000/svg" xmlns:xlink="http://www.w3.org/1999/xlink" width="113" height="113" viewBox="0 0 113 113">
  <defs>
    <filter id="Trazado_982547" x="0" y="0" width="113" height="113" filterUnits="userSpaceOnUse">
      <feOffset dy="3" input="SourceAlpha"/>
      <feGaussianBlur stdDeviation="3" result="blur"/>
      <feFlood flood-opacity="0.161"/>
      <feComposite operator="in" in2="blur"/>
      <feComposite in="SourceGraphic"/>
    </filter>
  </defs>
  <g id="Grupo_1179179" data-name="Grupo 1179179" transform="translate(-272 -3003)">
    <g id="Grupo_1175141" data-name="Grupo 1175141" transform="translate(0.5 395.985)">
      <g id="Grupo_1173988" data-name="Grupo 1173988" transform="translate(280.5 2613.015)">
        <g id="Grupo_1172010" data-name="Grupo 1172010">
          <g id="Grupo_1171046" data-name="Grupo 1171046">
            <g id="Grupo_1148525" data-name="Grupo 1148525">
              <g transform="matrix(1, 0, 0, 1, -9, -6)" filter="url(#Trazado_982547)">
                <g id="Trazado_982547-2" data-name="Trazado 982547" transform="translate(9 6)" fill="#effbfe">
                  <path d="M 47.5 93.5 C 41.28937149047852 93.5 35.26533508300781 92.28397369384766 29.59518623352051 89.88570404052734 C 24.11771965026855 87.56893157958984 19.19813346862793 84.25196075439453 14.97309303283691 80.02691650390625 C 10.74804019927979 75.80186462402344 7.431066513061523 70.88229370117188 5.114293098449707 65.40481567382812 C 2.716026782989502 59.73468017578125 1.5 53.71062850952148 1.5 47.5 C 1.5 41.28937149047852 2.716026782989502 35.26533508300781 5.114293098449707 29.59518623352051 C 7.431066513061523 24.11771965026855 10.74804019927979 19.19813346862793 14.97309303283691 14.97309303283691 C 19.19813346862793 10.74804019927979 24.11771965026855 7.431066513061523 29.59518623352051 5.114293098449707 C 35.26533508300781 2.716026782989502 41.28937149047852 1.5 47.5 1.5 C 53.71062850952148 1.5 59.73468017578125 2.716026782989502 65.40481567382812 5.114293098449707 C 70.88229370117188 7.431066513061523 75.80186462402344 10.74804019927979 80.02691650390625 14.97309303283691 C 84.25196075439453 19.19813346862793 87.56893157958984 24.11771965026855 89.88570404052734 29.59518623352051 C 92.28397369384766 35.26533508300781 93.5 41.28937149047852 93.5 47.5 C 93.5 53.71062850952148 92.28397369384766 59.73468017578125 89.88570404052734 65.40481567382812 C 87.56893157958984 70.88229370117188 84.25196075439453 75.80186462402344 80.02691650390625 80.02691650390625 C 75.80186462402344 84.25196075439453 70.88229370117188 87.56893157958984 65.40481567382812 89.88570404052734 C 59.73468017578125 92.28397369384766 53.71062850952148 93.5 47.5 93.5 Z" stroke="none"/>
                  <path d="M 47.5 3 C 41.49121475219727 3 35.66376876831055 4.176155090332031 30.17950439453125 6.495796203613281 C 24.88084411621094 8.736953735351562 20.12152099609375 11.94598388671875 16.03375244140625 16.03375244140625 C 11.94598388671875 20.12152099609375 8.736953735351562 24.88084411621094 6.495796203613281 30.17950439453125 C 4.176155090332031 35.66376876831055 3 41.49121475219727 3 47.5 C 3 53.50878524780273 4.176155090332031 59.33623123168945 6.495796203613281 64.82049560546875 C 8.736953735351562 70.11915588378906 11.94598388671875 74.87847900390625 16.03375244140625 78.96624755859375 C 20.12152099609375 83.05401611328125 24.88084411621094 86.26304626464844 30.17950439453125 88.50419616699219 C 35.66376876831055 90.82384490966797 41.49121475219727 92 47.5 92 C 53.50878524780273 92 59.33623123168945 90.82384490966797 64.82049560546875 88.50419616699219 C 70.11915588378906 86.26304626464844 74.87847900390625 83.05401611328125 78.96624755859375 78.96624755859375 C 83.05401611328125 74.87847900390625 86.26304626464844 70.11915588378906 88.50419616699219 64.82049560546875 C 90.82384490966797 59.33623123168945 92 53.50878524780273 92 47.5 C 92 41.49121475219727 90.82384490966797 35.66376876831055 88.50419616699219 30.17950439453125 C 86.26304626464844 24.88084411621094 83.05401611328125 20.12152099609375 78.96624755859375 16.03375244140625 C 74.87847900390625 11.94598388671875 70.11915588378906 8.736953735351562 64.82049560546875 6.495796203613281 C 59.33623123168945 4.176155090332031 53.50878524780273 3 47.5 3 M 47.5 0 C 73.7335205078125 0 95 21.2664794921875 95 47.5 C 95 73.7335205078125 73.7335205078125 95 47.5 95 C 21.2664794921875 95 0 73.7335205078125 0 47.5 C 0 21.2664794921875 21.2664794921875 0 47.5 0 Z" stroke="none" fill="#397b86"/>
                </g>
              </g>
            </g>
          </g>
        </g>
      </g>
    </g>
    <g id="inteligencia" transform="translate(294.57 3022.57)">
      <g id="Grupo_1179177" data-name="Grupo 1179177" transform="translate(0.994 0.994)">
        <path id="Trazado_1038855" data-name="Trazado 1038855" d="M73.372,37.437v6a3.308,3.308,0,0,1-3.308,3.308h-.017a30.086,30.086,0,0,1-4.215,10.17l.013.013a3.309,3.309,0,0,1,0,4.679l-4.24,4.24a3.309,3.309,0,0,1-4.679,0l-.013-.013a30.087,30.087,0,0,1-10.17,4.215v.017a3.308,3.308,0,0,1-3.308,3.308h-6a3.308,3.308,0,0,1-3.308-3.308v-.017a30.086,30.086,0,0,1-10.17-4.215l-.013.013a3.31,3.31,0,0,1-4.679,0l-4.24-4.24a3.31,3.31,0,0,1,0-4.679l.013-.013a30.087,30.087,0,0,1-4.215-10.17h-.017A3.308,3.308,0,0,1,7.5,43.435v-6a3.308,3.308,0,0,1,3.308-3.308h.017a30.086,30.086,0,0,1,4.215-10.17l-.013-.013a3.31,3.31,0,0,1,0-4.679l4.24-4.24a3.31,3.31,0,0,1,4.679,0l.013.013a30.087,30.087,0,0,1,10.17-4.215v-.017A3.308,3.308,0,0,1,37.437,7.5h6a3.308,3.308,0,0,1,3.308,3.308v.017a30.086,30.086,0,0,1,10.17,4.215l.013-.013a3.31,3.31,0,0,1,4.679,0l4.24,4.24a3.31,3.31,0,0,1,0,4.679l-.013.013a30.087,30.087,0,0,1,4.215,10.17h.017a3.308,3.308,0,0,1,3.308,3.308Z" transform="translate(-7.5 -7.5)" fill="#93ecdd"/>
        <path id="Trazado_1038856" data-name="Trazado 1038856" d="M277.054,37.437v6a3.308,3.308,0,0,1-3.308,3.308h-.017a30.085,30.085,0,0,1-4.215,10.17l.013.013a3.31,3.31,0,0,1,0,4.679l-4.24,4.24a3.31,3.31,0,0,1-4.679,0l-.013-.013a30.087,30.087,0,0,1-10.17,4.215v.017a3.308,3.308,0,0,1-3.308,3.308H242.3a3.34,3.34,0,0,0,3.135-3.333V68.324a28.078,28.078,0,0,0,0-55.777V10.833A3.34,3.34,0,0,0,242.3,7.5h4.814a3.308,3.308,0,0,1,3.308,3.308v.017a30.086,30.086,0,0,1,10.17,4.215l.013-.013a3.31,3.31,0,0,1,4.679,0l4.24,4.24a3.31,3.31,0,0,1,0,4.679l-.013.013a30.086,30.086,0,0,1,4.215,10.17h.017A3.308,3.308,0,0,1,277.054,37.437Z" transform="translate(-211.183 -7.5)" fill="#00ddc4"/>
        <circle id="Elipse_12410" data-name="Elipse 12410" cx="25.5" cy="25.5" r="25.5" transform="translate(7.032 7.032)" fill="#fff"/>
        <g id="Grupo_1179175" data-name="Grupo 1179175" transform="translate(14.716 16.117)">
          <g id="Grupo_1179174" data-name="Grupo 1179174">
            <path id="Trazado_1038857" data-name="Trazado 1038857" d="M136.752,156.834c0,3.263-2.328,5.909-5.2,5.909a5.228,5.228,0,0,1-4.769-3.551,4.617,4.617,0,0,1-1.132.142c-2.872,0-5.2-2.646-5.2-5.909a6.539,6.539,0,0,1,.569-2.686,6.113,6.113,0,0,1-2.487-5.041,6.246,6.246,0,0,1,1.853-4.521,6.518,6.518,0,0,1-.653-2.866c0-3.263,2.328-5.909,5.2-5.909a4.638,4.638,0,0,1,1.808.367,5.248,5.248,0,0,1,4.811-3.663c2.872,0,5.2,2.646,5.2,5.909,0-3.263,2.328-5.909,5.2-5.909a5.247,5.247,0,0,1,4.811,3.663,4.639,4.639,0,0,1,1.808-.367c2.872,0,5.2,2.646,5.2,5.909a6.518,6.518,0,0,1-.653,2.866,6.245,6.245,0,0,1,1.853,4.521,6.113,6.113,0,0,1-2.487,5.041,6.539,6.539,0,0,1,.569,2.686c0,3.263-2.328,5.909-5.2,5.909a4.617,4.617,0,0,1-1.132-.142,5.228,5.228,0,0,1-4.769,3.551c-2.872,0-5.2-2.646-5.2-5.909Z" transform="translate(-118.532 -129.106)" fill="#ffa1ac"/>
          </g>
        </g>
        <g id="Grupo_1179176" data-name="Grupo 1179176" transform="translate(18.501 29.799)">
          <ellipse id="Elipse_12411" data-name="Elipse 12411" cx="3.891" cy="3.098" rx="3.891" ry="3.098" fill="#fff"/>
          <ellipse id="Elipse_12412" data-name="Elipse 12412" cx="3.891" cy="3.098" rx="3.891" ry="3.098" transform="translate(21.089)" fill="#fff"/>
        </g>
      </g>
      <g id="Grupo_1179178" data-name="Grupo 1179178" transform="translate(0 0)">
        <path id="Trazado_1038858" data-name="Trazado 1038858" d="M64.354,26.7a30.968,30.968,0,0,0-3.8-9.174,4.31,4.31,0,0,0-.509-5.471L55.8,7.818a4.309,4.309,0,0,0-5.471-.509,30.961,30.961,0,0,0-9.174-3.8A4.31,4.31,0,0,0,36.928,0h-6A4.309,4.309,0,0,0,26.7,3.506a30.962,30.962,0,0,0-9.174,3.8,4.31,4.31,0,0,0-5.471.509l-4.24,4.241a4.306,4.306,0,0,0-.51,5.472,30.964,30.964,0,0,0-3.8,9.172A4.31,4.31,0,0,0,0,30.931v6a4.31,4.31,0,0,0,3.506,4.229,30.965,30.965,0,0,0,3.8,9.173,4.305,4.305,0,0,0,.51,5.472l4.24,4.241a4.309,4.309,0,0,0,5.471.509,30.961,30.961,0,0,0,9.174,3.8,4.309,4.309,0,0,0,4.228,3.506h6a4.309,4.309,0,0,0,4.228-3.506c.7-.166,1.4-.358,2.089-.572a.994.994,0,1,0-.592-1.9c-.859.268-1.741.5-2.623.685a.994.994,0,0,0-.788.972v.016a2.317,2.317,0,0,1-2.314,2.314h-6a2.317,2.317,0,0,1-2.314-2.314v-.016a.994.994,0,0,0-.788-.972,29.011,29.011,0,0,1-9.835-4.076.994.994,0,0,0-1.245.131l-.013.013a2.317,2.317,0,0,1-3.273,0L9.223,54.4a2.314,2.314,0,0,1,0-3.276l.013-.013a.994.994,0,0,0,.127-1.241A29.013,29.013,0,0,1,5.291,40.03a.994.994,0,0,0-.972-.788H4.3a2.317,2.317,0,0,1-2.314-2.314v-6A2.317,2.317,0,0,1,4.3,28.617h.016a.994.994,0,0,0,.972-.788,29.013,29.013,0,0,1,4.076-9.835.994.994,0,0,0-.127-1.241l-.017-.017a2.314,2.314,0,0,1,0-3.273l4.24-4.241a2.317,2.317,0,0,1,3.273,0l.013.013a.994.994,0,0,0,1.245.131,29.014,29.014,0,0,1,9.835-4.076.994.994,0,0,0,.788-.972V4.3a2.317,2.317,0,0,1,2.314-2.314h6A2.317,2.317,0,0,1,39.243,4.3v.016a.994.994,0,0,0,.788.972,29.011,29.011,0,0,1,9.835,4.076.994.994,0,0,0,1.245-.131l.013-.013a2.317,2.317,0,0,1,3.273,0l4.24,4.241a2.317,2.317,0,0,1,0,3.273l-.013.013a.994.994,0,0,0-.13,1.245,29.01,29.01,0,0,1,4.076,9.835.994.994,0,0,0,.972.788h.016a2.317,2.317,0,0,1,2.314,2.314v6a2.317,2.317,0,0,1-2.314,2.314h-.016a.994.994,0,0,0-.972.788,29.013,29.013,0,0,1-4.076,9.835.994.994,0,0,0,.13,1.245l.013.013a2.317,2.317,0,0,1,0,3.273L54.4,58.636a2.317,2.317,0,0,1-3.273,0l-.013-.013a.994.994,0,0,0-1.245-.13,29.335,29.335,0,0,1-2.823,1.62.994.994,0,1,0,.891,1.777c.814-.409,1.618-.857,2.4-1.338a4.309,4.309,0,0,0,5.471-.509l4.24-4.241a4.31,4.31,0,0,0,.509-5.471,30.961,30.961,0,0,0,3.8-9.174,4.309,4.309,0,0,0,3.506-4.228v-6A4.31,4.31,0,0,0,64.354,26.7Z" transform="translate(0 0)"/>
        <path id="Trazado_1038859" data-name="Trazado 1038859" d="M105.891,71.066a.994.994,0,0,0,.244-1.384,26.065,26.065,0,1,0,2.592,4.647.994.994,0,1,0-1.826.786,24.221,24.221,0,1,1-2.4-4.293.994.994,0,0,0,1.384.244Z" transform="translate(-50.747 -50.746)"/>
        <path id="Trazado_1038860" data-name="Trazado 1038860" d="M149.46,139.192a7.343,7.343,0,0,0-1.678-4.725,7.623,7.623,0,0,0,.478-2.661c0-3.807-2.779-6.9-6.195-6.9a5.6,5.6,0,0,0-1.258.142,5.881,5.881,0,0,0-10.561-.282,5.881,5.881,0,0,0-10.561.282,5.637,5.637,0,0,0-3.817.471.994.994,0,0,0,.9,1.775,3.647,3.647,0,0,1,3.085-.111.994.994,0,0,0,1.321-.578,4.247,4.247,0,0,1,3.876-3.007c2.32,0,4.207,2.2,4.207,4.915a.994.994,0,0,0,1.988,0c0-2.71,1.887-4.915,4.207-4.915a4.247,4.247,0,0,1,3.876,3.007.994.994,0,0,0,1.321.578,3.642,3.642,0,0,1,1.422-.289c2.32,0,4.207,2.2,4.207,4.915a5.554,5.554,0,0,1-.551,2.429.994.994,0,0,0,.206,1.155,5.257,5.257,0,0,1,1.546,3.8,5.162,5.162,0,0,1-2.061,4.225.994.994,0,0,0-.338,1.224,5.51,5.51,0,0,1,.481,2.278c0,2.71-1.887,4.915-4.207,4.915a3.64,3.64,0,0,1-.889-.112.994.994,0,0,0-1.171.608,4.242,4.242,0,0,1-3.841,2.913c-2.32,0-4.207-2.2-4.207-4.915a.994.994,0,1,0-1.988,0c0,2.71-1.887,4.915-4.207,4.915a4.242,4.242,0,0,1-3.841-2.913.994.994,0,0,0-1.171-.608,3.633,3.633,0,0,1-.889.112c-2.32,0-4.207-2.2-4.207-4.915a5.509,5.509,0,0,1,.481-2.278.994.994,0,0,0-.338-1.224,5.161,5.161,0,0,1-2.061-4.225,5.257,5.257,0,0,1,1.546-3.8.994.994,0,0,0,.206-1.155,5.554,5.554,0,0,1-.551-2.429,5.662,5.662,0,0,1,.192-1.471.994.994,0,0,0-1.92-.516,7.678,7.678,0,0,0,.218,4.648,7.343,7.343,0,0,0-1.678,4.725,7.187,7.187,0,0,0,2.291,5.363,7.547,7.547,0,0,0-.373,2.364c0,3.806,2.779,6.9,6.195,6.9.181,0,.362-.009.542-.027a5.88,5.88,0,0,0,10.559.28,5.88,5.88,0,0,0,10.559-.28q.271.027.542.027c3.416,0,6.195-3.1,6.195-6.9a7.546,7.546,0,0,0-.373-2.364A7.187,7.187,0,0,0,149.46,139.192Z" transform="translate(-96.317 -105.489)"/>
        <path id="Trazado_1038861" data-name="Trazado 1038861" d="M187.046,217.2a.994.994,0,0,0,.994-.994v-1.59a.994.994,0,1,0-1.988,0v1.59A.994.994,0,0,0,187.046,217.2Z" transform="translate(-161.393 -185.307)"/>
        <path id="Trazado_1038862" data-name="Trazado 1038862" d="M312.936,216.2v-1.59a.994.994,0,0,0-1.988,0v1.59a.994.994,0,1,0,1.988,0Z" transform="translate(-269.735 -185.307)"/>
        <path id="Trazado_1038863" data-name="Trazado 1038863" d="M235.211,228.244a3.887,3.887,0,0,0,2.932-1.335.994.994,0,0,0-1.5-1.306,1.9,1.9,0,0,1-2.865,0,.994.994,0,0,0-1.5,1.306A3.888,3.888,0,0,0,235.211,228.244Z" transform="translate(-201.281 -195.406)"/>
      </g>
    </g>
  </g>
</svg>
