<svg xmlns="http://www.w3.org/2000/svg" xmlns:xlink="http://www.w3.org/1999/xlink" width="113" height="113" viewBox="0 0 113 113">
  <defs>
    <filter id="Trazado_982547" x="0" y="0" width="113" height="113" filterUnits="userSpaceOnUse">
      <feOffset dy="3" input="SourceAlpha"/>
      <feGaussianBlur stdDeviation="3" result="blur"/>
      <feFlood flood-opacity="0.161"/>
      <feComposite operator="in" in2="blur"/>
      <feComposite in="SourceGraphic"/>
    </filter>
  </defs>
  <g id="Grupo_1179182" data-name="Grupo 1179182" transform="translate(-587 -3003)">
    <g id="Grupo_1175140" data-name="Grupo 1175140" transform="translate(0.5 395.985)">
      <g id="Grupo_1173989" data-name="Grupo 1173989" transform="translate(595.5 2613.015)">
        <g id="Grupo_1172010" data-name="Grupo 1172010">
          <g id="Grupo_1171046" data-name="Grupo 1171046">
            <g id="Grupo_1148525" data-name="Grupo 1148525">
              <g transform="matrix(1, 0, 0, 1, -9, -6)" filter="url(#Trazado_982547)">
                <g id="Trazado_982547-2" data-name="Trazado 982547" transform="translate(9 6)" fill="#effbfe">
                  <path d="M 47.5 93.5 C 41.28937149047852 93.5 35.26533508300781 92.28397369384766 29.59518623352051 89.88570404052734 C 24.11771965026855 87.56893157958984 19.19813346862793 84.25196075439453 14.97309303283691 80.02691650390625 C 10.74804019927979 75.80186462402344 7.431066513061523 70.88229370117188 5.114293098449707 65.40481567382812 C 2.716026782989502 59.73468017578125 1.5 53.71062850952148 1.5 47.5 C 1.5 41.28937149047852 2.716026782989502 35.26533508300781 5.114293098449707 29.59518623352051 C 7.431066513061523 24.11771965026855 10.74804019927979 19.19813346862793 14.97309303283691 14.97309303283691 C 19.19813346862793 10.74804019927979 24.11771965026855 7.431066513061523 29.59518623352051 5.114293098449707 C 35.26533508300781 2.716026782989502 41.28937149047852 1.5 47.5 1.5 C 53.71062850952148 1.5 59.73468017578125 2.716026782989502 65.40481567382812 5.114293098449707 C 70.88229370117188 7.431066513061523 75.80186462402344 10.74804019927979 80.02691650390625 14.97309303283691 C 84.25196075439453 19.19813346862793 87.56893157958984 24.11771965026855 89.88570404052734 29.59518623352051 C 92.28397369384766 35.26533508300781 93.5 41.28937149047852 93.5 47.5 C 93.5 53.71062850952148 92.28397369384766 59.73468017578125 89.88570404052734 65.40481567382812 C 87.56893157958984 70.88229370117188 84.25196075439453 75.80186462402344 80.02691650390625 80.02691650390625 C 75.80186462402344 84.25196075439453 70.88229370117188 87.56893157958984 65.40481567382812 89.88570404052734 C 59.73468017578125 92.28397369384766 53.71062850952148 93.5 47.5 93.5 Z" stroke="none"/>
                  <path d="M 47.5 3 C 41.49121475219727 3 35.66376876831055 4.176155090332031 30.17950439453125 6.495796203613281 C 24.88084411621094 8.736953735351562 20.12152099609375 11.94598388671875 16.03375244140625 16.03375244140625 C 11.94598388671875 20.12152099609375 8.736953735351562 24.88084411621094 6.495796203613281 30.17950439453125 C 4.176155090332031 35.66376876831055 3 41.49121475219727 3 47.5 C 3 53.50878524780273 4.176155090332031 59.33623123168945 6.495796203613281 64.82049560546875 C 8.736953735351562 70.11915588378906 11.94598388671875 74.87847900390625 16.03375244140625 78.96624755859375 C 20.12152099609375 83.05401611328125 24.88084411621094 86.26304626464844 30.17950439453125 88.50419616699219 C 35.66376876831055 90.82384490966797 41.49121475219727 92 47.5 92 C 53.50878524780273 92 59.33623123168945 90.82384490966797 64.82049560546875 88.50419616699219 C 70.11915588378906 86.26304626464844 74.87847900390625 83.05401611328125 78.96624755859375 78.96624755859375 C 83.05401611328125 74.87847900390625 86.26304626464844 70.11915588378906 88.50419616699219 64.82049560546875 C 90.82384490966797 59.33623123168945 92 53.50878524780273 92 47.5 C 92 41.49121475219727 90.82384490966797 35.66376876831055 88.50419616699219 30.17950439453125 C 86.26304626464844 24.88084411621094 83.05401611328125 20.12152099609375 78.96624755859375 16.03375244140625 C 74.87847900390625 11.94598388671875 70.11915588378906 8.736953735351562 64.82049560546875 6.495796203613281 C 59.33623123168945 4.176155090332031 53.50878524780273 3 47.5 3 M 47.5 0 C 73.7335205078125 0 95 21.2664794921875 95 47.5 C 95 73.7335205078125 73.7335205078125 95 47.5 95 C 21.2664794921875 95 0 73.7335205078125 0 47.5 C 0 21.2664794921875 21.2664794921875 0 47.5 0 Z" stroke="none" fill="#397b86"/>
                </g>
              </g>
            </g>
          </g>
        </g>
      </g>
    </g>
    <g id="empatia" transform="translate(610.863 3016.939)">
      <g id="Grupo_1179180" data-name="Grupo 1179180" transform="translate(0.956 9.019)">
        <path id="Trazado_1038864" data-name="Trazado 1038864" d="M143.044,26.217c-.571-9.149-11.116-14.147-19.3-7.785-8.179-6.357-18.728-1.369-19.3,7.785-.6,9.589,9.321,16.273,17.8,20.815a3.168,3.168,0,0,0,3,0C133.748,42.477,143.638,35.792,143.044,26.217Z" transform="translate(-92.063 -15.575)" fill="#fdaab8"/>
        <path id="Trazado_1038865" data-name="Trazado 1038865" d="M111.663,27.488a22.607,22.607,0,0,1,3.167-11.573,11.237,11.237,0,0,0-10.384,10.6c-.6,9.589,9.321,16.273,17.8,20.815a3.172,3.172,0,0,0,1.747.367,22.713,22.713,0,0,1-12.329-20.207Z" transform="translate(-92.064 -15.872)" fill="#fd8aa4"/>
        <path id="Trazado_1038866" data-name="Trazado 1038866" d="M39.181,238.3a18.45,18.45,0,1,1,0-25.715Z" transform="translate(-7.5 -182.585)" fill="#5f66a5"/>
        <path id="Trazado_1038867" data-name="Trazado 1038867" d="M256,212.581a18.45,18.45,0,1,1,0,25.715Z" transform="translate(-224.319 -182.585)" fill="#fd8aa4"/>
        <path id="Trazado_1038868" data-name="Trazado 1038868" d="M15.369,225.472a22.4,22.4,0,0,1,8.706-17.746,18.451,18.451,0,0,0,1.874,36.806h.014a22.424,22.424,0,0,1-10.594-19.06Z" transform="translate(-7.5 -183.229)" fill="#4c578c"/>
        <path id="Trazado_1038869" data-name="Trazado 1038869" d="M155.051,116.03c-.005,1.638-1.677,2.961-3.734,2.955s-3.721-1.34-3.716-2.978,1.677-2.961,3.734-2.955S155.057,114.391,155.051,116.03Z" transform="translate(-129.74 -100.625)" fill="#e6e5f7"/>
        <path id="Trazado_1038870" data-name="Trazado 1038870" d="M305.965,116.5c-.005,1.638,1.658,2.971,3.716,2.978s3.729-1.316,3.734-2.955-1.658-2.972-3.716-2.978S305.97,114.864,305.965,116.5Z" transform="translate(-267.914 -101.057)" fill="#e6e5f7"/>
        <path id="Trazado_1038871" data-name="Trazado 1038871" d="M238.506,104.8c.006-1.856-1.338-2.035-3-2.04s-3,.165-3.01,2.021a3.022,3.022,0,1,0,6.006.019Z" transform="translate(-203.815 -91.648)" fill="#303646"/>
        <path id="Trazado_1038872" data-name="Trazado 1038872" d="M225.509,263.713a18.391,18.391,0,0,1-5.218,12.857,18.45,18.45,0,0,1,0-25.715A18.394,18.394,0,0,1,225.509,263.713Z" transform="translate(-188.61 -220.859)" fill="#9296d6"/>
      </g>
      <g id="Grupo_1179181" data-name="Grupo 1179181" transform="translate(0 8.061)">
        <path id="Trazado_1038873" data-name="Trazado 1038873" d="M6.2,64.792a.956.956,0,0,0,.084-1.35A17.493,17.493,0,0,1,31.3,39.05a19.412,19.412,0,0,0,0,25.649A17.5,17.5,0,0,1,8.954,65.9.956.956,0,1,0,7.81,67.435,19.409,19.409,0,0,0,32.637,66.07a19.406,19.406,0,0,0,27.284-27.58.956.956,0,1,0-1.385,1.319A17.494,17.494,0,0,1,33.97,64.7a19.409,19.409,0,0,0,0-25.649,17.493,17.493,0,0,1,21.8-1.6.956.956,0,1,0,1.084-1.576,19.273,19.273,0,0,0-9.621-3.358c4.037-4.065,5.94-8.4,5.66-12.914A12.071,12.071,0,0,0,45.737,9.17a13.108,13.108,0,0,0-13.1,1.517,13.109,13.109,0,0,0-13.1-1.515A12.069,12.069,0,0,0,12.384,19.6c-.28,4.514,1.622,8.85,5.658,12.914A19.4,19.4,0,0,0,4.85,64.707a.956.956,0,0,0,1.35.084ZM36.9,51.875a17.412,17.412,0,0,1-4.262,11.442,17.495,17.495,0,0,1,0-22.885A17.466,17.466,0,0,1,36.9,51.875ZM14.293,19.722a10.185,10.185,0,0,1,6.031-8.807,11.328,11.328,0,0,1,11.727,1.717.956.956,0,0,0,1.174,0A11.328,11.328,0,0,1,44.95,10.913a10.188,10.188,0,0,1,6.033,8.808c.279,4.493-1.862,8.682-6.544,12.8a19.212,19.212,0,0,0-11.8,5.158,19.219,19.219,0,0,0-11.8-5.158c-4.681-4.116-6.821-8.3-6.542-12.8Z" transform="translate(0 -8.061)"/>
        <path id="Trazado_1038874" data-name="Trazado 1038874" d="M49.162,339.4v-1.53a.956.956,0,1,0-1.912,0v1.53a.956.956,0,1,0,1.912,0Z" transform="translate(-41.226 -294.987)"/>
        <path id="Trazado_1038875" data-name="Trazado 1038875" d="M174.079,339.4v-1.53a.956.956,0,1,0-1.912,0v1.53a.956.956,0,1,0,1.912,0Z" transform="translate(-150.218 -294.987)"/>
        <path id="Trazado_1038876" data-name="Trazado 1038876" d="M96.3,351.425a3.741,3.741,0,0,0,2.82-1.284.956.956,0,1,0-1.442-1.256,1.826,1.826,0,0,1-2.757,0,.956.956,0,0,0-1.442,1.256A3.741,3.741,0,0,0,96.3,351.425Z" transform="translate(-81.353 -305.147)"/>
        <path id="Trazado_1038877" data-name="Trazado 1038877" d="M450.714,340.354a.956.956,0,0,0,.956-.956v-1.53a.956.956,0,1,0-1.912,0v1.53A.956.956,0,0,0,450.714,340.354Z" transform="translate(-392.419 -294.987)"/>
        <path id="Trazado_1038878" data-name="Trazado 1038878" d="M324.841,337.868v1.53a.956.956,0,1,0,1.912,0v-1.53a.956.956,0,1,0-1.912,0Z" transform="translate(-283.427 -294.987)"/>
        <path id="Trazado_1038879" data-name="Trazado 1038879" d="M375.265,348.884a1.826,1.826,0,0,1-2.757,0,.956.956,0,1,0-1.442,1.256,3.739,3.739,0,0,0,5.64,0,.956.956,0,1,0-1.441-1.256Z" transform="translate(-323.554 -305.147)"/>
        <path id="Trazado_1038880" data-name="Trazado 1038880" d="M228.951,102.584h.012a4.15,4.15,0,0,0,3.961-4.3c.009-2.987-2.765-3-3.95-3-2.283-.008-3.961.555-3.969,2.974a4.15,4.15,0,0,0,3.946,4.329Zm-1.675-5.18a4.562,4.562,0,0,1,1.692-.21c1.964.006,2.046.336,2.044,1.081a2.258,2.258,0,0,1-2.049,2.4h-.005a2.257,2.257,0,0,1-2.039-2.411C226.919,97.584,227.142,97.471,227.276,97.4Z" transform="translate(-196.319 -84.162)"/>
        <path id="Trazado_1038881" data-name="Trazado 1038881" d="M173.477,93.344h0a.956.956,0,0,0,.956-.953.818.818,0,0,1,.817-.814h0a.818.818,0,0,1,.814.819.956.956,0,0,0,.953.959h0a.956.956,0,0,0,.956-.953,2.732,2.732,0,0,0-2.721-2.738h-.009a2.732,2.732,0,0,0-2.729,2.72A.956.956,0,0,0,173.477,93.344Z" transform="translate(-150.529 -79.26)"/>
        <path id="Trazado_1038882" data-name="Trazado 1038882" d="M297.785,93.733h0a.956.956,0,0,0,.956-.953.817.817,0,1,1,1.633,0,.956.956,0,0,0,.953.959h0a.956.956,0,0,0,.956-.953,2.728,2.728,0,0,0-2.72-2.738h-.009a2.732,2.732,0,0,0-2.729,2.721A.956.956,0,0,0,297.785,93.733Z" transform="translate(-258.989 -79.6)"/>
      </g>
    </g>
  </g>
</svg>
