<svg xmlns="http://www.w3.org/2000/svg" xmlns:xlink="http://www.w3.org/1999/xlink" width="113" height="113" viewBox="0 0 113 113">
  <defs>
    <filter id="Trazado_982547" x="0" y="0" width="113" height="113" filterUnits="userSpaceOnUse">
      <feOffset dy="3" input="SourceAlpha"/>
      <feGaussianBlur stdDeviation="3" result="blur"/>
      <feFlood flood-opacity="0.161"/>
      <feComposite operator="in" in2="blur"/>
      <feComposite in="SourceGraphic"/>
    </filter>
  </defs>
  <g id="Grupo_1179196" data-name="Grupo 1179196" transform="translate(-901 -3003)">
    <g id="Grupo_1175138" data-name="Grupo 1175138" transform="translate(910 3009)">
      <g id="Grupo_1172010" data-name="Grupo 1172010">
        <g id="Grupo_1171046" data-name="Grupo 1171046">
          <g id="Grupo_1148525" data-name="Grupo 1148525">
            <g transform="matrix(1, 0, 0, 1, -9, -6)" filter="url(#Trazado_982547)">
              <g id="Trazado_982547-2" data-name="Trazado 982547" transform="translate(9 6)" fill="#effbfe">
                <path d="M 47.5 93.5 C 41.28937149047852 93.5 35.26533508300781 92.28397369384766 29.59518623352051 89.88570404052734 C 24.11771965026855 87.56893157958984 19.19813346862793 84.25196075439453 14.97309303283691 80.02691650390625 C 10.74804019927979 75.80186462402344 7.431066513061523 70.88229370117188 5.114293098449707 65.40481567382812 C 2.716026782989502 59.73468017578125 1.5 53.71062850952148 1.5 47.5 C 1.5 41.28937149047852 2.716026782989502 35.26533508300781 5.114293098449707 29.59518623352051 C 7.431066513061523 24.11771965026855 10.74804019927979 19.19813346862793 14.97309303283691 14.97309303283691 C 19.19813346862793 10.74804019927979 24.11771965026855 7.431066513061523 29.59518623352051 5.114293098449707 C 35.26533508300781 2.716026782989502 41.28937149047852 1.5 47.5 1.5 C 53.71062850952148 1.5 59.73468017578125 2.716026782989502 65.40481567382812 5.114293098449707 C 70.88229370117188 7.431066513061523 75.80186462402344 10.74804019927979 80.02691650390625 14.97309303283691 C 84.25196075439453 19.19813346862793 87.56893157958984 24.11771965026855 89.88570404052734 29.59518623352051 C 92.28397369384766 35.26533508300781 93.5 41.28937149047852 93.5 47.5 C 93.5 53.71062850952148 92.28397369384766 59.73468017578125 89.88570404052734 65.40481567382812 C 87.56893157958984 70.88229370117188 84.25196075439453 75.80186462402344 80.02691650390625 80.02691650390625 C 75.80186462402344 84.25196075439453 70.88229370117188 87.56893157958984 65.40481567382812 89.88570404052734 C 59.73468017578125 92.28397369384766 53.71062850952148 93.5 47.5 93.5 Z" stroke="none"/>
                <path d="M 47.5 3 C 41.49121475219727 3 35.66376876831055 4.176155090332031 30.17950439453125 6.495796203613281 C 24.88084411621094 8.736953735351562 20.12152099609375 11.94598388671875 16.03375244140625 16.03375244140625 C 11.94598388671875 20.12152099609375 8.736953735351562 24.88084411621094 6.495796203613281 30.17950439453125 C 4.176155090332031 35.66376876831055 3 41.49121475219727 3 47.5 C 3 53.50878524780273 4.176155090332031 59.33623123168945 6.495796203613281 64.82049560546875 C 8.736953735351562 70.11915588378906 11.94598388671875 74.87847900390625 16.03375244140625 78.96624755859375 C 20.12152099609375 83.05401611328125 24.88084411621094 86.26304626464844 30.17950439453125 88.50419616699219 C 35.66376876831055 90.82384490966797 41.49121475219727 92 47.5 92 C 53.50878524780273 92 59.33623123168945 90.82384490966797 64.82049560546875 88.50419616699219 C 70.11915588378906 86.26304626464844 74.87847900390625 83.05401611328125 78.96624755859375 78.96624755859375 C 83.05401611328125 74.87847900390625 86.26304626464844 70.11915588378906 88.50419616699219 64.82049560546875 C 90.82384490966797 59.33623123168945 92 53.50878524780273 92 47.5 C 92 41.49121475219727 90.82384490966797 35.66376876831055 88.50419616699219 30.17950439453125 C 86.26304626464844 24.88084411621094 83.05401611328125 20.12152099609375 78.96624755859375 16.03375244140625 C 74.87847900390625 11.94598388671875 70.11915588378906 8.736953735351562 64.82049560546875 6.495796203613281 C 59.33623123168945 4.176155090332031 53.50878524780273 3 47.5 3 M 47.5 0 C 73.7335205078125 0 95 21.2664794921875 95 47.5 C 95 73.7335205078125 73.7335205078125 95 47.5 95 C 21.2664794921875 95 0 73.7335205078125 0 47.5 C 0 21.2664794921875 21.2664794921875 0 47.5 0 Z" stroke="none" fill="#397b86"/>
              </g>
            </g>
          </g>
        </g>
      </g>
    </g>
    <g id="international-childrens-day" transform="translate(925.201 3020)">
      <g id="Grupo_1179194" data-name="Grupo 1179194" transform="translate(0.99 0.99)">
        <g id="Grupo_1179183" data-name="Grupo 1179183" transform="translate(12.873 14.721)">
          <path id="Trazado_1038883" data-name="Trazado 1038883" d="M186.888,135.9l-10.554-12.552a19.731,19.731,0,0,0-4.825-1.6l-.013,0-17.227,6.313V156l17.229,4.9a19.784,19.784,0,0,0,4.715-1.543l11.379-19.383A19.843,19.843,0,0,0,186.888,135.9Z" transform="translate(-147.764 -121.385)" fill="#b9f0ff"/>
          <path id="Trazado_1038884" data-name="Trazado 1038884" d="M124.937,274.1a20.041,20.041,0,0,0,3.8-.363,22.074,22.074,0,0,1-11.726-21.982l-12,1.934a20.212,20.212,0,0,0,.069,2.177A19.938,19.938,0,0,0,124.937,274.1Z" transform="translate(-105.001 -234.228)" fill="#7ce3ff"/>
          <path id="Trazado_1038885" data-name="Trazado 1038885" d="M321.394,133.891s0,2.576.012,2.928a2.7,2.7,0,0,0,.808,2.236l1.117.939a2.08,2.08,0,0,1-.265,3.436,1.591,1.591,0,0,0,.73,3.013h8.151A19.972,19.972,0,0,0,321.394,133.891Z" transform="translate(-292.824 -131.925)" fill="#70dcba"/>
          <path id="Trazado_1038886" data-name="Trazado 1038886" d="M198.229,138.5l1.289.564a2.163,2.163,0,0,1,1.075,1.077,1.574,1.574,0,0,0,1.5.9,1.634,1.634,0,0,0,1.5-1.617v-3.911a10.449,10.449,0,0,1,2.047-6.212,10.45,10.45,0,0,0,2.047-6.212V121.75l-.013,0-11.725,4.3v12.868A2.082,2.082,0,0,1,198.229,138.5Z" transform="translate(-183.94 -121.385)" fill="#70dcba"/>
          <path id="Trazado_1038887" data-name="Trazado 1038887" d="M124.936,119c-.1,0-.19,0-.285,0a19.933,19.933,0,0,0-13.9,33.94l3.623-5.082a2.935,2.935,0,0,0-.452-4.53l-.03-.019c-1.29-.835-1.03-2.645.044-3.719l3.042-3.042.022-.021,0,0a22.089,22.089,0,0,1,11.725-17.165A20.029,20.029,0,0,0,124.936,119Z" transform="translate(-105.001 -119)" fill="#18c08b"/>
          <path id="Trazado_1038888" data-name="Trazado 1038888" d="M300.381,259.756H289.388a5.176,5.176,0,0,0-5.181,5.173v2.029a6.593,6.593,0,0,0,1.931,4.663,6.606,6.606,0,0,1,1.933,4.72,4.855,4.855,0,0,0,.924,2.8,19.934,19.934,0,0,0,11.424-18.03C300.419,260.654,300.4,260.2,300.381,259.756Z" transform="translate(-260.547 -241.172)" fill="#70dcba"/>
        </g>
        <g id="Grupo_1179186" data-name="Grupo 1179186" transform="translate(0 40.269)">
          <g id="Grupo_1179184" data-name="Grupo 1179184" transform="translate(0)">
            <path id="Trazado_1038889" data-name="Trazado 1038889" d="M20.175,312.5,7.5,325.173l5.68,7.768a11.484,11.484,0,0,0,9.269,4.7,12.664,12.664,0,0,0,10.4-12.471Z" transform="translate(-7.5 -312.5)" fill="#ffddcf"/>
            <path id="Trazado_1038890" data-name="Trazado 1038890" d="M11.7,397.747l-2.1-1.636-2.1,1.634a12.683,12.683,0,0,0,14.95,12.472A12.8,12.8,0,0,1,11.7,397.747Z" transform="translate(-7.5 -385.072)" fill="#ffcbbe"/>
          </g>
          <g id="Grupo_1179185" data-name="Grupo 1179185">
            <path id="Trazado_1038891" data-name="Trazado 1038891" d="M155.885,355.821l-3.241,1.638-1,2.914a9.643,9.643,0,0,0,6.318,2.4A12.615,12.615,0,0,0,155.885,355.821Z" transform="translate(-132.613 -350.101)" fill="#ffb357"/>
            <path id="Trazado_1038892" data-name="Trazado 1038892" d="M64.143,320.421a16.8,16.8,0,0,1-2.585,1.384,12.7,12.7,0,0,0-1.735-1.114h-8.1a5.4,5.4,0,0,0-5.4,5.4v4.42l1.794,1.37H52.7a14.008,14.008,0,0,0,13.158-10.2A1.133,1.133,0,0,0,64.143,320.421Z" transform="translate(-41.197 -319.21)" fill="#ffce71"/>
            <path id="Trazado_1038893" data-name="Trazado 1038893" d="M22.275,312.673A12.7,12.7,0,0,0,10.99,316.44a12.627,12.627,0,0,0-3.49,8.733h6.92a3.458,3.458,0,0,1-.421-2.82,10.7,10.7,0,0,1,8.593-7.781l3.534-.591A12.572,12.572,0,0,0,22.275,312.673Z" transform="translate(-7.5 -312.5)" fill="#ffb357"/>
          </g>
        </g>
        <g id="Grupo_1179189" data-name="Grupo 1179189" transform="translate(37.143 31.897)">
          <g id="Grupo_1179187" data-name="Grupo 1179187" transform="translate(0 8.556)">
            <path id="Trazado_1038894" data-name="Trazado 1038894" d="M303.606,313.9h-4.22l-10.56,12.494,10.56,12.495h4.22a12.672,12.672,0,0,0,0-24.989Z" transform="translate(-288.825 -313.898)" fill="#ffd4bd"/>
            <path id="Trazado_1038895" data-name="Trazado 1038895" d="M293.028,379.317a12.712,12.712,0,0,1,.372-3.061l-2.3-1.4-1.906,1.4a12.677,12.677,0,0,0,14.412,15.538A12.651,12.651,0,0,1,293.028,379.317Z" transform="translate(-288.825 -366.805)" fill="#ffbf9d"/>
          </g>
          <path id="Trazado_1038896" data-name="Trazado 1038896" d="M435.649,253.651l-2.1-3.662a1.792,1.792,0,0,0-1.564-.894,1.746,1.746,0,0,0-.913.262,11.929,11.929,0,0,0-5.617,10.595h2.957a11.419,11.419,0,0,1,6.107-3.651,1.8,1.8,0,0,0,1.129-2.65Z" transform="translate(-407.416 -249.095)" fill="#d6948c"/>
          <path id="Trazado_1038897" data-name="Trazado 1038897" d="M402.879,282.13a3.118,3.118,0,1,0-.219,6.229c.073,0,.146,0,.219-.007a3.118,3.118,0,0,0,0-6.221Z" transform="translate(-384.924 -277.761)" fill="#ffb5c0"/>
          <circle id="Elipse_12413" data-name="Elipse 12413" cx="3.118" cy="3.118" r="3.118" transform="matrix(0.987, -0.16, 0.16, 0.987, 19.135, 8.025)" fill="#ffdbe0"/>
          <g id="Grupo_1179188" data-name="Grupo 1179188" transform="translate(0.008 7.749)">
            <path id="Trazado_1038898" data-name="Trazado 1038898" d="M344.1,320.526a13.278,13.278,0,0,0-3.747-5.64,1.655,1.655,0,0,0-1.118-.411h-.425a1.672,1.672,0,0,0-.855-1.287,13.264,13.264,0,0,0-2.593-1.095h-6.4l-5.569,6.657v3.032h.873a17.461,17.461,0,0,0,12.347-5.114l3.975,3.975a3.891,3.891,0,0,0,2.751,1.139h.462A1.222,1.222,0,0,0,344.1,320.526Z" transform="translate(-318.843 -311.525)" fill="#d6948c"/>
            <path id="Trazado_1038899" data-name="Trazado 1038899" d="M299.331,307.971a13.288,13.288,0,0,0-10.382,8.817,1.222,1.222,0,0,0,.3,1.256h4.2a12.44,12.44,0,0,1,10.205-9.453c.487-.069,1.085-.149,1.761-.236A13.4,13.4,0,0,0,299.331,307.971Z" transform="translate(-288.885 -307.787)" fill="#bd7669"/>
          </g>
        </g>
        <g id="Grupo_1179193" data-name="Grupo 1179193" transform="translate(19.038)">
          <g id="Grupo_1179190" data-name="Grupo 1179190">
            <path id="Trazado_1038900" data-name="Trazado 1038900" d="M213.913,22.405a2.918,2.918,0,0,0-2.466-1.793,2.92,2.92,0,0,0-3.677-3.677,2.92,2.92,0,0,0-4.8-1.99L191.9,17.921v8.521h19.313A2.922,2.922,0,0,0,213.913,22.405Z" transform="translate(-186.595 -13.354)" fill="#676fb2"/>
            <path id="Trazado_1038901" data-name="Trazado 1038901" d="M165.465,7.5a2.918,2.918,0,0,0-2.6,1.592,2.92,2.92,0,0,0-4.8,1.99,2.92,2.92,0,0,0-3.677,3.677,2.92,2.92,0,0,0,.231,5.83h12.873V9.978a3.248,3.248,0,0,0,.577-.886A2.919,2.919,0,0,0,165.465,7.5Z" transform="translate(-151.693 -7.5)" fill="#4c5699"/>
          </g>
          <g id="Grupo_1179191" data-name="Grupo 1179191" transform="translate(2.028 7.835)">
            <path id="Trazado_1038902" data-name="Trazado 1038902" d="M210.181,72.045l-5.2-5.2H189.811v13.39l7.447,5.019H200.5a11.756,11.756,0,0,0,9.685-13.211Z" transform="translate(-186.807 -66.847)" fill="#db9e82"/>
            <path id="Trazado_1038903" data-name="Trazado 1038903" d="M170.95,102.851a11.789,11.789,0,0,1,.243-2.389l-4.023.76a11.751,11.751,0,0,0,13.577,13.211A11.747,11.747,0,0,1,170.95,102.851Z" transform="translate(-167.057 -96.024)" fill="#c8866a"/>
          </g>
          <g id="Grupo_1179192" data-name="Grupo 1179192" transform="translate(1.896 2.313)">
            <path id="Trazado_1038904" data-name="Trazado 1038904" d="M217.864,35.088a12.348,12.348,0,0,0-9.828-8.793h-2.974l-6.679,5.447v4.345a7.563,7.563,0,0,0,2.042-1.454,8.1,8.1,0,0,1,11.131,0,7.559,7.559,0,0,0,5.346,2.214h.72a11.693,11.693,0,0,0-.248-1.269Z" transform="translate(-194.114 -26.126)" fill="#676fb2"/>
            <path id="Trazado_1038905" data-name="Trazado 1038905" d="M177.928,25.016a12.371,12.371,0,0,0-11.876,8.959l.493.493a11.685,11.685,0,0,0-.248,1.269h.719a7.554,7.554,0,0,0,3.3-.76,11.765,11.765,0,0,1,8.152-8.87,3.258,3.258,0,0,0,1.478-.926A12.484,12.484,0,0,0,177.928,25.016Z" transform="translate(-166.052 -25.016)" fill="#4c5699"/>
          </g>
        </g>
      </g>
      <g id="Grupo_1179195" data-name="Grupo 1179195" transform="translate(0 0)">
        <path id="Trazado_1038906" data-name="Trazado 1038906" d="M325.783,413.734a.99.99,0,0,0-.99.99v1.584a.99.99,0,0,0,1.98,0v-1.584A.99.99,0,0,0,325.783,413.734Z" transform="translate(-281.911 -359.11)"/>
        <path id="Trazado_1038907" data-name="Trazado 1038907" d="M430.783,413.734a.99.99,0,0,0-.99.99v1.584a.99.99,0,0,0,1.98,0v-1.584A.99.99,0,0,0,430.783,413.734Z" transform="translate(-373.048 -359.11)"/>
        <path id="Trazado_1038908" data-name="Trazado 1038908" d="M366.816,425.6a.99.99,0,0,0-1.4.1,1.891,1.891,0,0,1-2.855,0,.99.99,0,1,0-1.493,1.3,3.871,3.871,0,0,0,5.84,0A.99.99,0,0,0,366.816,425.6Z" transform="translate(-313.188 -369.199)"/>
        <path id="Trazado_1038909" data-name="Trazado 1038909" d="M196.99,119.856a.99.99,0,0,0-.99.99v1.584a.99.99,0,0,0,1.98,0v-1.584A.99.99,0,0,0,196.99,119.856Z" transform="translate(-170.123 -104.032)"/>
        <path id="Trazado_1038910" data-name="Trazado 1038910" d="M301.99,119.856a.99.99,0,0,0-.99.99v1.584a.99.99,0,1,0,1.98,0v-1.584A.99.99,0,0,0,301.99,119.856Z" transform="translate(-261.26 -104.032)"/>
        <path id="Trazado_1038911" data-name="Trazado 1038911" d="M238.024,131.724a.99.99,0,0,0-1.4.1,1.89,1.89,0,0,1-2.854,0,.99.99,0,1,0-1.493,1.3,3.871,3.871,0,0,0,5.841,0A.99.99,0,0,0,238.024,131.724Z" transform="translate(-201.4 -114.121)"/>
        <path id="Trazado_1038912" data-name="Trazado 1038912" d="M45.48,426.309v-1.584a.99.99,0,1,0-1.98,0v1.584a.99.99,0,0,0,1.98,0Z" transform="translate(-37.757 -367.789)"/>
        <path id="Trazado_1038913" data-name="Trazado 1038913" d="M150.48,426.309v-1.584a.99.99,0,1,0-1.98,0v1.584a.99.99,0,0,0,1.98,0Z" transform="translate(-128.894 -367.789)"/>
        <path id="Trazado_1038914" data-name="Trazado 1038914" d="M82.7,438.329a3.873,3.873,0,0,0,2.92-1.33.99.99,0,1,0-1.493-1.3,1.891,1.891,0,0,1-2.855,0,.99.99,0,1,0-1.493,1.3A3.874,3.874,0,0,0,82.7,438.329Z" transform="translate(-69.033 -377.879)"/>
        <path id="Trazado_1038915" data-name="Trazado 1038915" d="M67.225,36.951l-2.1-3.665a2.782,2.782,0,0,0-3.853-.981,12.53,12.53,0,0,0-4.158,4.157,4.044,4.044,0,0,0-2.4-.041A20.881,20.881,0,0,0,51.85,25.062a.99.99,0,1,0-1.708,1,18.882,18.882,0,0,1,1.484,3.174H44.835a.6.6,0,0,1-.269-1.147,3.07,3.07,0,0,0,.441-5.071l-.527-.443a12.636,12.636,0,0,0,.994-1.847,19.024,19.024,0,0,1,2.455,2.3.99.99,0,1,0,1.477-1.32,21.015,21.015,0,0,0-3.258-2.952,12.64,12.64,0,0,0,.342-4.148,3.916,3.916,0,0,0-.478-7.117,3.915,3.915,0,0,0-4.052-4.052,3.916,3.916,0,0,0-5.294-2.193,3.913,3.913,0,0,0-5.731,0A3.916,3.916,0,0,0,25.64,3.441a3.915,3.915,0,0,0-4.052,4.052,3.918,3.918,0,0,0-.477,7.117,12.672,12.672,0,0,0,.339,4.145,20.949,20.949,0,0,0-8.061,21.517A13.68,13.68,0,0,0,0,53.932a13.517,13.517,0,0,0,1.508,6.247.99.99,0,0,0,1.761-.907,11.517,11.517,0,0,1-1.247-4.35H12.511a14.769,14.769,0,0,0,7.452-2.166A10.607,10.607,0,0,0,25.3,54.869,11.678,11.678,0,0,1,5.416,62.207a.99.99,0,0,0-1.4,1.4A13.658,13.658,0,0,0,27.23,55.517a20.949,20.949,0,0,0,10.113.756,13.661,13.661,0,1,0,26.825-5.159,2.222,2.222,0,0,0,.17-1.8,14.248,14.248,0,0,0-1.12-2.475,4.109,4.109,0,0,0,1.161-5.479,10.311,10.311,0,0,1,1.074-.3,2.789,2.789,0,0,0,1.771-4.108ZM59,44.738a12.327,12.327,0,0,1,3.446,5.156,2.888,2.888,0,0,1-1.85-.84L57.318,45.78l1.2-1.2a.677.677,0,0,1,.475.161Zm-2.156-6.249a2.053,2.053,0,0,1,1.145,2.06,4.126,4.126,0,0,0-.578.708,14.121,14.121,0,0,0-3.628-1.3,2.1,2.1,0,0,1,3.06-1.47Zm-1.623,6.59A16.363,16.363,0,0,1,43.571,49.9h-4.41a12.336,12.336,0,0,1,17.616-6.738.681.681,0,0,1,.191.165Zm-2.606-7.215a4.092,4.092,0,0,0-.792,1.817,14.314,14.314,0,0,0-12.126,5.253,5.56,5.56,0,0,1-1.18-3.439V39.469A4.185,4.185,0,0,1,42.7,35.285H52.738a18.489,18.489,0,0,1-.127,2.58ZM33.8,26.405h-.015A10.731,10.731,0,0,1,23.065,15.012a8.563,8.563,0,0,0,5.868-2.5A6.623,6.623,0,0,1,33.8,10.586a6.623,6.623,0,0,1,4.865,1.924,8.519,8.519,0,0,0,5.869,2.5A10.754,10.754,0,0,1,33.8,26.405ZM22.8,9.236a.991.991,0,0,0,.863-1.291,1.929,1.929,0,0,1,2.43-2.43.991.991,0,0,0,1.291-.863,1.928,1.928,0,0,1,3.175-1.315.991.991,0,0,0,1.523-.3,1.929,1.929,0,0,1,3.437,0,.99.99,0,0,0,1.523.3,1.929,1.929,0,0,1,3.175,1.315.991.991,0,0,0,1.291.863,1.929,1.929,0,0,1,2.43,2.43A.991.991,0,0,0,44.8,9.236a1.931,1.931,0,0,1,.317,3.8H44.71a6.527,6.527,0,0,1-4.646-1.924,8.538,8.538,0,0,0-6.266-2.5,8.537,8.537,0,0,0-6.266,2.5,6.573,6.573,0,0,1-4.646,1.924h-.407a1.931,1.931,0,0,1,.317-3.8ZM22.123,20.73a12.724,12.724,0,0,0,10.5,7.6,11.432,11.432,0,0,0-.1,1.51v3.911a.648.648,0,0,1-.555.628.589.589,0,0,1-.558-.334,3.16,3.16,0,0,0-1.573-1.561l-1.289-.564a3.06,3.06,0,0,0-3.355.594l0,0-.048.046L22.1,35.605c-1.535,1.535-1.689,4.081.131,5.259a1.913,1.913,0,0,1,.778,1.019,15.858,15.858,0,0,1-1.541.833,13.491,13.491,0,0,0-6.016-2.329A18.963,18.963,0,0,1,22.123,20.73Zm-9.64,32.211H2.023A11.7,11.7,0,0,1,13.665,42.249a11.581,11.581,0,0,1,5.548,1.4,22.437,22.437,0,0,1-3.548.948.99.99,0,0,0,.348,1.95,24.2,24.2,0,0,0,8.547-3.275.144.144,0,0,1,.138.188A13.142,13.142,0,0,1,23.4,46.479a12.891,12.891,0,0,1-10.921,6.463Zm11.712-4.072a11.493,11.493,0,0,1,1.113,4.008,8.6,8.6,0,0,1-3.639-1.339A15.1,15.1,0,0,0,24.195,48.869Zm13.242,2.242a13.478,13.478,0,0,0-.286,3.184,18.985,18.985,0,0,1-9.826-.841,13.487,13.487,0,0,0-1.916-6.505A15.062,15.062,0,0,0,26.6,44,2.117,2.117,0,0,0,24.91,41.32a3.886,3.886,0,0,0-1.6-2.118c-.729-.472-.421-1.585.191-2.2l3.056-3.054a1.089,1.089,0,0,1,1.2-.216l1.289.564a1.183,1.183,0,0,1,.576.593,2.556,2.556,0,0,0,2.442,1.466A2.615,2.615,0,0,0,34.5,33.752V29.841a9.458,9.458,0,0,1,.119-1.485,12.648,12.648,0,0,0,8.651-4.2l.463.389a1.092,1.092,0,0,1-.093,1.8,2.584,2.584,0,0,0,1.192,4.879H52.22A18.914,18.914,0,0,1,52.6,33.3H42.7a6.164,6.164,0,0,0-6.172,6.164V41.5a7.529,7.529,0,0,0,1.988,5.118,14.265,14.265,0,0,0-1.253,2.7A2.22,2.22,0,0,0,37.437,51.111ZM52.75,65.456A11.684,11.684,0,0,1,39.3,51.884h4.267A18.316,18.316,0,0,0,55.9,47.162l3.293,3.293A4.865,4.865,0,0,0,62.3,51.872,11.68,11.68,0,0,1,52.75,65.456ZM62.12,45.2a14.254,14.254,0,0,0-1.807-1.937,2.6,2.6,0,0,0-1.4-.636A2.126,2.126,0,1,1,62.12,45.2Zm2.9-6.068a12.332,12.332,0,0,0-2.237.735,4.083,4.083,0,0,0-2.9-.372A4.017,4.017,0,0,0,58.8,37.5a10.387,10.387,0,0,1,3.507-3.5.8.8,0,0,1,1.1.28l2.1,3.665a.8.8,0,0,1-.489,1.188Z" transform="translate(0 0)"/>
      </g>
    </g>
  </g>
</svg>
